<?xml version="1.0" encoding="UTF-8"?>
<svg width="120px" height="120px" viewBox="0 0 120 120" version="1.1" xmlns="http://www.w3.org/2000/svg" xmlns:xlink="http://www.w3.org/1999/xlink">
    <title>EmptyPage/05 SearchNoResult</title>
    <g id="页面-1" stroke="none" stroke-width="1" fill="none" fill-rule="evenodd">
        <g id="#illustration_资源备注" transform="translate(-492, -60)">
            <g id="EmptyPage/05-SearchNoResult" transform="translate(492, 60)">
                <rect id="矩形" stroke="#979797" fill="#D8D8D8" opacity="0" x="0.5" y="0.5" width="119" height="119"></rect>
                <g id="编组" transform="translate(5.603, 15.4449)" fill="#A1A7B3">
                    <path d="M66.7143344,81.0702073 C68.2649473,81.0866452 72.6681798,81.6808811 74.6068973,75.3444782 C81.0661765,76.7308358 85.146966,78.7726474 85.146966,81.0491274 C85.146966,85.2304649 71.379722,88.6201088 54.396966,88.6201088 C37.4142099,88.6201088 23.646966,85.2304649 23.646966,81.0491274 L23.647966,81.0694782 Z" id="shadow" opacity="0.15"></path>
                    <g id="名单">
                        <path d="M84.0241071,0 C89.0149241,0 92.5285714,4.30386278 92.5285714,9.09542149 C92.5285714,9.19565908 92.5269051,9.29549964 92.5235992,9.39491591 L92.5285714,18.3696429 L75.5196429,18.3696429 L75.5196429,9.39458992 C75.5213092,9.29549964 75.5196429,9.19565908 75.5196429,9.09542149 C75.5196429,4.30386278 79.0332902,0 84.0241071,0 Z" id="形状结合" opacity="0.600000024"></path>
                        <path d="M84.1509614,0.151662166 C80.7845064,0.151662166 78.5787877,1.9129334 77.4639056,3.45748198 C76.0543393,5.41028368 75.5660069,7.2121116 75.5428249,8.86753381 C75.5273702,9.97114862 75.5273702,11.0616699 75.5428249,12.1390977 L75.5427573,35.9986873 C67.270286,37.7865633 61.071966,45.1463034 61.071966,53.9537388 C61.071966,62.6792511 67.155514,69.9838746 75.312458,71.8574572 C74.1066102,81.8796665 68.5060753,81.0892014 66.7143344,81.0702073 L19.7303571,81.0698756 L19.73,81.0486622 L7.68041323,81.0491274 C6.68969057,81.0491274 3.5324209,78.7968545 1.73212301,75.2280618 C0.531924409,72.8488666 -0.0445554911,69.3182271 0.00268330572,64.6361432 L19.73,64.6356622 L19.7303571,10.0491483 C19.7303571,5.01467171 22.1325245,1.74728949 26.9368592,0.247001691 L27.2535911,0.151662166 L84.1509614,0.151662166 Z" id="形状结合" opacity="0.300000012"></path>
                        <path d="M0.00268330572,64.6361432 L57.126472,64.6361432 C56.7495391,70.341418 57.4782663,74.3892292 59.3126537,76.7795768 C61.147041,79.1699244 63.8630927,80.5931079 67.4608087,81.0491274 C28.2676935,81.0491274 8.340895,81.0491274 7.68041323,81.0491274 C6.68969057,81.0491274 3.5324209,78.7968545 1.73212301,75.2280618 C0.531924409,72.8488666 -0.0445554911,69.3182271 0.00268330572,64.6361432 Z" id="矩形" opacity="0.400000006"></path>
                    </g>
                    <g id="放大镜" transform="translate(61.072, 35.5819)">
                        <path d="M31.8552859,30.8429902 L35.4226083,34.4104671 C36.3682462,34.0276822 37.4921636,34.2196849 38.2589537,34.986475 L47.5001621,44.2276834 C48.5230917,45.250613 48.5230917,46.9091095 47.5001621,47.932039 L47.247423,48.1847781 C46.2244935,49.2077077 44.5659969,49.2077077 43.5430674,48.1847781 L34.301859,38.9435698 C33.5352083,38.176919 33.343136,37.053271 33.7256423,36.1077402 L30.1144064,32.4948519 C30.7300227,31.9824198 31.3116118,31.4305033 31.8552859,30.8429902 Z" id="形状结合" opacity="0.600000024"></path>
                        <path d="M18.3696429,0 C28.5149165,0 36.7392857,8.22436925 36.7392857,18.3696429 C36.7392857,28.5149165 28.5149165,36.7392857 18.3696429,36.7392857 C8.22436925,36.7392857 0,28.5149165 0,18.3696429 C0,8.22436925 8.22436925,0 18.3696429,0 Z M18.3696429,4.08214286 C10.4788745,4.08214286 4.08214286,10.4788745 4.08214286,18.3696429 C4.08214286,26.2604112 10.4788745,32.6571429 18.3696429,32.6571429 C26.2604112,32.6571429 32.6571429,26.2604112 32.6571429,18.3696429 C32.6571429,10.4788745 26.2604112,4.08214286 18.3696429,4.08214286 Z" id="形状结合" opacity="0.5"></path>
                        <circle id="椭圆形" opacity="0.200000003" cx="18.3696429" cy="18.3696429" r="14.2875"></circle>
                        <rect id="矩形" opacity="0.200000003" transform="translate(27.039, 19.1565) rotate(-255) translate(-27.039, -19.1565)" x="22.9568713" y="18.4761844" width="8.16428571" height="1.36071429" rx="0.680357143"></rect>
                        <rect id="矩形备份" opacity="0.200000003" transform="translate(24.9979, 14.394) rotate(-255) translate(-24.9979, -14.394)" x="22.9568713" y="13.7136844" width="4.08214286" height="1.36071429" rx="0.680357143"></rect>
                    </g>
                </g>
                <path d="M52.7160161,47.187668 C53.441911,46.9931651 54.188041,47.4239434 54.3825439,48.1498383 L56.2216997,55.0136613 C56.4162027,55.7395562 55.9854244,56.4856861 55.2595294,56.6801891 C54.5336345,56.8746921 53.7875046,56.4439138 53.5930016,55.7180188 L51.7538458,48.8541959 C51.5593428,48.1283009 51.9901211,47.382171 52.7160161,47.187668 Z M63.0592013,46.2642857 C63.8107031,46.2642857 64.4199156,46.8734983 64.4199156,47.625 L64.4199156,54.7309524 C64.4199156,55.4824541 63.8107031,56.0916667 63.0592013,56.0916667 C62.3076996,56.0916667 61.6984871,55.4824541 61.6984871,54.7309524 L61.6984871,47.625 C61.6984871,46.8734983 62.3076996,46.2642857 63.0592013,46.2642857 Z M72.6464342,47.187668 C73.3723292,47.382171 73.8031075,48.1283009 73.6086045,48.8541959 L71.7694487,55.7180188 C71.5749457,56.4439138 70.8288158,56.8746921 70.1029209,56.6801891 C69.3770259,56.4856861 68.9462476,55.7395562 69.1407506,55.0136613 L70.9799064,48.1498383 C71.1744093,47.4239434 71.9205393,46.9931651 72.6464342,47.187668 Z" id="形状结合" fill="#A1A7B3" opacity="0.300000012" transform="translate(62.6812, 51.4956) rotate(-53) translate(-62.6812, -51.4956)"></path>
            </g>
        </g>
    </g>
</svg>