<?xml version="1.0" encoding="UTF-8"?>
<svg width="28px" height="28px" viewBox="0 0 28 28" version="1.1" xmlns="http://www.w3.org/2000/svg" xmlns:xlink="http://www.w3.org/1999/xlink">
    <title>Public/ic_public_privacy</title>
    <defs>
        <path d="M12.4730427,1.51791985 C13.4373319,1.05038568 14.5626681,1.05038568 15.5269573,1.51791985 L23.020218,5.15101593 C23.9252672,5.58982767 24.5,6.50720998 24.5,7.51302797 L24.5,13.125 C24.5,19.2685466 20.5869096,24.6284626 14.8760339,26.5969242 C14.8064554,26.6209069 14.5144498,26.7120587 14.0000171,26.8703795 L13.8376283,26.8203879 C13.4263993,26.6936568 13.1896312,26.6195628 13.1273241,26.5981061 L12.8175243,26.4874521 C7.27368083,24.4356661 3.5,19.1583545 3.5,13.125 L3.5,7.51302797 C3.5,6.50720998 4.07473284,5.58982767 4.97978205,5.15101593 Z M14.7634786,3.09259453 C14.281334,2.85882745 13.718666,2.85882745 13.2365214,3.09259453 L5.74326068,6.72569062 C5.44157761,6.8719612 5.25,7.17775531 5.25,7.51302797 L5.25,13.125 C5.25,15.5232678 5.92967034,17.7852228 7.12582464,19.7094804 C7.19620345,19.3338323 7.29349578,19.0191076 7.41897182,18.7638889 C7.89867893,17.7881631 9.14511358,14.875 14.0020995,14.875 C18.8590855,14.875 20.1267492,17.7881631 20.5852272,18.7638889 C20.7061387,19.0212109 20.8006148,19.3390237 20.8686555,19.7173274 C22.0409231,17.8357374 22.7185798,15.630015 22.7489344,13.2894061 L22.75,13.125 L22.75,7.51302797 C22.75,7.17775531 22.5584224,6.8719612 22.2567393,6.72569062 Z M13.8541667,7.14 C15.790385,7.14 17.36,8.70961505 17.36,10.6458333 C17.36,12.5820516 15.790385,14.1516667 13.8541667,14.1516667 C11.9179484,14.1516667 10.3483333,12.5820516 10.3483333,10.6458333 C10.3483333,8.70961505 11.9179484,7.14 13.8541667,7.14 Z" id="path-1"></path>
    </defs>
    <g id="页面-1" stroke="none" stroke-width="1" fill="none" fill-rule="evenodd">
        <g id="#illustration_资源备注备份" transform="translate(-371, -51)">
            <g id="Public/ic_public_privacy" transform="translate(371, 51)">
                <rect id="矩形" fill="#D8D8D8" opacity="0" x="0" y="0" width="28" height="28"></rect>
                <mask id="mask-2" fill="white">
                    <use xlink:href="#path-1"></use>
                </mask>
                <use id="形状结合" fill="#000000" fill-rule="nonzero" xlink:href="#path-1"></use>
            </g>
        </g>
    </g>
</svg>