<?xml version="1.0" encoding="UTF-8"?>
<svg width="14px" height="14px" viewBox="0 0 14 14" version="1.1" xmlns="http://www.w3.org/2000/svg" xmlns:xlink="http://www.w3.org/1999/xlink">
    <title>Public/ic_public_privacy</title>
    <defs>
        <path d="M6.23652136,0.758959923 C6.71866597,0.52519284 7.28133403,0.52519284 7.76347864,0.758959923 L11.510109,2.57550797 C11.9626336,2.79491384 12.25,3.25360499 12.25,3.75651398 L12.25,6.5625 C12.25,9.63427329 10.2934548,12.3142313 7.43801693,13.2984621 C7.4298632,13.3012726 7.41560033,13.3059279 7.39517086,13.3122471 C7.13591183,13.3945685 6.85748012,13.3943042 6.59837784,13.3114908 C6.58245532,13.3053306 6.57078112,13.3015047 6.56366204,13.2990531 C3.70737046,12.3154314 1.75,9.63504162 1.75,6.5625 L1.75,3.75651398 C1.75,3.25360499 2.03736642,2.79491384 2.48989102,2.57550797 Z M7.38173932,1.54629727 C7.14066701,1.42941373 6.85933299,1.42941373 6.61826068,1.54629727 L2.87163034,3.36284531 C2.72078881,3.4359806 2.625,3.58887765 2.625,3.75651398 L2.625,6.5625 C2.625,7.76240507 2.96527241,8.89406606 3.56406653,9.85659627 C3.59797529,9.66732526 3.64666634,9.50971965 3.70948591,9.38194444 C3.94933946,8.89408153 4.57255679,7.4375 7.00104976,7.4375 C9.42954274,7.4375 10.0633746,8.89408153 10.2926136,9.38194444 C10.3528515,9.51014174 10.3999667,9.66836685 10.4339594,9.85661979 C11.0204621,8.91786684 11.3592899,7.81500653 11.3744672,6.64470304 L11.375,6.5625 L11.375,3.75651398 C11.375,3.58887765 11.2792112,3.4359806 11.1283697,3.36284531 Z M6.92708333,3.57 C7.89519248,3.57 8.68,4.35480752 8.68,5.32291667 C8.68,6.29102581 7.89519248,7.07583333 6.92708333,7.07583333 C5.95897419,7.07583333 5.17416667,6.29102581 5.17416667,5.32291667 C5.17416667,4.35480752 5.95897419,3.57 6.92708333,3.57 Z" id="path-1"></path>
    </defs>
    <g id="页面-1" stroke="none" stroke-width="1" fill="none" fill-rule="evenodd">
        <g id="#illustration_资源备注" transform="translate(-49, -108)">
            <g id="Public/ic_public_privacy" transform="translate(49, 108)">
                <rect id="矩形" fill-opacity="0.4" fill="#000000" opacity="0" x="0" y="0" width="14" height="14"></rect>
                <mask id="mask-2" fill="white">
                    <use xlink:href="#path-1"></use>
                </mask>
                <use id="形状结合" fill-opacity="0.4" fill="#000000" fill-rule="nonzero" xlink:href="#path-1"></use>
            </g>
        </g>
    </g>
</svg>