<?xml version="1.0" encoding="UTF-8"?>
<svg width="24px" height="24px" viewBox="0 0 24 24" version="1.1" xmlns="http://www.w3.org/2000/svg" xmlns:xlink="http://www.w3.org/1999/xlink">
    <title>xxhdpi/重命名</title>
    <g id="RR1" stroke="none" stroke-width="1" fill="none" fill-rule="evenodd" opacity="0.900000036">
        <g id="重命名">
            <g id="symbol/frame/symbol_grid24-copy-2"></g>
            <path d="" id="Path-48" stroke="#979797" stroke-width="0.5"></path>
            <path d="" id="Path-48" stroke="#979797" stroke-width="0.5"></path>
            <path d="M11.5,3 C11.9142136,3 12.25,3.33578644 12.25,3.75 C12.25,4.16421356 11.9142136,4.5 11.5,4.5 L11.5,4.5 L10.75,4.5 L10.75,19.5 L11.5,19.5 C11.8796958,19.5 12.193491,19.7821539 12.2431534,20.1482294 L12.25,20.25 C12.25,20.6642136 11.9142136,21 11.5,21 L11.5,21 L8.5,21 C8.08578644,21 7.75,20.6642136 7.75,20.25 C7.75,19.8357864 8.08578644,19.5 8.5,19.5 L8.5,19.5 L9.25,19.5 L9.25,4.5 L8.5,4.5 C8.12030423,4.5 7.80650904,4.21784612 7.75684662,3.85177056 L7.75,3.75 C7.75,3.33578644 8.08578644,3 8.5,3 L8.5,3 Z M19.75,5.5 C21.5449254,5.5 23,6.95507456 23,8.75 L23,15.25 C23,17.0449254 21.5449254,18.5 19.75,18.5 L11.9788535,18.5 L11.9788535,17 L19.75,17 C20.7164983,17 21.5,16.2164983 21.5,15.25 L21.5,8.75 C21.5,7.78350169 20.7164983,7 19.75,7 L11.9788535,7 L11.9788535,5.5 L19.75,5.5 Z M8.05460842,5.5 L8.05460842,7 L4.25,7 C3.28350169,7 2.5,7.78350169 2.5,8.75 L2.5,15.25 C2.5,16.2164983 3.28350169,17 4.25,17 L8.0952381,17 L8.0952381,18.5 L4.25,18.5 C2.45507456,18.5 1,17.0449254 1,15.25 L1,8.75 C1,6.95507456 2.45507456,5.5 4.25,5.5 L8.05460842,5.5 Z" id="形状结合" fill="#000000" fill-rule="nonzero"></path>
            <path d="" id="Path-48" stroke="#979797" stroke-width="0.5"></path>
        </g>
    </g>
</svg>