<?xml version="1.0" encoding="UTF-8"?>
<svg width="24px" height="24px" viewBox="0 0 24 24" version="1.1" xmlns="http://www.w3.org/2000/svg" xmlns:xlink="http://www.w3.org/1999/xlink">
    <title>xxxhdpi/还原</title>
    <defs>
        <path d="M12,1 C18.0751322,1 23,5.92486775 23,12 C23,12.0964127 22.9987578,12.1926748 22.9962784,12.2887696 C22.9944501,12.3597602 22.991971,12.4299882 22.9888366,12.5000456 C22.9836539,12.6154721 22.9766886,12.7307273 22.9679396,12.8456922 C22.9653205,12.8806093 22.9624874,12.9156673 22.9594903,12.9506785 C22.9504339,13.0558728 22.9399301,13.1607663 22.9279385,13.2653863 C22.9223732,13.314577 22.916415,13.363667 22.9101345,13.4126561 C22.8860468,13.5997956 22.8572425,13.7861524 22.823695,13.9714637 L22.8777535,13.6454798 C22.8674558,13.7141326 22.8565236,13.7825778 22.8449631,13.8508092 L22.823695,13.9714637 C22.8222664,13.9793547 22.8207193,13.9871944 22.8190557,13.9949812 C22.7084375,14.6014217 22.5476261,15.190403 22.3414769,15.7576235 L22.3414769,15.7576235 L22.3134221,15.8184269 C22.2804948,15.8764699 22.2333903,15.9256906 22.1760669,15.9612167 C21.9880826,16.0777198 21.7412468,16.0197728 21.6247463,15.831787 L21.6247463,15.831787 L19.7231119,12.7633928 C19.6740858,12.6842863 19.648111,12.5930667 19.648111,12.5 C19.648111,12.2238576 19.8719687,12 20.148111,12 L20.148111,12 L21.4999999,11.9989986 C21.4994588,6.75275369 17.2463713,2.5 12,2.5 C11.322948,2.5 10.6555297,2.57070679 10.0050734,2.70965302 C5.65786226,3.63827588 2.5,7.496884 2.5,12 C2.5,17.2467051 6.75329488,21.5 12,21.5 C12.9442454,21.5 13.8691955,21.3624549 14.7542841,21.0947995 C16.0603686,20.6998329 17.2629258,20.0261728 18.2839781,19.1248839 C18.5945167,18.8507696 19.0684716,18.8802974 19.3425858,19.190836 C19.6167001,19.5013746 19.5871723,19.9753294 19.2766337,20.2494437 C18.0947944,21.2926603 16.7020101,22.0728837 15.1884731,22.530585 C14.1629676,22.8407032 13.0917435,23 12,23 C5.92486775,23 1,18.0751322 1,12 C1,6.78563595 4.65590569,2.31846601 9.69172269,1.24274766 C10.44502,1.08183322 11.2174632,1 12,1 Z" id="path-1"></path>
    </defs>
    <g id="RR2云盘" stroke="none" stroke-width="1" fill="none" fill-rule="evenodd">
        <mask id="mask-2" fill="white">
            <use xlink:href="#path-1"></use>
        </mask>
        <use id="合并形状" fill="#000000" fill-rule="nonzero" xlink:href="#path-1"></use>
    </g>
</svg>