<?xml version="1.0" encoding="UTF-8"?>
<svg width="24px" height="24px" viewBox="0 0 24 24" version="1.1" xmlns="http://www.w3.org/2000/svg" xmlns:xlink="http://www.w3.org/1999/xlink">
    <title>public/xxxhdpi/ic_movelist备份 5</title>
    <defs>
        <path d="M3,10 C2.44771525,10 2,9.55228475 2,9 C2,8.44771525 2.44771525,8 3,8 L21,8 C21.5522847,8 22,8.44771525 22,9 C22,9.55228475 21.5522847,10 21,10 L3,10 Z M21,13.9751037 C21.5522847,13.9751037 22,14.422819 22,14.9751037 C22,15.5273885 21.5522847,15.9751037 21,15.9751037 L3,15.9751037 C2.44771525,15.9751037 2,15.5273885 2,14.9751037 C2,14.422819 2.44771525,13.9751037 3,13.9751037 L21,13.9751037 Z" id="path-1"></path>
    </defs>
    <g id="RR2标签和收藏" stroke="none" stroke-width="1" fill="none" fill-rule="evenodd">
        <g id="编组">
            <g id="symbol/frame/symbol_grid24-copy"></g>
            <mask id="mask-2" fill="white">
                <use xlink:href="#path-1"></use>
            </mask>
            <g id="move" fill-rule="nonzero"></g>
            <rect id="color/#000000" fill="#000000" mask="url(#mask-2)" x="0" y="0" width="24" height="24"></rect>
        </g>
    </g>
</svg>