<?xml version="1.0" standalone="no"?><!DOCTYPE svg PUBLIC "-//W3C//DTD SVG 1.1//EN" "http://www.w3.org/Graphics/SVG/1.1/DTD/svg11.dtd"><svg t="1766633012521" class="icon" viewBox="0 0 1024 1024" version="1.1" xmlns="http://www.w3.org/2000/svg" p-id="2625" xmlns:xlink="http://www.w3.org/1999/xlink" width="200" height="200"><path d="M949.28 899.568L760.992 711.264a392.88 392.88 0 0 0 91.088-252.128C852.08 241.264 675.456 64.64 457.6 64.64 239.728 64.64 63.104 241.28 63.104 459.136c0 217.856 176.624 394.48 394.496 394.48a392.912 392.912 0 0 0 254.368-92.96l188.112 188.112c6.8 6.8 15.696 10.192 24.608 10.192a34.8 34.8 0 0 0 24.608-59.392zM457.6 784.032a323.904 323.904 0 0 1-229.744-95.168 323.904 323.904 0 0 1-95.168-229.744 323.904 323.904 0 0 1 95.168-229.744A323.904 323.904 0 0 1 457.6 134.24a323.904 323.904 0 0 1 229.744 95.168 323.92 323.92 0 0 1 95.152 229.728 323.904 323.904 0 0 1-95.168 229.744A323.904 323.904 0 0 1 457.6 784.032z" fill="#000000" p-id="2626"></path></svg>