<svg width="26.000000" height="32.000000" viewBox="0 0 26 32" fill="none" xmlns="http://www.w3.org/2000/svg" xmlns:xlink="http://www.w3.org/1999/xlink">
	<desc>
			Created with Pixso.
	</desc>
	<defs/>
	<path id="路径" d="M4.66 0C3.83 0 3.06 0.21 2.34 0.64C1.62 1.07 1.05 1.65 0.63 2.37C0.21 3.09 0 3.87 0 4.71L0 27.28C0 28.14 0.21 28.93 0.63 29.65C1.05 30.38 1.62 30.95 2.34 31.37C3.06 31.79 3.83 32 4.66 32L21.3 32C22.15 32 22.93 31.79 23.65 31.37C24.37 30.95 24.94 30.38 25.36 29.65C25.78 28.93 26 28.14 26 27.28L26 9.08L16.97 0L4.66 0Z" fill="#27A3FF" fill-opacity="1.000000" fill-rule="evenodd"/>
	<path id="路径" d="M6.59 16C6.31 16 6.06 15.89 5.85 15.67C5.62 15.47 5.51 15.22 5.51 14.92C5.51 14.61 5.62 14.35 5.85 14.13C6.06 13.91 6.31 13.8 6.59 13.8L12.43 13.8C12.73 13.8 12.99 13.91 13.21 14.13C13.44 14.35 13.55 14.61 13.55 14.92C13.55 15.22 13.44 15.47 13.21 15.67C12.99 15.89 12.73 16 12.43 16L6.59 16Z" fill="#FFFFFF" fill-opacity="0.450980" fill-rule="evenodd"/>
	<path id="路径" d="M6.59 22.18C6.31 22.18 6.06 22.08 5.85 21.86C5.62 21.66 5.51 21.4 5.51 21.09C5.51 20.79 5.62 20.54 5.85 20.33C6.06 20.12 6.31 20.01 6.59 20.01L19.66 20.01C19.96 20.01 20.22 20.12 20.44 20.33C20.64 20.54 20.74 20.79 20.74 21.09C20.74 21.4 20.64 21.66 20.44 21.86C20.22 22.08 19.96 22.18 19.66 22.18L6.59 22.18Z" fill="#FFFFFF" fill-opacity="0.450980" fill-rule="evenodd"/>
	<path id="路径" d="M18.19 9.08C17.89 9.08 17.64 8.97 17.42 8.74C17.22 8.52 17.12 8.26 17.12 7.96L17.12 3.04L23.16 9.08L18.19 9.08Z" fill="#FFFFFF" fill-opacity="0.450980" fill-rule="evenodd"/>
</svg>
