<svg width="34.000000" height="34.000000" viewBox="0 0 34 34" fill="none" xmlns="http://www.w3.org/2000/svg" xmlns:xlink="http://www.w3.org/1999/xlink">
	<desc>
			Created with Pixso.
	</desc>
	<defs/>
	<g opacity="0.000000">
		<rect id="矩形" width="34.000000" height="34.000000" fill="#000000" fill-opacity="1.000000"/>
	</g>
	<path id="路径" d="M8.81 1.43C7.99 1.43 7.22 1.63 6.53 2.05C5.82 2.47 5.26 3.04 4.84 3.74C4.42 4.43 4.22 5.19 4.22 6.02L4.22 27.97C4.22 28.81 4.42 29.58 4.84 30.28C5.26 30.99 5.82 31.55 6.53 31.96C7.22 32.36 7.99 32.56 8.81 32.56L25.16 32.56C26 32.56 26.77 32.36 27.46 31.96C28.17 31.55 28.73 30.99 29.15 30.28C29.57 29.58 29.77 28.81 29.77 27.97L29.77 10.27L20.91 1.43L8.81 1.43Z" fill="#27A3FF" fill-opacity="1.000000" fill-rule="evenodd"/>
	<path id="path" d="M20.02 18.06L20.02 16.03C20.02 15.47 19.88 14.97 19.62 14.51C19.34 14.05 18.98 13.68 18.52 13.42C18.06 13.14 17.55 13.01 17 13.01C16.44 13.01 15.93 13.14 15.47 13.42C15.01 13.68 14.64 14.05 14.37 14.51C14.09 14.97 13.96 15.47 13.96 16.03L13.96 18.06L13.19 18.06C12.67 18.06 12.24 18.24 11.88 18.6C11.52 18.95 11.34 19.4 11.34 19.92L11.34 25.14C11.34 25.64 11.51 26.08 11.87 26.45C12.23 26.81 12.67 26.99 13.19 26.99L20.81 26.99C21.32 26.99 21.76 26.81 22.12 26.45C22.48 26.08 22.66 25.64 22.66 25.14L22.66 19.92C22.66 19.4 22.48 18.96 22.13 18.61C21.77 18.24 21.33 18.06 20.81 18.06L20.02 18.06ZM14.97 16.03C14.97 15.67 15.06 15.33 15.24 15.02C15.42 14.7 15.66 14.45 15.98 14.27C16.29 14.09 16.64 14 17 14C17.36 14 17.7 14.09 18.02 14.27C18.33 14.45 18.58 14.7 18.76 15.02C18.94 15.33 19.03 15.67 19.03 16.03L19.03 18.06L14.97 18.06L14.97 16.03ZM18.23 21.71C18.23 21.95 18.16 22.18 18.04 22.38C17.91 22.57 17.74 22.72 17.53 22.82L17.53 24.16C17.53 24.3 17.48 24.41 17.38 24.51C17.28 24.61 17.17 24.66 17.03 24.66C16.89 24.66 16.77 24.61 16.67 24.51C16.57 24.41 16.52 24.3 16.52 24.16L16.52 22.85C16.29 22.75 16.11 22.59 15.98 22.39C15.84 22.18 15.77 21.95 15.77 21.71C15.77 21.37 15.89 21.08 16.14 20.84C16.38 20.6 16.66 20.48 17 20.48C17.34 20.48 17.63 20.6 17.87 20.84C18.11 21.08 18.23 21.37 18.23 21.71Z" fill="#88CCFF" fill-opacity="1.000000" fill-rule="nonzero"/>
	<path id="路径" d="M21.93 10.27C21.63 10.27 21.38 10.16 21.17 9.94C20.98 9.72 20.88 9.47 20.88 9.17L20.88 4.39L26.76 10.27L21.93 10.27Z" fill="#FFFFFF" fill-opacity="0.450980" fill-rule="evenodd"/>
</svg>
