<svg width="28.000000" height="28.000000" viewBox="0 0 28 28" fill="none" xmlns="http://www.w3.org/2000/svg" xmlns:xlink="http://www.w3.org/1999/xlink">
	<desc>
			Created with Pixso.
	</desc>
	<defs/>
	<path id="形状结合-path" d="M22.4 0C25.49 0 28 2.5 28 5.6L28 22.4C28 25.49 25.49 28 22.4 28L5.6 28C2.5 28 0 25.49 0 22.4L0 5.6C0 2.5 2.5 0 5.6 0L22.4 0Z" fill="#27A3FF" fill-opacity="1.000000" fill-rule="evenodd"/>
	<path id="形状结合" d="M11.6667 0L11.6667 2.79999L8.86667 2.79999L8.86667 5.60001L11.6667 5.60001L11.6667 8.39999L8.86667 8.39999L8.86667 11.2L11.6667 11.2L11.6667 14L11.6667 21L4.66666 21L4.66666 14L7.46664 14L7.46664 11.2L4.66666 11.2L4.66666 8.39999L7.46664 8.39999L7.46664 5.60001L4.66666 5.60001L4.66666 2.79999L7.46664 2.79999L7.46664 0L11.6667 0ZM10.2667 16.8L6.06665 16.8L6.06665 19.6L10.2667 19.6L10.2667 16.8Z" clip-rule="evenodd" fill="#FFFFFF" fill-opacity="0.450980" fill-rule="evenodd"/>
</svg>
