<?xml version="1.0" encoding="UTF-8"?>
<svg width="24px" height="24px" viewBox="0 0 24 24" version="1.1" xmlns="http://www.w3.org/2000/svg" xmlns:xlink="http://www.w3.org/1999/xlink">
    <title>public/xxxhdpi/ic_delete备份 2</title>
    <defs>
        <path d="M12,1 C18.0751322,1 23,5.92486775 23,12 C23,18.0751322 18.0751322,23 12,23 C5.92486775,23 1,18.0751322 1,12 C1,5.92486775 5.92486775,1 12,1 Z M12,2.5 C6.75329488,2.5 2.5,6.75329488 2.5,12 C2.5,17.2467051 6.75329488,21.5 12,21.5 C17.2467051,21.5 21.5,17.2467051 21.5,12 C21.5,6.75329488 17.2467051,2.5 12,2.5 Z M17.25,11.25 C17.6642136,11.25 18,11.5857864 18,12 C18,12.4142136 17.6642136,12.75 17.25,12.75 L6.75,12.75 C6.33578644,12.75 6,12.4142136 6,12 C6,11.5857864 6.33578644,11.25 6.75,11.25 L17.25,11.25 Z" id="path-1"></path>
    </defs>
    <g id="RR2标签和收藏" stroke="none" stroke-width="1" fill="none" fill-rule="evenodd">
        <g id="public/ic_delete备份-2">
            <mask id="mask-2" fill="white">
                <use xlink:href="#path-1"></use>
            </mask>
            <g id="形状结合" fill-rule="nonzero"></g>
            <g id="编组" mask="url(#mask-2)" fill="#FA2A2D">
                <g id="Symbol/color-light/colorPrimary">
                    <rect id="color/#000000" x="0" y="0" width="24" height="24"></rect>
                </g>
            </g>
        </g>
    </g>
</svg>