<svg width="32.000000" height="32.000000" viewBox="0 0 32 32" fill="none" xmlns="http://www.w3.org/2000/svg" xmlns:xlink="http://www.w3.org/1999/xlink">
	<desc>
			Created with Pixso.
	</desc>
	<defs/>
	<path id="路径" d="M16 0C13.1 0 10.43 0.71 7.97 2.14C5.52 3.57 3.57 5.52 2.14 7.97C0.71 10.43 0 13.1 0 16C0 18.89 0.71 21.56 2.14 24.02C3.57 26.47 5.52 28.42 7.97 29.85C10.43 31.28 13.1 32 16 32C18.89 32 21.56 31.28 24.02 29.85C26.47 28.42 28.42 26.47 29.85 24.02C31.28 21.56 32 18.89 32 16C32 13.1 31.28 10.43 29.85 7.97C28.42 5.52 26.47 3.57 24.02 2.14C21.56 0.71 18.89 0 16 0Z" fill="#9D76FF" fill-opacity="1.000000" fill-rule="evenodd"/>
	<path id="路径" d="M20.19 8.38C21.33 9.4 22.15 10.23 22.63 10.87C23.12 11.51 23.4 12.28 23.48 13.17C23.52 13.84 23.44 14.58 23.25 15.38C23.05 16.19 22.79 16.85 22.46 17.38C22.13 17.9 21.8 18.12 21.48 18.02C21.34 17.97 21.26 17.93 21.25 17.89C21.24 17.84 21.27 17.74 21.34 17.6C21.48 17.36 21.61 17.08 21.73 16.75C21.85 16.41 21.94 15.94 22.01 15.33C22.06 14.66 22.04 14.13 21.95 13.74C21.87 13.36 21.63 12.92 21.24 12.43C20.87 11.94 20.51 11.56 20.17 11.29C19.83 11.03 19.32 10.7 18.64 10.3L18.64 23.16C18.64 23.88 18.43 24.57 17.99 25.24C17.54 25.9 16.96 26.44 16.23 26.86C15.49 27.28 14.69 27.5 13.83 27.5C13.19 27.5 12.61 27.37 12.08 27.1C11.54 26.85 11.11 26.49 10.78 26.03C10.41 25.51 10.21 24.94 10.16 24.31C10.11 23.68 10.22 23.06 10.51 22.46C10.84 21.78 11.27 21.25 11.8 20.86C12.34 20.46 13.03 20.06 13.9 19.66C14.65 19.29 15.16 19 15.44 18.79C15.86 18.44 16.14 18.07 16.27 17.68C16.42 17.31 16.49 16.91 16.49 16.49L16.49 4.99L17.99 4.99C18.04 5.44 18.22 5.93 18.53 6.49C18.84 7.05 19.31 7.61 19.94 8.16L20.19 8.38Z" fill="#FFFFFF" fill-opacity="0.450980" fill-rule="evenodd"/>
</svg>
