<svg width="28.000000" height="28.000000" viewBox="0 0 28 28" fill="none" xmlns="http://www.w3.org/2000/svg" xmlns:xlink="http://www.w3.org/1999/xlink">
	<desc>
			Created with Pixso.
	</desc>
	<defs/>
	<path id="路径" d="M5.51 0C4.52 0 3.6 0.24 2.75 0.74C1.9 1.23 1.23 1.9 0.74 2.75C0.24 3.6 0 4.52 0 5.51L0 22.46C0 23.46 0.24 24.39 0.74 25.24C1.23 26.09 1.9 26.76 2.75 27.25C3.6 27.75 4.52 28 5.51 28L22.49 28C23.5 28 24.42 27.75 25.26 27.25C26.1 26.76 26.77 26.09 27.27 25.24C27.75 24.39 28 23.46 28 22.46L28 5.51C28 4.52 27.75 3.6 27.27 2.75C26.77 1.9 26.1 1.23 25.26 0.74C24.42 0.24 23.51 0 22.52 0L5.51 0Z" fill="#00BC88" fill-opacity="1.000000" fill-rule="evenodd"/>
	<path id="路径" d="M5.47 25.88C4.6 25.88 3.85 25.58 3.2 24.99C2.57 24.39 2.2 23.66 2.11 22.79L16.2 12.55C16.65 12.24 17.13 12.03 17.66 11.93C18.19 11.83 18.71 11.86 19.23 12C19.74 12.14 20.2 12.4 20.6 12.75L25.92 17.28L25.92 22.46C25.92 23.4 25.59 24.2 24.93 24.88C24.26 25.55 23.46 25.88 22.52 25.88L5.47 25.88Z" fill="#FFFFFF" fill-opacity="0.450980" fill-rule="evenodd"/>
	<path id="路径" d="M9.11 7.35C9.79 7.35 10.36 7.59 10.84 8.06C11.32 8.55 11.56 9.13 11.56 9.8C11.56 10.47 11.32 11.05 10.84 11.53C10.36 12.01 9.79 12.25 9.11 12.25C8.44 12.25 7.86 12.01 7.38 11.53C6.89 11.05 6.65 10.47 6.65 9.8C6.65 9.13 6.89 8.55 7.38 8.06C7.86 7.59 8.44 7.35 9.11 7.35Z" fill="#FFFFFF" fill-opacity="0.450980" fill-rule="evenodd"/>
</svg>
