<?xml version="1.0" encoding="UTF-8"?>
<svg width="30px" height="30px" viewBox="0 0 30 30" version="1.1" xmlns="http://www.w3.org/2000/svg" xmlns:xlink="http://www.w3.org/1999/xlink">
    <title>ic_flie manager_picture</title>
    <defs>
        <path d="M5,29 L25,29 C27.209139,29 29,27.209139 29,25 L29,5 C29,2.790861 27.209139,1 25,1 L5,1 C2.790861,1 1,2.790861 1,5 L1,25 C1,27.209139 2.790861,29 5,29 Z" id="path-1"></path>
    </defs>
    <g id="ic_flie-manager_picture" stroke="none" stroke-width="1" fill="none" fill-rule="evenodd">
        <mask id="mask-2" fill="white">
            <use xlink:href="#path-1"></use>
        </mask>
        <use id="Stroke-35" fill="#00BC88" xlink:href="#path-1"></use>
        <path d="M-4.26564253,30.1910028 L9.35932181,16.5660385 C10.4527898,15.4725705 12.2256517,15.4725705 13.3191197,16.5660385 L14.9105458,18.1574646 L14.9105458,18.1574646 L1,31.89625 L-3.50289284,31.9832689 C-4.08268357,31.9944734 -4.56177987,31.5335432 -4.57298439,30.9537525 C-4.57850097,30.6682912 -4.46753188,30.3928922 -4.26564253,30.1910028 Z" id="Path-4-Copy" fill-opacity="0.25" fill="#FFFFFF" mask="url(#mask-2)"></path>
        <path d="M3.60728734,29.4013393 L19.7859557,13.30579 C20.8802403,12.2171273 22.6491708,12.2194052 23.740648,13.3108824 L33.127774,22.6980084 L33.127774,22.6980084 L33.127774,27.4416012 C33.127774,28.948059 31.9358533,30.1845004 30.4304078,30.2397195 L4.38632253,31.1950055 C3.80681325,31.2162616 3.31979665,30.7637081 3.29854049,30.1841988 C3.28780857,29.891613 3.39972632,29.607834 3.60728734,29.4013393 Z" id="Path-4" fill-opacity="0.6" fill="#FFFFFF" mask="url(#mask-2)"></path>
        <path d="M11.0416667,8.77421875 C11.0416667,10.0204762 10.0298432,11.03125 8.78229167,11.03125 C7.5347401,11.03125 6.52291667,10.0204762 6.52291667,8.77421875 C6.52291667,7.52758516 7.5347401,6.5171875 8.78229167,6.5171875 C10.0298432,6.5171875 11.0416667,7.52758516 11.0416667,8.77421875 Z" id="Stroke-36" fill-opacity="0.8" fill="#FFFFFF" mask="url(#mask-2)"></path>
    </g>
</svg>