<?xml version="1.0" encoding="UTF-8"?>
<svg width="28px" height="28px" viewBox="0 0 28 28" version="1.1" xmlns="http://www.w3.org/2000/svg" xmlns:xlink="http://www.w3.org/1999/xlink">
    <title>ic_flie manager_zip</title>
    <defs>
        <path d="M4,28 L24,28 C26.209139,28 28,26.209139 28,24 L28,4 C28,1.790861 26.209139,1.11220812e-15 24,0 L4,0 C1.790861,-3.82769592e-17 -7.1463071e-16,1.790861 0,4 L0,24 C1.78856188e-15,26.209139 1.790861,28 4,28 Z" id="path-1"></path>
    </defs>
    <g id="ic_flie-manager_zip" stroke="none" stroke-width="1" fill="none" fill-rule="evenodd">
        <mask id="mask-2" fill="white">
            <use xlink:href="#path-1"></use>
        </mask>
        <use id="蒙版" fill="#27A3FF" xlink:href="#path-1"></use>
        <path d="M6.90909091,5.42857143 L11.4545455,5.42857143 C11.7557917,5.42857143 12,5.65642652 12,5.9375 L12,7.63392857 C12,7.91500205 11.7557917,8.14285714 11.4545455,8.14285714 L6.90909091,8.14285714 L6.90909091,8.14285714 L6.90909091,5.42857143 Z M6.90909091,10.8571429 L11.4545455,10.8571429 C11.7557917,10.8571429 12,11.0849979 12,11.3660714 L12,13.5714286 L12,13.5714286 L6.90909091,13.5714286 L6.90909091,10.8571429 Z M11.4545455,3.28626015e-14 L6.90909091,3.28626015e-14 L6.90909091,3.28626015e-14 L6.90909091,2.71428571 L11.4545455,2.71428571 C11.7557917,2.71428571 12,2.48643062 12,2.20535714 L12,0.508928571 C12,0.227855091 11.7557917,3.28626015e-14 11.4545455,3.28626015e-14 Z" id="形状结合" fill="#FFFFFF" fill-rule="nonzero" opacity="0.400000006" mask="url(#mask-2)"></path>
        <path d="M9.09090909,2.71428571 L4.54545455,2.71428571 C4.24420833,2.71428571 4,2.94214081 4,3.22321429 L4,4.91964286 C4,5.20071634 4.24420833,5.42857143 4.54545455,5.42857143 L9.09090909,5.42857143 L9.09090909,5.42857143 L9.09090909,2.71428571 Z M9.09090909,8.14285714 L4.54545455,8.14285714 C4.24420833,8.14285714 4,8.37071223 4,8.65178571 L4,10.3482143 C4,10.6292878 4.24420833,10.8571429 4.54545455,10.8571429 L9.09090909,10.8571429 L9.09090909,10.8571429 L9.09090909,8.14285714 Z" id="形状结合" fill="#FFFFFF" fill-rule="nonzero" opacity="0.800000012" mask="url(#mask-2)"></path>
        <path d="M12,13.5714286 L12,18.0029155 C12,18.5535901 11.5215511,19 10.9313544,19 L5.06864564,19 C4.47844895,19 4,18.5535901 4,18.0029155 L4,13.5714286 L12,13.5714286 Z M10,14.9285714 L6,14.9285714 L6,16.7946429 C6,17.0757163 6.24420833,17.3035714 6.54545455,17.3035714 L6.54545455,17.3035714 L9.45454545,17.3035714 C9.75579167,17.3035714 10,17.0757163 10,16.7946429 L10,16.7946429 L10,14.9285714 Z" id="Combined-Shape" fill="#FFFFFF" fill-rule="nonzero" mask="url(#mask-2)"></path>
    </g>
</svg>