<?xml version="1.0" encoding="UTF-8"?>
<svg width="24px"
     height="24px"
     viewBox="0 0 24 24"
     version="1.1"
     xmlns="http://www.w3.org/2000/svg"
     xmlns:xlink="http://www.w3.org/1999/xlink">
    <title>xxxhdpi/浏览灰</title>
    <g
        id="RR2云盘"
        stroke="none"
        stroke-width="1"
        fill="none"
        fill-rule="evenodd">
        <g
            id="编组"
            fill="#FFFFFF"
            fill-rule="nonzero">
            <g
                id="编组"
                transform="translate(2.000000, 3.750000)">
                <path
                    d="M17.9231651,2.74952081 L10.6348809,2.75 C10.4996053,2.75 10.3701023,2.69518736 10.2759307,2.59807292 L9.01725,1.30025 L16,1.30042725 C16.9134913,1.30042725 17.6839424,1.9128546 17.9231651,2.74952081 Z"
                    id="形状结合"
                    fill-opacity="0.3"></path>
                <path
                    d="M18,16.390975 L2,16.390975 C0.8954305,16.390975 1.3527075e-16,15.4955445 0,14.390975 L0,2 C-1.3527075e-16,0.8954305 0.8954305,1.53517375e-15 2,0 L6.1520094,0 C6.28728504,-1.46813966e-15 6.41678802,0.054812645 6.51095959,0.151927082 L9.55803031,3.29421875 C9.84054503,3.58556207 10.229054,3.75 10.6348809,3.75 L18,3.75 C19.1045695,3.75 20,4.6454305 20,5.75 L20,14.390975 C20,15.4955445 19.1045695,16.390975 18,16.390975 Z"
                    id="Path"
                    fill-opacity="0.2"></path>
            </g>
        </g>
    </g>
</svg>