<?xml version="1.0" encoding="UTF-8"?>
<svg width="24px" height="24px" viewBox="0 0 24 24" version="1.1" xmlns="http://www.w3.org/2000/svg" xmlns:xlink="http://www.w3.org/1999/xlink">
    <title>xxxhdpi/浏览高亮</title>
    <g id="RR2云盘" stroke="none" stroke-width="1" fill="none" fill-rule="evenodd">
        <g id="编组" fill="#254FF7" transform="translate(2.003257, 3.756107)">
            <path d="M17.9525831,2.7547942 L10.6522016,2.75447883 C10.5167056,2.75447883 10.3869917,2.69957691 10.2926667,2.60230431 L9.03193607,1.30236767 L16.0260586,1.30254521 C16.9413271,1.30254521 17.7132319,1.91635815 17.9525831,2.7547942 Z" id="形状结合" fill-opacity="0.6"></path>
            <path d="M18.029316,16.4176704 L2.00325733,16.4176704 C0.896888856,16.4176704 5.79580271e-16,15.5207815 0,14.414413 L0,2.00325733 C-1.35491061e-16,0.896888856 0.896888856,-2.40852619e-16 2.00325733,0 L6.16202896,0 C6.29752492,-3.57957112e-16 6.42723881,0.0549019164 6.52156376,0.15217452 L9.57359713,3.29958393 C9.85657198,3.59140174 10.2457137,3.75610749 10.6522016,3.75610749 L18.029316,3.75610749 C19.1356844,3.75610749 20.0325733,4.65299635 20.0325733,5.75936482 L20.0325733,14.414413 C20.0325733,15.5207815 19.1356844,16.4176704 18.029316,16.4176704 Z" id="Path"></path>
        </g>
    </g>
</svg>