<?xml version="1.0" encoding="UTF-8"?>
<svg width="24px" height="24px" viewBox="0 0 24 24" version="1.1" xmlns="http://www.w3.org/2000/svg" xmlns:xlink="http://www.w3.org/1999/xlink">
    <title>xxxhdpi/privacy</title>
    <defs>
        <path d="M11.92164,0.31875 C12.1613901,0.31875 12.4011401,0.368737298 12.625079,0.469685673 L20.6517051,4.08143026 C21.2764106,4.36285226 21.6800813,4.99029023 21.6800813,5.68329595 L21.6800813,11.1010751 C21.6800813,11.3997005 21.6665288,11.696703 21.6462001,11.9927317 C21.2625354,17.4731573 17.3881354,22.3897651 12.3324096,23.639123 C12.1972074,23.672556 12.0594237,23.6894348 11.9213173,23.6894348 C11.7838563,23.6894348 11.6460726,23.672556 11.5115157,23.639123 C6.4557899,22.3897651 2.74982804,17.4731573 2.36616337,11.9927317 C2.34615731,11.696703 2.319375,11.3997005 2.319375,11.1010751 L2.319375,5.69985019 C2.319375,5.00716905 2.73563019,4.37940649 3.360981,4.0979845 L11.2185237,0.469685673 C11.4421398,0.369061891 11.6815672,0.31875 11.92164,0.31875 Z M11.9194977,1.63534242 C11.908513,1.63534242 11.8979976,1.63739694 11.8872339,1.64183781 L3.81131004,5.37088976 C3.75457096,5.39642363 3.71145615,5.46236268 3.71145615,5.52689802 L3.71145615,11.0763015 C3.71145615,11.2288519 3.71888881,11.366757 3.74232185,11.6917582 C3.74925758,11.7879523 3.75218042,11.8291193 3.75558005,11.8794935 C3.95087014,14.6690983 5.08209731,17.2572303 6.80191185,19.1947132 L6.80172838,15.0755465 C6.80172838,13.4873176 8.08924226,12.1998038 9.67747112,12.1998038 L14.2786595,12.1998038 C15.8668884,12.1998038 17.1544022,13.4873176 17.1544022,15.0755465 L17.1553589,19.1459717 C18.905183,17.2034367 20.0648374,14.6263967 20.2569889,11.8816367 C20.2775951,11.5815673 20.2880002,11.3208234 20.2880002,11.0763015 L20.2880002,5.50988963 C20.2880002,5.43575017 20.2491214,5.37522669 20.201805,5.35391105 L11.953944,1.64261689 C11.9431256,1.63774011 11.9318701,1.63534242 11.9194977,1.63534242 Z M11.9781493,5.87316975 C13.5663476,5.87316975 14.853808,7.16200476 14.853808,8.75189872 C14.853808,10.3417927 13.5663476,11.6306277 11.9781493,11.6306277 C10.389783,11.6306277 9.10232257,10.3417927 9.10232257,8.75189872 C9.10232257,7.16200476 10.389783,5.87316975 11.9781493,5.87316975 Z" id="path-1"></path>
    </defs>
    <g id="RR1" stroke="none" stroke-width="1" fill="none" fill-rule="evenodd">
        <g id="security-copy">
            <mask id="mask-2" fill="white">
                <use xlink:href="#path-1"></use>
            </mask>
            <use id="形状结合" fill="#000000" fill-rule="nonzero" xlink:href="#path-1"></use>
            <rect id="color/#000000" fill="#254FF7" mask="url(#mask-2)" x="-1.11321056" y="-0.655783348" width="25.8142751" height="25.4952926"></rect>
        </g>
    </g>
</svg>