<?xml version="1.0" encoding="UTF-8"?>
<!--
  - Copyright (c) Huawei Technologies Co., Ltd. 2023-2023. All rights reserved.
  -->

<svg width="64px" height="64px" viewBox="0 0 64 64" version="1.1" xmlns="http://www.w3.org/2000/svg" xmlns:xlink="http://www.w3.org/1999/xlink">
    <title>play</title>
    <g id="GUI" stroke="none" stroke-width="1" fill="none" fill-rule="evenodd">
        <g id="play">
            <path d="M0,32 C0,49.6736 14.3264,64 32,64 C49.6736,64 64,49.6736 64,32 C64,14.3264 49.6736,0 32,0 C14.3264,0 0,14.3264 0,32 Z" id="Shape" fill="#000000" opacity="0.4"></path>
            <path d="M46.8,32.0004375 C46.8,31.247039 46.4134074,30.5828932 45.8295192,30.1830057 C45.8295192,30.1821307 45.8295192,30.1812557 45.8321854,30.1803806 L27.1610956,18.415638 C27.1610956,18.4200131 27.1610956,18.4103878 27.1610956,18.415638 C26.7034055,18.1636301 26.3390308,18 25.8449033,18 C24.6042521,18 23.6,18.9896559 23.6,20.2103191 C23.6,20.2164443 23.6017774,20.2234445 23.6017774,20.2286946 C23.6017774,20.2286946 23.6,20.2286946 23.6,20.2278196 L23.6017774,43.7739304 L23.6017774,43.7739304 C23.6017774,43.7791806 23.6,43.7844308 23.6,43.7896809 C23.6,45.0112191 24.6042521,46 25.8449033,46 C26.3336985,46 26.780724,45.8424951 27.1486535,45.582612 L45.8321854,33.8196194 C45.8295192,33.8187443 45.8295192,33.8178693 45.8295192,33.8169943 C46.4142961,33.4179818 46.8,32.7538361 46.8,32.0004375 L46.8,32.0004375 Z" id="Shape" fill="#FFFFFF"></path>
        </g>
    </g>
</svg>