<svg width="40.000000" height="40.000000" viewBox="0 0 40 40" fill="none" xmlns="http://www.w3.org/2000/svg" xmlns:xlink="http://www.w3.org/1999/xlink">
	<desc>
			Created with Pixso.
	</desc>
	<defs/>
	<rect id="大文件" width="40.000000" height="40.000000" fill="#FFFFFF" fill-opacity="0"/>
	<circle id="椭圆 2" cx="20.000000" cy="20.000000" r="20.000000" fill="#F9A01E" fill-opacity="1.000000"/>
	<path id="path" d="M28.4 15.2C28.25 14.28 27.83 13.52 27.15 12.92C26.46 12.31 25.64 12.01 24.7 12.01L16.93 12.01C16.77 11.72 16.53 11.49 16.23 11.32C15.93 11.15 15.61 11.07 15.27 11.07L12.34 11.07C11.73 11.07 11.17 11.22 10.66 11.53C10.15 11.83 9.75 12.23 9.45 12.75C9.15 13.26 9.01 13.82 9.01 14.43L9.01 25.57C9.01 26.17 9.15 26.74 9.45 27.26C9.75 27.78 10.15 28.18 10.66 28.48C11.17 28.78 11.73 28.93 12.34 28.93L27.66 28.93C28.26 28.93 28.82 28.78 29.34 28.48C29.84 28.18 30.25 27.78 30.55 27.26C30.84 26.74 30.99 26.17 30.99 25.57L30.99 18.45C30.99 17.68 30.74 16.98 30.26 16.37C29.77 15.76 29.15 15.37 28.4 15.2ZM19.06 15.13C19 15.13 18.93 15.11 18.86 15.07C18.78 15.03 18.72 14.97 18.68 14.91L17.84 13.52L24.7 13.52C25.21 13.52 25.66 13.66 26.06 13.96C26.45 14.26 26.71 14.65 26.84 15.13L19.06 15.13Z" fill="#FFFFFF" fill-opacity="1.000000" fill-rule="nonzero"/>
</svg>
