<?xml version="1.0" standalone="no"?>
<svg xmlns="http://www.w3.org/2000/svg" width="24" height="24"><rect width="24" height="24" opacity="0"></rect><g><path d="M4.25 2.76Q3.36 2.76 2.62 3.19Q1.87 3.62 1.44 4.37Q1.01 5.11 1.01 6L1.01 15.5Q1.01 16.39 1.44 17.14Q1.87 17.88 2.62 18.31Q3.36 18.74 4.25 18.74L9 18.74L9 19.75L8.26 19.75Q7.94 19.75 7.73 19.97Q7.51 20.18 7.51 20.5Q7.51 20.81 7.73 21.02Q7.94 21.24 8.26 21.24L15.74 21.24Q16.06 21.24 16.28 21.02Q16.51 20.81 16.51 20.5Q16.51 20.18 16.28 19.97Q16.06 19.75 15.74 19.75L15 19.75L15 18.74L19.75 18.74Q20.64 18.74 21.38 18.31Q22.13 17.88 22.56 17.14Q22.99 16.39 22.99 15.5L22.99 6Q22.99 5.11 22.56 4.37Q22.13 3.62 21.38 3.19Q20.64 2.76 19.75 2.76L4.25 2.76ZM19.75 4.25Q20.47 4.25 20.99 4.76Q21.5 5.28 21.5 6L21.5 15.5Q21.5 16.22 20.99 16.74Q20.47 17.26 19.75 17.26L4.25 17.26Q3.53 17.26 3.01 16.74Q2.5 16.22 2.5 15.5L2.5 6Q2.5 5.28 3.01 4.76Q3.53 4.25 4.25 4.25L19.75 4.25Z" fill="rgba(0,0,0,0.9019607843137255)"></path><path d="M4.22 5.26Q3.89 5.26 3.7 5.45Q3.5 5.64 3.5 5.98L3.5 15.53Q3.5 15.86 3.7 16.06Q3.89 16.25 4.22 16.25L19.78 16.25Q20.11 16.25 20.3 16.06Q20.5 15.86 20.5 15.53L20.5 5.98Q20.5 5.64 20.3 5.45Q20.11 5.26 19.78 5.26L4.22 5.26Z" fill="rgba(0,0,0,0.9019607843137255)"></path></g></svg>