<?xml version="1.0" encoding="UTF-8"?>
<svg width="24px" height="24px" viewBox="0 0 24 24" version="1.1" xmlns="http://www.w3.org/2000/svg" xmlns:xlink="http://www.w3.org/1999/xlink">
    <title>xxxhdpi/增加</title>
    <defs>
        <path d="M5.79879969,0 C6.16045854,0 6.50730478,0.143668419 6.76303621,0.399399844 L9.73373344,3.37009707 C9.90422105,3.54058469 10.1354519,3.63636364 10.3765578,3.63636364 L16.3636364,3.63636364 C16.499787,3.63636364 16.63419,3.64384615 16.7664565,3.6584224 C16.5769227,2.88089657 15.8868031,2.29899166 15.0566317,2.27359246 L15,2.27272727 L9.96090909,2.27260575 L8.59704545,0.908969386 L15,0.909090909 C16.7572697,0.909090909 18.1818182,2.33363943 18.1818182,4.09090909 L18.1819054,4.12289478 C19.2687689,4.75165159 20,5.92679534 20,7.27272727 L20,12.7272727 C20,14.7355809 18.3719445,16.3636364 16.3636364,16.3636364 L3.63636364,16.3636364 C1.62805546,16.3636364 0,14.7355809 0,12.7272727 L0,3.63636364 C0,1.62805546 1.62805546,0 3.63636364,0 L5.79879969,0 Z M5.79879969,1.36363636 L3.63636364,1.36363636 C2.40244547,1.36363636 1.39819734,2.34697063 1.3645095,3.5727489 L1.36363636,3.63636364 L1.36363636,12.7272727 C1.36363636,13.9611909 2.34697063,14.965439 3.5727489,14.9991269 L3.63636364,15 L16.3636364,15 C17.5975545,15 18.6018027,14.0166657 18.6354905,12.7908875 L18.6363636,12.7272727 L18.6363636,7.27272727 C18.6363636,6.03880911 17.6530294,5.03456097 16.4272511,5.00087314 L10.3765578,5 C9.79890823,5 9.24393191,4.78009088 8.82355603,4.38663439 L8.76949692,4.33433359 L5.79879969,1.36363636 Z" id="path-1"></path>
    </defs>
    <g id="RR2云盘" stroke="none" stroke-width="1" fill="none" fill-rule="evenodd" opacity="0.899999976">
        <g id="编组备份">
            <g id="编组-14" transform="translate(2.000000, 3.818182)">
                <mask id="mask-2" fill="white">
                    <use xlink:href="#path-1"></use>
                </mask>
                <use id="形状结合" fill="#000000" fill-rule="nonzero" xlink:href="#path-1"></use>
                <path d="M10.5454545,13.0909091 C10.5454545,13.3921553 10.3012462,13.6363636 10,13.6363636 C9.69875377,13.6363636 9.45454545,13.3921553 9.45454545,13.0909091 L9.45363636,10.5446364 L6.90909091,10.5454545 C6.60784468,10.5454545 6.36363636,10.3012462 6.36363636,10 C6.36363636,9.69875377 6.60784468,9.45454545 6.90909091,9.45454545 L9.45363636,9.45363636 L9.45454545,6.90909091 C9.45454545,6.60784468 9.69875377,6.36363636 10,6.36363636 C10.3012462,6.36363636 10.5454545,6.60784468 10.5454545,6.90909091 L10.5454545,13.0909091 Z M11.2726364,9.45363636 L13.0909091,9.45454545 C13.3921553,9.45454545 13.6363636,9.69875377 13.6363636,10 C13.6363636,10.3012462 13.3921553,10.5454545 13.0909091,10.5454545 L11.2726364,10.5446364 L11.2726364,9.45363636 Z" id="形状结合" fill="#000000"></path>
            </g>
        </g>
    </g>
</svg>