<?xml version="1.0" encoding="UTF-8"?>
<svg width="24px" height="24px" viewBox="0 0 24 24" version="1.1" xmlns="http://www.w3.org/2000/svg" xmlns:xlink="http://www.w3.org/1999/xlink">
    <title>xxxhdpi/移动</title>
    <defs>
        <path d="M6.37867966,0 C6.77650439,0 7.15803526,0.158035261 7.43933983,0.439339828 L10.7071068,3.70710678 C10.8946432,3.89464316 11.1489971,4 11.4142136,4 L18,4 C18.149679,4 18.2974379,4.00822125 18.4428497,4.02423682 C18.2349828,3.16929644 17.4757047,2.5288976 16.5622948,2.50095171 L16.5,2.5 L10.957,2.49986632 L9.45675,0.999866324 L16.5,1 C18.4329966,1 20,2.56700338 20,4.5 L20.0001204,4.53519846 C21.1956568,5.22683444 22,6.51948501 22,8 L22,14 C22,16.209139 20.209139,18 18,18 L4,18 C1.790861,18 0,16.209139 0,14 L0,4 C0,1.790861 1.790861,0 4,0 L6.37867966,0 Z M6.37867966,1.5 L4,1.5 C2.64269002,1.5 1.53801707,2.5816677 1.50096045,3.93002379 L1.5,14 C1.5,15.35731 2.5816677,16.4619829 3.93002379,16.4990396 L4,16.5 L18,16.5 C19.35731,16.5 20.4619829,15.4183323 20.4990396,14.0699762 L20.5,14 L20.5,8 C20.5,6.64269002 19.4183323,5.53801707 18.0699762,5.50096045 L11.4142136,5.5 C10.7787991,5.5 10.1683251,5.25809996 9.70591163,4.82529783 L9.64644661,4.76776695 L6.37867966,1.5 Z M12.3732689,7.22709866 L12.4053301,7.25735931 L14.9482233,9.80025253 C15.617403,10.4694322 15.6313442,11.5457248 14.990047,12.2318675 L14.9482233,12.2751263 L12.4053301,14.8180195 C12.1124369,15.1109127 11.6375631,15.1109127 11.3446699,14.8180195 C11.0622372,14.5355867 11.0521503,14.08394 11.3144093,13.7894205 L11.3446699,13.7573593 L13.312,11.7896894 L6.375,11.7892751 C5.96078644,11.7892751 5.625,11.4534886 5.625,11.0392751 C5.625,10.6250615 5.96078644,10.2892751 6.375,10.2892751 L13.315,10.2896894 L11.3446699,8.31801948 C11.0517767,8.02512627 11.0517767,7.55025253 11.3446699,7.25735931 C11.6271027,6.97492657 12.0787494,6.96483968 12.3732689,7.22709866 Z" id="path-1"></path>
    </defs>
    <g id="RR2云盘" stroke="none" stroke-width="1" fill="none" fill-rule="evenodd" opacity="0.900000036">
          <g id="编组-3" transform="translate(1.000000, 3.000000)">
              <mask id="mask-2" fill="white">
                  <use xlink:href="#path-1"></use>
              </mask>
              <use id="合并形状" fill="#000000" fill-rule="nonzero" xlink:href="#path-1"></use>
          </g>
    </g>
</svg>