<?xml version="1.0" encoding="UTF-8"?>
<!--
  - Copyright (c) Huawei Technologies Co., Ltd. 2024-2024. All rights reserved.
  -->

<svg width="24px" height="24px" viewBox="0 0 24 24" version="1.1" xmlns="http://www.w3.org/2000/svg" xmlns:xlink="http://www.w3.org/1999/xlink">
    <title>xxxhdpi/上</title>
    <defs>
        <path d="M11.9984143,4.5 L12.0224989,4.50001747 C12.4628339,4.50564381 12.9014503,4.67645027 13.2374369,5.01243687 L13.2374369,5.01243687 L17.7803301,9.55533009 L17.8105907,9.58739128 C18.0728497,9.88191074 18.0627628,10.3335575 17.7803301,10.6159903 C17.4874369,10.9088835 17.0125631,10.9088835 16.7196699,10.6159903 L16.7196699,10.6159903 L12.748,6.64492509 L12.7484143,19.2429133 C12.7484143,19.6571268 12.4126279,19.9929133 11.9984143,19.9929133 C11.5842008,19.9929133 11.2484143,19.6571268 11.2484143,19.2429133 L11.248,6.64792509 L7.28033009,10.6159903 L7.2482689,10.6462509 C6.95374943,10.9085099 6.50210266,10.898423 6.21966991,10.6159903 C5.9267767,10.323097 5.9267767,9.8482233 6.21966991,9.55533009 L6.21966991,9.55533009 L10.7625631,5.01243687 L10.8058219,4.97061314 C11.1380869,4.66006469 11.5618414,4.50316867 11.9865514,4.49992509 L11.9984143,4.5 L11.9984143,4.5 Z" id="path-1"></path>
    </defs>
    <g id="RR2云盘" stroke="none" stroke-width="1" fill="none" fill-rule="evenodd">
        <g id="上">
            <mask id="mask-2" fill="white">
                <use xlink:href="#path-1"></use>
            </mask>
            <use id="合并形状" fill="#000000" fill-rule="nonzero" opacity="0.903802781" xlink:href="#path-1"></use>
            <g mask="url(#mask-2)" fill="#000000" fill-opacity="0.9" id="color/#000000">
                <rect id="矩形" x="0" y="0" width="24" height="24"></rect>
            </g>
        </g>
    </g>
</svg>