<?xml version="1.0" standalone="no"?>
<svg xmlns="http://www.w3.org/2000/svg" width="25" height="24"><rect width="25" height="24" opacity="0"></rect><g><path d="M18.51 21.5Q20.26 21.5 21.75 20.63Q23.24 19.75 24.12 18.26Q24.99 16.78 24.99 15Q24.99 13.44 24.3 12.06Q23.6 10.68 22.36 9.78Q21.13 8.88 19.62 8.62Q19.11 6.84 17.91 5.45Q16.71 4.06 15.03 3.28Q13.35 2.5 11.48 2.5Q9.44 2.5 7.68 3.38Q5.91 4.27 4.71 5.86Q3.51 7.44 3.15 9.43Q1.71 10.3 0.86 11.8Q0.01 13.3 0.01 15Q0.01 16.78 0.88 18.26Q1.76 19.75 3.26 20.63Q4.76 21.5 6.51 21.5L18.51 21.5ZM11.48 4.99Q12.97 4.99 14.23 5.63Q15.49 6.26 16.3 7.39Q17.12 8.52 17.36 9.96Q17.41 10.42 17.76 10.72Q18.1 11.02 18.58 11.02Q19.69 11.04 20.58 11.57Q21.46 12.1 21.99 13Q22.52 13.9 22.52 15Q22.52 16.13 21.99 17.04Q21.46 17.95 20.55 18.48Q19.64 19.01 18.51 19.01L6.51 19.01Q5.38 19.01 4.48 18.48Q3.58 17.95 3.06 17.04Q2.53 16.13 2.53 15Q2.53 13.82 3.14 12.86Q3.75 11.9 4.86 11.4Q5.17 11.26 5.37 10.97Q5.58 10.68 5.58 10.34Q5.72 8.83 6.54 7.61Q7.35 6.38 8.65 5.69Q9.94 4.99 11.48 4.99Z" fill="rgba(0,0,0,0.4)"></path></g></svg>