<?xml version="1.0" encoding="UTF-8"?><svg id="_层_1" xmlns="http://www.w3.org/2000/svg" viewBox="0 0 24 24"><defs><style>.cls-1{fill-rule:evenodd;}</style></defs><g id="mask-2"><path id="path-1" class="cls-1" d="M15.218,4.194l-.033,.03-7.159,6.534c-.687,.669-.701,1.746-.043,2.433l.043,.043,7.16,6.547c.132,.129,.301,.201,.473,.217l.047,.003h.047c.189-.006,.376-.079,.521-.219,.29-.283,.3-.734,.031-1.029l-.031-.032-6.797-6.193c-.29-.283-.3-.734-.031-1.029l.031-.032,6.796-6.18c.301-.293,.301-.768,0-1.061-.145-.141-.333-.214-.523-.219h-.047c-.174,.006-.346,.069-.485,.189Z"/></g></svg>