<svg width="24.000000" height="24.000000" viewBox="0 0 24 24" fill="none" xmlns="http://www.w3.org/2000/svg" xmlns:xlink="http://www.w3.org/1999/xlink">
	<desc>
			Created with Pixso.
	</desc>
	<defs/>
	<rect id="bg" rx="4.000000" width="24.000000" height="24.000000" fill="#F7CE00" fill-opacity="1.000000"/>
	<path id="path" d="M16.32 18.06C16.45 17.98 16.55 17.87 16.6 17.72C16.66 17.57 16.67 17.42 16.63 17.25L15.77 13.78C15.73 13.63 15.74 13.48 15.78 13.34C15.83 13.2 15.91 13.08 16.03 13L18.73 10.72C18.86 10.63 18.95 10.51 18.99 10.36C19.04 10.21 19.04 10.05 18.99 9.9C18.95 9.76 18.86 9.64 18.73 9.54C18.6 9.44 18.45 9.39 18.3 9.38L14.78 9.11C14.63 9.1 14.49 9.05 14.38 8.96C14.25 8.88 14.17 8.77 14.12 8.63L12.76 5.31C12.69 5.17 12.58 5.06 12.45 4.97C12.32 4.89 12.18 4.84 12.03 4.84C11.88 4.84 11.73 4.89 11.6 4.97C11.47 5.06 11.37 5.17 11.3 5.31L9.94 8.63C9.89 8.77 9.8 8.88 9.68 8.96C9.56 9.05 9.43 9.1 9.27 9.11L5.75 9.38C5.6 9.39 5.46 9.44 5.33 9.54C5.2 9.64 5.11 9.76 5.07 9.9C5.02 10.05 5.01 10.21 5.06 10.36C5.11 10.51 5.2 10.63 5.33 10.72L8.02 13C8.13 13.1 8.21 13.23 8.27 13.37C8.32 13.5 8.32 13.64 8.28 13.78L7.43 17.25C7.39 17.42 7.4 17.57 7.45 17.72C7.51 17.88 7.6 17.99 7.73 18.06C7.86 18.15 8.01 18.2 8.17 18.21C8.33 18.21 8.47 18.17 8.6 18.07L11.6 16.14C11.73 16.06 11.87 16.02 12.02 16.02C12.17 16.02 12.31 16.06 12.44 16.14L15.44 18.07C15.56 18.16 15.71 18.2 15.88 18.19C16.05 18.18 16.2 18.14 16.32 18.06Z" fill="#FFFFFF" fill-opacity="1.000000" fill-rule="nonzero"/>
</svg>
