<?xml version="1.0" encoding="UTF-8"?>
<svg width="14px" height="15px" viewBox="0 0 14 15" version="1.1" xmlns="http://www.w3.org/2000/svg" xmlns:xlink="http://www.w3.org/1999/xlink">
    <title>ic_云端</title>
    <g id="RR2云盘" stroke="none" stroke-width="1" fill="none" fill-rule="evenodd">
        <g id="2_20-空间不足暂停同步" transform="translate(-68, -466)">
            <g id="编组-3" transform="translate(16, 136)">
                <g id="编组-101备份-2" transform="translate(0, 295)">
                    <g id="编组-78" transform="translate(52, 0)">
                        <g id="ic_云端" transform="translate(0, 35.5)">
                            <g id="编组-4" opacity="0.400000006" transform="translate(1.5, 3.189)">
                                <path d="M5.33333265,-0.547893373 C6.1061673,-0.547893373 6.8345503,-0.312516206 7.44094771,0.0980534764 C7.96139515,0.450429551 8.39191976,0.931944679 8.68362358,1.50449581 C9.30355269,1.59313381 9.88235539,1.84354778 10.3762487,2.26036357 C11.1309473,2.95655218 11.5478934,3.84085007 11.5478934,4.82008731 C11.5478934,5.74559601 11.1732877,6.5829792 10.567476,7.18901175 C9.96162966,7.79507899 9.1244894,8.16984629 8.20059819,8.16984439 C7.84856562,8.17077136 7.4751138,8.13093006 6.54047179,8.0022592 C5.92733391,7.91786876 5.6514477,7.88326965 5.37768104,7.862397 C4.88357944,7.82457872 4.30673271,7.84335177 3.69657887,7.90081437 C3.47131236,7.92202935 3.25523425,7.94737757 3.05450573,7.97479719 C1.91393043,8.02323369 1.08204745,7.75709865 0.502830994,7.32845548 C-0.190800079,6.81514094 -0.547893373,6.06295649 -0.547893373,5.22636641 C-0.547893373,4.4781479 -0.257742754,3.79772948 0.216117697,3.2914133 C0.594514203,2.88709959 1.09012131,2.59396046 1.64859207,2.46575591 C1.8078635,1.67390915 2.21580372,0.97202621 2.78772507,0.44533529 C3.45728679,-0.171274099 4.35131641,-0.547893373 5.33333265,-0.547893373 Z" id="Combined-Shape" stroke-width="1.09578675" fill-rule="nonzero" stroke="#000000"></path>
                                <path d="M1.80906826,2.0661295 C1.52500526,2.68876317 1.58956503,3.31139685 2.00274758,3.93403053 C2.62252139,4.86798104 3.39723866,5.64627314 3.39723866,6.58022365 C3.39723866,7.35851575 2.66761655,8.04403438 1.73159653,7.99894962" id="路径-2" stroke-linecap="round" stroke="#000000"></path>
                                <path d="M8.90795011,1.58782994 C7.95527189,1.37456796 7.14549541,1.69446093 6.47862065,2.54750885 C5.47830852,3.82708073 4.76379985,5.74643855 3.90638946,6.86606395 C3.33478252,7.61248087 2.78222916,7.99081134 2.24872935,8.00105534" id="路径-3" stroke-linecap="round" stroke="#000000"></path>
                            </g>
                        </g>
                    </g>
                </g>
            </g>
        </g>
    </g>
</svg>