<?xml version="1.0" encoding="UTF-8"?>
<svg width="14px" height="14px" viewBox="0 0 14 14" version="1.1" xmlns="http://www.w3.org/2000/svg" xmlns:xlink="http://www.w3.org/1999/xlink">
    <title>编组 4备份</title>
    <g id="RR2云盘" stroke="none" stroke-width="1" fill="none" fill-rule="evenodd" opacity="0.400000006">
        <g id="2_20-空间不足暂停同步" transform="translate(-68, -348)">
            <g id="编组-3" transform="translate(16, 136)">
                <g id="编组-96" transform="translate(0, 177)">
                    <g id="编组-85" transform="translate(52, 0)">
                        <g id="编组-4备份" transform="translate(0, 35)">
                            <path d="M14,0 L13.999,14 L0,14 L0,0 L14,0 Z" id="形状结合" fill="#000000" opacity="0" transform="translate(7, 7) scale(-1, 1) translate(-7, -7)"></path>
                            <g id="编组" transform="translate(1.6, 1.6)">
                                <circle id="椭圆形" stroke="#000000" cx="5.4" cy="5.4" r="5.4"></circle>
                                <g id="编组-171" transform="translate(4.6565, 2.0207)" fill="#000000">
                                    <path d="M0.742424242,0 C1.12341153,-6.99862291e-17 1.43226275,0.308851219 1.43226275,0.689838505 C1.43226275,0.706717833 1.43164323,0.723591475 1.43040544,0.740425358 L1.14085788,4.67827217 C1.12551132,4.8869854 0.951700924,5.04848485 0.742424242,5.04848485 C0.533147561,5.04848485 0.359337162,4.8869854 0.343990601,4.67827217 L0.054443041,0.740425358 C0.0265046936,0.360463832 0.311875864,0.0297956512 0.691837389,0.00185730374 C0.708671272,0.000619518242 0.725544914,3.10068231e-18 0.742424242,0 Z" id="路径-12"></path>
                                    <path d="M0.768235397,5.87575758 C0.433203731,5.87575758 0.161568731,6.14739258 0.161568731,6.48242424 C0.161568731,6.81745591 0.433203731,7.08909091 0.768235397,7.08909091 C1.10326706,7.08909091 1.37490206,6.81745591 1.37490206,6.48242424 C1.37490206,6.14739258 1.10326706,5.87575758 0.768235397,5.87575758" id="Fill-7-Copy-2"></path>
                                </g>
                            </g>
                        </g>
                    </g>
                </g>
            </g>
        </g>
    </g>
</svg>