<?xml version="1.0" encoding="UTF-8"?>
<svg width="20px" height="20px" viewBox="0 0 20 20" version="1.1" xmlns="http://www.w3.org/2000/svg" xmlns:xlink="http://www.w3.org/1999/xlink">
    <title>编组 11</title>
    <g id="页面-1" stroke="none" stroke-width="1" fill="none" fill-rule="evenodd">
        <g id="编组-11">
            <g id="ic/Combined-Shape备份" transform="translate(2, 4)" fill="#1F66F5" fill-rule="nonzero">
                <path d="M14.5787374,4.17359004 C14.6088254,4.2007859 14.6337682,4.23208797 14.653454,4.26608121 C15.480305,5.0652781 16,6.22211605 16,7.50896106 C16,9.9209018 14.1775144,11.8738178 11.9260444,11.8738178 C11.4373815,11.8752186 10.9192026,11.8119927 9.62207692,11.6207369 C8.70491029,11.4855355 8.29216599,11.43079 7.88290069,11.3973705 C7.12442244,11.335194 6.23886379,11.3640045 5.30211942,11.4584899 C5.02358961,11.486584 4.75438664,11.5191741 4.49964395,11.5544157 C5.518771,10.8130205 6.42696466,9.77912627 7.29803345,8.46710569 C7.8168073,7.68571852 9.13991828,5.37567022 9.26059915,5.1870094 C9.76005288,4.40621168 10.4788869,3.78115283 11.3071988,3.42233048 C11.616605,3.2882966 12.0549543,3.19622587 12.6183472,3.15131423 L12.4077146,3.17092311 C13.1813403,3.26391565 13.9387209,3.59509472 14.5787374,4.17359004 Z M2.46562836,4.70403043 C2.62955558,5.80187252 2.99199617,6.76123018 3.55367554,7.57707199 C4.68014465,9.21327342 4.73710349,10.3798674 3.15885403,11.4796127 L3.02378771,11.5476888 L2.78363548,11.6540943 C1.20487646,11.3783023 0,9.91089224 0,8.14188195 C0,6.51573393 1.0183404,5.14438837 2.4092945,4.71943159 Z M7.75757477,8.8817842e-16 C9.44788005,8.8817842e-16 10.9671652,0.970250284 11.7896772,2.47500166 C11.5004301,2.53190192 11.2490006,2.60617341 11.034129,2.6992552 C10.0719196,3.11608153 9.23955043,3.83986437 8.6598092,4.7461758 C8.52388753,4.95866261 7.20526171,7.26088018 6.70452022,8.01510666 C6.16743193,8.82407938 5.61957311,9.51655818 5.04283088,10.0907598 C5.07700552,9.91291016 5.09220557,9.73194457 5.08902047,9.5472554 C5.07534432,8.75423841 4.74168023,7.98837895 4.13982122,7.11417604 C3.58432859,6.30732049 3.24929381,5.33323197 3.13576531,4.18463863 L3.14134738,4.23910455 C3.48426913,1.83862409 5.4204311,8.8817842e-16 7.75757477,8.8817842e-16 Z" id="Combined-Shape"></path>
            </g>
            <rect id="矩形" x="0" y="0" width="20" height="20"></rect>
        </g>
    </g>
</svg>