<svg width="40.000000" height="40.000000" viewBox="0 0 40 40" fill="none" xmlns="http://www.w3.org/2000/svg" xmlns:xlink="http://www.w3.org/1999/xlink">
	<desc>
			Created with Pixso.
	</desc>
	<defs/>
	<circle id="椭圆 2" cx="20.000000" cy="20.000000" r="20.000000" fill="#0A59F7" fill-opacity="1.000000"/>
	<path id="减去顶层" d="M13.6883 11C13.3986 11 13.1227 11.0425 12.8606 11.1275C12.6821 11.1854 12.5099 11.2631 12.3442 11.3604C12.1176 11.4914 11.9171 11.6475 11.7426 11.8286L11.7426 11.8286C11.597 11.9798 11.4697 12.1484 11.3604 12.3344C11.2725 12.4818 11.2006 12.6348 11.1448 12.7935C11.0483 13.0683 11 13.3601 11 13.6688C11 13.9109 11.0305 14.1447 11.0914 14.3703L11.0914 14.3703L11.0914 14.3703C11.1515 14.5925 11.2411 14.8068 11.3604 15.013C11.4697 15.199 11.597 15.3676 11.7426 15.5188C11.9171 15.7 12.1176 15.856 12.3442 15.987C12.5214 16.0939 12.7059 16.1777 12.8978 16.2383C13.1488 16.3175 13.4123 16.3571 13.6883 16.3571L26.8182 16.3571C27.3052 16.3571 27.7532 16.2338 28.1624 15.987C28.5779 15.7468 28.9058 15.4221 29.1461 15.013C29.3864 14.5974 29.5065 14.1494 29.5065 13.6688C29.5065 13.1818 29.3864 12.737 29.1461 12.3344C28.9058 11.9254 28.5779 11.6006 28.1624 11.3604C27.7532 11.1201 27.3052 11 26.8182 11L13.6883 11ZM13.0711 13.1354C12.9955 13.2954 12.9578 13.4732 12.9578 13.6688C12.9578 13.8499 12.9913 14.0159 13.0585 14.1671C13.1167 14.2979 13.2 14.4175 13.3084 14.526C13.4093 14.6268 13.5204 14.706 13.6419 14.7633C13.8019 14.8389 13.9797 14.8766 14.1753 14.8766C14.3106 14.8766 14.4391 14.8563 14.5609 14.8157C14.7313 14.7589 14.8885 14.6624 15.0325 14.526C15.2727 14.2922 15.3928 14.0065 15.3928 13.6688C15.3928 13.4818 15.3574 13.3111 15.2864 13.1567C15.2268 13.0269 15.1422 12.9087 15.0325 12.8019C14.8885 12.6656 14.7313 12.569 14.5609 12.5121C14.4391 12.4716 14.3106 12.4513 14.1753 12.4513C13.9797 12.4513 13.8019 12.4891 13.6419 12.5646C13.5204 12.6219 13.4093 12.701 13.3084 12.8019C13.2075 12.9028 13.1284 13.014 13.0711 13.1354ZM12.8606 17.4392C12.682 17.4971 12.5099 17.5747 12.3442 17.6721C11.9286 17.9124 11.6006 18.2402 11.3604 18.6558C11.2411 18.8621 11.1515 19.0763 11.0914 19.2985L11.0914 19.2985C11.0305 19.5241 11 19.7579 11 20C11 20.2421 11.0305 20.4758 11.0914 20.7014L11.0914 20.7014L11.0914 20.7015C11.1515 20.9237 11.2411 21.1379 11.3604 21.3442C11.6006 21.7598 11.9286 22.0876 12.3442 22.3279C12.7532 22.5682 13.2013 22.6883 13.6883 22.6883L26.8182 22.6883C27.3052 22.6883 27.7532 22.5682 28.1624 22.3279C28.5779 22.0876 28.9058 21.7598 29.1461 21.3442C29.3864 20.9286 29.5065 20.4805 29.5065 20C29.5065 19.5195 29.3864 19.0714 29.1461 18.6558C28.9058 18.2402 28.5779 17.9124 28.1624 17.6721C27.7532 17.4318 27.3052 17.3117 26.8182 17.3117L13.6883 17.3117C13.3986 17.3117 13.1227 17.3542 12.8606 17.4392ZM13.0711 19.4666C12.9955 19.6266 12.9578 19.8044 12.9578 20C12.9578 20.3442 13.0746 20.6331 13.3084 20.8669C13.5422 21.1006 13.8312 21.2175 14.1753 21.2175C14.3106 21.2175 14.4391 21.1973 14.5609 21.1567C14.7313 21.0999 14.8885 21.0032 15.0325 20.8669C15.2727 20.6331 15.3928 20.3442 15.3928 20C15.3928 19.813 15.3574 19.6423 15.2864 19.4879C15.2268 19.3581 15.1422 19.2399 15.0325 19.1331C14.8885 18.9968 14.7313 18.9001 14.5609 18.8433C14.4391 18.8027 14.3106 18.7825 14.1753 18.7825C13.9797 18.7825 13.8019 18.8203 13.6419 18.8958C13.5204 18.9531 13.4093 19.0322 13.3084 19.1331C13.2075 19.234 13.1284 19.3452 13.0711 19.4666ZM13.6883 23.6234C13.2013 23.6234 12.7532 23.7435 12.3442 23.9838C11.9286 24.224 11.6006 24.5519 11.3604 24.9675C11.1201 25.3831 11 25.8312 11 26.3117C11 26.7922 11.1201 27.2402 11.3604 27.6558C11.6006 28.0714 11.9286 28.3994 12.3442 28.6396C12.5099 28.7369 12.6821 28.8146 12.8606 28.8725C13.1227 28.9575 13.3986 29 13.6883 29L26.8182 29C27.3052 29 27.7532 28.8799 28.1624 28.6396C28.5779 28.3994 28.9058 28.0714 29.1461 27.6558C29.3864 27.2402 29.5065 26.7922 29.5065 26.3117C29.5065 25.8312 29.3864 25.3831 29.1461 24.9675C28.9058 24.5519 28.5779 24.224 28.1624 23.9838C27.7532 23.7435 27.3052 23.6234 26.8182 23.6234L13.6883 23.6234ZM13.3084 25.474C13.0746 25.7078 12.9578 25.9935 12.9578 26.3312C12.9578 26.6754 13.0746 26.9643 13.3084 27.1981C13.5422 27.4318 13.8312 27.5487 14.1753 27.5487C14.3106 27.5487 14.4391 27.5284 14.5609 27.4879C14.7313 27.431 14.8885 27.3344 15.0325 27.1981C15.2727 26.9643 15.3928 26.6754 15.3928 26.3312C15.3928 25.9935 15.2727 25.7078 15.0325 25.474C14.7857 25.2402 14.5 25.1234 14.1753 25.1234C13.9797 25.1234 13.8019 25.1611 13.6419 25.2367C13.5204 25.294 13.4093 25.3732 13.3084 25.474Z" clip-rule="evenodd" fill="#FFFFFF" fill-opacity="1.000000" fill-rule="evenodd"/>
</svg>
