<?xml version="1.0" encoding="UTF-8"?>
<svg width="150px" height="150px" viewBox="0 0 150 150" version="1.1" xmlns="http://www.w3.org/2000/svg" xmlns:xlink="http://www.w3.org/1999/xlink">
    <title>EmptyPage/02 EorrorNetwork</title>
    <defs>
        <path d="M53.0775076,0 C78.5592538,0 99.8470159,17.9565804 104.977356,41.9063038 C101.586109,44.8823655 97.7575333,47.929994 93.571824,50.9905945 L92.4847975,51.7799319 C91.7549042,52.3062994 91.0146596,52.8329029 90.2644624,53.3594482 L89.131752,54.1491857 L87.4053491,55.3331452 C87.0181213,55.5961151 86.62853,55.8589785 86.236625,56.1216986 L85.054019,56.9093919 C84.0628128,57.5653834 83.0574578,58.2202492 82.0387327,58.8734144 L80.8098949,59.6563596 L79.5685209,60.4374515 C78.0153107,61.4086782 76.4336481,62.3750826 74.8261308,63.3347477 L74.8258394,66.130814 C86.9197202,58.9951551 97.4144741,51.5804889 105.489867,44.6462058 C105.92732,47.391849 106.155015,50.2080878 106.155015,53.0775076 C106.155015,82.3914056 82.3914056,106.155015 53.0775076,106.155015 C39.0132091,106.155015 26.2265391,100.684838 16.7290095,91.7559951 C23.8844848,89.8109874 31.9028987,87.0141942 40.4115377,83.4531365 L42.5425231,82.5496507 C47.7457821,80.3153849 53.1176442,77.8032066 58.5751953,75.0325722 L58.5747044,72.334001 C57.1000797,73.0903187 55.6281118,73.8294117 54.1607304,74.5505936 L52.7904998,75.2194764 C50.0529436,76.5467257 47.3335188,77.8106295 44.6448346,79.006705 L43.3031125,79.5990696 L41.9668641,80.1800049 C40.8557018,80.6593209 39.750606,81.1266017 38.652489,81.5815231 L37.3381567,82.1214754 L36.0308742,82.6494381 L34.7309917,83.1652867 L34.083935,83.4186292 L32.7958093,83.9160731 C31.9397785,84.2435744 31.0892649,84.562792 30.2447353,84.87356 L28.9824875,85.3333539 C23.9843888,87.1353072 19.2072442,88.634037 14.7499855,89.7943703 C5.61326103,80.2605628 0,67.3245589 0,53.0775076 C0,23.7636096 23.7636096,0 53.0775076,0 Z" id="path-1"></path>
    </defs>
    <g id="页面-1" stroke="none" stroke-width="1" fill="none" fill-rule="evenodd">
        <g id="同步盘_无网络" transform="translate(-1105, -690)">
            <g id="宫格" transform="translate(436, 294)">
                <g id="内容区" transform="translate(204, 48)">
                    <g id="编组-3" transform="translate(449, 348)">
                        <g id="EmptyPage/02-EorrorNetwork" transform="translate(19.8998, 18.75)">
                            <g id="编组" transform="translate(0, 2.2752)">
                                <g id="椭圆形-+-椭圆形备份-13-+-椭圆形备份-16-+-椭圆形备份-14-+-椭圆形备份-15-蒙版" transform="translate(15.0255, 0)">
                                    <mask id="mask-2" fill="white">
                                        <use xlink:href="#path-1"></use>
                                    </mask>
                                    <use id="形状结合" fill="#A1A7B3" opacity="0.300000012" xlink:href="#path-1"></use>
                                    <circle id="椭圆形" fill="#A1A7B3" opacity="0.200000003" mask="url(#mask-2)" cx="44.7178002" cy="93.5918009" r="5.5731383"></circle>
                                    <circle id="椭圆形备份-13" fill="#A1A7B3" opacity="0.200000003" mask="url(#mask-2)" cx="82.2701368" cy="39.8081307" r="7.96162614"></circle>
                                    <circle id="椭圆形备份-16" fill="#A1A7B3" opacity="0.200000003" mask="url(#mask-2)" cx="34.7979357" cy="42.9927812" r="5.75006332"></circle>
                                    <circle id="椭圆形备份-14" fill="#A1A7B3" opacity="0.200000003" mask="url(#mask-2)" cx="56.6160081" cy="5.30775076" r="20.3463779"></circle>
                                    <circle id="椭圆形备份-15" fill="#A1A7B3" opacity="0.200000003" mask="url(#mask-2)" cx="10.173189" cy="74.7508232" r="13.7116895"></circle>
                                    <circle id="椭圆形备份-19" fill="#A1A7B3" opacity="0.200000003" mask="url(#mask-2)" cx="98.2127397" cy="76.7377593" r="13.7116895"></circle>
                                </g>
                                <path d="M15.8619648,65.5564636 C16.0703906,66.5358345 16.3001628,67.4029014 16.5349907,68.1840063 C16.1992097,68.4859466 15.8701127,68.787122 15.5457679,69.0874075 L14.6470039,69.9290289 L13.7793797,70.7606648 L13.2183034,71.3093504 L12.6711267,71.8533117 L12.1378736,72.3924343 L11.6185679,72.9266035 L11.1132336,73.455705 L10.6218946,73.9796243 L10.1445748,74.4982468 L9.68129799,75.0114581 L9.23208814,75.5191436 L8.79696914,76.0211889 L8.17076326,76.7634309 L7.77097593,77.2508747 L7.38536308,77.7322775 L7.01394861,78.2075248 C6.71035919,78.6009677 6.42158464,78.9878794 6.14768718,79.3679617 L5.82615523,79.8207632 C5.40697793,80.4200769 5.02594974,81.0016021 4.68332554,81.5641175 L4.43356212,81.9824206 C2.49312451,85.3000255 1.93752485,87.9222856 2.82182011,89.5854031 C3.70611538,91.2485206 6.19075493,92.2542569 10.026253,92.5007423 L10.5127079,92.5275912 C11.1706473,92.5580975 11.8658218,92.5673955 12.5970764,92.5550138 L13.1522643,92.5416551 C13.6205283,92.5271232 14.1027732,92.5040765 14.5987172,92.4723999 L15.2004074,92.4302383 L15.8151404,92.3797478 L16.7614582,92.2882986 L17.4083243,92.2167924 L18.0678542,92.1368026 L18.7399395,92.0482849 L19.7713721,91.8994219 L21.1895491,91.6706777 L21.9167941,91.5432375 L22.6559989,91.4070262 L23.7869941,91.1861669 L24.7495965,90.9868586 L25.7302517,90.7735864 L26.93057,90.499106 C32.1775852,89.2678685 37.9293789,87.5248607 44.0079867,85.3333539 L45.2702346,84.87356 C46.1147641,84.562792 46.9652778,84.2435744 47.8213086,83.9160731 L49.1094342,83.4186292 L49.756491,83.1652867 L51.0563734,82.6494381 L52.3636559,82.1214754 L53.6779883,81.5815231 C54.7761053,81.1266017 55.8812011,80.6593209 56.9923634,80.1800049 L58.3286118,79.5990696 L59.6703338,79.006705 C62.3590181,77.8106295 65.0784429,76.5467257 67.815999,75.2194764 L69.1862297,74.5505936 C70.6536111,73.8294117 72.125579,73.0903187 73.6002037,72.334001 L73.6006946,75.0325722 C68.1431435,77.8032066 62.7712814,80.3153849 57.5680224,82.5496507 L55.4370369,83.4531365 C27.5099455,95.1412554 4.86398239,98.5960556 0.678797868,90.7248683 C-1.02010973,87.5296878 0.529302145,82.8562021 4.66254805,77.3196065 L5.21626559,76.5925976 C5.31097583,76.4706305 5.40689351,76.3482682 5.5040118,76.2255169 L6.1010743,75.4843926 C6.40675462,75.1115474 6.72311758,74.7353155 7.04997886,74.3558677 L7.71764456,73.5927344 C7.83123693,73.4648478 7.94598213,73.3366164 8.06187333,73.2080466 L8.7709179,72.4326182 L9.50713878,71.6493722 C9.63208874,71.5181966 9.7581574,71.3867079 9.88533793,71.2549124 L10.6617089,70.4605089 L11.4644369,69.6590462 L12.2931944,68.8508277 C12.4334715,68.7155785 12.5748196,68.5800604 12.7172317,68.4442799 L13.5844189,67.6264966 C13.7310601,67.4896911 13.8787517,67.3526358 14.0274868,67.215337 L14.9323665,66.3886714 L15.8619648,65.5564636 Z M137.296466,18.0839655 C142.0485,27.0212409 121.386229,47.5245267 89.8513387,66.130814 L89.85163,63.3347477 C91.4591474,62.3750826 93.0408099,61.4086782 94.5940202,60.4374515 L95.8353941,59.6563596 L97.064232,58.8734144 C98.082957,58.2202492 99.0883121,57.5653834 100.079518,56.9093919 L101.262124,56.1216986 C101.654029,55.8589785 102.043621,55.5961151 102.430848,55.3331452 L104.157251,54.1491857 L105.289962,53.3594482 C106.040159,52.8329029 106.780403,52.3062994 107.510297,51.7799319 L108.597323,50.9905945 C113.813279,47.1766753 118.47466,43.3828998 122.429496,39.7214263 L123.32826,38.8798049 L124.195884,38.048169 L124.756961,37.4994834 L125.572506,36.6853488 L126.356696,35.8822303 L126.86203,35.3531288 L127.830689,34.310587 L128.293966,33.7973757 L128.743176,33.2896902 L129.178295,32.7876449 L129.804501,32.0454029 L130.204288,31.5579591 L130.589901,31.0765563 L130.961315,30.601309 C131.264905,30.2078661 131.553679,29.8209544 131.827577,29.4408722 L132.149109,28.9880706 C132.568286,28.3887569 132.949314,27.8072317 133.291938,27.2447163 L133.541702,26.8264132 C135.482139,23.5088083 136.037739,20.8865482 135.153444,19.2234307 C134.269149,17.5603132 131.784509,16.5545769 127.949011,16.3080915 L127.462556,16.2812426 C126.804617,16.2507363 126.109442,16.2414383 125.378188,16.25382 L124.823,16.2671787 C124.354736,16.2817106 123.872491,16.3047573 123.376547,16.3364339 L122.774857,16.3785955 L122.160124,16.429086 L121.213806,16.5205352 L120.56694,16.5920414 L119.90741,16.6720312 L119.235324,16.7605489 L118.550792,16.8576387 L117.853921,16.9633448 L116.785715,17.1381561 L116.05847,17.2655963 C115.814056,17.3095358 115.567648,17.3549371 115.319265,17.4018076 L114.18827,17.6226669 L113.030974,17.8635098 L112.245012,18.0352474 L111.044694,18.3097278 C110.561928,18.4230112 110.074888,18.540627 109.583714,18.6625259 C109.021709,17.9529654 108.430922,17.2732807 107.804588,16.6318087 L109.019876,16.3237453 C109.220896,16.2738553 109.421147,16.2246938 109.620618,16.1762627 L110.808028,15.8944603 C111.200666,15.8034598 111.590116,15.7153986 111.976304,15.6302939 L113.125007,15.3838666 L114.2537,15.1552814 C114.440123,15.1186765 114.625694,15.0828192 114.810405,15.0477118 L115.908258,14.8460829 L116.985004,14.6625537 C117.162678,14.6334795 117.339455,14.6051638 117.515324,14.5776086 L118.559586,14.421422 C118.731792,14.3969178 118.903072,14.3731785 119.073418,14.3502062 L120.084209,14.221594 C120.417353,14.1818028 120.746687,14.1450969 121.072137,14.1114934 L122.036764,14.0200076 C122.195569,14.0063169 122.353385,13.9934061 122.510203,13.9812774 L123.439056,13.9179068 L124.343511,13.8734085 L125.22313,13.8478854 C131.437021,13.733211 135.703674,15.0883596 137.296466,18.0839655 Z" id="形状结合" fill="#A1A7B3" opacity="0.600000024"></path>
                                <circle id="椭圆形备份-16" fill="#A1A7B3" opacity="0.200000003" cx="136.601139" cy="46.0005066" r="4.42312563"></circle>
                                <circle id="椭圆形备份-17" fill="#A1A7B3" opacity="0.200000003" cx="106.986302" cy="9.24031155" r="2.38848784"></circle>
                                <circle id="椭圆形备份-18" fill="#A1A7B3" opacity="0.2" cx="5.46350585" cy="58.8275709" r="2.21156282"></circle>
                                <path d="M85.750976,103.14958 C90.6265226,103.887757 93.6950757,104.960738 93.6950757,106.155015 C93.6950757,108.381437 83.0306181,110.186309 69.875343,110.186309 L69.4227125,110.185596 C56.476317,110.144762 46.0556104,108.355846 46.0556104,106.155015 C46.0556104,105.16521 48.1633807,104.258722 51.6607266,103.557099 C56.8375501,105.244153 62.3639068,106.155015 68.1030069,106.155015 C74.2589254,106.155015 80.1700763,105.10704 85.6677859,103.179763 Z" id="形状结合" fill="#A1A7B3" opacity="0.15"></path>
                            </g>
                            <path d="M2.27259094,9.39088581 C3.17995962,9.1477571 4.11262203,9.68623 4.35575074,10.5935987 L6.6546955,19.1733773 C6.89782421,20.080746 6.35935131,21.0134084 5.45198263,21.2565371 C4.54461394,21.4996658 3.61195153,20.961193 3.36882282,20.0538243 L1.06987806,11.4740456 C0.826749356,10.5666769 1.36522225,9.63401452 2.27259094,9.39088581 Z M15.2015725,8.2366579 C16.1409497,8.2366579 16.9024654,8.99817358 16.9024654,9.93755076 L16.9024654,18.8199912 C16.9024654,19.7593684 16.1409497,20.5208841 15.2015725,20.5208841 C14.2621953,20.5208841 13.5006796,19.7593684 13.5006796,18.8199912 L13.5006796,9.93755076 C13.5006796,8.99817358 14.2621953,8.2366579 15.2015725,8.2366579 Z M27.1856136,9.39088581 C28.0929823,9.63401452 28.6314552,10.5666769 28.3883265,11.4740456 L26.0893817,20.0538243 C25.846253,20.961193 24.9135906,21.4996658 24.0062219,21.2565371 C23.0988532,21.0134084 22.5603803,20.080746 22.803509,19.1733773 L25.1024538,10.5935987 C25.3455825,9.68623 26.2782449,9.1477571 27.1856136,9.39088581 Z" id="形状结合" fill="#A1A7B3" opacity="0.2" transform="translate(14.7291, 14.7758) rotate(-51) translate(-14.7291, -14.7758)"></path>
                            <path d="M80.2278256,54.3421171 C80.8612498,54.4406672 81.3091241,54.9987045 81.2849001,55.6240881 L81.2707991,55.7694244 L79.3326573,68.2275 L85.0009057,65.917299 L82.967388,84.0709852 C82.8905372,84.7570502 82.2720717,85.250916 81.5860066,85.1740651 C80.9489462,85.1027037 80.4776087,84.5643377 80.4750561,83.9384903 L80.4829266,83.7926838 L82.0476573,69.82 L76.1826613,72.2111967 L78.8005182,55.3850906 C78.8990683,54.7516663 79.4571056,54.303792 80.0824892,54.3280161 L80.2278256,54.3421171 Z" id="路径-13" fill="#A1A7B3" opacity="0.600000024"></path>
                        </g>
                    </g>
                </g>
            </g>
        </g>
    </g>
</svg>