<svg width="24.000000" height="24.000000" viewBox="0 0 24 24" fill="none" xmlns="http://www.w3.org/2000/svg" xmlns:xlink="http://www.w3.org/1999/xlink">
	<desc>
			Created with Pixso.
	</desc>
	<defs/>
	<rect id="矩形" rx="4.000000" width="24.000000" height="24.000000" fill="#00A1FF" fill-opacity="1.000000"/>
	<mask id="mask_73_1633" fill="white">
		<path id="形状结合" d="M8.60248 6.31299L15.3987 6.31299C16.2368 6.31299 16.9783 6.85599 17.2313 7.655L19.3734 14.4198C18.897 13.9547 18.2456 13.6682 17.5272 13.6682L6.47394 13.6682C5.75558 13.6682 5.10419 13.9547 4.62778 14.4198L6.76987 7.655C7.02286 6.85599 7.76437 6.31299 8.60248 6.31299ZM13.5648 8.58957C13.1938 8.073 12.5812 7.73993 11.925 7.73993C11.0178 7.73993 10.2002 8.371 9.96939 9.19495C9.97705 9.58105 10.0871 9.90921 10.3024 10.1817C10.5474 10.4818 10.6803 10.7447 10.6682 11.0168C10.6654 11.0803 10.6541 11.1425 10.6341 11.2034C10.915 11.0063 11.1792 10.7686 11.4337 10.491C11.6647 10.2321 12.2431 9.44189 12.3001 9.36896C12.5381 9.05789 12.8747 8.80948 13.262 8.66641C13.3477 8.63443 13.4485 8.60892 13.5648 8.58957ZM13.841 8.82843C14.1646 8.86032 14.4939 8.974 14.7909 9.17258C14.805 9.18192 14.8171 9.19266 14.8272 9.20432C15.2238 9.47864 15.52 9.8757 15.6018 10.3174C15.7552 11.1452 14.9843 11.7057 13.9035 11.7057C13.8493 11.7058 13.6364 11.7053 13.3395 11.7044C12.3519 11.7018 10.4349 11.6965 10.3406 11.7057C10.8432 11.451 11.2863 11.0963 11.6992 10.6462C11.9366 10.3781 12.5101 9.58517 12.5602 9.52042C12.7638 9.25241 13.0557 9.03787 13.3927 8.9147C13.5014 8.8746 13.6511 8.84546 13.841 8.82843ZM9.664 9.35419C9.68683 9.73117 9.80603 10.0606 10.0255 10.3407C10.4885 10.9036 10.4834 11.3046 9.69281 11.6828C9.6333 11.7033 9.57306 11.7224 9.51208 11.7402C8.76736 11.6458 8.28357 11.142 8.39612 10.5346C8.50092 9.96896 9.03751 9.49313 9.664 9.35419Z" clip-rule="evenodd" fill="" fill-opacity="1.000000" fill-rule="evenodd"/>
	</mask>
	<path id="形状结合" d="M8.60248 6.31299L15.3987 6.31299C16.2368 6.31299 16.9783 6.85599 17.2313 7.655L19.3734 14.4198C18.897 13.9547 18.2456 13.6682 17.5272 13.6682L6.47394 13.6682C5.75558 13.6682 5.10419 13.9547 4.62778 14.4198L6.76987 7.655C7.02286 6.85599 7.76437 6.31299 8.60248 6.31299ZM13.5648 8.58957C13.1938 8.073 12.5812 7.73993 11.925 7.73993C11.0178 7.73993 10.2002 8.371 9.96939 9.19495C9.97705 9.58105 10.0871 9.90921 10.3024 10.1817C10.5474 10.4818 10.6803 10.7447 10.6682 11.0168C10.6654 11.0803 10.6541 11.1425 10.6341 11.2034C10.915 11.0063 11.1792 10.7686 11.4337 10.491C11.6647 10.2321 12.2431 9.44189 12.3001 9.36896C12.5381 9.05789 12.8747 8.80948 13.262 8.66641C13.3477 8.63443 13.4485 8.60892 13.5648 8.58957ZM13.841 8.82843C14.1646 8.86032 14.4939 8.974 14.7909 9.17258C14.805 9.18192 14.8171 9.19266 14.8272 9.20432C15.2238 9.47864 15.52 9.8757 15.6018 10.3174C15.7552 11.1452 14.9843 11.7057 13.9035 11.7057C13.8493 11.7058 13.6364 11.7053 13.3395 11.7044C12.3519 11.7018 10.4349 11.6965 10.3406 11.7057C10.8432 11.451 11.2863 11.0963 11.6992 10.6462C11.9366 10.3781 12.5101 9.58517 12.5602 9.52042C12.7638 9.25241 13.0557 9.03787 13.3927 8.9147C13.5014 8.8746 13.6511 8.84546 13.841 8.82843ZM9.664 9.35419C9.68683 9.73117 9.80603 10.0606 10.0255 10.3407C10.4885 10.9036 10.4834 11.3046 9.69281 11.6828C9.6333 11.7033 9.57306 11.7224 9.51208 11.7402C8.76736 11.6458 8.28357 11.142 8.39612 10.5346C8.50092 9.96896 9.03751 9.49313 9.664 9.35419Z" clip-rule="evenodd" fill="#FFFFFF" fill-opacity="1.000000" fill-rule="evenodd" mask="url(#mask_73_1633)"/>
	<path id="形状结合" d="" clip-rule="evenodd" fill="#979797" fill-opacity="0.000000" fill-rule="evenodd"/>
	<g opacity="0.800000">
		<mask id="mask_73_1636" fill="white">
			<path id="形状结合" d="M6.20032 14.3891L17.8003 14.3891C18.711 14.3891 19.4493 15.1274 19.4493 16.0381C19.4493 16.9488 18.711 17.687 17.8003 17.687L6.20032 17.687C5.28961 17.687 4.55136 16.9488 4.55136 16.0381C4.55136 15.1274 5.28961 14.3891 6.20032 14.3891ZM17.6278 15.3L17.5935 15.3C17.1954 15.3 16.8726 15.6228 16.8726 16.0209L16.8726 16.0553C16.8726 16.4534 17.1954 16.7761 17.5935 16.7761L17.6278 16.7761C18.026 16.7761 18.3487 16.4534 18.3487 16.0553L18.3487 16.0209C18.3487 15.6228 18.026 15.3 17.6278 15.3Z" clip-rule="evenodd" fill="" fill-opacity="1.000000" fill-rule="evenodd"/>
		</mask>
		<path id="形状结合" d="M6.20032 14.3891L17.8003 14.3891C18.711 14.3891 19.4493 15.1274 19.4493 16.0381C19.4493 16.9488 18.711 17.687 17.8003 17.687L6.20032 17.687C5.28961 17.687 4.55136 16.9488 4.55136 16.0381C4.55136 15.1274 5.28961 14.3891 6.20032 14.3891ZM17.6278 15.3L17.5935 15.3C17.1954 15.3 16.8726 15.6228 16.8726 16.0209L16.8726 16.0553C16.8726 16.4534 17.1954 16.7761 17.5935 16.7761L17.6278 16.7761C18.026 16.7761 18.3487 16.4534 18.3487 16.0553L18.3487 16.0209C18.3487 15.6228 18.026 15.3 17.6278 15.3Z" clip-rule="evenodd" fill="#FFFFFF" fill-opacity="1.000000" fill-rule="evenodd" mask="url(#mask_73_1636)"/>
		<path id="形状结合" d="" clip-rule="evenodd" fill="#46B1E3" fill-opacity="0.000000" fill-rule="evenodd"/>
	</g>
</svg>
