<?xml version="1.0" encoding="UTF-8"?>
<svg width="14px" height="15px" viewBox="0 0 14 15" version="1.1" xmlns="http://www.w3.org/2000/svg" xmlns:xlink="http://www.w3.org/1999/xlink">
    <title>编组 41备份</title>
    <g id="RR2云盘" stroke="none" stroke-width="1" fill="none" fill-rule="evenodd" opacity="0.400000006">
        <g id="2_11-文件夹支持收藏" transform="translate(-68, -348)" fill="#000000" fill-rule="nonzero">
            <g id="编组-96" transform="translate(16, 313)">
                <g id="编组-85" transform="translate(52, 0)">
                    <g id="编组-41备份" transform="translate(0, 35.5)">
                        <g id="编组-37" transform="translate(1.1333, 1.1524)">
                            <path d="M2.37701369,1.36739322 C2.70172685,1.36739322 2.96495889,1.63062525 2.96495889,1.95533842 L2.96495889,4.29777637 C2.96495889,4.73960417 2.60678669,5.09777637 2.16495889,5.09777637 L1.05484014,5.09766238 C1.01858473,5.34097746 1,5.58905239 1,5.84023325 C1,8.53468241 3.12929486,10.7142937 5.75,10.7142937 C6.02614237,10.7142937 6.25,10.9381513 6.25,11.2142937 C6.25,11.4904361 6.02614237,11.7142937 5.75,11.7142937 C2.57171527,11.7142937 0,9.08180736 0,5.84023325 C0,4.27157734 0.605540799,2.79988379 1.66227403,1.70903654 C1.83436514,1.49652157 2.09551197,1.36739322 2.37701369,1.36739322 Z" id="形状结合"></path>
                            <path d="M7.89368035,-1.29452005e-13 C8.21839352,-1.29511654e-13 8.48162555,0.263232032 8.48162555,0.5879452 L8.48162555,2.93038315 C8.48162555,3.37221095 8.12345335,3.73038315 7.68162555,3.73038315 L6.57150681,3.73026916 C6.5352514,3.97358424 6.51666667,4.22165917 6.51666667,4.47284003 C6.51666667,7.16728919 8.64596152,9.34690049 11.2666667,9.34690049 C11.542809,9.34690049 11.7666667,9.57075811 11.7666667,9.84690049 C11.7666667,10.1230429 11.542809,10.3469005 11.2666667,10.3469005 C8.08838194,10.3469005 5.51666667,7.71441414 5.51666667,4.47284003 C5.51666667,2.90418412 6.12220747,1.43249057 7.17894069,0.341643317 C7.3510318,0.129128352 7.61217863,-1.29400294e-13 7.89368035,-1.29452005e-13 Z" id="形状结合备份" transform="translate(8.6417, 5.1735) scale(-1, -1) translate(-8.6417, -5.1735)"></path>
                        </g>
                    </g>
                </g>
            </g>
        </g>
    </g>
</svg>