<?xml version="1.0" encoding="UTF-8"?>
<svg width="24px" height="24px" viewBox="0 0 24 24" version="1.1" xmlns="http://www.w3.org/2000/svg" xmlns:xlink="http://www.w3.org/1999/xlink">
    <title>ic/column</title>
    <g id="ic/column" stroke="none" stroke-width="1" fill="none" fill-rule="evenodd">
        <path d="M19.6047682,3 C21.1330861,3 21.687291,3.15912962 22.2460212,3.45794178 C22.8047514,3.75675394 23.2432461,4.19524864 23.5420582,4.75397879 C23.8408704,5.31270895 24,5.86691393 24,7.39523177 L24,16.6047682 C24,18.1330861 23.8408704,18.687291 23.5420582,19.2460212 C23.2432461,19.8047514 22.8047514,20.2432461 22.2460212,20.5420582 C21.687291,20.8408704 21.1330861,21 19.6047682,21 L4.39523177,21 C2.86691393,21 2.31270895,20.8408704 1.75397879,20.5420582 C1.19524864,20.2432461 0.756753937,19.8047514 0.457941778,19.2460212 C0.176706805,18.7201575 0.0192044622,18.1983023 0.00164790627,16.8645587 L0,7.39523177 C0,5.86691393 0.159129619,5.31270895 0.457941778,4.75397879 C0.756753937,4.19524864 1.19524864,3.75675394 1.75397879,3.45794178 C2.27984247,3.1767068 2.80169769,3.01920446 4.13544133,3.00164791 L19.6047682,3 Z M17.178,4.5 L17.178,19.5 L19.6047682,19.5 C20.7717211,19.5 21.1506592,19.4268237 21.5386229,19.2193384 C21.8359504,19.060326 22.060326,18.8359504 22.2193384,18.5386229 C22.4129913,18.1765235 22.4896462,17.8222863 22.4990062,16.8278881 L22.5,7.39523177 C22.5,6.2282789 22.4268237,5.84934075 22.2193384,5.46137708 C22.060326,5.16404963 21.8359504,4.93967403 21.5386229,4.78066157 C21.1765235,4.58700868 20.8222863,4.51035377 19.8278881,4.5009938 L17.178,4.5 Z M8.178,4.499 L8.178,19.499 L15.678,19.5 L15.678,4.5 L8.178,4.499 Z M6.678,4.499 L4.39523177,4.5 C3.2282789,4.5 2.84934075,4.57317633 2.46137708,4.78066157 C2.16404963,4.93967403 1.93967403,5.16404963 1.78066157,5.46137708 C1.58700868,5.82347651 1.51035377,6.1777137 1.5009938,7.1721119 L1.5009938,16.8278881 L1.50927022,17.2167545 C1.53464289,17.9236574 1.61467338,18.228252 1.78066157,18.5386229 C1.93967403,18.8359504 2.16404963,19.060326 2.46137708,19.2193384 C2.82347651,19.4129913 3.1777137,19.4896462 4.1721119,19.4990062 L6.678,19.499 L6.678,4.499 Z" id="形状结合" fill="#181818" fill-rule="nonzero"></path>
    </g>
</svg>