<?xml version="1.0" encoding="UTF-8"?><svg id="_层_1" xmlns="http://www.w3.org/2000/svg" xmlns:xlink="http://www.w3.org/1999/xlink" viewBox="0 0 32 32"><defs><style>.cls-1{fill:url(#_命名的渐变);}.cls-2{fill:#fff;}</style><linearGradient id="_命名的渐变" x1="16" y1="31.89" x2="16" y2="-.11" gradientTransform="translate(0 31.89) scale(1 -1)" gradientUnits="userSpaceOnUse"><stop offset="0" stop-color="#1892fc"/><stop offset="1" stop-color="#0a59f7"/></linearGradient></defs><rect id="_形" class="cls-1" y="0" width="32" height="32" rx="8" ry="8"/><path class="cls-2" d="M16,23.54c-.54,0-1-.19-1.37-.56-.37-.36-.56-.82-.56-1.36s.19-.99,.57-1.35c.37-.38,.83-.57,1.36-.57s.99,.2,1.36,.58c.38,.37,.57,.82,.57,1.34s-.2,.99-.58,1.36c-.36,.37-.82,.56-1.35,.56Zm3.87-4.28c-.37,0-.57-.17-.68-.32-.38-.48-.85-.86-1.4-1.11-1.13-.55-2.48-.54-3.56,0-.56,.25-1.04,.63-1.42,1.12-.31,.39-.95,.41-1.25,.1-.19-.13-.29-.36-.29-.66,0-.23,.07-.43,.21-.57,.52-.65,1.2-1.19,2.01-1.57,.82-.39,1.64-.57,2.53-.57s1.7,.19,2.5,.57c.8,.38,1.47,.9,2.04,1.59,.12,.14,.2,.33,.2,.55,0,.28-.11,.51-.32,.68-.13,.12-.32,.19-.54,.19Zm2.45-2.39c-.27,0-.51-.12-.68-.35-.7-.85-1.55-1.51-2.5-1.95-.98-.46-2.04-.7-3.13-.7s-2.13,.23-3.12,.7c-.98,.45-1.82,1.11-2.5,1.96-.29,.38-.89,.45-1.24,.14-.19-.15-.3-.39-.3-.69,0-.19,.05-.35,.16-.52,.88-1.08,1.93-1.91,3.14-2.48,2.39-1.15,5.3-1.16,7.73,0,1.21,.58,2.26,1.4,3.12,2.46,.12,.13,.19,.32,.19,.54,0,.38-.18,.59-.33,.7-.17,.12-.35,.19-.53,.19Zm2.92-2.85c-.26,0-.47-.08-.62-.25-1.13-1.13-2.47-2.03-3.96-2.66-3-1.23-6.4-1.23-9.34,0-1.46,.6-2.79,1.48-3.94,2.61-.35,.35-.92,.33-1.24,0-.22-.24-.27-.46-.27-.6,0-.24,.09-.44,.27-.63,1.32-1.3,2.84-2.31,4.51-3,3.36-1.38,7.19-1.39,10.65,.02,1.72,.72,3.25,1.74,4.55,3.04,.17,.17,.25,.37,.25,.61,0,.25-.08,.46-.25,.63-.16,.16-.37,.24-.62,.24Z"/></svg>