<svg width="24.000000" height="24.000000" viewBox="0 0 24 24" fill="none" xmlns="http://www.w3.org/2000/svg" xmlns:xlink="http://www.w3.org/1999/xlink">
	<desc>
			Created with Pixso.
	</desc>
	<defs/>
	<rect id="bg" rx="4.000000" width="24.000000" height="24.000000" fill="#999999" fill-opacity="1.000000"/>
	<path id="形状结合" d="M14.2423 6.25L18.9375 6.25C19.2482 6.25 19.5 6.50183 19.5 6.8125C19.5 7.11206 19.2658 7.35693 18.9706 7.37405L18.9375 7.375L5.0625 7.375C4.75183 7.375 4.5 7.12317 4.5 6.8125C4.5 6.51294 4.73419 6.26807 5.02942 6.25095L5.0625 6.25L9.75769 6.25C9.85297 5.09509 10.8205 4.1875 12 4.1875C13.1795 4.1875 14.147 5.09509 14.2423 6.25ZM17.9295 8.125L6.07159 8.125L6.96185 17.1761C7.08459 18.4239 8.13391 19.375 9.3877 19.375L14.6134 19.375C15.8672 19.375 16.9165 18.4239 17.0392 17.1761L17.9295 8.125ZM9.93756 12.25C9.93756 11.9393 10.1894 11.6875 10.5001 11.6875C10.8107 11.6875 11.0626 11.9393 11.0626 12.25L11.0626 16.75C11.0626 17.0607 10.8107 17.3125 10.5001 17.3125C10.1894 17.3125 9.93756 17.0607 9.93756 16.75L9.93756 12.25ZM13.5001 11.6875C13.1894 11.6875 12.9376 11.9393 12.9376 12.25L12.9376 16.75C12.9376 17.0607 13.1894 17.3125 13.5001 17.3125C13.8107 17.3125 14.0626 17.0607 14.0626 16.75L14.0626 12.25C14.0626 11.9393 13.8107 11.6875 13.5001 11.6875Z" clip-rule="evenodd" fill="#FFFFFF" fill-opacity="1.000000" fill-rule="evenodd"/>
</svg>
