<?xml version="1.0" standalone="no"?>
<svg xmlns="http://www.w3.org/2000/svg" width="24" height="24"><rect width="24" height="24" opacity="0"></rect><g><path d="M19.75 20.26Q20.69 20.26 21.49 19.78Q22.3 19.3 22.78 18.49Q23.26 17.69 23.26 16.75L23.26 7.25Q23.26 6.31 22.78 5.51Q22.3 4.7 21.49 4.22Q20.69 3.74 19.75 3.74L4.25 3.74Q3.31 3.74 2.51 4.22Q1.7 4.7 1.22 5.51Q0.74 6.31 0.74 7.25L0.74 16.75Q0.74 17.69 1.22 18.49Q1.7 19.3 2.51 19.78Q3.31 20.26 4.25 20.26L19.75 20.26ZM19.75 5.26Q20.59 5.26 21.17 5.83Q21.74 6.41 21.74 7.25L21.74 16.75Q21.74 17.57 21.17 18.16Q20.59 18.74 19.75 18.74L4.25 18.74Q3.43 18.74 2.84 18.16Q2.26 17.57 2.26 16.75L2.26 7.25Q2.26 6.41 2.84 5.83Q3.43 5.26 4.25 5.26L19.75 5.26Z" fill="rgba(0,0,0,0.9019607843137255)"></path></g></svg>