<?xml version="1.0" encoding="utf-8"?>
<!-- Generator: Adobe Illustrator 26.3.1, SVG Export Plug-In . SVG Version: 6.00 Build 0)  -->
<svg version="1.1" id="图层_1" xmlns="http://www.w3.org/2000/svg" xmlns:xlink="http://www.w3.org/1999/xlink" x="0px" y="0px"
	 viewBox="0 0 24 24" style="enable-background:new 0 0 24 24;" xml:space="preserve">
<style type="text/css">
	.st0{fill:#0A59F7;}
	.st1{opacity:0.6;fill-rule:evenodd;clip-rule:evenodd;fill:#0A59F7;enable-background:new    ;}
</style>
<path id="形状结合" class="st0" d="M23.25,19.5c0.41,0,0.75,0.34,0.75,0.75c0,0.4-0.31,0.73-0.71,0.75l-0.04,0H0.75
	C0.34,21,0,20.66,0,20.25c0-0.4,0.31-0.73,0.71-0.75l0.04,0H23.25z M19.75,3C21.54,3,23,4.46,23,6.25l0,0v9.5
	c0,1.79-1.46,3.25-3.25,3.25l0,0H4.25C2.46,19,1,17.54,1,15.75l0,0v-9.5C1,4.46,2.46,3,4.25,3l0,0H19.75z M19.75,4.5H4.25
	C3.28,4.5,2.5,5.28,2.5,6.25l0,0v9.5c0,0.97,0.78,1.75,1.75,1.75l0,0h15.5c0.97,0,1.75-0.78,1.75-1.75l0,0v-9.5
	C21.5,5.28,20.72,4.5,19.75,4.5L19.75,4.5z"/>
<path id="矩形" class="st1" d="M4.5,5.5h15c0.55,0,1,0.45,1,1v9c0,0.55-0.45,1-1,1h-15c-0.55,0-1-0.45-1-1v-9
	C3.5,5.95,3.95,5.5,4.5,5.5z"/>
</svg>
