<?xml version="1.0" encoding="UTF-8"?><svg id="_层_1" xmlns="http://www.w3.org/2000/svg" xmlns:xlink="http://www.w3.org/1999/xlink" viewBox="0 0 32 32"><defs><style>.cls-1{fill:url(#_命名的渐变);}.cls-2{fill:#fff;fill-rule:evenodd;}</style><linearGradient id="_命名的渐变" x1="16" y1="31.89" x2="16" y2="-.11" gradientTransform="translate(0 31.89) scale(1 -1)" gradientUnits="userSpaceOnUse"><stop offset="0" stop-color="#1892fc"/><stop offset="1" stop-color="#0a59f7"/></linearGradient></defs><rect id="_形" class="cls-1" y="0" width="32" height="32" rx="8" ry="8"/><path class="cls-2" d="M23.03,23.18c.33-.3,.65-.62,.94-.97,3.38-4.04,2.91-10.09-1.05-13.54l-.27-.23-.04-.03c-.37-.29-.9-.24-1.22,.12-.32,.37-.28,.93,.09,1.25l.27,.23,.1,.09c3.14,2.82,3.49,7.71,.76,10.97-.27,.32-.56,.62-.88,.89l-.24,.21-.04,.03c-.34,.33-.37,.86-.06,1.22,.32,.37,.88,.41,1.25,.09l.24-.21,.14-.13Z"/><path class="cls-2" d="M20.66,20.01c-.22,.26-.45,.5-.71,.72-.37,.32-.93,.28-1.25-.09-.32-.37-.28-.93,.09-1.25,.18-.16,.35-.33,.5-.51,1.55-1.85,1.35-4.62-.43-6.22l-.08-.07c-.37-.32-.41-.88-.09-1.25,.31-.36,.85-.41,1.22-.12l.04,.03h.02c2.56,2.24,2.87,6.16,.69,8.78Z"/><path class="cls-2" d="M16,17.78c.98,0,1.78-.8,1.78-1.78s-.8-1.78-1.78-1.78-1.78,.8-1.78,1.78,.8,1.78,1.78,1.78Z"/><path class="cls-2" d="M13.14,19.31c.37,.32,.41,.88,.09,1.25-.32,.37-.88,.41-1.25,.09-.25-.22-.48-.46-.7-.71-2.16-2.6-1.86-6.49,.68-8.71h.02l.04-.05c.37-.29,.9-.24,1.22,.12,.32,.37,.29,.93-.08,1.25l-.08,.07c-1.75,1.59-1.95,4.34-.42,6.18,.15,.18,.32,.35,.5,.51Z"/><path class="cls-2" d="M10.57,23.33c.31-.36,.28-.89-.05-1.22l-.04-.03-.24-.2c-.31-.27-.6-.57-.87-.89-2.7-3.24-2.35-8.09,.75-10.89l.09-.08,.26-.23c.37-.32,.41-.88,.08-1.25-.31-.36-.85-.4-1.22-.11l-.04,.03-.26,.23c-3.91,3.43-4.38,9.44-1.04,13.45,.29,.34,.6,.67,.93,.96l.14,.13,.24,.2c.37,.32,.93,.28,1.25-.09Z"/></svg>