<?xml version="1.0" encoding="UTF-8"?><svg id="_层_1" xmlns="http://www.w3.org/2000/svg" xmlns:xlink="http://www.w3.org/1999/xlink" viewBox="0 0 32 32"><defs><style>.cls-1{fill:url(#_命名的渐变);}.cls-2{fill:#fff;}.cls-3{fill:none;stroke:#fff;stroke-width:.5px;}</style><linearGradient id="_命名的渐变" x1="16" y1="31.89" x2="16" y2="-.11" gradientTransform="translate(0 31.89) scale(1 -1)" gradientUnits="userSpaceOnUse"><stop offset="0" stop-color="#1892fc"/><stop offset="1" stop-color="#0a59f7"/></linearGradient></defs><rect id="_形" class="cls-1" y="0" width="32" height="32" rx="8" ry="8"/><path id="path" class="cls-2" d="M20.96,12.32c.22-.23,.34-.52,.34-.86,0-.32-.12-.61-.34-.86l-3.42-3.37c-.23-.22-.5-.33-.82-.33-.15,0-.31,.03-.48,.1-.23,.09-.41,.23-.54,.44-.14,.2-.2,.41-.2,.65v6.17l-3.74-3.74c-.12-.12-.27-.18-.44-.18-.18,0-.32,.06-.44,.18-.12,.12-.18,.26-.18,.44,0,.17,.06,.32,.18,.44l4.58,4.6-4.58,4.58c-.12,.12-.18,.26-.18,.44,0,.17,.06,.32,.18,.44,.13,.13,.28,.2,.44,.2s.3-.07,.44-.2l3.74-3.72v6.14c0,.25,.06,.47,.2,.67,.13,.19,.31,.34,.54,.45,.16,.06,.31,.1,.46,.1,.32,0,.6-.12,.84-.36l3.4-3.36c.24-.24,.36-.53,.36-.86,0-.31-.12-.6-.36-.86l-3.7-3.66,3.72-3.68Zm-4.24,2.42l-.06-6.6,3.38,3.32-3.32,3.28Zm.02,2.52l3.3,3.26-3.3,3.36v-6.62Z"/><path id="path-2" class="cls-3" d="M21.3,11.46c0-.32-.12-.61-.34-.86l-3.42-3.37c-.23-.22-.5-.33-.82-.33-.15,0-.31,.03-.48,.1-.23,.09-.41,.23-.54,.44-.14,.2-.2,.41-.2,.65v6.17l-3.74-3.74c-.12-.12-.27-.18-.44-.18-.18,0-.32,.06-.44,.18-.12,.12-.18,.26-.18,.44,0,.17,.06,.32,.18,.44l4.58,4.6-4.58,4.58c-.12,.12-.18,.26-.18,.44,0,.17,.06,.32,.18,.44,.13,.13,.28,.2,.44,.2s.3-.07,.44-.2l3.74-3.72v6.14c0,.25,.06,.47,.2,.67,.13,.19,.31,.34,.54,.45,.16,.06,.31,.1,.46,.1,.32,0,.6-.12,.84-.36l3.4-3.36c.24-.24,.36-.53,.36-.86,0-.31-.12-.6-.36-.86l-3.7-3.66,3.72-3.68c.22-.23,.34-.52,.34-.86Zm-4.64-3.32l3.38,3.32-3.32,3.28-.06-6.6Zm3.38,12.38l-3.3,3.36v-6.62l3.3,3.26Z"/></svg>