<?xml version="1.0" encoding="utf-8"?>
<!-- Generator: Adobe Illustrator 26.3.1, SVG Export Plug-In . SVG Version: 6.00 Build 0)  -->
<svg version="1.1" id="图层_1" xmlns="http://www.w3.org/2000/svg" xmlns:xlink="http://www.w3.org/1999/xlink" x="0px" y="0px"
	 viewBox="0 0 24 24" style="enable-background:new 0 0 24 24;" xml:space="preserve">
<style type="text/css">
	.st0{fill:#0A59F7;}
</style>
<path id="路径-2" class="st0" d="M19.05,3C21.23,3,23,4.76,23,6.94v10.12c0,2.17-1.77,3.94-3.95,3.94H4.95
	C2.77,21,1,19.24,1,17.06V6.94C1,4.76,2.77,3,4.95,3H19.05z M19,12c-0.55,0-1,0.45-1,1s0.45,1,1,1s1-0.45,1-1S19.55,12,19,12z M19,9
	c-0.55,0-1,0.45-1,1c0,0.55,0.45,1,1,1s1-0.45,1-1C20,9.45,19.55,9,19,9z M7,6H5C4.45,6,4,6.45,4,7v2c0,0.55,0.45,1,1,1h2
	c0.55,0,1-0.45,1-1V7C8,6.45,7.55,6,7,6z M19,6c-0.55,0-1,0.45-1,1s0.45,1,1,1s1-0.45,1-1S19.55,6,19,6z"/>
</svg>
