<?xml version="1.0" encoding="UTF-8"?><svg id="_层_1" xmlns="http://www.w3.org/2000/svg" viewBox="0 0 24 24"><defs><style>.cls-1{isolation:isolate;opacity:.6;}.cls-1,.cls-2{fill-rule:evenodd;}</style></defs><g id="pad_filled"><path id="_形" class="cls-1" d="M5.173,6.25h13.654c.669,0,.911,.07,1.156,.2,.244,.131,.436,.323,.567,.567,.131,.244,.2,.487,.2,1.156v7.654c0,.669-.07,.911-.2,1.156-.131,.244-.323,.436-.567,.567-.244,.131-.487,.2-1.156,.2H5.173c-.669,0-.911-.07-1.156-.2-.244-.131-.436-.323-.567-.567-.131-.244-.2-.487-.2-1.156v-7.654c0-.669,.07-.911,.2-1.156,.131-.244,.323-.436,.567-.567,.244-.131,.487-.2,1.156-.2Z"/><path id="_形-2" class="cls-2" d="M5.237,3.75h13.526c1.56,0,2.126,.162,2.696,.467,.57,.305,1.018,.753,1.323,1.323l.102,.203c.239,.515,.366,1.117,.366,2.494v7.526c0,1.56-.162,2.126-.467,2.696-.305,.57-.753,1.018-1.323,1.323l-.203,.102c-.515,.239-1.117,.366-2.494,.366H5.237c-1.56,0-2.126-.162-2.696-.467-.57-.305-1.018-.753-1.323-1.323l-.102-.203c-.239-.515-.366-1.117-.366-2.494v-7.526c0-1.56,.162-2.126,.467-2.696,.305-.57,.753-1.018,1.323-1.323l.203-.102c.515-.239,1.117-.366,2.494-.366Zm0,1.5c-1.196,0-1.588,.076-1.989,.29-.309,.165-.542,.399-.708,.708l-.079,.162c-.143,.331-.202,.724-.211,1.598v7.755c-.001,1.196,.075,1.588,.289,1.989,.165,.309,.399,.542,.708,.708l.162,.079c.331,.143,.724,.202,1.598,.211h13.755l.437-.003c.863-.018,1.204-.1,1.551-.286,.309-.165,.542-.399,.708-.708l.079-.162c.143-.331,.202-.724,.211-1.598v-7.755l-.003-.437c-.018-.863-.1-1.204-.286-1.551-.165-.309-.399-.542-.708-.708l-.162-.079c-.331-.143-.724-.202-1.598-.211H5.237Z"/></g></svg>