<?xml version="1.0" encoding="utf-8"?>
<!-- Generator: Adobe Illustrator 26.3.1, SVG Export Plug-In . SVG Version: 6.00 Build 0)  -->
<svg version="1.1" id="图层_1" xmlns="http://www.w3.org/2000/svg" xmlns:xlink="http://www.w3.org/1999/xlink" x="0px" y="0px"
	 viewBox="0 0 24 24" style="enable-background:new 0 0 24 24;" xml:space="preserve">
<style type="text/css">
	.st0{fill-rule:evenodd;clip-rule:evenodd;fill:#0A59F7;fill-opacity:0.9;}
</style>
<path id="形状结合" class="st0" d="M16.72,2c2,0,3.69,1.47,3.96,3.45l1.68,12c0.31,2.19-1.22,4.21-3.41,4.52
	C18.77,21.99,18.59,22,18.4,22H5.6c-2.21,0-4-1.79-4-4c0-0.19,0.01-0.37,0.04-0.55l1.68-12C3.59,3.47,5.28,2,7.28,2H16.72z M18.5,16
	h-13c-1.24,0-2.25,1.01-2.25,2.25c0,1.19,0.93,2.17,2.1,2.24L5.5,20.5h13c1.24,0,2.25-1.01,2.25-2.25c0-1.19-0.93-2.17-2.1-2.24
	L18.5,16z M18.25,17.25c0.55,0,1,0.45,1,1s-0.45,1-1,1s-1-0.45-1-1S17.7,17.25,18.25,17.25z"/>
</svg>
