<?xml version="1.0" encoding="UTF-8"?><svg id="_层_1" xmlns="http://www.w3.org/2000/svg" xmlns:xlink="http://www.w3.org/1999/xlink" viewBox="0 0 32 32"><defs><style>.cls-1{fill:url(#_命名的渐变);}.cls-2{fill:#fff;}</style><linearGradient id="_命名的渐变" x1="16" y1="31.89" x2="16" y2="-.11" gradientTransform="translate(0 31.89) scale(1 -1)" gradientUnits="userSpaceOnUse"><stop offset="0" stop-color="#1892fc"/><stop offset="1" stop-color="#0a59f7"/></linearGradient></defs><rect id="_形" class="cls-1" y="0" width="32" height="32" rx="8" ry="8"/><path id="path" class="cls-2" d="M15.08,20.4c.26,.24,.57,.36,.92,.36s.66-.12,.91-.36l3.91-3.92c.13-.12,.2-.27,.2-.44,0-.18-.07-.32-.2-.44-.1-.12-.24-.18-.42-.18-.16,0-.32,.06-.47,.18l-3.31,3.26V8.4c0-.18-.06-.32-.19-.44-.11-.12-.26-.18-.43-.18-.18,0-.32,.06-.44,.18-.13,.12-.18,.26-.18,.44v10.5l-3.32-3.3c-.1-.12-.24-.18-.42-.18s-.32,.06-.44,.18c-.14,.13-.2,.28-.2,.44s.06,.3,.2,.44l3.88,3.92Zm8.64-1.66c-.18,0-.32,.05-.44,.18-.12,.12-.18,.26-.18,.44v1.74c0,.5-.19,.94-.55,1.31-.37,.36-.81,.55-1.33,.55H10.78c-.51,0-.95-.19-1.33-.55-.37-.37-.55-.81-.55-1.31v-1.73c0-.17-.06-.31-.18-.43-.12-.12-.27-.18-.44-.18-.18,0-.33,.06-.44,.18-.12,.12-.18,.26-.18,.43v1.73c0,.56,.14,1.08,.42,1.56s.66,.86,1.14,1.14c.48,.28,1,.42,1.56,.42h10.44c.57,0,1.1-.14,1.58-.42,.48-.28,.86-.66,1.13-1.14,.29-.48,.43-1,.43-1.56v-1.74c0-.18-.07-.32-.2-.44-.12-.13-.27-.18-.44-.18Z"/><path class="cls-2" d="M21.22,24.47H10.78c-.6,0-1.17-.15-1.69-.45-.52-.3-.93-.72-1.23-1.23-.3-.52-.45-1.08-.45-1.69v-1.73c0-.23,.08-.44,.25-.61,.29-.32,.89-.34,1.23,0,.17,.17,.25,.37,.25,.61v1.73c0,.44,.16,.81,.48,1.13,.34,.32,.72,.48,1.15,.48h10.44c.45,0,.82-.16,1.16-.48,.31-.32,.47-.7,.47-1.13v-1.74c0-.24,.08-.44,.25-.61,.32-.34,.92-.34,1.24,0,.17,.16,.27,.37,.27,.61v1.74c0,.61-.16,1.18-.47,1.69-.28,.51-.7,.92-1.22,1.23-.52,.3-1.09,.45-1.71,.45Zm-12.94-5.46c-.11,0-.19,.03-.26,.1-.08,.08-.11,.16-.11,.26v1.73c0,.51,.13,1,.39,1.43,.26,.44,.61,.79,1.05,1.05,.44,.26,.92,.39,1.43,.39h10.44c.53,0,1.02-.13,1.45-.39,.44-.26,.79-.61,1.04-1.05,.27-.44,.4-.92,.4-1.44v-1.74c0-.1-.04-.18-.12-.26-.16-.17-.39-.16-.53-.01h0c-.08,.08-.11,.16-.11,.27v1.74c0,.56-.21,1.06-.62,1.48-.43,.42-.93,.63-1.51,.63H10.78c-.56,0-1.07-.21-1.5-.62-.42-.42-.63-.92-.63-1.49v-1.73c0-.1-.03-.18-.11-.25-.07-.07-.16-.11-.26-.11Zm7.72,2c-.42,0-.78-.14-1.09-.43l-3.89-3.93c-.18-.18-.27-.38-.27-.62s.1-.45,.28-.62c.33-.33,.93-.32,1.22,.02l2.88,2.86V8.4c0-.26,.08-.46,.26-.62,.33-.33,.91-.32,1.22,.01,.17,.15,.26,.36,.26,.61v9.86l2.88-2.84c.46-.37,.98-.31,1.26,.02,.16,.15,.26,.36,.26,.6s-.1,.46-.28,.62l-3.9,3.91c-.3,.29-.67,.43-1.09,.43Zm-4.36-5.34c-.11,0-.19,.03-.26,.11-.09,.08-.13,.16-.13,.26,0,.07,.02,.15,.13,.26l3.88,3.92c.41,.38,1.07,.38,1.48,0l3.91-3.92c.09-.08,.13-.16,.13-.26s-.04-.18-.12-.26c-.06-.07-.12-.11-.25-.11-.1,0-.21,.04-.31,.13l-3.72,3.66V8.4c0-.11-.03-.18-.11-.26-.16-.17-.38-.15-.52,0-.07,.06-.11,.13-.11,.26v11.1l-3.75-3.72c-.05-.06-.11-.11-.24-.11Z"/></svg>