<?xml version="1.0" encoding="UTF-8"?>
<svg width="72px" height="64px" viewBox="0 0 72 64" version="1.1" xmlns="http://www.w3.org/2000/svg" xmlns:xlink="http://www.w3.org/1999/xlink">
    <title>ic/ic_file_type_video</title>
    <g id="控件" stroke="none" stroke-width="1" fill="none" fill-rule="evenodd">
        <g id="ic/video-1" transform="translate(-18.000000, -16.000000)">
            <g id="ic/ic_file_type_video" transform="translate(18.000000, 16.000000)">
                <rect id="矩形" x="0" y="0" width="72" height="64"></rect>
                <rect id="矩形备份-2" fill="#F9A01E" x="12" y="7" width="48" height="28" rx="6"></rect>
                <rect id="矩形备份" fill="#F9A01E" x="8" y="14" width="56" height="44" rx="6"></rect>
                <path d="M58,14 C58.7015272,14 59.3749342,14.1203964 60.0006859,14.3416539 L60,29 C60,32.3137085 57.3137085,35 54,35 L18,35 C14.6862915,35 12,32.3137085 12,29 L12.0000078,14.3414086 C12.6255635,14.1203074 13.2987321,14 14,14 L58,14 Z" id="形状结合" fill="#F36403"></path>
                <path d="M40.6832816,27.3665632 L48.8291796,43.6583592 C49.5701473,45.1402947 48.9694743,46.9423138 47.4875388,47.6832816 C47.0709725,47.8915647 46.6116333,48 46.145898,48 L29.854102,48 C28.1972477,48 26.854102,46.6568542 26.854102,45 C26.854102,44.5342647 26.9625373,44.0749255 27.1708204,43.6583592 L35.3167184,27.3665632 C36.0576862,25.8846277 37.8597053,25.2839546 39.3416408,26.0249224 C39.922223,26.3152135 40.3929905,26.785981 40.6832816,27.3665632 Z" id="三角形" fill="#FFFFFF" transform="translate(38.000000, 35.000000) rotate(-270.000000) translate(-38.000000, -35.000000) "></path>
            </g>
        </g>
    </g>
</svg>