<svg width="24.000000" height="24.000000" viewBox="0 0 24 24" fill="none" xmlns="http://www.w3.org/2000/svg" xmlns:xlink="http://www.w3.org/1999/xlink">
	<desc>
			Created with Pixso.
	</desc>
	<defs/>
	<rect id="bg" rx="4.000000" width="24.000000" height="24.000000" fill="#FFAF58" fill-opacity="1.000000"/>
	<path id="合并" d="M15.2338 10.1098C15.2593 9.93619 15.2722 9.79318 15.2722 9.68082Q15.2722 9.10596 15.1192 8.57516Q15.0092 8.19345 14.8201 7.83453C14.5188 7.26764 14.1051 6.79523 13.5791 6.41727Q13.1901 6.1416 12.7602 5.96646Q12.3179 5.78629 11.8324 5.71249C12.1133 5.29367 12.4759 4.96683 12.9202 4.73187Q13.169 4.59595 13.4341 4.51132Q13.8712 4.37183 14.3528 4.37183C14.9044 4.37183 15.4126 4.50974 15.8773 4.78552Q16.2392 5.00021 16.5226 5.29129Q16.7852 5.56104 16.9805 5.89633C17.2512 6.36111 17.3865 6.86926 17.3865 7.42087C17.3865 8.095 17.1848 8.70023 16.7813 9.23648C16.3779 9.76764 15.8569 10.1252 15.2185 10.309L15.2338 10.1098ZM11.2272 6.64709Q10.7368 6.64709 10.2922 6.7897Q9.98663 6.88773 9.70264 7.05313Q9.35406 7.25613 9.07825 7.53195Q8.80249 7.80774 8.59949 8.15631Q8.43408 8.44028 8.33606 8.74588Q8.19348 9.19049 8.19348 9.68082C8.19348 10.2324 8.3288 10.7431 8.59949 11.213Q8.7948 11.5483 9.05743 11.818Q9.34082 12.1091 9.70264 12.3238Q10.0004 12.5005 10.322 12.6017Q10.7532 12.7375 11.2272 12.7375Q11.7011 12.7375 12.1323 12.6017Q12.4539 12.5005 12.7516 12.3238C13.2164 12.048 13.5842 11.6777 13.8549 11.213C14.1255 10.7431 14.2609 10.2324 14.2609 9.68082Q14.2609 9.19049 14.1183 8.74588Q14.0203 8.44028 13.8549 8.15631C13.5842 7.69153 13.2164 7.32382 12.7516 7.05313Q12.4677 6.88773 12.1621 6.7897Q11.7175 6.64709 11.2272 6.64709ZM14.4524 12.1017C14.6567 11.8361 14.8201 11.5501 14.9427 11.2436Q15.0919 11.2463 15.2405 11.2573Q16.3737 11.3412 17.4708 11.9101C18.2982 12.3391 18.9749 12.9214 19.5009 13.6568Q19.9443 14.2766 20.1385 14.9666Q20.29 15.5046 20.29 16.0853C20.29 16.5143 20.1368 16.882 19.8303 17.1885C19.5239 17.4949 19.1511 17.6481 18.7119 17.6481L18.0837 17.6481C17.9764 16.9586 17.7287 16.2896 17.3406 15.641C16.9524 14.9924 16.4493 14.4203 15.8314 13.9249C15.2134 13.4244 14.5188 13.0593 13.7476 12.8294C14.0183 12.6098 14.2532 12.3672 14.4524 12.1017ZM10.7139 13.5113Q10.6221 13.5113 10.5303 13.5145Q9.33667 13.5572 8.16278 14.1548Q7.3847 14.5533 6.77698 15.1311Q6.4035 15.4863 6.09436 15.9091Q5.61993 16.5643 5.42535 17.2941L5.42529 17.2941Q5.28998 17.8016 5.28998 18.3453Q5.28998 18.6559 5.39709 18.9237Q5.5119 19.2107 5.74963 19.4484Q5.98737 19.6862 6.27429 19.801Q6.54211 19.9081 6.85278 19.9081L15.5862 19.9081C16.0255 19.9081 16.3983 19.7549 16.7047 19.4484Q16.9424 19.2107 17.0572 18.9237Q17.1644 18.6559 17.1644 18.3453Q17.1644 17.8016 17.029 17.2941Q16.8344 16.5643 16.3599 15.9091C15.8186 15.1685 15.1291 14.5838 14.2915 14.1548Q13.1176 13.5572 11.924 13.5145L11.923 13.5145Q11.8318 13.5113 11.7404 13.5113L10.7139 13.5113Z" clip-rule="evenodd" fill="#FFFFFF" fill-opacity="1.000000" fill-rule="evenodd"/>
</svg>
