<?xml version="1.0" encoding="UTF-8"?>
<svg width="72px" height="64px" viewBox="0 0 72 64" version="1.1" xmlns="http://www.w3.org/2000/svg" xmlns:xlink="http://www.w3.org/1999/xlink">
    <title>ic/ic_file_type_document</title>
    <g id="控件" stroke="none" stroke-width="1" fill="none" fill-rule="evenodd">
        <g id="ic/document-1" transform="translate(-18.000000, -16.000000)">
            <g id="ic/ic_file_type_document" transform="translate(18.000000, 16.000000)">
                <rect id="矩形" x="0" y="0" width="72" height="64"></rect>
                <path d="M48,30 L58,30 C61.3137085,30 64,32.6862915 64,36 L64,54 C64,57.3137085 61.3137085,60 58,60 L48,60 C44.6862915,60 42,57.3137085 42,54 L42,36 C42,32.6862915 44.6862915,30 48,30 Z" id="矩形" fill-opacity="0.6" fill="#27A3FF" transform="translate(53.000000, 45.000000) scale(1, -1) translate(-53.000000, -45.000000) "></path>
                <path d="M16,4 L46,4 C49.8659932,4 53,7.13400675 53,11 L53,53 C53,56.8659932 49.8659932,60 46,60 L16,60 C12.1340068,60 9,56.8659932 9,53 L9,11 C9,7.13400675 12.1340068,4 16,4 Z" id="Combined-Shape" fill="#27A3FF"></path>
                <path d="M53,30 L53,53 C53,56.5122354 50.4133064,59.4203162 47.0410459,59.9231157 C44.1827189,59.4642182 42,56.9870098 42,54 L42,54 L42,36 C42,32.6862915 44.6862915,30 48,30 L48,30 L53,30 Z" id="形状结合" fill="#137FFF"></path>
                <path d="M32,31 C33.1045695,31 34,31.8954305 34,33 C34,34.1045695 33.1045695,35 32,35 L32,35 L20,35 C18.8954305,35 18,34.1045695 18,33 C18,31.8954305 18.8954305,31 20,31 L20,31 Z M42,22 C43.1045695,22 44,22.8954305 44,24 C44,25.1045695 43.1045695,26 42,26 L42,26 L20,26 C18.8954305,26 18,25.1045695 18,24 C18,22.8954305 18.8954305,22 20,22 L20,22 Z M42,13 C43.1045695,13 44,13.8954305 44,15 C44,16.1045695 43.1045695,17 42,17 L42,17 L20,17 C18.8954305,17 18,16.1045695 18,15 C18,13.8954305 18.8954305,13 20,13 L20,13 Z" id="形状结合" fill="#FFFFFF"></path>
            </g>
        </g>
    </g>
</svg>