<?xml version="1.0" encoding="UTF-8"?>
<svg width="24px" height="24px" viewBox="0 0 24 24" version="1.1" xmlns="http://www.w3.org/2000/svg" xmlns:xlink="http://www.w3.org/1999/xlink">
    <title>ic/favourites/ic_favourites</title>
    <defs>
        <path d="M6.10278147,0 C6.99430021,0 7.31758644,0.0928256111 7.64351237,0.267132704 C7.9694383,0.441439796 8.22522687,0.697228371 8.39953396,1.0231543 L8.42637735,1.07467758 C8.58335504,1.3846844 8.66666667,1.7192885 8.66666667,2.5638852 L8.66666667,4.83333333 C8.85076158,4.83333333 9,4.98257175 9,5.16666667 L9,6.5 C9,6.68409492 8.85076158,6.83333333 8.66666667,6.83333333 L8.66666667,12.7694481 L8.66589692,12.9055753 C8.65666984,13.6950043 8.564667,14.0014071 8.39953396,14.310179 C8.22522687,14.636105 7.9694383,14.8918935 7.64351237,15.0662006 L7.59198909,15.093044 C7.28198226,15.2500217 6.94737817,15.3333333 6.10278147,15.3333333 L2.5638852,15.3333333 L2.42775801,15.3325636 C1.63832902,15.3233365 1.33192623,15.2313337 1.0231543,15.0662006 C0.697228371,14.8918935 0.441439796,14.636105 0.267132704,14.310179 L0.240289317,14.2586558 C0.0833116288,13.9486489 -8.8817842e-16,13.6140448 -8.8817842e-16,12.7694481 L-8.8817842e-16,2.5638852 C-8.8817842e-16,1.67236646 0.0928256111,1.34908022 0.267132704,1.0231543 C0.441439796,0.697228371 0.697228371,0.441439796 1.0231543,0.267132704 L1.07467758,0.240289317 C1.3846844,0.0833116288 1.7192885,0 2.5638852,0 L6.10278147,0 Z M6.16169471,1 L2.39444355,1.00098918 C1.86535286,1.00766428 1.68177822,1.0489238 1.49475316,1.1489459 C1.3430957,1.2300532 1.2300532,1.3430957 1.1489459,1.49475316 C1.04225566,1.69424655 1.00242418,1.88981414 1.00010812,2.50497196 L1.00010812,12.8283614 L1.00103272,12.9422985 C1.00784201,13.4687701 1.04913891,13.6519573 1.1489459,13.8385802 C1.2300532,13.9902376 1.3430957,14.1032801 1.49475316,14.1843874 C1.68177822,14.2844095 1.86535286,14.3256691 2.39444355,14.3323442 L2.5638852,14.3333333 L6.10278147,14.3333333 C6.76463338,14.3333333 6.96618594,14.2944117 7.17191351,14.1843874 C7.32357096,14.1032801 7.43661347,13.9902376 7.51772076,13.8385802 C7.61774286,13.6515551 7.65900239,13.4679805 7.66567749,12.9388898 L7.66666667,12.7694481 L7.66666667,2.5638852 C7.66666667,1.90203328 7.62774507,1.70048072 7.51772076,1.49475316 C7.43661347,1.3430957 7.32357096,1.2300532 7.17191351,1.1489459 C6.97242011,1.04225566 6.77685252,1.00242418 6.16169471,1 Z" id="path-1"></path>
        <path d="M0.4273142,-3.28988241e-16 L4.90601913,1.72640051e-17 C5.05460559,-1.00308841e-17 5.10848663,0.0154709352 5.16280762,0.0445221173 C5.2171286,0.0735732994 5.25976003,0.116204728 5.28881122,0.170525716 C5.3178624,0.224846704 5.33333333,0.278727743 5.33333333,0.4273142 L5.33333333,11.5726858 C5.33333333,11.7212723 5.3178624,11.7751533 5.28881122,11.8294743 C5.25976003,11.8837953 5.2171286,11.9264267 5.16280762,11.9554779 C5.10848663,11.9845291 5.05460559,12 4.90601913,12 L0.4273142,12 C0.278727743,12 0.224846704,11.9845291 0.170525716,11.9554779 C0.116204728,11.9264267 0.0735732994,11.8837953 0.0445221173,11.8294743 C0.0154709352,11.7751533 5.60838264e-17,11.7212723 -9.65250373e-17,11.5726858 L1.15093368e-17,0.4273142 C-6.6872561e-18,0.278727743 0.0154709352,0.224846704 0.0445221173,0.170525716 C0.0735732994,0.116204728 0.116204728,0.0735732994 0.170525716,0.0445221173 C0.224846704,0.0154709352 0.278727743,1.91151642e-16 0.4273142,-3.28988241e-16 Z" id="path-3"></path>
    </defs>
    <g id="ic/favourites/ic_favourites" stroke="none" stroke-width="1" fill="none" fill-rule="evenodd">
        <rect id="矩形" fill-opacity="0.4" fill="#000000" x="0" y="0" width="24" height="24" rx="4"></rect>
        <g id="Devices/Filled/ic_public_devices_phone_filled" transform="translate(7.666667, 4.333333)">
            <mask id="mask-2" fill="white">
                <use xlink:href="#path-1"></use>
            </mask>
            <use id="形状结合" fill="#FFFFFF" xlink:href="#path-1"></use>
            <g id="编组" opacity="0.6" transform="translate(1.666667, 1.666667)">
                <mask id="mask-4" fill="white">
                    <use xlink:href="#path-3"></use>
                </mask>
                <use id="矩形" fill="#FFFFFF" xlink:href="#path-3"></use>
            </g>
        </g>
    </g>
</svg>