<?xml version="1.0" encoding="UTF-8"?>
<svg width="72px" height="64px" viewBox="0 0 72 64" version="1.1" xmlns="http://www.w3.org/2000/svg" xmlns:xlink="http://www.w3.org/1999/xlink">
    <title>ic/ic_file_type_gallery</title>
    <g id="控件" stroke="none" stroke-width="1" fill="none" fill-rule="evenodd">
        <g id="ic/gallery-1" transform="translate(-18.000000, -16.000000)">
            <g id="ic/ic_file_type_gallery" transform="translate(18.000000, 16.000000)">
                <rect id="矩形" x="0" y="0" width="72" height="64"></rect>
                <path d="M5.12744505,51.0124562 L19.289738,31.7124653 C20.7241871,29.7576367 23.4717396,29.3357858 25.4265682,30.7702349 C25.786757,31.0345407 26.1044928,31.3522765 26.3687986,31.7124653 L40.5310915,51.0124562 C41.9655407,52.9672848 41.5436898,55.7148372 39.5888612,57.1492864 C38.8356612,57.7019829 37.9257901,58 36.9915613,58 L8.66697534,58 C6.24231058,58 4.27673143,56.0344209 4.27673143,53.6097561 C4.27673143,52.6755272 4.57474852,51.7656561 5.12744505,51.0124562 Z" id="路径-17备份" fill="#61CFBE"></path>
                <path d="M17.0501436,49.5220353 L37.0906243,23.4376001 C38.8632772,21.1303376 42.1707022,20.6969509 44.4779647,22.4696038 C44.8413573,22.7487956 45.1667693,23.0742076 45.4459611,23.4376001 L65.4864417,49.5220353 C67.2590947,51.8292978 66.8257079,55.1367228 64.5184454,56.9093757 C63.5979285,57.6166021 62.4696009,58 61.3087733,58 L21.227812,58 C18.3182143,58 15.9595193,55.641305 15.9595193,52.7317073 C15.9595193,51.5708798 16.3429172,50.4425522 17.0501436,49.5220353 Z" id="路径-17" fill="#61CFBE"></path>
                <path d="M28.5005193,34.6177151 L40.5310915,51.0124562 C41.9655407,52.9672848 41.5436898,55.7148372 39.5888612,57.1492864 C38.8356612,57.7019829 37.9257901,58 36.9915613,58 L21.227812,58 C18.3182143,58 15.9595193,55.641305 15.9595193,52.7317073 C15.9595193,51.5708798 16.3429172,50.4425522 17.0501436,49.5220353 L28.5005193,34.6177151 Z" id="形状结合" fill="#24A68D" style="mix-blend-mode: multiply;"></path>
                <circle id="椭圆形" fill="#61CFBE" style="mix-blend-mode: multiply;" cx="21.5" cy="13.5" r="6.5"></circle>
            </g>
        </g>
    </g>
</svg>