<?xml version="1.0" encoding="UTF-8"?>
<svg width="16px" height="16px" viewBox="0 0 16 16" version="1.1" xmlns="http://www.w3.org/2000/svg" xmlns:xlink="http://www.w3.org/1999/xlink">
    <title>ic_fm_ok</title>
    <g id="ic_fm_ok" stroke="none" stroke-width="1" fill="none" fill-rule="evenodd">
        <path d="M11.6096649,8.3847912 C12.2788446,9.05397085 12.2927858,10.1302634 11.6514887,10.8164061 L11.6096649,10.8596649 L8.15991747,14.3094124 C8.05341084,14.415919 7.92284068,14.483696 7.78570773,14.5127432 L7.68190095,14.5272669 L7.57727382,14.5272669 C7.40312314,14.5151638 7.23239058,14.4425457 7.0992573,14.3094124 C6.81682455,14.0269797 6.80673767,13.5753329 7.06899665,13.2808134 L7.0992573,13.2487522 L10.1954514,10.1525582 C10.4778841,9.87012541 10.487971,9.41847864 10.225712,9.12395918 L10.1954514,9.09189798 L4.5992573,3.49570391 C4.30636408,3.20281069 4.30636408,2.72793695 4.5992573,2.43504374 C4.88169004,2.15261099 5.33333682,2.1425241 5.62785628,2.40478308 L5.65991747,2.43504374 L11.6096649,8.3847912 Z" id="形状结合" fill="#FFFFFF" fill-rule="nonzero" transform="translate(8.250908, 8.371320) rotate(-270.000000) translate(-8.250908, -8.371320) "></path>
    </g>
</svg>