<?xml version="1.0" encoding="UTF-8"?>
<svg width="72px" height="64px" viewBox="0 0 72 64" version="1.1" xmlns="http://www.w3.org/2000/svg" xmlns:xlink="http://www.w3.org/1999/xlink">
    <title>ic/ic_file_type_music</title>
    <g id="控件" stroke="none" stroke-width="1" fill="none" fill-rule="evenodd">
        <g id="ic/music-1" transform="translate(-18.000000, -16.000000)">
            <g id="ic/ic_file_type_music" transform="translate(18.000000, 16.000000)">
                <rect id="矩形" x="0" y="0" width="72" height="64"></rect>
                <path d="M23,4 L49,4 C52.3137085,4 55,6.6862915 55,10 L55,36 C55,39.3137085 52.3137085,42 49,42 L23,42 C19.6862915,42 17,39.3137085 17,36 L17,10 C17,6.6862915 19.6862915,4 23,4 Z" id="矩形备份-2" fill-opacity="0.6" fill="#9D76FF"></path>
                <rect id="矩形备份" fill="#9D76FF" x="11" y="10" width="50" height="50" rx="6"></rect>
                <path d="M55,10 L55,36 C55,39.3137085 52.3137085,42 49,42 L23,42 C19.6862915,42 17,39.3137085 17,36 L17,10 L17,10 L55,10 L55,10 Z" id="形状结合" fill="#7950FF"></path>
                <path d="M42.7384591,23.0688196 C39.8671952,25.0480191 38.3173698,24.2963311 38.3173698,29.3014163 C38.3173698,32.6381398 38.3173698,37.6681169 38.3173698,44.3913475 C38.3173698,47.7663075 35.1182576,51.3080717 32.2134035,51.8996253 C29.3085494,52.4911789 26,50.418745 26,46.9827049 C26,43.5466648 28.9563541,41.6275544 30.5526986,40.9993217 C31.4715509,40.6377123 34.8036447,39.5306823 34.8036447,37.8892297 L34.8036447,22.0425481 C34.8036447,20.9722865 35.5480294,20.0460638 36.5932284,19.8158055 L44.8356156,18 L44.8356156,18 C45.3516872,20.0597467 44.652635,21.7493532 42.7384591,23.0688196 Z" id="Shape-Copy" fill="#FFFFFF"></path>
            </g>
        </g>
    </g>
</svg>