<?xml version="1.0" encoding="UTF-8"?>
<svg width="24px" height="24px" viewBox="0 0 24 24" version="1.1" xmlns="http://www.w3.org/2000/svg" xmlns:xlink="http://www.w3.org/1999/xlink">
    <title>ic_filemanager_zip</title>
    <g id="ic_filemanager_zip" stroke="none" stroke-width="1" fill="none" fill-rule="evenodd">
        <path d="M17,2 C19.209139,2 21,3.790861 21,6 L21,18 C21,20.209139 19.209139,22 17,22 L7,22 C4.790861,22 3,20.209139 3,18 L3,6 C3,3.790861 4.790861,2 7,2 L17,2 Z M17,3.5 L7,3.5 C5.6745166,3.5 4.58996133,4.53153594 4.50531768,5.83562431 L4.5,6 L4.5,18 C4.5,19.3254834 5.53153594,20.4100387 6.83562431,20.4946823 L7,20.5 L17,20.5 C18.3254834,20.5 19.4100387,19.4684641 19.4946823,18.1643757 L19.5,18 L19.5,6 C19.5,4.6745166 18.4684641,3.58996133 17.1643757,3.50531768 L17,3.5 Z" id="形状结合" fill-opacity="0.9" fill="#000000" fill-rule="nonzero"></path>
        <path d="M9.5,3 L14.5,3 L14.5,4 C14.5,4.55228475 14.0522847,5 13.5,5 L10.5,5 C9.94771525,5 9.5,4.55228475 9.5,4 L9.5,3 L9.5,3 Z M10,6 L14,6 C14.2761424,6 14.5,6.22385763 14.5,6.5 C14.5,6.77614237 14.2761424,7 14,7 L10,7 C9.72385763,7 9.5,6.77614237 9.5,6.5 C9.5,6.22385763 9.72385763,6 10,6 Z M13.5,10 C14.0522847,10 14.5,10.4477153 14.5,11 L14.5,14 C14.5,14.5522847 14.0522847,15 13.5,15 L10.5,15 C9.94771525,15 9.5,14.5522847 9.5,14 L9.5,11 C9.5,10.4477153 9.94771525,10 10.5,10 L13.5,10 Z M13.5,11 L10.5,11 L10.5,14 L13.5,14 L13.5,11 Z M10,8 L14,8 C14.2761424,8 14.5,8.22385763 14.5,8.5 C14.5,8.77614237 14.2761424,9 14,9 L10,9 C9.72385763,9 9.5,8.77614237 9.5,8.5 C9.5,8.22385763 9.72385763,8 10,8 Z" id="形状结合" fill-opacity="0.901960784" fill="#000000"></path>
    </g>
</svg>