<?xml version="1.0" encoding="UTF-8"?>
<svg width="60px" height="60px" viewBox="0 0 60 60" version="1.1" xmlns="http://www.w3.org/2000/svg" xmlns:xlink="http://www.w3.org/1999/xlink">
    <title>编组 28备份 4</title>
    <defs>
        <linearGradient x1="50%" y1="0%" x2="50%" y2="100%" id="linearGradient-1">
            <stop stop-color="#5EBCFF" offset="0%"></stop>
            <stop stop-color="#2B80FF" offset="100%"></stop>
        </linearGradient>
    </defs>
    <g id="RR2云盘" stroke="none" stroke-width="1" fill="none" fill-rule="evenodd">
        <g id="2_22-付费用户优化空间" transform="translate(-150, -96)">
            <g id="编组-5" transform="translate(24, 96)">
                <g id="编组-28备份-4" transform="translate(126, 0)">
                    <rect id="矩形" fill="url(#linearGradient-1)" x="0" y="0" width="60" height="60" rx="12"></rect>
                    <g id="编组-27" transform="translate(11.3776, 15.7824)" fill="#FFFFFF">
                        <path d="M27.1176311,2.01616501e-13 C29.2129047,2.01231606e-13 31.0666824,1.35749362 31.6992011,3.35501503 L37.0548082,20.2676193 C35.8637537,19.1047883 34.2350554,18.3882313 32.4389961,18.3882313 L4.8057772,18.3882313 C3.01022547,18.3882313 1.38194004,19.1043834 0.190974872,20.2666337 L5.54557226,3.35501503 C6.17809092,1.35749362 8.03186862,2.02889575e-13 10.1271423,2.0250468e-13 L27.1176311,2.01616501e-13 Z M12.7805692,7.60326844 C11.2143215,7.95062605 9.87285952,9.14016171 9.61084873,10.5542421 C9.32947462,12.0728269 10.5390069,13.3323995 12.4007673,13.5683021 C12.5532218,13.5238569 12.7037998,13.4759934 12.8526078,13.4247207 C14.8291514,12.4791643 14.8418508,11.476774 13.6843242,10.0695887 C13.1356869,9.36927814 12.8376458,8.54573068 12.7805692,7.60326844 Z M23.2237049,6.28874751 C22.7490291,6.33132847 22.3747247,6.40422349 22.1029563,6.50447939 C21.2604894,6.81237842 20.5307683,7.34873023 20.0219156,8.0187188 C19.8966385,8.18060527 18.4629057,10.1628164 17.8693382,10.8333108 C16.8371652,11.958363 15.7291692,12.845086 14.4728622,13.4820742 C14.5441539,13.4750676 15.0323071,13.4713824 15.7469514,13.469838 L16.201394,13.4691589 C16.2811566,13.4690853 16.3628034,13.4690309 16.4461439,13.4689943 L16.96499,13.4689796 C17.0543443,13.4690097 17.1450117,13.4690554 17.2368017,13.4691154 L17.7994913,13.4696377 C17.8950106,13.4697503 17.9912718,13.4698748 18.0880847,13.4700102 L18.6740578,13.4709421 L19.2641309,13.4720762 C20.7368242,13.475117 22.1622894,13.4795224 22.8980268,13.4813086 L23.1540132,13.4818739 C23.1900391,13.4819417 23.2226187,13.4819955 23.2515618,13.4820341 L23.3800585,13.4820742 C26.0819056,13.4820742 28.0093213,12.0807872 27.6258432,10.011144 C27.4212458,8.9069253 26.6806823,7.91426335 25.6893787,7.22848679 C25.6641247,7.1993178 25.6337106,7.17245805 25.5984451,7.14912178 C24.855988,6.6527176 24.0327838,6.36853766 23.2237049,6.28874751 Z M18.4334074,3.56783881 C16.1653834,3.56783881 14.1214734,5.14556296 13.5444009,7.20540346 C13.5635605,8.17067799 13.8386523,8.991023 14.3769064,9.67238602 C14.9894448,10.4225239 15.321695,11.0796942 15.2914679,11.7601679 C15.2844814,11.9188416 15.2562176,12.0743122 15.2061024,12.2264255 C15.9085472,11.7337357 16.5689822,11.13957 17.205148,10.4454585 C17.4151857,10.2101173 17.7400429,9.79913267 18.0752932,9.36259755 L18.327048,9.03275071 C18.8279284,8.37285638 19.2934539,7.73990072 19.371186,7.64044738 C19.9661332,6.86275774 20.8075943,6.24169263 21.7757907,5.88402142 C21.9900248,5.80407373 22.2421465,5.7402975 22.5328823,5.69193896 C21.605536,4.40054174 20.0738516,3.56783881 18.4334074,3.56783881 Z" id="形状结合"></path>
                        <path d="M33.1223673,20.1903977 C35.3991093,20.1903977 37.2447733,22.0360618 37.2447733,24.3128038 C37.2447733,26.5895458 35.3991093,28.4352099 33.1223673,28.4352099 L4.12240608,28.4352099 C1.84566407,28.4352099 7.10821556e-13,26.5895458 7.10542736e-13,24.3128038 C7.10263915e-13,22.0360618 1.84566407,20.1903977 4.12240608,20.1903977 L33.1223673,20.1903977 Z M32.6906048,22.4677021 L32.6047344,22.4677021 C31.6094254,22.4677021 30.802568,23.2745595 30.802568,24.2698686 L30.802568,24.355739 C30.802568,25.351048 31.6094254,26.1579054 32.6047344,26.1579054 L32.6906048,26.1579054 C33.6859139,26.1579054 34.4927713,25.351048 34.4927713,24.355739 L34.4927713,24.2698686 C34.4927713,23.2745595 33.6859139,22.4677021 32.6906048,22.4677021 Z" id="形状结合" opacity="0.600000024"></path>
                    </g>
                </g>
            </g>
        </g>
    </g>
</svg>