<svg width="24.000000" height="24.000000" viewBox="0 0 24 24" fill="none" xmlns="http://www.w3.org/2000/svg" xmlns:xlink="http://www.w3.org/1999/xlink">
	<desc>
			Created with Pixso.
	</desc>
	<defs/>
	<rect id="bg" rx="4.000000" width="24.000000" height="24.000000" fill="#1E73FF" fill-opacity="1.000000"/>
	<path id="path" d="M15.7 15.01C15.79 15.11 15.84 15.22 15.84 15.36C15.84 15.49 15.79 15.61 15.7 15.71C15.6 15.81 15.49 15.86 15.36 15.86C15.22 15.86 15.11 15.81 15.01 15.71L11.65 12.34C11.59 12.27 11.51 12.12 11.51 11.98L11.51 7.93C11.51 7.8 11.56 7.68 11.65 7.58C11.75 7.48 11.86 7.43 12 7.43C12.13 7.43 12.24 7.48 12.34 7.58C12.43 7.68 12.48 7.8 12.48 7.93L12.48 11.79L15.7 15.01ZM12 5C10.72 5 9.55 5.31 8.48 5.94C7.41 6.57 6.56 7.42 5.93 8.49C5.31 9.55 5 10.72 5 12C5 13.27 5.31 14.44 5.93 15.5C6.56 16.57 7.41 17.42 8.48 18.05C9.55 18.68 10.72 19 12 19C13.25 19 14.42 18.68 15.5 18.05C16.57 17.42 17.42 16.57 18.05 15.5C18.68 14.42 19 13.25 19 12C19 10.74 18.68 9.57 18.05 8.49C17.42 7.42 16.57 6.57 15.5 5.94C14.42 5.31 13.25 5 12 5Z" fill="#FFFFFF" fill-opacity="1.000000" fill-rule="nonzero"/>
</svg>
