<?xml version="1.0" encoding="utf-8"?>
<!-- Generator: Adobe Illustrator 26.3.1, SVG Export Plug-In . SVG Version: 6.00 Build 0)  -->
<svg version="1.1" id="图层_1" xmlns="http://www.w3.org/2000/svg" xmlns:xlink="http://www.w3.org/1999/xlink" x="0px" y="0px"
	 viewBox="0 0 24 24" style="enable-background:new 0 0 24 24;" xml:space="preserve">
<style type="text/css">
	.st0{fill:#0A59F7;}
	.st1{fill-rule:evenodd;clip-rule:evenodd;fill:#0A59F7;}
</style>
<path id="路径-2" class="st0" d="M12,1C6.11,1,1.31,5.62,1.01,11.44L1,11.76v0.25l0.01,0.44l0.03,0.43l0.04,0.43l0.02,0.12
	l0.02,0.16l0.01,0.05l0.01,0.09l0.07,0.41c0.08,0.41,0.19,0.82,0.32,1.23l0.14,0.41l0.04,0.08c0.05,0.09,0.13,0.17,0.22,0.23
	c0.3,0.19,0.69,0.09,0.88-0.21l1.86-3c0.07-0.12,0.11-0.25,0.11-0.39c0-0.41-0.33-0.73-0.73-0.73H2.98v-0.01
	c0.13-4.7,3.85-8.51,8.52-8.77l0.26-0.01h0.26c0.64,0,1.28,0.07,1.9,0.2c4.15,0.89,7.14,4.57,7.14,8.84c0,5-4.05,9.04-9.04,9.04
	c-0.9,0-1.78-0.13-2.62-0.39c-1.24-0.37-2.39-1.01-3.36-1.88c-0.4-0.36-1.02-0.32-1.38,0.09c-0.36,0.4-0.32,1.02,0.09,1.38
	c1.19,1.05,2.58,1.82,4.09,2.28C9.84,22.84,10.91,23,12,23c6.08,0,11-4.92,11-11c0-5.19-3.64-9.68-8.69-10.76
	C13.55,1.08,12.78,1,12,1z"/>
<path id="矩形" class="st0" d="M12,5L12,5c0.55,0,1,0.45,1,1v6c0,0.55-0.45,1-1,1l0,0c-0.55,0-1-0.45-1-1V6C11,5.45,11.45,5,12,5z
	"/>
<path id="形状结合" class="st1" d="M14.38,12.77l3.54,3.54c0.39,0.39,0.39,1.02,0,1.41s-1.02,0.39-1.41,0l-3.45-3.45
	C13.68,13.98,14.17,13.43,14.38,12.77z M13,11.41V12c0,0.55-0.45,1-1,1c-0.09,0-0.17-0.01-0.25-0.03l-0.02-0.02
	c-0.39-0.39-0.39-1.02,0-1.41C12.08,11.18,12.61,11.14,13,11.41z"/>
</svg>
