<svg width="336.000000" height="336.000000" viewBox="0 0 336 336" fill="none" xmlns="http://www.w3.org/2000/svg" xmlns:xlink="http://www.w3.org/1999/xlink">
	<desc>
			Created with Pixso.
	</desc>
	<defs>
		<clipPath id="clip257_2028">
			<rect id="ic_light ppt" width="336.000000" height="336.000000" fill="white" fill-opacity="0"/>
		</clipPath>
		<linearGradient x1="168.000320" y1="0.000000" x2="168.000320" y2="336.000000" id="paint_linear_257_2020_0" gradientUnits="userSpaceOnUse">
			<stop stop-color="#FA922C"/>
			<stop offset="1.000000" stop-color="#F26C18"/>
		</linearGradient>
		<linearGradient x1="271.274292" y1="45.868835" x2="222.090103" y2="92.658180" id="paint_linear_257_2021_0" gradientUnits="userSpaceOnUse">
			<stop offset="0.100487" stop-color="#F46104"/>
			<stop offset="1.000000" stop-color="#F59647" stop-opacity="0.466667"/>
		</linearGradient>
		<linearGradient x1="228.949539" y1="-4.294090" x2="257.832367" y2="97.462883" id="paint_linear_257_2024_0" gradientUnits="userSpaceOnUse">
			<stop stop-color="#F87E32"/>
			<stop offset="0.263153" stop-color="#F8AB6A"/>
			<stop offset="0.631381" stop-color="#FFC18D"/>
			<stop offset="0.952277" stop-color="#F4893A"/>
			<stop offset="1.000000" stop-color="#F4893A" stop-opacity="0.603922"/>
		</linearGradient>
	</defs>
	<g clip-path="url(#clip257_2028)">
		<path id="矩形备份 113" d="M42.24 0L211.71 0C217.52 0 223.1 2.29 227.23 6.38L310.79 89.13C314.98 93.27 317.33 98.91 317.33 104.8L317.33 312.41C317.33 325.44 306.77 336 293.75 336L42.24 336C29.22 336 18.66 325.44 18.66 312.41L18.66 23.58C18.66 10.55 29.22 0 42.24 0Z" fill="url(#paint_linear_257_2020_0)" fill-opacity="1.000000" fill-rule="evenodd"/>
		<path id="矩形 2" d="M220.43 64.1L220.43 35L220.24 17.5C220.18 11.89 217.9 6.54 213.9 2.62L211.22 0L215.03 0C219.89 0 224.55 1.96 227.94 5.45L232.22 9.85L244.74 22.28L269.8 47.15L294.85 72.02L310.22 87.27C314.77 91.78 317.32 97.91 317.32 104.31L317.32 105.36L314.73 102.77C310.73 98.77 305.3 96.52 299.64 96.52L281.95 96.52L252.85 96.52C234.94 96.52 220.43 82 220.43 64.1Z" fill="url(#paint_linear_257_2021_0)" fill-opacity="1.000000" fill-rule="evenodd"/>
		<path id="减去顶层" d="M207.126 0.000244141L207.122 0.000244141L209.262 1.4984L213.306 4.39085Q214.994 5.59894 216.291 7.13759L216.291 7.13771C217.042 8.02872 217.694 9.00284 218.248 10.0601C218.9 11.3063 219.375 12.5925 219.672 13.9183C219.92 15.0261 220.044 16.1617 220.044 17.3251L220.202 49.9797L220.229 64.8425C220.229 67.8316 220.64 70.6975 221.462 73.4401C221.98 75.1706 222.663 76.852 223.509 78.4843C223.715 78.8809 223.929 79.2726 224.151 79.6594C226.014 82.8959 228.473 85.7891 231.528 88.3391C233.133 89.6786 234.827 90.8648 236.609 91.8979C238.203 92.8219 239.869 93.6233 241.605 94.3021Q246.824 96.3427 251.36 96.3427C252.392 96.3427 253.202 95.5321 253.202 94.5004C253.202 93.4687 252.392 92.6581 251.36 92.6581C248.8 92.6581 245.995 92.0623 242.947 90.8705C241.396 90.2645 239.909 89.5497 238.485 88.7261C236.873 87.7936 235.341 86.7217 233.89 85.5103C231.027 83.1216 228.76 80.4059 227.087 77.3633C226.378 75.9954 225.493 74.0125 225.048 72.5637C224.291 70.1064 223.913 67.5327 223.913 64.8425L223.887 49.9732L223.729 17.3073C223.729 15.8993 223.581 14.5238 223.285 13.1808L223.285 13.1805Q222.737 10.6913 221.512 8.3512C220.823 7.03493 220.01 5.82375 219.072 4.71793L219.072 4.71791Q217.495 2.85739 215.449 1.39406L214.501 0.715683C213.378 0.0436859 213.15 0.00288391 209.65 0.000396729L207.126 0.000396729L207.126 0.000244141Z" clip-rule="evenodd" fill="url(#paint_linear_257_2024_0)" fill-opacity="1.000000" fill-rule="evenodd"/>
		<path id="形状结合" d="M222.476 177.147C222.476 152.377 202.389 132 177.694 132L177.694 132.041C177.526 132.032 177.357 132.028 177.187 132.028L134.95 132.028L134.071 132.053C126.222 132.508 119.997 139.018 119.997 146.981L119.997 251.548L120.026 252.312C120.416 257.348 124.626 261.314 129.763 261.314L130.526 261.285C135.562 260.896 139.528 256.685 139.528 251.548L139.528 221.928L177.694 221.928L179.015 221.909C203.136 221.21 222.476 201.437 222.476 177.147ZM139.527 202.396L177.694 202.396C191.64 202.396 202.943 191.092 202.943 177.147C202.943 163.471 192.131 152.142 178.782 151.555L177.834 151.535L177.187 151.559L139.526 151.557L139.527 202.396Z" clip-rule="evenodd" fill="#FFFFFF" fill-opacity="1.000000" fill-rule="evenodd"/>
	</g>
</svg>
