<svg width="336.000000" height="336.000000" viewBox="0 0 336 336" fill="none" xmlns="http://www.w3.org/2000/svg" xmlns:xlink="http://www.w3.org/1999/xlink">
	<desc>
			Created with Pixso.
	</desc>
	<defs>
		<clipPath id="clip257_2995">
			<rect id="ic_light htm" width="336.000000" height="336.000000" fill="white" fill-opacity="0"/>
		</clipPath>
		<linearGradient x1="168.000320" y1="0.000000" x2="168.000320" y2="336.000000" id="paint_linear_257_2982_0" gradientUnits="userSpaceOnUse">
			<stop stop-color="#55BFF2"/>
			<stop offset="1.000000" stop-color="#3898F7"/>
		</linearGradient>
		<linearGradient x1="271.255737" y1="45.868912" x2="222.071548" y2="92.658257" id="paint_linear_257_2983_0" gradientUnits="userSpaceOnUse">
			<stop offset="0.100487" stop-color="#4799ED"/>
			<stop offset="1.000000" stop-color="#77CDFB"/>
		</linearGradient>
		<linearGradient x1="228.940750" y1="-4.294456" x2="257.823578" y2="97.462517" id="paint_linear_257_2986_0" gradientUnits="userSpaceOnUse">
			<stop stop-color="#36BCF8"/>
			<stop offset="0.265149" stop-color="#A5DAFF"/>
			<stop offset="0.715692" stop-color="#CDEBFF"/>
			<stop offset="0.924672" stop-color="#80C9FF"/>
			<stop offset="1.000000" stop-color="#64B8F5" stop-opacity="0.000000"/>
		</linearGradient>
	</defs>
	<g clip-path="url(#clip257_2995)">
		<path id="矩形备份 113" d="M42.24 0L211.71 0C217.52 0 223.1 2.29 227.23 6.38L310.79 89.13C314.98 93.27 317.33 98.91 317.33 104.8L317.33 312.41C317.33 325.44 306.77 336 293.75 336L42.24 336C29.22 336 18.66 325.44 18.66 312.41L18.66 23.58C18.66 10.55 29.22 0 42.24 0Z" fill="url(#paint_linear_257_2982_0)" fill-opacity="1.000000" fill-rule="evenodd"/>
		<g style="mix-blend-mode:normal">
			<path id="矩形 2" d="M220.41 64.1L220.41 35L220.22 17.5C220.17 11.89 217.88 6.54 213.88 2.62L211.2 0L215.01 0C219.88 0 224.53 1.96 227.92 5.45L232.2 9.85L244.72 22.28L269.78 47.15L294.83 72.02L310.2 87.27C314.75 91.78 317.3 97.91 317.3 104.31L317.3 105.36L314.71 102.77C310.71 98.77 305.28 96.52 299.62 96.52L281.94 96.52L252.83 96.52C234.93 96.52 220.41 82 220.41 64.1Z" fill="url(#paint_linear_257_2983_0)" fill-opacity="1.000000" fill-rule="evenodd"/>
		</g>
		<path id="减去顶层" d="M207.117 -0.00012207L207.113 -0.00012207L209.253 1.49805L213.297 4.3905C214.423 5.19592 215.418 6.11145 216.282 7.13721L216.282 7.13733C217.033 8.02832 217.686 9.00244 218.239 10.0597C218.892 11.3059 219.366 12.592 219.663 13.9178C219.911 15.0258 220.035 16.1614 220.035 17.3247L220.193 49.9794L220.22 64.8422C220.22 67.8313 220.631 70.6971 221.453 73.4397C221.972 75.1702 222.654 76.8516 223.5 78.4839C223.706 78.8805 223.92 79.2722 224.143 79.6591C226.005 82.8955 228.464 85.7887 231.52 88.3387C233.124 89.6782 234.818 90.8645 236.601 91.8975C238.194 92.8215 239.86 93.6229 241.597 94.3018C245.076 95.6621 248.328 96.3423 251.352 96.3423C252.383 96.3423 253.193 95.5317 253.193 94.5C253.193 93.4684 252.383 92.6577 251.352 92.6577C248.791 92.6577 245.986 92.0619 242.938 90.8701C241.388 90.2642 239.9 89.5493 238.477 88.7257C236.864 87.7932 235.332 86.7213 233.881 85.51C231.019 83.1212 228.751 80.4055 227.078 77.3629C226.369 75.995 225.484 74.0122 225.039 72.5634C224.282 70.1061 223.904 67.5323 223.904 64.8422L223.878 49.9728L223.72 17.3069C223.72 15.8989 223.572 14.5234 223.276 13.1805L223.276 13.1802C222.911 11.5208 222.32 9.91089 221.503 8.35083C220.814 7.03455 220.001 5.82336 219.063 4.71753L219.063 4.71753C218.012 3.47717 216.805 2.36926 215.44 1.39368L214.492 0.715332C213.421 0.0742188 213.164 0.00756836 210.104 0.000732422L207.117 0.000732422L207.117 -0.00012207Z" clip-rule="evenodd" fill="url(#paint_linear_257_2986_0)" fill-opacity="1.000000" fill-rule="evenodd"/>
		<g style="mix-blend-mode:normal">
			<path id="合并" d="M93 166.735L93 213.082C93 215.734 95.083 217.817 97.7354 217.817C100.387 217.817 102.47 215.734 102.47 213.082L102.47 193.789L124.444 193.789L124.444 213.082C124.444 215.734 126.527 217.817 129.18 217.817C131.831 217.817 133.914 215.734 133.914 213.082L133.914 166.735C133.914 164.083 131.831 162 129.18 162C126.527 162 124.444 164.083 124.444 166.735L124.444 184.319L102.47 184.319L102.47 166.735C102.47 164.083 100.387 162 97.7354 162C95.083 162 93 164.083 93 166.735ZM146.122 172.396L156.631 172.396L156.631 213.683C156.631 216.334 158.714 218.417 161.366 218.417C164.018 218.417 166.101 216.334 166.101 213.683L166.101 172.396L176.642 172.396C179.293 172.396 181.376 170.313 181.376 167.661C181.376 165.01 179.293 162.927 176.642 162.927L146.122 162.927C143.47 162.927 141.387 165.01 141.387 167.661C141.387 170.313 143.47 172.396 146.122 172.396ZM232.355 182.387L232.355 215.094C232.355 217.746 234.439 219.829 237.091 219.829C239.742 219.829 241.826 217.746 241.826 215.094L241.826 168.747Q241.826 167.767 241.479 166.93L241.479 166.929L241.479 166.929Q241.132 166.092 240.438 165.399C239.515 164.475 238.398 164.012 237.091 164.012L232.395 164.012C231.406 164.012 230.507 164.294 229.694 164.857Q229.086 165.28 228.652 165.838L228.652 165.838L228.652 165.838L228.652 165.838L228.652 165.838L228.651 165.838L228.651 165.839L228.651 165.839Q228.218 166.397 227.959 167.091L215.176 201.326L202.902 167.147C202.564 166.207 201.987 165.449 201.17 164.874C200.353 164.3 199.445 164.012 198.446 164.012L193.594 164.012C192.291 164.012 191.178 164.472 190.254 165.391C189.33 166.311 188.865 167.422 188.859 168.725L188.641 215.072C188.628 217.723 190.701 219.817 193.353 219.829C196.004 219.842 198.098 217.768 198.11 215.117L198.266 182.254L210.633 216.695C210.868 217.35 211.231 217.926 211.721 218.421C212.21 218.917 212.781 219.286 213.434 219.53C214.658 219.987 215.865 219.945 217.055 219.402C218.244 218.859 219.068 217.975 219.525 216.75L232.355 182.387Z" clip-rule="evenodd" fill="#FFFFFF" fill-opacity="1.000000" fill-rule="evenodd"/>
		</g>
	</g>
</svg>
