<svg width="336.000000" height="336.000000" viewBox="0 0 336 336" fill="none" xmlns="http://www.w3.org/2000/svg" xmlns:xlink="http://www.w3.org/1999/xlink">
	<desc>
			Created with Pixso.
	</desc>
	<defs>
		<clipPath id="clip257_2331">
			<rect id="ic_light log" width="336.000000" height="336.000000" fill="white" fill-opacity="0"/>
		</clipPath>
		<linearGradient x1="168.000320" y1="0.000717" x2="168.000320" y2="336.000732" id="paint_linear_257_2772_0" gradientUnits="userSpaceOnUse">
			<stop stop-color="#C0CBD4"/>
			<stop offset="1.000000" stop-color="#9EB0BC"/>
		</linearGradient>
		<linearGradient x1="271.255737" y1="45.869263" x2="222.071548" y2="92.658607" id="paint_linear_257_2773_0" gradientUnits="userSpaceOnUse">
			<stop offset="0.100487" stop-color="#97ABB8"/>
			<stop offset="1.000000" stop-color="#D7E2E9"/>
		</linearGradient>
		<linearGradient x1="228.940750" y1="-4.294811" x2="254.736908" y2="96.341934" id="paint_linear_257_2774_0" gradientUnits="userSpaceOnUse">
			<stop stop-color="#9EB0BC"/>
			<stop offset="0.332341" stop-color="#D2DDE4"/>
			<stop offset="0.685898" stop-color="#EDF7FE"/>
			<stop offset="0.879007" stop-color="#DBE5EB"/>
			<stop offset="1.000000" stop-color="#C1CFD8" stop-opacity="0.000000"/>
		</linearGradient>
	</defs>
	<g clip-path="url(#clip257_2331)">
		<path id="矩形备份 113" d="M42.24 0L211.71 0C217.52 0 223.1 2.29 227.23 6.38L310.79 89.13C314.98 93.27 317.33 98.91 317.33 104.8L317.33 312.41C317.33 325.44 306.77 336 293.75 336L42.24 336C29.22 336 18.66 325.44 18.66 312.41L18.66 23.58C18.66 10.55 29.22 0 42.24 0Z" fill="url(#paint_linear_257_2772_0)" fill-opacity="1.000000" fill-rule="evenodd"/>
		<g style="mix-blend-mode:normal">
			<path id="矩形 2" d="M220.41 64.1L220.41 35L220.22 17.5C220.17 11.89 217.88 6.54 213.88 2.62L211.2 0L215.01 0C219.88 0 224.53 1.96 227.92 5.45L232.2 9.85L244.72 22.29L269.78 47.15L294.83 72.02L310.2 87.27C314.75 91.78 317.3 97.91 317.3 104.31L317.3 105.36L314.71 102.77C310.71 98.77 305.28 96.52 299.62 96.52L281.94 96.52L252.83 96.52C234.93 96.52 220.41 82.01 220.41 64.1Z" fill="url(#paint_linear_257_2773_0)" fill-opacity="1.000000" fill-rule="evenodd"/>
		</g>
		<path id="减去顶层" d="M207.117 -0.000488281L207.113 -0.000488281L209.253 1.49767L213.297 4.39012Q214.985 5.59821 216.282 7.13686L216.282 7.13698C217.033 8.02798 217.686 9.00211 218.239 10.0594C218.892 11.3056 219.366 12.5917 219.663 13.9175C219.911 15.0253 220.035 16.1609 220.035 17.3243L220.193 49.979L220.22 64.8418C220.22 67.8309 220.631 70.6967 221.453 73.4393C221.972 75.1698 222.654 76.8513 223.5 78.4836C223.706 78.8802 223.92 79.2719 224.143 79.6587C226.005 82.8951 228.464 85.7884 231.52 88.3384C233.124 89.6778 234.818 90.8641 236.601 91.8971C238.194 92.8211 239.86 93.6226 241.597 94.3014Q246.815 96.3419 251.352 96.3419C252.383 96.3419 253.193 95.5313 253.193 94.4997C253.193 93.468 252.383 92.6574 251.352 92.6574C248.791 92.6574 245.986 92.0615 242.938 90.8698C241.388 90.2638 239.9 89.549 238.477 88.7254C236.864 87.7929 235.332 86.7209 233.881 85.5096C231.019 83.1209 228.751 80.4052 227.078 77.3625C226.369 75.9947 225.484 74.0118 225.039 72.563C224.282 70.1057 223.904 67.532 223.904 64.8418L223.878 49.9724L223.72 17.3065C223.72 15.8985 223.572 14.5231 223.276 13.1801L223.276 13.1798Q222.729 10.6906 221.503 8.35046C220.814 7.03419 220.001 5.82301 219.063 4.71719L219.063 4.71718Q217.486 2.85666 215.44 1.39333L214.492 0.714951C213.449 0.0905151 213.179 0.0110931 210.337 0.000976562L207.117 0.000976562L207.117 -0.000488281Z" clip-rule="evenodd" fill="url(#paint_linear_257_2774_0)" fill-opacity="1.000000" fill-rule="evenodd"/>
		<g style="mix-blend-mode:normal">
			<path id="合并" d="M112.011 217.516L112.011 177.587C112.011 174.694 109.737 172.421 106.845 172.421C103.952 172.421 101.68 174.694 101.68 177.587L101.68 222.239C101.68 222.622 101.717 222.996 101.792 223.363C101.866 223.724 101.977 224.078 102.122 224.424C102.264 224.758 102.434 225.073 102.633 225.368C102.833 225.667 103.062 225.945 103.322 226.204C103.581 226.464 103.86 226.693 104.158 226.894C104.454 227.093 104.769 227.263 105.103 227.404Q105.621 227.623 106.162 227.734L106.163 227.734L106.163 227.734C106.53 227.809 106.905 227.847 107.287 227.847L135.582 227.847C138.475 227.847 140.747 225.574 140.747 222.681C140.747 219.789 138.475 217.516 135.582 217.516L112.011 217.516ZM233.473 196.835L224.005 196.835C221.167 196.835 218.937 199.065 218.937 201.903C218.937 204.741 221.167 206.97 224.005 206.97L228.992 206.97C228.971 207.22 228.948 207.48 228.922 207.751C228.722 209.828 228.172 211.441 227.271 212.591C226.434 213.661 225.484 214.574 224.423 215.331C223.93 215.683 223.413 216.001 222.871 216.285C221.246 217.138 219.634 217.564 218.034 217.564C217.273 217.564 216.528 217.489 215.8 217.339C214.909 217.155 214.041 216.859 213.196 216.451C211.733 215.698 210.163 214.513 209.011 213.157C207.7 211.615 206.682 209.788 205.954 207.678C205.155 205.362 204.756 202.839 204.756 200.109Q204.756 195.986 205.931 192.513C206.646 190.399 207.647 188.577 208.938 187.045C210.033 185.745 211.277 184.724 212.671 183.984C213.322 183.671 214.409 183.212 215.096 183.03C216.042 182.78 217.021 182.655 218.034 182.655C219.334 182.655 220.453 182.768 221.393 182.994C222.15 183.177 222.83 183.447 223.432 183.804C224.005 184.145 224.591 184.614 225.19 185.212Q226.056 186.075 227.271 187.628C229.021 189.862 232.151 190.243 234.386 188.494C236.62 186.745 237.001 183.614 235.252 181.38Q233.653 179.338 232.349 178.037C231.151 176.843 229.903 175.86 228.604 175.089C227.132 174.217 225.51 173.562 223.77 173.142C222.05 172.727 220.138 172.519 218.034 172.519C216.251 172.519 214.521 172.727 212.841 173.143L212.839 173.143Q210.713 173.669 208.696 174.639C207.927 175.009 207.184 175.421 206.467 175.874C204.511 177.112 202.75 178.659 201.186 180.516C199.153 182.98 197.425 186.029 196.33 189.266Q194.621 194.318 194.621 200.109C194.621 203.972 195.205 207.596 196.372 210.981C197.443 214.089 198.951 216.843 200.895 219.245C201.023 219.405 201.154 219.563 201.287 219.719C202.905 221.624 204.726 223.202 206.747 224.455C207.405 224.863 208.085 225.236 208.785 225.575C210.326 226.32 211.91 226.869 213.536 227.222C215.001 227.54 216.5 227.699 218.034 227.699C218.694 227.699 219.352 227.666 220.005 227.599C222.583 227.337 225.108 226.557 227.581 225.259C228.762 224.64 229.875 223.931 230.92 223.134C232.523 221.911 233.967 220.479 235.252 218.839C237.335 216.147 238.624 212.728 239.01 208.722C239.203 206.715 239.276 205.071 239.229 203.791Q239.17 202.161 238.823 201.015C238.567 200.169 238.179 199.433 237.657 198.809C237.376 198.471 237.063 198.175 236.722 197.918C236.492 197.747 236.25 197.594 235.993 197.459C235.6 197.251 235.193 197.096 234.774 196.992C234.354 196.887 233.919 196.835 233.473 196.835ZM164.761 172.724C152.308 172.724 142.213 185.095 142.213 200.355C142.213 215.616 152.308 227.987 164.761 227.987C177.213 227.987 187.308 215.616 187.308 200.355C187.308 185.095 177.213 172.724 164.761 172.724ZM164.761 182.671C157.802 182.671 152.16 190.589 152.16 200.355C152.16 210.122 157.802 218.04 164.761 218.04C171.719 218.04 177.36 210.122 177.36 200.355C177.36 190.589 171.719 182.671 164.761 182.671Z" clip-rule="evenodd" fill="#FFFFFF" fill-opacity="1.000000" fill-rule="evenodd"/>
		</g>
	</g>
</svg>
