<svg width="336.000000" height="336.000000" viewBox="0 0 336 336" fill="none" xmlns="http://www.w3.org/2000/svg" xmlns:xlink="http://www.w3.org/1999/xlink">
	<desc>
			Created with Pixso.
	</desc>
	<defs>
		<clipPath id="clip257_2115">
			<rect id="ic_light m4a" width="336.000000" height="336.000000" fill="white" fill-opacity="0"/>
		</clipPath>
		<linearGradient x1="168.000320" y1="0.000000" x2="168.000320" y2="336.000000" id="paint_linear_257_2725_0" gradientUnits="userSpaceOnUse">
			<stop stop-color="#FF6D81"/>
			<stop offset="1.000000" stop-color="#F03F64"/>
		</linearGradient>
		<linearGradient x1="271.255737" y1="45.868546" x2="222.071548" y2="92.657890" id="paint_linear_257_2726_0" gradientUnits="userSpaceOnUse">
			<stop offset="0.100487" stop-color="#EF4161"/>
			<stop offset="1.000000" stop-color="#FA7286"/>
		</linearGradient>
		<linearGradient x1="228.942688" y1="-4.292135" x2="260.030334" y2="99.145271" id="paint_linear_257_2727_0" gradientUnits="userSpaceOnUse">
			<stop stop-color="#F85A72"/>
			<stop offset="0.254966" stop-color="#FF9EA5"/>
			<stop offset="0.670781" stop-color="#FFB1BE"/>
			<stop offset="0.942386" stop-color="#F7637B"/>
			<stop offset="1.000000" stop-color="#F45973" stop-opacity="0.000000"/>
		</linearGradient>
	</defs>
	<g clip-path="url(#clip257_2115)">
		<path id="矩形备份 113" d="M42.24 0L211.71 0C217.52 0 223.1 2.29 227.23 6.38L310.79 89.13C314.98 93.27 317.33 98.91 317.33 104.8L317.33 312.41C317.33 325.44 306.77 336 293.75 336L42.24 336C29.22 336 18.66 325.44 18.66 312.41L18.66 23.58C18.66 10.55 29.22 0 42.24 0Z" fill="url(#paint_linear_257_2725_0)" fill-opacity="1.000000" fill-rule="evenodd"/>
		<g style="mix-blend-mode:normal">
			<path id="矩形 2" d="M220.41 64.1L220.41 35L220.22 17.5C220.17 11.89 217.88 6.54 213.88 2.62L211.2 0L215.01 0C219.88 0 224.53 1.96 227.92 5.45L232.2 9.85L244.72 22.28L269.78 47.15L294.83 72.02L310.2 87.27C314.75 91.78 317.3 97.91 317.3 104.31L317.3 105.36L314.71 102.77C310.71 98.77 305.28 96.52 299.62 96.52L281.94 96.52L252.83 96.52C234.93 96.52 220.41 82 220.41 64.1Z" fill="url(#paint_linear_257_2726_0)" fill-opacity="1.000000" fill-rule="evenodd"/>
		</g>
		<path id="减去顶层" d="M209.255 1.50024L213.299 4.39282Q214.987 5.60083 216.284 7.13965L216.284 7.13965C217.035 8.03076 217.688 9.00488 218.241 10.062C218.894 11.3083 219.368 12.5945 219.665 13.9202C219.913 15.0281 220.037 16.1636 220.037 17.3271L220.195 49.9817L220.222 64.8445C220.222 67.8335 220.633 70.6995 221.455 73.4421C221.974 75.1726 222.656 76.854 223.502 78.4863C223.708 78.8828 223.922 79.2747 224.145 79.6614C226.007 82.8977 228.466 85.791 231.521 88.3411C233.126 89.6804 234.82 90.8667 236.603 91.8999C238.196 92.8237 239.862 93.6252 241.599 94.3042Q246.817 96.3447 251.354 96.3447C252.385 96.3447 253.195 95.5339 253.195 94.5024C253.195 93.4707 252.385 92.6602 251.354 92.6602C248.793 92.6602 245.988 92.0642 242.94 90.8726C241.39 90.2664 239.902 89.5518 238.479 88.728C236.866 87.7957 235.334 86.7236 233.883 85.5122C231.021 83.1235 228.753 80.408 227.08 77.3652C226.371 75.9973 225.486 74.0144 225.041 72.5657C224.284 70.1084 223.906 67.5347 223.906 64.8445L223.88 49.9751L223.722 17.3093C223.722 15.9011 223.574 14.5256 223.278 13.1829L223.278 13.1824Q222.73 10.6934 221.505 8.35327C220.816 7.03687 220.003 5.82568 219.065 4.71997L219.065 4.71997Q217.488 2.85938 215.442 1.396L214.494 0.717529C213.299 0.00219727 213.118 0.00219727 208.923 0.00219727L207.115 0.00219727L209.255 1.50024Z" clip-rule="evenodd" fill="url(#paint_linear_257_2727_0)" fill-opacity="1.000000" fill-rule="evenodd"/>
		<g style="mix-blend-mode:normal">
			<path id="合并" d="M181.655 268.578L184.34 268.578C186.369 268.578 187.964 266.983 187.964 264.954C187.964 262.924 186.369 261.33 184.34 261.33L181.655 261.33L181.655 237.632Q181.655 237.167 181.544 236.731Q181.432 236.295 181.208 235.888C180.91 235.344 180.499 234.907 179.977 234.574C179.132 234.037 178.222 233.877 177.245 234.094C176.268 234.312 175.511 234.843 174.974 235.687L157.595 263.009C157.409 263.299 157.269 263.61 157.173 263.941C157.076 264.271 157.028 264.609 157.028 264.954C157.028 265.954 157.382 266.809 158.09 267.516Q158.62 268.047 159.261 268.312Q159.901 268.578 160.652 268.578L174.407 268.578L174.407 273.912C174.407 275.942 176.002 277.536 178.031 277.536C180.061 277.536 181.655 275.942 181.655 273.912L181.655 268.578ZM205.653 237.248L191.872 273.526C191.151 275.423 192.076 277.48 193.973 278.2C195.87 278.921 197.927 277.997 198.647 276.1L201.949 267.409L215.617 267.409L218.736 276.044C219.426 277.952 221.467 278.91 223.376 278.221C225.284 277.532 226.242 275.49 225.554 273.582L212.45 237.304C212.271 236.807 211.995 236.37 211.625 235.993C211.255 235.617 210.822 235.334 210.328 235.147Q209.628 234.881 208.935 234.901L208.934 234.901Q208.24 234.921 207.556 235.229C206.644 235.639 206.009 236.312 205.653 237.248ZM213 260.161L208.956 248.965L204.703 260.161L213 260.161ZM144.495 273.91L144.495 248.046L133.096 275.308C132.71 276.231 132.054 276.883 131.128 277.263C130.202 277.643 129.277 277.639 128.354 277.253C127.907 277.066 127.513 276.8 127.172 276.455C126.832 276.11 126.571 275.712 126.39 275.262L115.387 247.902L115.249 273.929C115.238 275.958 113.635 277.545 111.605 277.534C109.576 277.523 107.99 275.92 108.001 273.891L108.184 239.342Q108.188 238.594 108.455 237.957Q108.722 237.319 109.252 236.792Q109.782 236.264 110.421 236.001L110.421 236.001Q111.061 235.737 111.808 235.737L115.858 235.737C116.598 235.737 117.274 235.944 117.887 236.358Q118.347 236.669 118.68 237.081L118.68 237.081L118.68 237.082Q119.014 237.494 119.221 238.009L129.817 264.36L140.855 237.963C141.137 237.289 141.582 236.749 142.19 236.344C142.799 235.939 143.468 235.737 144.198 235.737L148.119 235.737C149.12 235.737 149.974 236.091 150.682 236.798Q151.213 237.329 151.478 237.97L151.478 237.97Q151.743 238.611 151.743 239.361L151.743 273.91C151.743 275.939 150.148 277.534 148.119 277.534C146.09 277.534 144.495 275.939 144.495 273.91ZM174.407 261.33L174.407 250.081L167.252 261.33L174.407 261.33Z" clip-rule="evenodd" fill="#FFFFFF" fill-opacity="1.000000" fill-rule="evenodd"/>
		</g>
		<g style="mix-blend-mode:normal">
			<path id="Shape Copy备份 22" d="M205.57 133.88L205.57 195.15C205.57 203.11 199.76 209.4 192.01 210.35C184.26 211.3 178.35 206.25 178.35 199.94C178.35 192.13 184.01 188.71 188.85 186.71C193.7 184.71 197.2 180.9 197.2 177.16L197.2 148.72C197.2 146.6 195.27 145 193.18 145.39L158.1 152C156.5 152.3 155.34 153.7 155.34 155.32L155.34 200.98C155.34 208.9 147.72 217.21 140.8 218.6C133.88 219.99 126 215.13 126 207.06C126 199 133.04 194.5 136.84 193.02C139.03 192.17 146.97 189.57 146.97 185.72L146.97 141.21C146.97 137.34 149.76 134.02 153.58 133.36L196.26 126.03C201.13 125.19 205.57 128.94 205.57 133.88Z" fill="#FFFFFF" fill-opacity="1.000000" fill-rule="evenodd"/>
		</g>
	</g>
</svg>
