<svg width="336.000000" height="336.000000" viewBox="0 0 336 336" fill="none" xmlns="http://www.w3.org/2000/svg" xmlns:xlink="http://www.w3.org/1999/xlink">
	<desc>
			Created with Pixso.
	</desc>
	<defs>
		<clipPath id="clip257_2321">
			<rect id="ic_light other" width="336.000000" height="336.000000" fill="white" fill-opacity="0"/>
		</clipPath>
		<linearGradient x1="168.000320" y1="0.000000" x2="168.000320" y2="336.000000" id="paint_linear_257_2655_0" gradientUnits="userSpaceOnUse">
			<stop stop-color="#55BFF2"/>
			<stop offset="1.000000" stop-color="#3898F7"/>
		</linearGradient>
		<linearGradient x1="271.255737" y1="45.869034" x2="222.071548" y2="92.658379" id="paint_linear_257_2905_0" gradientUnits="userSpaceOnUse">
			<stop offset="0.100487" stop-color="#4799ED"/>
			<stop offset="1.000000" stop-color="#77CDFB"/>
		</linearGradient>
		<linearGradient x1="228.940750" y1="-4.294334" x2="257.823578" y2="97.462639" id="paint_linear_257_2906_0" gradientUnits="userSpaceOnUse">
			<stop stop-color="#36BCF8"/>
			<stop offset="0.265149" stop-color="#A5DAFF"/>
			<stop offset="0.715692" stop-color="#CDEBFF"/>
			<stop offset="0.924672" stop-color="#80C9FF"/>
			<stop offset="1.000000" stop-color="#64B8F5" stop-opacity="0.000000"/>
		</linearGradient>
	</defs>
	<g clip-path="url(#clip257_2321)">
		<path id="矩形备份 113" d="M42.24 0L211.71 0C217.52 0 223.1 2.29 227.23 6.38L310.79 89.13C314.98 93.27 317.33 98.91 317.33 104.8L317.33 312.41C317.33 325.44 306.77 336 293.75 336L42.24 336C29.22 336 18.66 325.44 18.66 312.41L18.66 23.58C18.66 10.55 29.22 0 42.24 0Z" fill="url(#paint_linear_257_2655_0)" fill-opacity="1.000000" fill-rule="evenodd"/>
		<g style="mix-blend-mode:normal">
			<path id="矩形 2" d="M220.41 64.1L220.41 35L220.22 17.5C220.17 11.89 217.88 6.54 213.88 2.62L211.2 0L215.01 0C219.88 0 224.53 1.96 227.92 5.45L232.2 9.85L244.72 22.29L269.78 47.15L294.83 72.02L310.2 87.27C314.75 91.78 317.3 97.91 317.3 104.31L317.3 105.36L314.71 102.77C310.71 98.77 305.28 96.52 299.62 96.52L281.94 96.52L252.83 96.52C234.93 96.52 220.41 82.01 220.41 64.1Z" fill="url(#paint_linear_257_2905_0)" fill-opacity="1.000000" fill-rule="evenodd"/>
		</g>
		<path id="减去顶层" d="M207.117 0L207.113 0L209.253 1.49805L213.297 4.39062C214.423 5.19604 215.418 6.11157 216.282 7.13745L216.282 7.13745C217.033 8.02856 217.686 9.00269 218.239 10.0598C218.892 11.3062 219.366 12.5923 219.663 13.918C219.911 15.0259 220.035 16.1614 220.035 17.325L220.193 49.9795L220.22 64.8423C220.22 67.8313 220.631 70.6973 221.453 73.4399C221.972 75.1704 222.654 76.8518 223.5 78.4841C223.706 78.8806 223.92 79.2725 224.143 79.6592C226.005 82.8955 228.464 85.7888 231.52 88.3389C233.124 89.6782 234.818 90.8645 236.601 91.8977C238.194 92.8215 239.86 93.623 241.597 94.302C245.076 95.6624 248.328 96.3425 251.352 96.3425C252.383 96.3425 253.193 95.5317 253.193 94.5002C253.193 93.4685 252.383 92.658 251.352 92.658C248.791 92.658 245.986 92.062 242.938 90.8704C241.388 90.2642 239.9 89.5496 238.477 88.7258C236.864 87.7935 235.332 86.7214 233.881 85.51C231.019 83.1213 228.751 80.4058 227.078 77.363C226.369 75.9951 225.484 74.0122 225.039 72.5635C224.282 70.1062 223.904 67.5325 223.904 64.8423L223.878 49.9729L223.72 17.3071C223.72 15.8989 223.572 14.5234 223.276 13.1807L223.276 13.1802C222.911 11.5208 222.32 9.91113 221.503 8.35107C220.814 7.03467 220.001 5.82349 219.063 4.71777L219.063 4.71777C218.012 3.47729 216.805 2.36938 215.44 1.3938L214.492 0.715332C213.421 0.0742188 213.164 0.0078125 210.104 0.000732422L207.117 0.000732422L207.117 0Z" clip-rule="evenodd" fill="url(#paint_linear_257_2906_0)" fill-opacity="1.000000" fill-rule="evenodd"/>
		<g opacity="0.600000">
			<rect id="矩形" x="123.789062" y="181.263428" rx="8.842105" width="57.111683" height="17.684210" fill="#FFFFFF" fill-opacity="1.000000"/>
		</g>
		<g style="mix-blend-mode:normal">
			<path id="路径 (边框)" d="M132.63 137.49L168.62 137.49C172.85 137.49 176.97 137.95 180.99 138.86C183.92 139.53 186.8 140.44 189.62 141.59C193.15 143.03 196.46 144.79 199.55 146.88C202.13 148.63 204.56 150.6 206.84 152.8C209.82 155.68 212.41 158.82 214.6 162.22C216.09 164.53 217.39 166.97 218.51 169.52C219.9 172.7 220.96 175.95 221.68 179.28C222.44 182.8 222.82 186.41 222.82 190.1C222.82 193.79 222.44 197.4 221.68 200.93C220.96 204.25 219.9 207.5 218.51 210.68C217.39 213.23 216.09 215.67 214.6 217.99C212.41 221.38 209.82 224.52 206.84 227.41C204.56 229.6 202.13 231.57 199.55 233.32C196.46 235.41 193.15 237.17 189.62 238.61C186.8 239.77 183.92 240.68 180.99 241.34C176.97 242.25 172.85 242.71 168.62 242.71L132.63 242.71C127.92 242.71 124.23 239.02 124.23 234.31C124.23 229.61 127.92 225.91 132.63 225.91L168.62 225.91C171.75 225.91 174.79 225.56 177.75 224.84C179.62 224.39 181.46 223.8 183.27 223.06C185.8 222.03 188.17 220.75 190.38 219.24C192.07 218.07 193.67 216.77 195.17 215.32C197.36 213.2 199.23 210.89 200.79 208.38C201.67 206.96 202.45 205.48 203.12 203.94C204.05 201.83 204.75 199.68 205.23 197.48C205.75 195.08 206.02 192.62 206.02 190.1C206.02 187.58 205.76 185.12 205.23 182.72C204.75 180.52 204.05 178.37 203.12 176.26C202.45 174.72 201.67 173.24 200.79 171.82C199.23 169.31 197.36 167 195.17 164.88C193.67 163.43 192.07 162.13 190.38 160.96C188.17 159.45 185.8 158.17 183.27 157.14C181.46 156.4 179.62 155.81 177.75 155.36C174.79 154.64 171.75 154.29 168.62 154.29L132.63 154.29C127.92 154.29 124.23 150.59 124.23 145.89C124.23 141.19 127.92 137.49 132.63 137.49Z" fill="#FFFFFF" fill-opacity="1.000000" fill-rule="evenodd"/>
		</g>
	</g>
</svg>
