<svg width="336.000000" height="336.000000" viewBox="0 0 336 336" fill="none" xmlns="http://www.w3.org/2000/svg" xmlns:xlink="http://www.w3.org/1999/xlink">
	<desc>
			Created with Pixso.
	</desc>
	<defs>
		<clipPath id="clip257_2310">
			<rect id="ic_light teb" width="336.000000" height="336.000000" fill="white" fill-opacity="0"/>
		</clipPath>
		<linearGradient x1="168.000320" y1="0.000000" x2="168.000320" y2="336.000000" id="paint_linear_257_2650_0" gradientUnits="userSpaceOnUse">
			<stop stop-color="#55BFF2"/>
			<stop offset="1.000000" stop-color="#3898F7"/>
		</linearGradient>
		<linearGradient x1="271.255737" y1="45.869034" x2="222.071548" y2="92.658379" id="paint_linear_257_2651_0" gradientUnits="userSpaceOnUse">
			<stop offset="0.100487" stop-color="#4799ED"/>
			<stop offset="1.000000" stop-color="#77CDFB"/>
		</linearGradient>
		<linearGradient x1="228.940750" y1="-4.294334" x2="257.823578" y2="97.462639" id="paint_linear_257_2652_0" gradientUnits="userSpaceOnUse">
			<stop stop-color="#36BCF8"/>
			<stop offset="0.265149" stop-color="#A5DAFF"/>
			<stop offset="0.715692" stop-color="#CDEBFF"/>
			<stop offset="0.924672" stop-color="#80C9FF"/>
			<stop offset="1.000000" stop-color="#64B8F5" stop-opacity="0.000000"/>
		</linearGradient>
	</defs>
	<g clip-path="url(#clip257_2310)">
		<path id="矩形备份 113" d="M42.24 0L211.71 0C217.52 0 223.1 2.29 227.23 6.38L310.79 89.13C314.98 93.27 317.33 98.91 317.33 104.8L317.33 312.41C317.33 325.44 306.77 336 293.75 336L42.24 336C29.22 336 18.66 325.44 18.66 312.41L18.66 23.58C18.66 10.55 29.22 0 42.24 0Z" fill="url(#paint_linear_257_2650_0)" fill-opacity="1.000000" fill-rule="evenodd"/>
		<g style="mix-blend-mode:normal">
			<path id="矩形 2" d="M220.41 64.1L220.41 35L220.22 17.5C220.17 11.89 217.88 6.54 213.88 2.62L211.2 0L215.01 0C219.88 0 224.53 1.96 227.92 5.45L232.2 9.85L244.72 22.29L269.78 47.15L294.83 72.02L310.2 87.27C314.75 91.78 317.3 97.91 317.3 104.31L317.3 105.36L314.71 102.77C310.71 98.77 305.28 96.52 299.62 96.52L281.94 96.52L252.83 96.52C234.93 96.52 220.41 82.01 220.41 64.1Z" fill="url(#paint_linear_257_2651_0)" fill-opacity="1.000000" fill-rule="evenodd"/>
		</g>
		<path id="减去顶层" d="M207.117 0L207.113 0L209.253 1.49805L213.297 4.39062Q214.985 5.59863 216.282 7.13745L216.282 7.13745C217.033 8.02856 217.686 9.00269 218.239 10.0598C218.892 11.3062 219.366 12.5923 219.663 13.918C219.911 15.0259 220.035 16.1614 220.035 17.325L220.193 49.9795L220.22 64.8423C220.22 67.8313 220.631 70.6973 221.453 73.4399C221.972 75.1704 222.654 76.8518 223.5 78.4841C223.706 78.8806 223.92 79.2725 224.143 79.6592C226.005 82.8955 228.464 85.7888 231.52 88.3389C233.124 89.6782 234.818 90.8645 236.601 91.8977C238.194 92.8215 239.86 93.623 241.597 94.302Q246.815 96.3425 251.352 96.3425C252.383 96.3425 253.193 95.5317 253.193 94.5002C253.193 93.4685 252.383 92.658 251.352 92.658C248.791 92.658 245.986 92.062 242.938 90.8704C241.388 90.2642 239.9 89.5496 238.477 88.7258C236.864 87.7935 235.332 86.7214 233.881 85.51C231.019 83.1213 228.751 80.4058 227.078 77.363C226.369 75.9951 225.484 74.0122 225.039 72.5635C224.282 70.1062 223.904 67.5325 223.904 64.8423L223.878 49.9729L223.72 17.3071C223.72 15.8989 223.572 14.5234 223.276 13.1807L223.276 13.1802Q222.729 10.6912 221.503 8.35107C220.814 7.03467 220.001 5.82349 219.063 4.71777L219.063 4.71777Q217.486 2.85718 215.44 1.3938L214.492 0.715332C213.421 0.0742188 213.164 0.0078125 210.104 0.000732422L207.117 0.000732422L207.117 0Z" clip-rule="evenodd" fill="url(#paint_linear_257_2652_0)" fill-opacity="1.000000" fill-rule="evenodd"/>
		<g style="mix-blend-mode:normal">
			<path id="合并" d="M200.791 162.529L214.253 162.529Q215.673 162.529 217.343 162.729Q221.044 163.174 223.314 164.511C224.755 165.255 226.063 166.147 227.242 167.188C227.398 167.326 227.552 167.467 227.704 167.61C228.479 168.342 229.18 169.128 229.808 169.97C230.235 170.544 230.629 171.144 230.988 171.769C231.383 172.455 231.729 173.16 232.028 173.885Q232.549 175.147 232.878 176.488Q233.176 177.702 233.304 178.935C233.369 179.56 233.402 180.189 233.402 180.822Q233.402 181.12 233.393 181.419C233.359 182.455 233.239 183.474 233.033 184.475C232.908 185.083 232.751 185.684 232.562 186.279C232.225 187.345 231.794 188.36 231.27 189.325C230.998 189.825 230.702 190.311 230.381 190.784C230.19 191.065 229.993 191.339 229.787 191.605C229.987 191.791 230.183 191.981 230.373 192.175C231.793 193.617 232.974 195.295 233.914 197.208C234.271 197.902 234.575 198.755 234.826 199.765C235.108 200.903 235.282 202.081 235.345 203.299C235.358 203.561 235.365 203.832 235.365 204.108C235.365 205.344 235.235 206.689 235.037 207.815C234.809 208.99 234.47 210.119 234.019 211.202C233.776 211.782 233.503 212.349 233.197 212.903C232.031 215.013 230.58 216.772 228.845 218.181Q227.641 219.158 226.253 219.911C225.688 220.218 225.107 220.491 224.515 220.732C222.611 221.505 220.57 221.936 218.39 222.026Q214.786 222.174 201.256 222.035C200.964 222.081 200.663 222.104 200.355 222.103C197.298 222.093 194.903 219.688 194.903 216.634L194.903 216.613L195.07 167.982C195.081 164.918 197.496 162.519 200.561 162.53C200.638 162.53 200.715 162.532 200.791 162.535L200.791 162.529ZM218.024 197.59Q210.859 197.702 205.91 197.607L205.864 211.13C206.622 211.135 207.395 211.139 208.18 211.143C213.298 211.167 216.552 211.15 217.939 211.093C219.255 211.039 220.395 210.706 221.357 210.096C222.27 209.517 223.023 208.689 223.619 207.611C223.702 207.462 223.777 207.311 223.848 207.156C224.235 206.296 224.43 205.349 224.43 204.313C224.43 204.166 224.426 204.018 224.418 203.867C224.391 203.349 224.225 202.526 224.111 202.068C223.518 200.851 222.739 199.878 221.776 199.149C221.269 198.765 220.709 198.448 220.099 198.199C219.535 197.969 218.602 197.757 218.024 197.667L218.024 197.59ZM205.948 186.663Q211.147 186.769 219.051 186.629C219.574 186.365 220.043 186.041 220.456 185.657C220.781 185.354 221.073 185.014 221.329 184.637C221.546 184.318 221.731 183.986 221.886 183.639C222.235 182.853 222.426 181.995 222.456 181.065C222.459 180.981 222.46 180.896 222.46 180.812C222.46 180.167 222.379 179.543 222.218 178.941L222.218 178.94Q221.978 178.05 221.502 177.223C221.338 176.937 221.155 176.664 220.956 176.405C220.253 175.495 219.081 174.628 217.941 174.055L217.41 173.838C217.033 173.74 216.577 173.658 216.039 173.594C215.358 173.512 214.764 173.471 214.253 173.471L205.994 173.471L205.948 186.663ZM183.283 221.839L157.895 221.839C156.384 221.839 155.094 221.305 154.025 220.237C152.957 219.168 152.423 217.879 152.423 216.368L152.423 169.305Q152.423 168.172 152.823 167.205Q153.225 166.238 154.025 165.437Q154.827 164.635 155.794 164.235Q156.761 163.834 157.895 163.834L183.283 163.834C186.347 163.834 188.754 166.241 188.754 169.305C188.754 172.369 186.347 174.776 183.283 174.776L163.365 174.776L163.365 186.272L179.78 186.272C182.844 186.272 185.251 188.679 185.251 191.743C185.251 194.806 182.844 197.214 179.78 197.214L163.365 197.214L163.365 210.897L183.283 210.897C186.347 210.897 188.754 213.304 188.754 216.368C188.754 219.432 186.347 221.839 183.283 221.839ZM141.163 174.922L131.318 174.922L131.318 216.045C131.318 219.109 128.911 221.516 125.848 221.516C122.783 221.516 120.376 219.109 120.376 216.045L120.376 174.922L110.531 174.922C107.468 174.922 105.061 172.514 105.061 169.45C105.061 166.387 107.468 163.979 110.531 163.979L141.163 163.979C144.227 163.979 146.634 166.387 146.634 169.45C146.634 172.514 144.227 174.922 141.163 174.922Z" clip-rule="evenodd" fill="#FFFFFF" fill-opacity="1.000000" fill-rule="evenodd"/>
		</g>
	</g>
</svg>
