<svg width="336.000000" height="336.000000" viewBox="0 0 336 336" fill="none" xmlns="http://www.w3.org/2000/svg" xmlns:xlink="http://www.w3.org/1999/xlink">
	<desc>
			Created with Pixso.
	</desc>
	<defs>
		<clipPath id="clip257_2276">
			<rect id="ic_light chm" width="336.000000" height="336.000000" fill="white" fill-opacity="0"/>
		</clipPath>
		<linearGradient x1="168.000320" y1="0.000000" x2="168.000320" y2="336.000000" id="paint_linear_257_2635_0" gradientUnits="userSpaceOnUse">
			<stop stop-color="#55BFF2"/>
			<stop offset="1.000000" stop-color="#3898F7"/>
		</linearGradient>
		<linearGradient x1="271.255737" y1="45.868912" x2="222.071548" y2="92.658257" id="paint_linear_257_2913_0" gradientUnits="userSpaceOnUse">
			<stop offset="0.100487" stop-color="#4799ED"/>
			<stop offset="1.000000" stop-color="#77CDFB"/>
		</linearGradient>
		<linearGradient x1="228.940750" y1="-4.294456" x2="257.823578" y2="97.462517" id="paint_linear_257_2914_0" gradientUnits="userSpaceOnUse">
			<stop stop-color="#36BCF8"/>
			<stop offset="0.265149" stop-color="#A5DAFF"/>
			<stop offset="0.715692" stop-color="#CDEBFF"/>
			<stop offset="0.924672" stop-color="#80C9FF"/>
			<stop offset="1.000000" stop-color="#64B8F5" stop-opacity="0.000000"/>
		</linearGradient>
	</defs>
	<g clip-path="url(#clip257_2276)">
		<path id="矩形备份 113" d="M42.24 0L211.71 0C217.52 0 223.1 2.29 227.23 6.38L310.79 89.13C314.98 93.27 317.33 98.91 317.33 104.8L317.33 312.41C317.33 325.44 306.77 336 293.75 336L42.24 336C29.22 336 18.66 325.44 18.66 312.41L18.66 23.58C18.66 10.55 29.22 0 42.24 0Z" fill="url(#paint_linear_257_2635_0)" fill-opacity="1.000000" fill-rule="evenodd"/>
		<g style="mix-blend-mode:normal">
			<path id="矩形 2" d="M220.41 64.1L220.41 35L220.22 17.5C220.17 11.89 217.88 6.54 213.88 2.62L211.2 0L215.01 0C219.88 0 224.53 1.96 227.92 5.45L232.2 9.85L244.72 22.28L269.78 47.15L294.83 72.02L310.2 87.27C314.75 91.78 317.3 97.91 317.3 104.31L317.3 105.36L314.71 102.77C310.71 98.77 305.28 96.52 299.62 96.52L281.94 96.52L252.83 96.52C234.93 96.52 220.41 82 220.41 64.1Z" fill="url(#paint_linear_257_2913_0)" fill-opacity="1.000000" fill-rule="evenodd"/>
		</g>
		<path id="减去顶层" d="M207.117 -0.00012207L207.113 -0.00012207L209.253 1.49805L213.297 4.3905C214.423 5.19592 215.418 6.11145 216.282 7.13721L216.282 7.13733C217.033 8.02832 217.686 9.00244 218.239 10.0597C218.892 11.3059 219.366 12.592 219.663 13.9178C219.911 15.0258 220.035 16.1614 220.035 17.3247L220.193 49.9794L220.22 64.8422C220.22 67.8313 220.631 70.6971 221.453 73.4397C221.972 75.1702 222.654 76.8516 223.5 78.4839C223.706 78.8805 223.92 79.2722 224.143 79.6591C226.005 82.8955 228.464 85.7887 231.52 88.3387C233.124 89.6782 234.818 90.8645 236.601 91.8975C238.194 92.8215 239.86 93.6229 241.597 94.3018C245.076 95.6621 248.328 96.3423 251.352 96.3423C252.383 96.3423 253.193 95.5317 253.193 94.5C253.193 93.4684 252.383 92.6577 251.352 92.6577C248.791 92.6577 245.986 92.0619 242.938 90.8701C241.388 90.2642 239.9 89.5493 238.477 88.7257C236.864 87.7932 235.332 86.7213 233.881 85.51C231.019 83.1212 228.751 80.4055 227.078 77.3629C226.369 75.995 225.484 74.0122 225.039 72.5634C224.282 70.1061 223.904 67.5323 223.904 64.8422L223.878 49.9728L223.72 17.3069C223.72 15.8989 223.572 14.5234 223.276 13.1805L223.276 13.1802C222.911 11.5208 222.32 9.91089 221.503 8.35083C220.814 7.03455 220.001 5.82336 219.063 4.71753L219.063 4.71753C218.012 3.47717 216.805 2.36926 215.44 1.39368L214.492 0.715332C213.421 0.0742188 213.164 0.00756836 210.104 0.000732422L207.117 0.000732422L207.117 -0.00012207Z" clip-rule="evenodd" fill="url(#paint_linear_257_2914_0)" fill-opacity="1.000000" fill-rule="evenodd"/>
		<g style="mix-blend-mode:normal">
			<path id="合并" d="M133.321 204.119C132.533 205.62 131.632 207.02 130.616 208.318C129.331 209.958 127.888 211.39 126.284 212.613C125.239 213.41 124.126 214.119 122.945 214.738C120.473 216.036 117.947 216.816 115.369 217.078C114.716 217.145 114.059 217.178 113.398 217.178C111.864 217.178 110.365 217.019 108.9 216.701C107.274 216.348 105.69 215.799 104.149 215.054C103.449 214.716 102.77 214.342 102.111 213.934C100.089 212.681 98.2695 211.103 96.6514 209.198C96.5186 209.042 96.3877 208.884 96.2588 208.724L96.2578 208.724L96.2578 208.724Q93.3438 205.121 91.7363 200.46Q89.9854 195.382 89.9854 189.588Q89.9854 183.797 91.6943 178.745C92.7891 175.508 94.5176 172.459 96.5498 169.995Q98.8965 167.209 101.831 165.354L101.831 165.354L101.831 165.354Q102.906 164.673 104.061 164.118Q106.078 163.148 108.205 162.622C109.885 162.206 111.615 161.999 113.398 161.999Q116.554 161.999 119.134 162.621C120.874 163.041 122.496 163.696 123.969 164.568Q125.917 165.724 127.713 167.516C128.582 168.384 129.55 169.498 130.616 170.859C131.634 172.159 132.536 173.561 133.325 175.065C134.643 177.578 133.702 180.588 131.188 181.906C128.676 183.223 125.665 182.283 124.348 179.77Q123.594 178.331 122.636 177.107Q121.42 175.554 120.555 174.691C119.955 174.093 119.369 173.624 118.796 173.283C118.194 172.926 117.515 172.656 116.757 172.473C115.817 172.247 114.698 172.134 113.398 172.134C112.386 172.134 111.406 172.259 110.46 172.509C109.773 172.691 108.687 173.15 108.035 173.463Q105.945 174.573 104.302 176.524Q102.367 178.821 101.295 181.992Q100.12 185.465 100.12 189.588Q100.12 193.684 101.318 197.156C102.046 199.267 103.064 201.094 104.375 202.636C105.527 203.992 107.098 205.177 108.561 205.93C109.405 206.338 110.273 206.634 111.164 206.818C111.893 206.968 112.638 207.043 113.398 207.043C114.998 207.043 116.61 206.617 118.235 205.764C118.777 205.48 119.294 205.162 119.787 204.81C120.849 204.053 121.798 203.14 122.636 202.07C123.273 201.255 123.844 200.369 124.346 199.411C125.664 196.898 128.674 195.959 131.188 197.277C133.7 198.595 134.64 201.606 133.321 204.119ZM236.728 211.617L236.728 179.715L223.356 213.365C222.874 214.581 222.032 215.447 220.831 215.965C219.631 216.482 218.423 216.5 217.208 216.017C216.592 215.772 216.052 215.414 215.586 214.943C215.121 214.471 214.77 213.926 214.533 213.307L201.64 179.569L201.479 211.641C201.465 214.292 199.371 216.365 196.72 216.352C194.068 216.338 191.995 214.245 192.009 211.593L192.232 167.043C192.239 165.74 192.704 164.629 193.628 163.71Q194.32 163.021 195.155 162.676Q195.99 162.332 196.968 162.332L201.931 162.332C202.912 162.332 203.807 162.61 204.615 163.167C205.424 163.723 206.003 164.459 206.354 165.376L219.042 198.578L232.258 165.318C232.616 164.417 233.196 163.694 233.999 163.149Q234.602 162.74 235.267 162.536Q235.931 162.332 236.658 162.332L241.463 162.332C242.77 162.332 243.886 162.794 244.811 163.719Q245.504 164.412 245.851 165.249Q246.197 166.086 246.197 167.067L246.197 211.617C246.197 214.269 244.114 216.352 241.463 216.352C238.811 216.352 236.728 214.269 236.728 211.617ZM143.391 211.618L143.391 167.067C143.391 164.416 145.474 162.333 148.125 162.333C150.777 162.333 152.86 164.416 152.86 167.067L152.86 183.782L175.547 183.782L175.547 167.067C175.547 164.416 177.63 162.333 180.281 162.333C182.934 162.333 185.017 164.416 185.017 167.067L185.017 211.618C185.017 214.269 182.934 216.353 180.281 216.353C177.63 216.353 175.547 214.269 175.547 211.618L175.547 193.252L152.86 193.252L152.86 211.618C152.86 214.269 150.777 216.353 148.125 216.353C145.474 216.353 143.391 214.269 143.391 211.618Z" clip-rule="evenodd" fill="#FFFFFF" fill-opacity="1.000000" fill-rule="evenodd"/>
		</g>
	</g>
</svg>
