<svg width="336.000000" height="336.000000" viewBox="0 0 336 336" fill="none" xmlns="http://www.w3.org/2000/svg" xmlns:xlink="http://www.w3.org/1999/xlink">
	<desc>
			Created with Pixso.
	</desc>
	<defs>
		<clipPath id="clip257_2374">
			<rect id="ic_light 7z" width="336.000000" height="336.000000" fill="white" fill-opacity="0"/>
		</clipPath>
		<linearGradient x1="168.000320" y1="0.000000" x2="168.000320" y2="336.000000" id="paint_linear_257_2361_0" gradientUnits="userSpaceOnUse">
			<stop stop-color="#9FB1BD"/>
			<stop offset="1.000000" stop-color="#BFCAD3"/>
		</linearGradient>
	</defs>
	<g clip-path="url(#clip257_2374)">
		<rect id="矩形 540" x="18.666992" rx="23.566467" width="298.666656" height="336.000000" fill="url(#paint_linear_257_2361_0)" fill-opacity="1.000000"/>
		<path id="合并" d="M189 -0.000366211L147 -0.000366211L147 4.19885C147 8.8385 150.761 12.5996 155.4 12.5996L180.6 12.5996C185.239 12.5996 189 8.8385 189 4.19885L189 -0.000366211ZM153.3 20.9996L182.7 20.9996C186.18 20.9996 189 23.8202 189 27.2996C189 30.7789 186.18 33.5996 182.7 33.5996L153.3 33.5996C149.82 33.5996 147 30.7789 147 27.2996C147 23.8202 149.82 20.9996 153.3 20.9996ZM182.7 41.9996L153.3 41.9996C149.82 41.9996 147 44.8202 147 48.2996C147 51.7789 149.82 54.5996 153.3 54.5996L182.7 54.5996C186.18 54.5996 189 51.7789 189 48.2996C189 44.8202 186.18 41.9996 182.7 41.9996ZM153.3 62.9995L182.7 62.9995C186.18 62.9995 189 65.8201 189 69.2994C189 72.7788 186.18 75.5995 182.7 75.5995L153.3 75.5995C149.82 75.5995 147 72.7788 147 69.2994C147 65.8201 149.82 62.9995 153.3 62.9995ZM184.8 84.0001L151.2 84.0001C148.881 84.0001 147 85.8807 147 88.2006L147 130.2C147 132.52 148.881 134.4 151.2 134.4L184.8 134.4C187.119 134.4 189 132.52 189 130.2L189 88.2006C189 85.8807 187.119 84.0001 184.8 84.0001ZM157.5 109.198L178.5 109.198C179.66 109.198 180.6 110.139 180.6 111.298L180.6 123.898C180.6 125.058 179.66 125.998 178.5 125.998L157.5 125.998C156.34 125.998 155.4 125.058 155.4 123.898L155.4 111.298C155.4 110.139 156.34 109.198 157.5 109.198Z" clip-rule="evenodd" fill="#FFFFFF" fill-opacity="1.000000" fill-rule="evenodd"/>
		<g style="mix-blend-mode:normal">
			<path id="合并" d="M176.924 173.998L206.42 173.998C207.872 173.998 209.112 174.512 210.14 175.539C211.167 176.566 211.681 177.806 211.681 179.259C211.681 179.779 211.605 180.287 211.454 180.785C211.304 181.282 211.084 181.747 210.796 182.179L186.758 218.209L206.42 218.209C209.365 218.209 211.681 220.523 211.681 223.47C211.681 226.416 209.365 228.731 206.42 228.731L176.924 228.731C176.404 228.731 175.896 228.655 175.398 228.505C174.901 228.354 174.437 228.135 174.004 227.846C172.796 227.04 172.049 225.924 171.765 224.5C171.48 223.075 171.741 221.758 172.548 220.55L196.585 184.52L176.924 184.52C173.978 184.52 171.663 182.205 171.663 179.259C171.663 176.313 173.978 173.998 176.924 173.998ZM131.265 174L159.386 174C160.838 174 162.078 174.514 163.105 175.541C164.133 176.569 164.646 177.809 164.646 179.261Q164.646 179.738 164.562 180.199Q164.479 180.66 164.312 181.106C164.09 181.7 163.771 182.237 163.354 182.716C162.704 183.462 161.864 184.537 160.833 185.942Q157.674 190.247 155.039 194.965C152.599 199.335 150.688 203.648 149.303 207.903C147.612 213.102 146.768 218.054 146.768 222.761C146.768 225.707 144.452 228.022 141.507 228.022C138.561 228.022 136.245 225.707 136.245 222.761Q136.245 214.033 139.297 204.65Q141.69 197.288 145.853 189.835C146.863 188.024 147.927 186.253 149.043 184.523L131.265 184.523C128.318 184.523 126.004 182.208 126.004 179.261C126.004 176.315 128.318 174 131.265 174Z" clip-rule="evenodd" fill="#FFFFFF" fill-opacity="1.000000" fill-rule="evenodd"/>
		</g>
	</g>
</svg>
