<svg width="336.000000" height="336.000000" viewBox="0 0 336 336" fill="none" xmlns="http://www.w3.org/2000/svg" xmlns:xlink="http://www.w3.org/1999/xlink">
	<desc>
			Created with Pixso.
	</desc>
	<defs>
		<clipPath id="clip257_2261">
			<rect id="ic_light html" width="336.000000" height="336.000000" fill="white" fill-opacity="0"/>
		</clipPath>
		<linearGradient x1="168.000320" y1="0.000000" x2="168.000320" y2="336.000000" id="paint_linear_257_2630_0" gradientUnits="userSpaceOnUse">
			<stop stop-color="#55BFF2"/>
			<stop offset="1.000000" stop-color="#3898F7"/>
		</linearGradient>
		<linearGradient x1="271.255737" y1="45.868912" x2="222.071548" y2="92.658257" id="paint_linear_257_2917_0" gradientUnits="userSpaceOnUse">
			<stop offset="0.100487" stop-color="#4799ED"/>
			<stop offset="1.000000" stop-color="#77CDFB"/>
		</linearGradient>
		<linearGradient x1="228.940750" y1="-4.294456" x2="257.823578" y2="97.462517" id="paint_linear_257_2918_0" gradientUnits="userSpaceOnUse">
			<stop stop-color="#36BCF8"/>
			<stop offset="0.265149" stop-color="#A5DAFF"/>
			<stop offset="0.715692" stop-color="#CDEBFF"/>
			<stop offset="0.924672" stop-color="#80C9FF"/>
			<stop offset="1.000000" stop-color="#64B8F5" stop-opacity="0.000000"/>
		</linearGradient>
	</defs>
	<g clip-path="url(#clip257_2261)">
		<path id="矩形备份 113" d="M42.24 0L211.71 0C217.52 0 223.1 2.29 227.23 6.38L310.79 89.13C314.98 93.27 317.33 98.91 317.33 104.8L317.33 312.41C317.33 325.44 306.77 336 293.75 336L42.24 336C29.22 336 18.66 325.44 18.66 312.41L18.66 23.58C18.66 10.55 29.22 0 42.24 0Z" fill="url(#paint_linear_257_2630_0)" fill-opacity="1.000000" fill-rule="evenodd"/>
		<g style="mix-blend-mode:normal">
			<path id="矩形 2" d="M220.41 64.1L220.41 35L220.22 17.5C220.17 11.89 217.88 6.54 213.88 2.62L211.2 0L215.01 0C219.88 0 224.53 1.96 227.92 5.45L232.2 9.85L244.72 22.28L269.78 47.15L294.83 72.02L310.2 87.27C314.75 91.78 317.3 97.91 317.3 104.31L317.3 105.36L314.71 102.77C310.71 98.77 305.28 96.52 299.62 96.52L281.94 96.52L252.83 96.52C234.93 96.52 220.41 82 220.41 64.1Z" fill="url(#paint_linear_257_2917_0)" fill-opacity="1.000000" fill-rule="evenodd"/>
		</g>
		<path id="减去顶层" d="M207.117 -0.00012207L207.113 -0.00012207L209.253 1.49805L213.297 4.3905C214.423 5.19592 215.418 6.11145 216.282 7.13721L216.282 7.13733C217.033 8.02832 217.686 9.00244 218.239 10.0597C218.892 11.3059 219.366 12.592 219.663 13.9178C219.911 15.0258 220.035 16.1614 220.035 17.3247L220.193 49.9794L220.22 64.8422C220.22 67.8313 220.631 70.6971 221.453 73.4397C221.972 75.1702 222.654 76.8516 223.5 78.4839C223.706 78.8805 223.92 79.2722 224.143 79.6591C226.005 82.8955 228.464 85.7887 231.52 88.3387C233.124 89.6782 234.818 90.8645 236.601 91.8975C238.194 92.8215 239.86 93.6229 241.597 94.3018C245.076 95.6621 248.328 96.3423 251.352 96.3423C252.383 96.3423 253.193 95.5317 253.193 94.5C253.193 93.4684 252.383 92.6577 251.352 92.6577C248.791 92.6577 245.986 92.0619 242.938 90.8701C241.388 90.2642 239.9 89.5493 238.477 88.7257C236.864 87.7932 235.332 86.7213 233.881 85.51C231.019 83.1212 228.751 80.4055 227.078 77.3629C226.369 75.995 225.484 74.0122 225.039 72.5634C224.282 70.1061 223.904 67.5323 223.904 64.8422L223.878 49.9728L223.72 17.3069C223.72 15.8989 223.572 14.5234 223.276 13.1805L223.276 13.1802C222.911 11.5208 222.32 9.91089 221.503 8.35083C220.814 7.03455 220.001 5.82336 219.063 4.71753L219.063 4.71753C218.012 3.47717 216.805 2.36926 215.44 1.39368L214.492 0.715332C213.421 0.0742188 213.164 0.00756836 210.104 0.000732422L207.117 0.000732422L207.117 -0.00012207Z" clip-rule="evenodd" fill="url(#paint_linear_257_2918_0)" fill-opacity="1.000000" fill-rule="evenodd"/>
		<g style="mix-blend-mode:normal">
			<path id="合并" d="M71.9961 213.082L71.9961 166.735C71.9961 164.083 74.0791 162 76.7314 162C79.3828 162 81.4658 164.083 81.4658 166.735L81.4658 184.319L103.44 184.319L103.44 166.735C103.44 164.083 105.523 162 108.176 162C110.827 162 112.91 164.083 112.91 166.735L112.91 213.082C112.91 215.733 110.827 217.817 108.176 217.817C105.523 217.817 103.44 215.733 103.44 213.082L103.44 193.789L81.4658 193.789L81.4658 213.082C81.4658 215.733 79.3828 217.817 76.7314 217.817C74.0791 217.817 71.9961 215.733 71.9961 213.082ZM155.636 172.396L145.095 172.396L145.095 213.682C145.095 216.334 143.012 218.417 140.36 218.417C137.708 218.417 135.625 216.334 135.625 213.682L135.625 172.396L125.116 172.396C122.464 172.396 120.381 170.313 120.381 167.661C120.381 165.01 122.464 162.926 125.116 162.926L155.636 162.926C158.287 162.926 160.37 165.01 160.37 167.661C160.37 170.313 158.287 172.396 155.636 172.396ZM241.669 167.663L241.669 209.933L261.276 209.933C263.928 209.933 266.012 212.016 266.012 214.668C266.012 217.319 263.928 219.403 261.276 219.403L236.934 219.403C235.626 219.403 234.51 218.94 233.586 218.016C232.661 217.091 232.198 215.975 232.198 214.668L232.198 167.663C232.198 165.011 234.282 162.928 236.934 162.928C239.585 162.928 241.669 165.011 241.669 167.663ZM211.352 215.094L211.352 182.387L198.521 216.75C198.064 217.975 197.24 218.859 196.051 219.401C194.861 219.944 193.654 219.987 192.43 219.53C191.777 219.286 191.206 218.916 190.717 218.421C190.228 217.925 189.864 217.35 189.629 216.694L177.262 182.254L177.106 215.116C177.094 217.768 175 219.841 172.349 219.829C169.705 219.816 167.637 217.735 167.637 215.095L167.637 215.071L167.855 168.724C167.861 167.421 168.326 166.31 169.25 165.391C170.174 164.471 171.287 164.012 172.59 164.012L177.442 164.012C178.441 164.012 179.349 164.299 180.166 164.874C180.983 165.449 181.561 166.206 181.898 167.146L194.172 201.325L206.955 167.09Q207.214 166.396 207.647 165.838L207.648 165.838L207.648 165.838Q208.082 165.279 208.69 164.857C209.503 164.293 210.402 164.012 211.391 164.012L216.087 164.012C217.395 164.012 218.511 164.474 219.435 165.399Q220.129 166.092 220.476 166.929Q220.822 167.766 220.822 168.747L220.822 215.094C220.822 217.745 218.738 219.829 216.087 219.829C213.436 219.829 211.352 217.745 211.352 215.094Z" clip-rule="evenodd" fill="#FFFFFF" fill-opacity="1.000000" fill-rule="evenodd"/>
		</g>
	</g>
</svg>
