<svg width="336.000000" height="336.000000" viewBox="0 0 336 336" fill="none" xmlns="http://www.w3.org/2000/svg" xmlns:xlink="http://www.w3.org/1999/xlink">
	<desc>
			Created with Pixso.
	</desc>
	<defs>
		<clipPath id="clip257_2042">
			<rect id="ic_light music" width="336.000000" height="336.000000" fill="white" fill-opacity="0"/>
		</clipPath>
		<linearGradient x1="168.000320" y1="0.000000" x2="168.000320" y2="336.000000" id="paint_linear_257_2036_0" gradientUnits="userSpaceOnUse">
			<stop stop-color="#FF6D81"/>
			<stop offset="1.000000" stop-color="#F03F64"/>
		</linearGradient>
		<linearGradient x1="271.255737" y1="45.868546" x2="222.071548" y2="92.657890" id="paint_linear_257_2037_0" gradientUnits="userSpaceOnUse">
			<stop offset="0.100487" stop-color="#EF4161"/>
			<stop offset="1.000000" stop-color="#FA7286"/>
		</linearGradient>
		<linearGradient x1="228.942688" y1="-4.292379" x2="260.030334" y2="99.145027" id="paint_linear_257_2040_0" gradientUnits="userSpaceOnUse">
			<stop stop-color="#F85A72"/>
			<stop offset="0.254966" stop-color="#FF9EA5"/>
			<stop offset="0.670781" stop-color="#FFB1BE"/>
			<stop offset="0.942386" stop-color="#F7637B"/>
			<stop offset="1.000000" stop-color="#F45973" stop-opacity="0.000000"/>
		</linearGradient>
	</defs>
	<g clip-path="url(#clip257_2042)">
		<path id="矩形备份 113" d="M42.24 0L211.71 0C217.52 0 223.1 2.29 227.23 6.38L310.79 89.13C314.98 93.27 317.33 98.91 317.33 104.8L317.33 312.41C317.33 325.44 306.77 336 293.75 336L42.24 336C29.22 336 18.66 325.44 18.66 312.41L18.66 23.58C18.66 10.55 29.22 0 42.24 0Z" fill="url(#paint_linear_257_2036_0)" fill-opacity="1.000000" fill-rule="evenodd"/>
		<g style="mix-blend-mode:normal">
			<path id="矩形 2" d="M220.41 64.1L220.41 35L220.22 17.5C220.17 11.89 217.88 6.54 213.88 2.62L211.2 0L215.01 0C219.88 0 224.53 1.96 227.92 5.45L232.2 9.85L244.72 22.28L269.78 47.15L294.83 72.02L310.2 87.27C314.75 91.78 317.3 97.91 317.3 104.31L317.3 105.36L314.71 102.77C310.71 98.77 305.28 96.52 299.62 96.52L281.94 96.52L252.83 96.52C234.93 96.52 220.41 82 220.41 64.1Z" fill="url(#paint_linear_257_2037_0)" fill-opacity="1.000000" fill-rule="evenodd"/>
		</g>
		<path id="减去顶层" d="M209.255 1.50011L213.299 4.39256Q214.987 5.60065 216.284 7.1393L216.284 7.13942C217.035 8.03043 217.688 9.00455 218.241 10.0618C218.894 11.308 219.368 12.5942 219.665 13.92C219.913 15.0278 220.037 16.1634 220.037 17.3268L220.195 49.9814L220.222 64.8442C220.222 67.8333 220.633 70.6992 221.455 73.4418C221.974 75.1723 222.656 76.8537 223.502 78.486C223.708 78.8826 223.922 79.2743 224.145 79.6611C226.007 82.8976 228.466 85.7908 231.521 88.3408C233.126 89.6803 234.82 90.8665 236.603 91.8996C238.196 92.8236 239.862 93.625 241.599 94.3038Q246.817 96.3444 251.354 96.3444C252.385 96.3444 253.195 95.5338 253.195 94.5021C253.195 93.4704 252.385 92.6598 251.354 92.6598C248.793 92.6598 245.988 92.064 242.94 90.8722C241.39 90.2662 239.902 89.5514 238.479 88.7278C236.866 87.7953 235.334 86.7234 233.883 85.5121C231.021 83.1233 228.753 80.4076 227.08 77.365C226.371 75.9971 225.486 74.0142 225.041 72.5654C224.284 70.1081 223.906 67.5344 223.906 64.8442L223.88 49.9749L223.722 17.309C223.722 15.901 223.574 14.5255 223.278 13.1826L223.278 13.1822Q222.73 10.693 221.505 8.35291C220.816 7.03664 220.003 5.82545 219.065 4.71964L219.065 4.71962Q217.488 2.8591 215.442 1.39577L214.494 0.717392C213.299 0.00195312 213.118 0.00195312 208.923 0.00195312L207.115 0.00195312L209.255 1.50011Z" clip-rule="evenodd" fill="url(#paint_linear_257_2040_0)" fill-opacity="1.000000" fill-rule="evenodd"/>
		<g style="mix-blend-mode:normal">
			<path id="Shape Copy备份 28" d="M218.61 148.94L218.61 233.49C218.61 244.48 210.52 253.18 199.75 254.49C188.98 255.8 180.77 248.82 180.77 240.12C180.77 229.32 188.64 224.6 195.37 221.84C202.1 219.08 206.97 213.81 206.97 208.66L206.97 169.41C206.97 166.46 204.29 164.24 201.39 164.78L152.62 173.9C150.39 174.32 148.78 176.26 148.78 178.52L148.78 241.55C148.78 252.49 138.19 263.96 128.57 265.88C118.95 267.8 108 261.08 108 249.95C108 238.81 117.78 232.59 123.07 230.55C126.11 229.38 137.15 225.79 137.15 220.47L137.15 159.08C137.15 153.68 141.03 149.08 146.35 148.17L205.68 138.04C212.44 136.89 218.61 142.09 218.61 148.94Z" fill="#FFFFFF" fill-opacity="1.000000" fill-rule="evenodd"/>
		</g>
	</g>
</svg>
