<svg width="336.000000" height="336.000000" viewBox="0 0 336 336" fill="none" xmlns="http://www.w3.org/2000/svg" xmlns:xlink="http://www.w3.org/1999/xlink">
	<desc>
			Created with Pixso.
	</desc>
	<defs>
		<clipPath id="clip257_2525">
			<rect id="ic_light dxf" width="336.000000" height="336.000000" fill="white" fill-opacity="0"/>
		</clipPath>
		<linearGradient x1="168.000320" y1="0.000000" x2="168.000320" y2="336.000000" id="paint_linear_257_2679_0" gradientUnits="userSpaceOnUse">
			<stop stop-color="#55BFF2"/>
			<stop offset="1.000000" stop-color="#3898F7"/>
		</linearGradient>
		<linearGradient x1="271.255737" y1="45.869156" x2="222.071548" y2="92.658501" id="paint_linear_257_2680_0" gradientUnits="userSpaceOnUse">
			<stop offset="0.100487" stop-color="#4799ED"/>
			<stop offset="1.000000" stop-color="#77CDFB"/>
		</linearGradient>
		<linearGradient x1="228.940750" y1="-4.293846" x2="257.823578" y2="97.463127" id="paint_linear_257_2894_0" gradientUnits="userSpaceOnUse">
			<stop stop-color="#36BCF8"/>
			<stop offset="0.265149" stop-color="#A5DAFF"/>
			<stop offset="0.715692" stop-color="#CDEBFF"/>
			<stop offset="0.924672" stop-color="#80C9FF"/>
			<stop offset="1.000000" stop-color="#64B8F5" stop-opacity="0.000000"/>
		</linearGradient>
	</defs>
	<g clip-path="url(#clip257_2525)">
		<path id="矩形备份 113" d="M42.24 0L211.71 0C217.52 0 223.1 2.29 227.23 6.38L310.79 89.13C314.98 93.27 317.33 98.91 317.33 104.8L317.33 312.41C317.33 325.44 306.77 336 293.75 336L42.24 336C29.22 336 18.66 325.44 18.66 312.41L18.66 23.58C18.66 10.55 29.22 0 42.24 0Z" fill="url(#paint_linear_257_2679_0)" fill-opacity="1.000000" fill-rule="evenodd"/>
		<g style="mix-blend-mode:normal">
			<path id="矩形 2" d="M220.41 64.1L220.41 35L220.22 17.5C220.17 11.89 217.88 6.54 213.88 2.62L211.2 0L215.01 0C219.88 0 224.53 1.96 227.92 5.45L232.2 9.85L244.72 22.29L269.78 47.15L294.83 72.02L310.2 87.27C314.75 91.78 317.3 97.91 317.3 104.31L317.3 105.36L314.71 102.77C310.71 98.77 305.28 96.52 299.62 96.52L281.94 96.52L252.83 96.52C234.93 96.52 220.41 82.01 220.41 64.1Z" fill="url(#paint_linear_257_2680_0)" fill-opacity="1.000000" fill-rule="evenodd"/>
		</g>
		<path id="减去顶层" d="M209.253 1.49866L213.297 4.39111C214.423 5.19653 215.418 6.11206 216.282 7.13782L216.282 7.13794C217.033 8.02893 217.686 9.00305 218.239 10.0603C218.892 11.3065 219.366 12.5927 219.663 13.9185C219.911 15.0264 220.035 16.1619 220.035 17.3253L220.193 49.98L220.22 64.8428C220.22 67.8319 220.631 70.6978 221.453 73.4403C221.972 75.1708 222.654 76.8522 223.5 78.4846C223.706 78.8811 223.92 79.2728 224.143 79.6597C226.005 82.8961 228.464 85.7893 231.52 88.3394C233.124 89.6788 234.818 90.8651 236.601 91.8981C238.194 92.8221 239.86 93.6235 241.597 94.3024C245.076 95.6627 248.328 96.3429 251.352 96.3429C252.383 96.3429 253.193 95.5323 253.193 94.5006C253.193 93.469 252.383 92.6583 251.352 92.6583C248.791 92.6583 245.986 92.0625 242.938 90.8707C241.388 90.2648 239.9 89.5499 238.477 88.7263C236.864 87.7938 235.332 86.7219 233.881 85.5106C231.019 83.1218 228.751 80.4061 227.078 77.3635C226.369 75.9956 225.484 74.0127 225.039 72.564C224.282 70.1067 223.904 67.533 223.904 64.8428L223.878 49.9734L223.72 17.3075C223.72 15.8995 223.572 14.524 223.276 13.1812L223.276 13.1808C222.911 11.5212 222.32 9.9115 221.503 8.35144C220.814 7.03516 220.001 5.82397 219.063 4.71814L219.063 4.71814C218.012 3.47778 216.805 2.36987 215.44 1.39429L214.492 0.715942C213.297 0.000488281 213.116 0.000488281 208.921 0.000488281L207.113 0.000488281L209.253 1.49866Z" clip-rule="evenodd" fill="url(#paint_linear_257_2894_0)" fill-opacity="1.000000" fill-rule="evenodd"/>
		<g style="mix-blend-mode:normal">
			<path id="合并" d="M174.753 205.633L184.667 222.349C186.02 224.629 188.874 225.358 191.154 224.006C193.436 222.653 194.164 219.798 192.812 217.518L180.258 196.351L192.821 175.168C194.174 172.887 193.445 170.032 191.164 168.68C188.884 167.327 186.029 168.056 184.677 170.337L174.753 187.069L164.828 170.336C163.476 168.055 160.621 167.326 158.341 168.679C156.06 170.031 155.331 172.886 156.684 175.167L169.248 196.351L156.693 217.519C155.341 219.799 156.069 222.654 158.351 224.007C160.631 225.359 163.485 224.63 164.838 222.35L174.753 205.633ZM198.023 172.902L198.023 221.119C198.023 223.864 200.18 226.021 202.925 226.021C205.67 226.021 207.826 223.864 207.826 221.119L207.826 201.387L225.805 201.387C228.869 201.387 231.276 198.98 231.276 195.916C231.276 192.853 228.869 190.445 225.805 190.445L207.826 190.445L207.826 177.803L230.303 177.803C233.047 177.803 235.204 175.646 235.204 172.902C235.204 170.157 233.047 168.001 230.303 168.001L202.925 168.001Q201.91 168.001 201.043 168.359Q200.177 168.718 199.459 169.436Q198.741 170.154 198.383 171.02Q198.023 171.887 198.023 172.902ZM127.647 168.677L127.647 168.677C129.358 169.055 131.034 169.59 132.675 170.284Q135.147 171.33 137.351 172.784C138.976 173.856 140.49 175.094 141.895 176.499C143.3 177.904 144.538 179.419 145.61 181.043L145.61 181.044L145.612 181.046Q147.064 183.248 148.109 185.719C148.804 187.36 149.339 189.035 149.717 190.746C150.167 192.785 150.392 194.874 150.392 197.013C150.392 199.151 150.167 201.24 149.717 203.279C149.339 204.99 148.804 206.665 148.109 208.306C147.412 209.954 146.579 211.513 145.61 212.982C144.538 214.606 143.3 216.121 141.895 217.526C140.49 218.931 138.976 220.169 137.351 221.241C135.882 222.21 134.323 223.043 132.675 223.741C131.034 224.435 129.358 224.97 127.647 225.348C125.608 225.798 123.52 226.022 121.382 226.022L113.33 226.022C111.859 226.022 110.603 225.502 109.562 224.462C108.522 223.422 108.002 222.166 108.002 220.694L108.002 173.331Q108.002 172.227 108.393 171.285L108.393 171.285Q108.782 170.344 109.562 169.563Q110.343 168.783 111.285 168.393L111.285 168.393L111.285 168.393Q112.227 168.003 113.33 168.003L121.382 168.003Q124.589 168.003 127.647 168.677ZM121.382 178.659L118.658 178.659L118.658 215.366L121.382 215.366C122.8 215.366 124.183 215.21 125.528 214.899C126.548 214.664 127.546 214.339 128.523 213.926C129.534 213.498 130.491 212.99 131.396 212.4C132.456 211.709 133.444 210.905 134.359 209.99C135.274 209.075 136.077 208.087 136.77 207.027C137.358 206.122 137.867 205.165 138.295 204.155C138.708 203.177 139.032 202.179 139.269 201.16C139.579 199.813 139.734 198.431 139.734 197.013C139.734 195.594 139.579 194.212 139.269 192.865C139.032 191.846 138.708 190.848 138.295 189.87C137.867 188.86 137.358 187.903 136.77 186.998C136.077 185.938 135.274 184.95 134.359 184.035C133.444 183.12 132.456 182.317 131.396 181.625C130.491 181.035 129.534 180.527 128.523 180.099C127.546 179.686 126.548 179.361 125.528 179.126C124.182 178.815 122.8 178.659 121.382 178.659Z" clip-rule="evenodd" fill="#FFFFFF" fill-opacity="1.000000" fill-rule="evenodd"/>
		</g>
	</g>
</svg>
