<svg width="336.000000" height="336.000000" viewBox="0 0 336 336" fill="none" xmlns="http://www.w3.org/2000/svg" xmlns:xlink="http://www.w3.org/1999/xlink">
	<desc>
			Created with Pixso.
	</desc>
	<defs>
		<clipPath id="clip257_2221">
			<rect id="ic_light word" width="336.000000" height="336.000000" fill="white" fill-opacity="0"/>
		</clipPath>
		<linearGradient x1="168.000320" y1="0.000000" x2="168.000320" y2="336.000000" id="paint_linear_257_2615_0" gradientUnits="userSpaceOnUse">
			<stop stop-color="#55BFF2"/>
			<stop offset="1.000000" stop-color="#3898F7"/>
		</linearGradient>
		<linearGradient x1="271.255737" y1="45.869034" x2="222.071548" y2="92.658379" id="paint_linear_257_2929_0" gradientUnits="userSpaceOnUse">
			<stop offset="0.100487" stop-color="#4799ED"/>
			<stop offset="1.000000" stop-color="#77CDFB"/>
		</linearGradient>
		<linearGradient x1="228.940750" y1="-4.294334" x2="257.823578" y2="97.462639" id="paint_linear_257_2930_0" gradientUnits="userSpaceOnUse">
			<stop stop-color="#36BCF8"/>
			<stop offset="0.265149" stop-color="#A5DAFF"/>
			<stop offset="0.715692" stop-color="#CDEBFF"/>
			<stop offset="0.924672" stop-color="#80C9FF"/>
			<stop offset="1.000000" stop-color="#64B8F5" stop-opacity="0.000000"/>
		</linearGradient>
	</defs>
	<g clip-path="url(#clip257_2221)">
		<path id="矩形备份 113" d="M42.24 0L211.71 0C217.52 0 223.1 2.29 227.23 6.38L310.79 89.13C314.98 93.27 317.33 98.91 317.33 104.8L317.33 312.41C317.33 325.44 306.77 336 293.75 336L42.24 336C29.22 336 18.66 325.44 18.66 312.41L18.66 23.58C18.66 10.55 29.22 0 42.24 0Z" fill="url(#paint_linear_257_2615_0)" fill-opacity="1.000000" fill-rule="evenodd"/>
		<g style="mix-blend-mode:normal">
			<path id="矩形 2" d="M220.41 64.1L220.41 35L220.22 17.5C220.17 11.89 217.88 6.54 213.88 2.62L211.2 0L215.01 0C219.88 0 224.53 1.96 227.92 5.45L232.2 9.85L244.72 22.29L269.78 47.15L294.83 72.02L310.2 87.27C314.75 91.78 317.3 97.91 317.3 104.31L317.3 105.36L314.71 102.77C310.71 98.77 305.28 96.52 299.62 96.52L281.94 96.52L252.83 96.52C234.93 96.52 220.41 82.01 220.41 64.1Z" fill="url(#paint_linear_257_2929_0)" fill-opacity="1.000000" fill-rule="evenodd"/>
		</g>
		<path id="减去顶层" d="M207.117 0L207.113 0L209.253 1.49815L213.297 4.39061C214.423 5.196 215.418 6.11157 216.282 7.13734L216.282 7.13747C217.033 8.02847 217.686 9.00259 218.239 10.0599C218.892 11.3061 219.366 12.5922 219.663 13.918C219.911 15.0258 220.035 16.1614 220.035 17.3248L220.193 49.9795L220.22 64.8423C220.22 67.8314 220.631 70.6972 221.453 73.4398C221.972 75.1703 222.654 76.8517 223.5 78.4841C223.706 78.8807 223.92 79.2724 224.143 79.6591C226.005 82.8956 228.464 85.7888 231.52 88.3389C233.124 89.6783 234.818 90.8646 236.601 91.8976C238.194 92.8216 239.86 93.623 241.597 94.3019C245.076 95.6622 248.328 96.3424 251.352 96.3424C252.383 96.3424 253.193 95.5318 253.193 94.5002C253.193 93.4685 252.383 92.6579 251.352 92.6579C248.791 92.6579 245.986 92.062 242.938 90.8703C241.388 90.2643 239.9 89.5494 238.477 88.7259C236.864 87.7934 235.332 86.7214 233.881 85.5101C231.019 83.1214 228.751 80.4057 227.078 77.363C226.369 75.9952 225.484 74.0123 225.039 72.5635C224.282 70.1062 223.904 67.5325 223.904 64.8423L223.878 49.9729L223.72 17.307C223.72 15.899 223.572 14.5235 223.276 13.1806L223.276 13.1803C222.911 11.5208 222.32 9.91104 221.503 8.35095C220.814 7.03468 220.001 5.8235 219.063 4.71768L219.063 4.71767C218.012 3.47731 216.805 2.36937 215.44 1.39381L214.492 0.715439C213.421 0.074295 213.164 0.00772095 210.104 0.000793457L207.117 0.000793457L207.117 0Z" clip-rule="evenodd" fill="url(#paint_linear_257_2930_0)" fill-opacity="1.000000" fill-rule="evenodd"/>
		<g style="mix-blend-mode:normal">
			<path id="路径 4备份 (边框)" d="M118.56 150.41C117.45 145.84 112.98 143.13 108.41 144.25C103.84 145.37 101.13 149.83 102.25 154.4L126.31 252.68C126.83 254.83 127.78 256.46 129.15 257.57C130.52 258.68 132.31 259.27 134.52 259.34C136.73 259.42 138.55 258.94 139.99 257.92C141.43 256.9 142.48 255.34 143.14 253.23L166.04 180.44L188.85 253.2C189.51 255.32 190.56 256.89 192 257.91C193.44 258.93 195.27 259.4 197.49 259.33C199.71 259.25 201.51 258.65 202.87 257.53C204.24 256.41 205.18 254.77 205.69 252.62L229.1 154.35C230.19 149.78 227.46 145.32 222.88 144.23C218.3 143.14 213.85 145.88 212.76 150.46L196.13 220.27L174.39 150.94C173.75 148.89 172.74 147.36 171.35 146.34C169.96 145.32 168.19 144.81 166.05 144.81C163.91 144.81 162.15 145.32 160.76 146.34C159.37 147.36 158.35 148.89 157.71 150.93L135.77 220.68L118.56 150.41Z" fill="#FFFFFF" fill-opacity="1.000000" fill-rule="evenodd"/>
		</g>
	</g>
</svg>
