<svg width="336.000000" height="336.000000" viewBox="0 0 336 336" fill="none" xmlns="http://www.w3.org/2000/svg" xmlns:xlink="http://www.w3.org/1999/xlink">
	<desc>
			Created with Pixso.
	</desc>
	<defs>
		<clipPath id="clip257_2418">
			<rect id="ic_light zip" width="336.000000" height="336.000000" fill="white" fill-opacity="0"/>
		</clipPath>
		<linearGradient x1="168.000320" y1="0.000000" x2="168.000320" y2="336.000000" id="paint_linear_257_2404_0" gradientUnits="userSpaceOnUse">
			<stop stop-color="#9FB1BD"/>
			<stop offset="1.000000" stop-color="#BFCAD3"/>
		</linearGradient>
	</defs>
	<g clip-path="url(#clip257_2418)">
		<rect id="矩形 540" x="18.666992" rx="23.566467" width="298.666656" height="336.000000" fill="url(#paint_linear_257_2404_0)" fill-opacity="1.000000"/>
		<path id="合并" d="M189 0.000350952L147 0.000350952L147 4.19955C147 8.83919 150.761 12.6004 155.4 12.6004L180.6 12.6004C185.239 12.6004 189 8.83919 189 4.19955L189 0.000350952ZM153.3 21.0003L182.7 21.0003C186.18 21.0003 189 23.8209 189 27.3003C189 30.7797 186.18 33.6003 182.7 33.6003L153.3 33.6003C149.82 33.6003 147 30.7797 147 27.3003C147 23.8209 149.82 21.0003 153.3 21.0003ZM182.7 42.0003L153.3 42.0003C149.82 42.0003 147 44.8209 147 48.3003C147 51.7797 149.82 54.6003 153.3 54.6003L182.7 54.6003C186.18 54.6003 189 51.7797 189 48.3003C189 44.8209 186.18 42.0003 182.7 42.0003ZM153.3 63.0002L182.7 63.0002C186.18 63.0002 189 65.8208 189 69.3002C189 72.7796 186.18 75.6002 182.7 75.6002L153.3 75.6002C149.82 75.6002 147 72.7796 147 69.3002C147 65.8208 149.82 63.0002 153.3 63.0002ZM184.8 84.0008L151.2 84.0008C148.881 84.0008 147 85.8814 147 88.2012L147 130.2C147 132.52 148.881 134.401 151.2 134.401L184.8 134.401C187.119 134.401 189 132.52 189 130.2L189 88.2012C189 85.8814 187.119 84.0008 184.8 84.0008ZM157.5 109.199L178.5 109.199C179.66 109.199 180.6 110.139 180.6 111.299L180.6 123.899C180.6 125.059 179.66 125.999 178.5 125.999L157.5 125.999C156.34 125.999 155.4 125.059 155.4 123.899L155.4 111.299C155.4 110.139 156.34 109.199 157.5 109.199Z" clip-rule="evenodd" fill="#FFFFFF" fill-opacity="1.000000" fill-rule="evenodd"/>
		<g style="mix-blend-mode:normal">
			<path id="合并" d="M170.885 223.563L170.885 179.25C170.885 176.31 168.574 174 165.635 174C162.694 174 160.385 176.31 160.385 179.25L160.385 223.563C160.385 226.503 162.694 228.813 165.635 228.813C168.574 228.813 170.885 226.503 170.885 223.563ZM185.818 179.571L185.818 223.883C185.818 226.823 188.128 229.133 191.068 229.133C194.009 229.133 196.318 226.823 196.318 223.883L196.318 210.698L205.247 210.698C206.8 210.698 208.314 210.529 209.79 210.191C210.739 209.973 211.673 209.686 212.59 209.328C214.012 208.774 215.335 208.076 216.559 207.233C217.303 206.722 218.01 206.157 218.68 205.539C219.861 204.45 220.869 203.252 221.706 201.943C222.147 201.252 222.541 200.53 222.887 199.777C223.432 198.59 223.835 197.374 224.097 196.128C224.341 194.97 224.463 193.786 224.463 192.577C224.463 191.431 224.354 190.307 224.135 189.205C223.875 187.896 223.461 186.618 222.894 185.371C222.544 184.604 222.146 183.868 221.698 183.163C220.87 181.859 219.873 180.663 218.708 179.574C217.973 178.887 217.194 178.264 216.373 177.706C215.21 176.917 213.96 176.256 212.622 175.725C211.626 175.329 210.611 175.017 209.579 174.789C208.169 174.477 206.726 174.321 205.247 174.321L191.068 174.321C189.618 174.321 188.381 174.834 187.356 175.859C186.331 176.884 185.818 178.121 185.818 179.571ZM141.396 175.542L113.252 175.542C110.312 175.542 108.002 177.852 108.002 180.792C108.002 183.732 110.312 186.042 113.252 186.042L131.657 186.042L108.866 220.675C108.069 221.887 107.817 223.202 108.11 224.622C108.403 226.042 109.155 227.15 110.366 227.947C110.795 228.229 111.254 228.444 111.746 228.591C112.237 228.738 112.739 228.811 113.252 228.811L141.396 228.811C144.336 228.811 146.646 226.501 146.646 223.561C146.646 220.621 144.336 218.311 141.396 218.311L122.991 218.311L145.782 183.678C146.063 183.249 146.278 182.789 146.426 182.298Q146.536 181.929 146.591 181.553Q146.646 181.176 146.646 180.792Q146.646 179.704 146.262 178.776Q145.878 177.848 145.108 177.079C144.084 176.054 142.846 175.542 141.396 175.542ZM205.247 200.198L196.318 200.198L196.318 184.821L205.247 184.821Q206.459 184.821 207.598 185.111L207.6 185.111L207.601 185.111Q208.182 185.259 208.744 185.483C209.468 185.77 210.134 186.137 210.741 186.583C211.019 186.787 211.283 187.007 211.537 187.243C212.194 187.859 212.936 188.969 213.337 189.721C213.591 190.278 213.767 190.848 213.866 191.431C213.931 191.808 213.963 192.19 213.963 192.577C213.963 193.022 213.92 193.458 213.836 193.886C213.733 194.402 213.386 195.277 213.16 195.769C212.761 196.522 212.229 197.205 211.564 197.818C211.375 197.992 211.18 198.157 210.977 198.313C210.317 198.82 209.584 199.23 208.776 199.545C208.469 199.665 208.156 199.768 207.84 199.855C207.007 200.084 206.143 200.198 205.247 200.198Z" clip-rule="evenodd" fill="#FFFFFF" fill-opacity="1.000000" fill-rule="evenodd"/>
		</g>
	</g>
</svg>
