<svg width="336.000000" height="336.000000" viewBox="0 0 336 336" fill="none" xmlns="http://www.w3.org/2000/svg" xmlns:xlink="http://www.w3.org/1999/xlink">
	<desc>
			Created with Pixso.
	</desc>
	<defs>
		<clipPath id="clip257_2464">
			<rect id="ic_light gz" width="336.000000" height="336.000000" fill="white" fill-opacity="0"/>
		</clipPath>
		<linearGradient x1="168.000320" y1="0.000000" x2="168.000320" y2="336.000000" id="paint_linear_257_2451_0" gradientUnits="userSpaceOnUse">
			<stop stop-color="#9FB1BD"/>
			<stop offset="1.000000" stop-color="#BFCAD3"/>
		</linearGradient>
	</defs>
	<g clip-path="url(#clip257_2464)">
		<rect id="矩形 540" x="18.666992" rx="23.566467" width="298.666656" height="336.000000" fill="url(#paint_linear_257_2451_0)" fill-opacity="1.000000"/>
		<path id="合并" d="M189 0.000976562L147 0.000976562L147 4.2002C147 8.83984 150.761 12.6011 155.4 12.6011L180.6 12.6011C185.239 12.6011 189 8.83984 189 4.2002L189 0.000976562ZM153.3 21.001L182.7 21.001C186.18 21.001 189 23.8215 189 27.301C189 30.7803 186.18 33.6008 182.7 33.6008L153.3 33.6008C149.82 33.6008 147 30.7803 147 27.301C147 23.8215 149.82 21.001 153.3 21.001ZM182.7 42.001L153.3 42.001C149.82 42.001 147 44.8215 147 48.301C147 51.7803 149.82 54.6008 153.3 54.6008L182.7 54.6008C186.18 54.6008 189 51.7803 189 48.301C189 44.8215 186.18 42.001 182.7 42.001ZM153.3 63.0007L182.7 63.0007C186.18 63.0007 189 65.8215 189 69.3008C189 72.7803 186.18 75.6008 182.7 75.6008L153.3 75.6008C149.82 75.6008 147 72.7803 147 69.3008C147 65.8215 149.82 63.0007 153.3 63.0007ZM184.8 84.0015L151.2 84.0015C148.881 84.0015 147 85.8821 147 88.2019L147 130.201C147 132.521 148.881 134.401 151.2 134.401L184.8 134.401C187.119 134.401 189 132.521 189 130.201L189 88.2019C189 85.8821 187.119 84.0015 184.8 84.0015ZM157.5 109.2L178.5 109.2C179.66 109.2 180.6 110.14 180.6 111.3L180.6 123.899C180.6 125.059 179.66 126 178.5 126L157.5 126C156.34 126 155.4 125.059 155.4 123.899L155.4 111.3C155.4 110.14 156.34 109.2 157.5 109.2Z" clip-rule="evenodd" fill="#FFFFFF" fill-opacity="1.000000" fill-rule="evenodd"/>
		<g style="mix-blend-mode:normal">
			<path id="合并" d="M149.388 198.315L158.855 198.315C159.302 198.315 159.736 198.367 160.157 198.471C160.576 198.575 160.982 198.731 161.376 198.938C161.633 199.073 161.875 199.227 162.104 199.398C162.446 199.654 162.759 199.951 163.04 200.288C163.562 200.913 163.95 201.648 164.206 202.494C164.437 203.258 164.572 204.184 164.612 205.271C164.659 206.551 164.586 208.194 164.393 210.202C164.007 214.207 162.718 217.627 160.635 220.318C159.35 221.959 157.906 223.391 156.303 224.614C155.258 225.411 154.145 226.119 152.964 226.739C150.491 228.036 147.966 228.816 145.388 229.079C144.734 229.146 144.077 229.179 143.417 229.179C141.883 229.179 140.384 229.02 138.919 228.702C137.293 228.349 135.709 227.8 134.168 227.055C133.468 226.716 132.788 226.343 132.13 225.935C130.107 224.682 128.288 223.103 126.67 221.199C126.537 221.042 126.406 220.884 126.277 220.725Q123.362 217.122 121.755 212.461Q120.004 207.382 120.004 201.589Q120.004 195.798 121.713 190.745C122.808 187.508 124.536 184.459 126.568 181.996Q128.915 179.21 131.85 177.354Q132.925 176.674 134.079 176.119C135.424 175.472 136.806 174.973 138.224 174.622Q140.743 173.999 143.417 173.999C145.521 173.999 147.433 174.207 149.152 174.622C150.893 175.042 152.515 175.697 153.987 176.568Q155.936 177.725 157.731 179.517C158.601 180.384 159.568 181.498 160.635 182.86C162.384 185.094 162.003 188.224 159.769 189.974C157.533 191.723 154.403 191.342 152.654 189.107Q151.438 187.554 150.573 186.691C149.974 186.093 149.388 185.624 148.814 185.284C148.213 184.927 147.533 184.657 146.775 184.474C145.836 184.247 144.717 184.134 143.417 184.134Q141.897 184.134 140.479 184.51C139.792 184.691 138.705 185.151 138.054 185.464Q135.964 186.574 134.32 188.525Q132.386 190.822 131.313 193.992C130.53 196.308 130.139 198.84 130.139 201.589Q130.139 205.684 131.337 209.157C132.064 211.268 133.083 213.094 134.394 214.636C135.546 215.993 137.116 217.178 138.579 217.93C139.424 218.338 140.292 218.634 141.183 218.818C141.911 218.969 142.656 219.044 143.417 219.044C145.017 219.044 146.629 218.617 148.254 217.764C148.796 217.48 149.312 217.163 149.806 216.811C150.867 216.054 151.816 215.141 152.654 214.07C153.555 212.92 154.104 211.307 154.305 209.23C154.33 208.959 154.354 208.699 154.375 208.45L149.388 208.45C146.55 208.45 144.319 206.22 144.319 203.382C144.319 200.544 146.55 198.315 149.388 198.315ZM203.402 174.502L173.907 174.502C170.961 174.502 168.646 176.817 168.646 179.763C168.646 182.71 170.961 185.024 173.907 185.024L193.568 185.024L169.53 221.054C168.725 222.263 168.463 223.579 168.748 225.004C169.032 226.429 169.778 227.544 170.987 228.35C171.419 228.639 171.884 228.858 172.382 229.009C172.879 229.16 173.388 229.235 173.907 229.235L203.402 229.235C206.349 229.235 208.663 226.92 208.663 223.974C208.663 221.028 206.349 218.713 203.402 218.713L183.741 218.713L207.779 182.683C208.067 182.251 208.287 181.786 208.438 181.289C208.588 180.792 208.663 180.283 208.663 179.763Q208.663 178.674 208.278 177.744Q207.894 176.814 207.123 176.043C206.096 175.016 204.855 174.502 203.402 174.502Z" clip-rule="evenodd" fill="#FFFFFF" fill-opacity="1.000000" fill-rule="evenodd"/>
		</g>
	</g>
</svg>
