<svg width="336.000000" height="336.000000" viewBox="0 0 336 336" fill="none" xmlns="http://www.w3.org/2000/svg" xmlns:xlink="http://www.w3.org/1999/xlink">
	<desc>
			Created with Pixso.
	</desc>
	<defs>
		<clipPath id="clip257_2244">
			<rect id="ic_light txt" width="336.000000" height="336.000000" fill="white" fill-opacity="0"/>
		</clipPath>
		<linearGradient x1="168.000320" y1="0.000000" x2="168.000320" y2="336.000000" id="paint_linear_257_2625_0" gradientUnits="userSpaceOnUse">
			<stop stop-color="#55BFF2"/>
			<stop offset="1.000000" stop-color="#3898F7"/>
		</linearGradient>
		<linearGradient x1="271.255737" y1="45.868912" x2="222.071548" y2="92.658257" id="paint_linear_257_2921_0" gradientUnits="userSpaceOnUse">
			<stop offset="0.100487" stop-color="#4799ED"/>
			<stop offset="1.000000" stop-color="#77CDFB"/>
		</linearGradient>
		<linearGradient x1="228.940750" y1="-4.294456" x2="257.823578" y2="97.462517" id="paint_linear_257_2922_0" gradientUnits="userSpaceOnUse">
			<stop stop-color="#36BCF8"/>
			<stop offset="0.265149" stop-color="#A5DAFF"/>
			<stop offset="0.715692" stop-color="#CDEBFF"/>
			<stop offset="0.924672" stop-color="#80C9FF"/>
			<stop offset="1.000000" stop-color="#64B8F5" stop-opacity="0.000000"/>
		</linearGradient>
	</defs>
	<g clip-path="url(#clip257_2244)">
		<path id="矩形备份 113" d="M42.24 0L211.71 0C217.52 0 223.1 2.29 227.23 6.38L310.79 89.13C314.98 93.27 317.33 98.91 317.33 104.8L317.33 312.41C317.33 325.44 306.77 336 293.75 336L42.24 336C29.22 336 18.66 325.44 18.66 312.41L18.66 23.58C18.66 10.55 29.22 0 42.24 0Z" fill="url(#paint_linear_257_2625_0)" fill-opacity="1.000000" fill-rule="evenodd"/>
		<g style="mix-blend-mode:normal">
			<path id="矩形 2" d="M220.41 64.1L220.41 35L220.22 17.5C220.17 11.89 217.88 6.54 213.88 2.62L211.2 0L215.01 0C219.88 0 224.53 1.96 227.92 5.45L232.2 9.85L244.72 22.28L269.78 47.15L294.83 72.02L310.2 87.27C314.75 91.78 317.3 97.91 317.3 104.31L317.3 105.36L314.71 102.77C310.71 98.77 305.28 96.52 299.62 96.52L281.94 96.52L252.83 96.52C234.93 96.52 220.41 82 220.41 64.1Z" fill="url(#paint_linear_257_2921_0)" fill-opacity="1.000000" fill-rule="evenodd"/>
		</g>
		<path id="减去顶层" d="M207.117 -0.00012207L207.113 -0.00012207L209.253 1.49805L213.297 4.3905C214.423 5.19592 215.418 6.11145 216.282 7.13721L216.282 7.13733C217.033 8.02832 217.686 9.00244 218.239 10.0597C218.892 11.3059 219.366 12.592 219.663 13.9178C219.911 15.0258 220.035 16.1614 220.035 17.3247L220.193 49.9794L220.22 64.8422C220.22 67.8313 220.631 70.6971 221.453 73.4397C221.972 75.1702 222.654 76.8516 223.5 78.4839C223.706 78.8805 223.92 79.2722 224.143 79.6591C226.005 82.8955 228.464 85.7887 231.52 88.3387C233.124 89.6782 234.818 90.8645 236.601 91.8975C238.194 92.8215 239.86 93.6229 241.597 94.3018C245.076 95.6621 248.328 96.3423 251.352 96.3423C252.383 96.3423 253.193 95.5317 253.193 94.5C253.193 93.4684 252.383 92.6577 251.352 92.6577C248.791 92.6577 245.986 92.0619 242.938 90.8701C241.388 90.2642 239.9 89.5493 238.477 88.7257C236.864 87.7932 235.332 86.7213 233.881 85.51C231.019 83.1212 228.751 80.4055 227.078 77.3629C226.369 75.995 225.484 74.0122 225.039 72.5634C224.282 70.1061 223.904 67.5323 223.904 64.8422L223.878 49.9728L223.72 17.3069C223.72 15.8989 223.572 14.5234 223.276 13.1805L223.276 13.1802C222.911 11.5208 222.32 9.91089 221.503 8.35083C220.814 7.03455 220.001 5.82336 219.063 4.71753L219.063 4.71753C218.012 3.47717 216.805 2.36926 215.44 1.39368L214.492 0.715332C213.421 0.0742188 213.164 0.00756836 210.104 0.000732422L207.117 0.000732422L207.117 -0.00012207Z" clip-rule="evenodd" fill="url(#paint_linear_257_2922_0)" fill-opacity="1.000000" fill-rule="evenodd"/>
		<path id="合并" d="M161.955 190.441L149.19 211.712C147.826 213.986 148.54 216.844 150.814 218.209C153.088 219.573 155.946 218.859 157.311 216.585L167.478 199.643L177.645 216.586C179.009 218.859 181.867 219.574 184.141 218.209C186.415 216.845 187.129 213.987 185.765 211.713L172.999 190.441L185.753 169.188C187.117 166.914 186.403 164.056 184.129 162.691C181.855 161.327 178.997 162.041 177.633 164.315L167.478 181.238L157.322 164.316C155.958 162.042 153.1 161.328 150.826 162.692C148.552 164.056 147.838 166.915 149.202 169.188L161.955 190.441ZM116.702 162.018L132.438 162.018C135.091 162.018 137.174 164.101 137.174 166.753C137.174 169.404 135.091 171.488 132.438 171.488L121.315 171.488L121.315 214.149C121.315 216.8 119.231 218.884 116.58 218.884C113.929 218.884 111.845 216.8 111.845 214.149L111.845 171.488L100.724 171.488C98.0713 171.488 95.9883 169.404 95.9883 166.753C95.9883 164.101 98.0713 162.018 100.724 162.018L116.458 162.018C116.499 162.017 116.539 162.016 116.58 162.016C116.621 162.016 116.661 162.017 116.702 162.018ZM217.619 162.018L233.355 162.018C236.008 162.018 238.091 164.101 238.091 166.753C238.091 169.404 236.008 171.488 233.355 171.488L222.232 171.488L222.232 214.149C222.232 216.8 220.148 218.884 217.497 218.884C214.846 218.884 212.762 216.8 212.762 214.149L212.762 171.488L201.641 171.488C198.988 171.488 196.905 169.404 196.905 166.753C196.905 164.101 198.988 162.018 201.641 162.018L217.375 162.018C217.416 162.017 217.456 162.016 217.497 162.016C217.538 162.016 217.578 162.017 217.619 162.018Z" clip-rule="evenodd" fill="#FFFFFF" fill-opacity="1.000000" fill-rule="evenodd"/>
	</g>
</svg>
