<svg width="336.000000" height="336.000000" viewBox="0 0 336 336" fill="none" xmlns="http://www.w3.org/2000/svg" xmlns:xlink="http://www.w3.org/1999/xlink">
	<desc>
			Created with Pixso.
	</desc>
	<defs>
		<clipPath id="clip257_2152">
			<rect id="ic_light nh" width="336.000000" height="336.000000" fill="white" fill-opacity="0"/>
		</clipPath>
		<linearGradient x1="168.000320" y1="0.369141" x2="168.000320" y2="336.369141" id="paint_linear_257_2736_0" gradientUnits="userSpaceOnUse">
			<stop stop-color="#71DF66"/>
			<stop offset="1.000000" stop-color="#4EBA45"/>
		</linearGradient>
		<linearGradient x1="271.255737" y1="45.868546" x2="222.071548" y2="92.657890" id="paint_linear_257_2737_0" gradientUnits="userSpaceOnUse">
			<stop offset="0.100487" stop-color="#41B837"/>
			<stop offset="1.000000" stop-color="#68DE5C"/>
		</linearGradient>
		<linearGradient x1="228.940735" y1="-4.293248" x2="267.965668" y2="99.144157" id="paint_linear_257_2738_0" gradientUnits="userSpaceOnUse">
			<stop stop-color="#65D75C"/>
			<stop offset="0.263916" stop-color="#81EC77"/>
			<stop offset="0.651073" stop-color="#B2FFAA"/>
			<stop offset="0.832627" stop-color="#94EB8A"/>
			<stop offset="0.933527" stop-color="#59CF4E" stop-opacity="0.615686"/>
		</linearGradient>
	</defs>
	<g clip-path="url(#clip257_2152)">
		<path id="矩形备份 113" d="M42.24 0.36L211.71 0.36C217.52 0.36 223.1 2.66 227.23 6.75L310.79 89.5C314.98 93.64 317.33 99.28 317.33 105.17L317.33 312.78C317.33 325.81 306.77 336.36 293.75 336.36L42.24 336.36C29.22 336.36 18.66 325.81 18.66 312.78L18.66 23.95C18.66 10.92 29.22 0.36 42.24 0.36Z" fill="url(#paint_linear_257_2736_0)" fill-opacity="1.000000" fill-rule="evenodd"/>
		<g style="mix-blend-mode:normal">
			<path id="矩形 2" d="M220.41 64.1L220.41 35L220.22 17.5C220.17 11.89 217.88 6.54 213.88 2.62L211.2 0L215.01 0C219.88 0 224.53 1.96 227.92 5.45L232.2 9.85L244.72 22.28L269.78 47.15L294.83 72.02L310.2 87.27C314.75 91.78 317.3 97.91 317.3 104.31L317.3 105.36L314.71 102.77C310.71 98.77 305.28 96.52 299.62 96.52L281.94 96.52L252.83 96.52C234.93 96.52 220.41 82 220.41 64.1Z" fill="url(#paint_linear_257_2737_0)" fill-opacity="1.000000" fill-rule="evenodd"/>
		</g>
		<path id="减去顶层" d="M209.253 1.49927L213.297 4.39172Q214.985 5.59973 216.282 7.13843L216.282 7.13855C217.033 8.02954 217.686 9.00366 218.239 10.0609C218.892 11.3071 219.366 12.5933 219.663 13.9191C219.911 15.027 220.035 16.1626 220.035 17.3259L220.193 49.9806L220.22 64.8434C220.22 67.8325 220.631 70.6984 221.453 73.4409C221.972 75.1714 222.654 76.8528 223.5 78.4851C223.706 78.8817 223.92 79.2734 224.143 79.6603C226.005 82.8967 228.464 85.7899 231.52 88.34C233.124 89.6794 234.818 90.8657 236.601 91.8987C238.194 92.8228 239.86 93.6241 241.597 94.303Q246.815 96.3435 251.352 96.3435C252.383 96.3435 253.193 95.533 253.193 94.5012C253.193 93.4696 252.383 92.6589 251.352 92.6589C248.791 92.6589 245.986 92.0631 242.938 90.8713C241.388 90.2654 239.9 89.5505 238.477 88.7269C236.864 87.7944 235.332 86.7225 233.881 85.5112C231.019 83.1224 228.751 80.4067 227.078 77.3641C226.369 75.9962 225.484 74.0134 225.039 72.5646C224.282 70.1073 223.904 67.5336 223.904 64.8434L223.878 49.974L223.72 17.3081C223.72 15.9001 223.572 14.5247 223.276 13.1818L223.276 13.1814Q222.729 10.6921 221.503 8.35205C220.814 7.03577 220.001 5.82458 219.063 4.71875L219.063 4.71875Q217.486 2.85828 215.44 1.3949L214.492 0.716553C213.297 0.00109863 213.116 0.00109863 208.921 0.00109863L207.113 0.00109863L209.253 1.49927Z" clip-rule="evenodd" fill="url(#paint_linear_257_2738_0)" fill-opacity="1.000000" fill-rule="evenodd"/>
		<g style="mix-blend-mode:normal">
			<path id="合并" d="M125.021 196.656L149.152 231.253C150.904 233.766 154.256 234.363 156.77 232.61C158.506 231.399 159.328 229.423 159.091 227.489L158.865 179.901C158.851 176.837 156.432 174.441 153.368 174.455C150.304 174.47 147.908 176.889 147.923 179.952L148.068 210.573L124.206 176.362C122.454 173.849 119.103 173.251 116.589 175.004C115.832 175.532 115.249 176.206 114.852 176.958C114.306 177.815 113.994 178.841 113.999 179.952L114.226 227.713C114.24 230.776 116.659 233.172 119.723 233.157C122.786 233.143 125.183 230.724 125.168 227.661L125.021 196.656ZM172.869 227.687L172.869 179.926C172.869 176.863 175.276 174.455 178.34 174.455C181.404 174.455 183.812 176.863 183.812 179.926L183.812 197.915L207.069 197.915L207.069 179.926C207.069 176.863 209.477 174.455 212.54 174.455C215.604 174.455 218.012 176.863 218.012 179.926L218.012 227.687C218.012 230.751 215.604 233.158 212.54 233.158C209.477 233.158 207.069 230.751 207.069 227.687L207.069 208.858L183.812 208.858L183.812 227.687C183.812 230.751 181.404 233.158 178.34 233.158C175.276 233.158 172.869 230.751 172.869 227.687Z" clip-rule="evenodd" fill="#FFFFFF" fill-opacity="1.000000" fill-rule="evenodd"/>
		</g>
	</g>
</svg>
