<svg width="336.000000" height="336.000000" viewBox="0 0 336 336" fill="none" xmlns="http://www.w3.org/2000/svg" xmlns:xlink="http://www.w3.org/1999/xlink">
	<desc>
			Created with Pixso.
	</desc>
	<defs>
		<clipPath id="clip257_2937">
			<rect id="ic_light calendar" width="336.000000" height="336.000000" fill="white" fill-opacity="0"/>
		</clipPath>
		<linearGradient x1="168.000320" y1="0.369141" x2="168.000320" y2="336.369141" id="paint_linear_257_2938_0" gradientUnits="userSpaceOnUse">
			<stop stop-color="#71DF66"/>
			<stop offset="1.000000" stop-color="#4EBA45"/>
		</linearGradient>
		<linearGradient x1="271.255737" y1="45.868546" x2="222.071548" y2="92.657890" id="paint_linear_257_2939_0" gradientUnits="userSpaceOnUse">
			<stop offset="0.100487" stop-color="#41B837"/>
			<stop offset="1.000000" stop-color="#68DE5C"/>
		</linearGradient>
		<linearGradient x1="228.947571" y1="-4.292638" x2="267.972504" y2="99.144768" id="paint_linear_257_2940_0" gradientUnits="userSpaceOnUse">
			<stop stop-color="#65D75C"/>
			<stop offset="0.263916" stop-color="#81EC77"/>
			<stop offset="0.651073" stop-color="#B2FFAA"/>
			<stop offset="0.832627" stop-color="#94EB8A"/>
			<stop offset="0.933527" stop-color="#59CF4E" stop-opacity="0.615686"/>
		</linearGradient>
	</defs>
	<g clip-path="url(#clip257_2937)">
		<path id="矩形备份 113" d="M42.24 0.36L211.71 0.36C217.52 0.36 223.1 2.66 227.23 6.75L310.79 89.5C314.98 93.64 317.33 99.28 317.33 105.17L317.33 312.78C317.33 325.81 306.77 336.36 293.75 336.36L42.24 336.36C29.22 336.36 18.66 325.81 18.66 312.78L18.66 23.95C18.66 10.92 29.22 0.36 42.24 0.36Z" fill="url(#paint_linear_257_2938_0)" fill-opacity="1.000000" fill-rule="evenodd"/>
		<g style="mix-blend-mode:normal">
			<path id="矩形 2" d="M220.41 64.1L220.41 35L220.22 17.5C220.17 11.89 217.88 6.54 213.88 2.62L211.2 0L215.01 0C219.88 0 224.53 1.96 227.92 5.45L232.2 9.85L244.72 22.28L269.78 47.15L294.83 72.02L310.2 87.27C314.75 91.78 317.3 97.91 317.3 104.31L317.3 105.36L314.71 102.77C310.71 98.77 305.28 96.52 299.62 96.52L281.94 96.52L252.83 96.52C234.93 96.52 220.41 82 220.41 64.1Z" fill="url(#paint_linear_257_2939_0)" fill-opacity="1.000000" fill-rule="evenodd"/>
		</g>
		<path id="减去顶层" d="M209.26 1.49976L213.304 4.39233Q214.992 5.60034 216.289 7.13916L216.289 7.13916C217.04 8.03027 217.692 9.00439 218.246 10.0615C218.898 11.3079 219.373 12.594 219.67 13.9197C219.918 15.0276 220.042 16.1631 220.042 17.3267L220.2 49.9812L220.227 64.844C220.227 67.833 220.638 70.699 221.46 73.4417C221.979 75.1721 222.661 76.8535 223.507 78.4858C223.713 78.8823 223.927 79.2742 224.149 79.6609C226.012 82.8972 228.471 85.7905 231.526 88.3406C233.131 89.6799 234.825 90.8662 236.607 91.8994C238.201 92.8232 239.867 93.6248 241.604 94.3037Q246.822 96.3442 251.358 96.3442C252.39 96.3442 253.2 95.5334 253.2 94.502C253.2 93.4702 252.39 92.6597 251.358 92.6597C248.798 92.6597 245.993 92.0637 242.945 90.8721C241.395 90.2659 239.907 89.5513 238.483 88.7275C236.871 87.7952 235.339 86.7231 233.888 85.5117C231.025 83.123 228.758 80.4075 227.085 77.3647C226.376 75.9968 225.491 74.0139 225.046 72.5652C224.289 70.1079 223.911 67.5342 223.911 64.844L223.885 49.9746L223.727 17.3088C223.727 15.9006 223.579 14.5251 223.283 13.1824L223.283 13.1819Q222.735 10.6929 221.51 8.35278C220.821 7.03638 220.008 5.8252 219.07 4.71948L219.07 4.71948Q217.493 2.85889 215.447 1.39551L214.499 0.717041C213.304 0.00170898 213.123 0.00170898 208.928 0.00170898L207.12 0.00170898L209.26 1.49976Z" clip-rule="evenodd" fill="url(#paint_linear_257_2940_0)" fill-opacity="1.000000" fill-rule="evenodd"/>
		<path id="合并" d="M185.158 143.632C185.158 139.969 188.128 137 191.79 137C195.452 137 198.422 139.969 198.422 143.632L198.422 145.843L207.263 145.843C217.03 145.843 224.947 153.76 224.947 163.527L224.947 238.685C224.947 248.452 217.03 256.369 207.263 256.369L127.685 256.369C117.918 256.369 110 248.452 110 238.685L110 163.527C110 153.76 117.918 145.843 127.685 145.843L136.526 145.843L136.526 143.632C136.526 139.969 139.496 137 143.158 137C146.82 137 149.79 139.969 149.79 143.632L149.79 145.843L185.158 145.843L185.158 143.632ZM185.158 156.676L149.79 156.676L149.79 157.899C149.79 161.561 146.82 164.53 143.158 164.53C139.496 164.53 136.526 161.561 136.526 157.899L136.526 156.676L129.684 156.676C124.801 156.676 120.842 160.635 120.842 165.518L120.842 177.786L214.102 177.786L214.102 165.518C214.102 160.635 210.143 156.676 205.26 156.676L198.422 156.676L198.422 157.898C198.422 161.561 195.452 164.53 191.79 164.53C188.128 164.53 185.158 161.561 185.158 157.898L185.158 156.676ZM120.842 188.631L214.102 188.631L214.102 236.679C214.102 241.562 210.144 245.521 205.26 245.521L129.684 245.521C124.801 245.521 120.842 241.562 120.842 236.679L120.842 188.631Z" clip-rule="evenodd" fill="#FFFFFF" fill-opacity="1.000000" fill-rule="evenodd"/>
	</g>
</svg>
