<svg width="336.000000" height="336.000000" viewBox="0 0 336 336" fill="none" xmlns="http://www.w3.org/2000/svg" xmlns:xlink="http://www.w3.org/1999/xlink">
	<desc>
			Created with Pixso.
	</desc>
	<defs>
		<clipPath id="clip257_2353">
			<rect id="ic_light xml" width="336.000000" height="336.000000" fill="white" fill-opacity="0"/>
		</clipPath>
		<linearGradient x1="168.000320" y1="0.000854" x2="168.000320" y2="336.000854" id="paint_linear_257_2797_0" gradientUnits="userSpaceOnUse">
			<stop stop-color="#C0CBD4"/>
			<stop offset="1.000000" stop-color="#9EB0BC"/>
		</linearGradient>
		<linearGradient x1="271.255737" y1="45.869400" x2="222.071548" y2="92.658745" id="paint_linear_257_2795_0" gradientUnits="userSpaceOnUse">
			<stop offset="0.100487" stop-color="#97ABB8"/>
			<stop offset="1.000000" stop-color="#D7E2E9"/>
		</linearGradient>
		<linearGradient x1="228.940750" y1="-4.294689" x2="254.736908" y2="96.342056" id="paint_linear_257_2791_0" gradientUnits="userSpaceOnUse">
			<stop stop-color="#9EB0BC"/>
			<stop offset="0.332341" stop-color="#D2DDE4"/>
			<stop offset="0.685898" stop-color="#EDF7FE"/>
			<stop offset="0.879007" stop-color="#DBE5EB"/>
			<stop offset="1.000000" stop-color="#C1CFD8" stop-opacity="0.000000"/>
		</linearGradient>
	</defs>
	<g clip-path="url(#clip257_2353)">
		<path id="矩形备份 113" d="M42.24 0L211.71 0C217.52 0 223.1 2.29 227.23 6.38L310.79 89.13C314.98 93.27 317.33 98.91 317.33 104.8L317.33 312.42C317.33 325.44 306.77 336 293.75 336L42.24 336C29.22 336 18.66 325.44 18.66 312.42L18.66 23.58C18.66 10.55 29.22 0 42.24 0Z" fill="url(#paint_linear_257_2797_0)" fill-opacity="1.000000" fill-rule="evenodd"/>
		<g style="mix-blend-mode:normal">
			<path id="矩形 2" d="M220.41 64.1L220.41 35L220.22 17.5C220.17 11.89 217.88 6.54 213.88 2.62L211.2 0L215.01 0C219.88 0 224.53 1.96 227.92 5.45L232.2 9.85L244.72 22.29L269.78 47.15L294.83 72.02L310.2 87.27C314.75 91.78 317.3 97.91 317.3 104.31L317.3 105.36L314.71 102.77C310.71 98.77 305.28 96.52 299.62 96.52L281.94 96.52L252.83 96.52C234.93 96.52 220.41 82.01 220.41 64.1Z" fill="url(#paint_linear_257_2795_0)" fill-opacity="1.000000" fill-rule="evenodd"/>
		</g>
		<path id="减去顶层" d="M207.117 -0.000366211L207.113 -0.000366211L209.253 1.4978L213.297 4.39026C214.423 5.19568 215.418 6.11121 216.282 7.13696L216.282 7.13708C217.033 8.02808 217.686 9.0022 218.239 10.0594C218.892 11.3057 219.366 12.5918 219.663 13.9176C219.911 15.0255 220.035 16.1611 220.035 17.3245L220.193 49.9791L220.22 64.8419C220.22 67.8311 220.631 70.6969 221.453 73.4395C221.972 75.1699 222.654 76.8513 223.5 78.4836C223.706 78.8802 223.92 79.272 224.143 79.6588C226.005 82.8953 228.464 85.7885 231.52 88.3385C233.124 89.678 234.818 90.8643 236.601 91.8972C238.194 92.8213 239.86 93.6227 241.597 94.3015C245.076 95.6619 248.328 96.342 251.352 96.342C252.383 96.342 253.193 95.5315 253.193 94.4998C253.193 93.4681 252.383 92.6575 251.352 92.6575C248.791 92.6575 245.986 92.0616 242.938 90.8699C241.388 90.2639 239.9 89.5491 238.477 88.7255C236.864 87.793 235.332 86.7211 233.881 85.5098C231.019 83.121 228.751 80.4053 227.078 77.3627C226.369 75.9948 225.484 74.012 225.039 72.5631C224.282 70.1058 223.904 67.5321 223.904 64.8419L223.878 49.9725L223.72 17.3066C223.72 15.8987 223.572 14.5232 223.276 13.1803L223.276 13.1799C222.911 11.5205 222.32 9.91064 221.503 8.35059C220.814 7.0343 220.001 5.82312 219.063 4.71729L219.063 4.71729C218.012 3.47693 216.805 2.36902 215.44 1.39343L214.492 0.715088C213.449 0.0906982 213.179 0.0112305 210.337 0.00109863L207.117 0.00109863L207.117 -0.000366211Z" clip-rule="evenodd" fill="url(#paint_linear_257_2791_0)" fill-opacity="1.000000" fill-rule="evenodd"/>
		<g style="mix-blend-mode:normal">
			<path id="合并" d="M110.502 191.928L97.9395 170.746C96.5869 168.465 97.3154 165.611 99.5967 164.258C101.877 162.906 104.731 163.635 106.084 165.915L116.007 182.646L125.93 165.916C127.282 163.635 130.137 162.906 132.417 164.259C134.698 165.612 135.427 168.466 134.074 170.747L121.513 191.928L134.067 213.097C135.421 215.378 134.691 218.233 132.411 219.585C130.13 220.938 127.275 220.209 125.923 217.928L116.007 201.21L106.091 217.929C104.738 220.21 101.884 220.939 99.6035 219.586C97.3223 218.234 96.5938 215.379 97.9463 213.098L110.502 191.928ZM223.339 168.33L223.339 211.788L243.493 211.788C246.145 211.788 248.228 213.871 248.228 216.523C248.228 219.174 246.145 221.258 243.493 221.258L218.604 221.258C217.297 221.258 216.181 220.795 215.256 219.871C214.331 218.946 213.869 217.83 213.869 216.523L213.869 168.33C213.869 165.679 215.952 163.595 218.604 163.595C221.256 163.595 223.339 165.679 223.339 168.33ZM192.569 216.963L192.569 182.836L179.247 218.615C178.791 219.841 177.969 220.725 176.779 221.269C175.59 221.813 174.383 221.857 173.158 221.401C172.504 221.157 171.932 220.787 171.441 220.29C170.95 219.794 170.588 219.217 170.353 218.56L157.505 182.686L157.344 216.986C157.331 219.637 155.238 221.711 152.587 221.698C149.935 221.686 147.861 219.592 147.874 216.941L148.098 169.423Q148.103 168.446 148.451 167.612L148.451 167.612Q148.8 166.779 149.492 166.089C150.416 165.17 151.529 164.71 152.833 164.71L157.793 164.71C158.793 164.71 159.701 164.998 160.52 165.574Q161.132 166.005 161.565 166.574Q161.998 167.143 162.251 167.849L174.896 203.161L188.065 167.793C188.411 166.866 188.989 166.121 189.802 165.557Q190.41 165.134 191.086 164.922Q191.762 164.71 192.503 164.71L197.305 164.71C198.612 164.71 199.729 165.173 200.652 166.097Q201.346 166.791 201.692 167.628Q202.04 168.465 202.04 169.445L202.04 216.963C202.04 219.615 199.956 221.698 197.305 221.698C194.653 221.698 192.569 219.615 192.569 216.963Z" clip-rule="evenodd" fill="#FFFFFF" fill-opacity="1.000000" fill-rule="evenodd"/>
		</g>
	</g>
</svg>
