<svg width="336.000000" height="336.000000" viewBox="0 0 336 336" fill="none" xmlns="http://www.w3.org/2000/svg" xmlns:xlink="http://www.w3.org/1999/xlink">
	<desc>
			Created with Pixso.
	</desc>
	<defs>
		<clipPath id="clip257_2055">
			<rect id="ic_light ape" width="336.000000" height="336.000000" fill="white" fill-opacity="0"/>
		</clipPath>
		<linearGradient x1="168.000320" y1="0.000000" x2="168.000320" y2="336.000000" id="paint_linear_257_2690_0" gradientUnits="userSpaceOnUse">
			<stop stop-color="#FF6D81"/>
			<stop offset="1.000000" stop-color="#F03F64"/>
		</linearGradient>
		<linearGradient x1="271.255737" y1="45.868546" x2="222.071548" y2="92.657890" id="paint_linear_257_2691_0" gradientUnits="userSpaceOnUse">
			<stop offset="0.100487" stop-color="#EF4161"/>
			<stop offset="1.000000" stop-color="#FA7286"/>
		</linearGradient>
		<linearGradient x1="228.942688" y1="-4.292318" x2="260.030334" y2="99.145088" id="paint_linear_257_2692_0" gradientUnits="userSpaceOnUse">
			<stop stop-color="#F85A72"/>
			<stop offset="0.254966" stop-color="#FF9EA5"/>
			<stop offset="0.670781" stop-color="#FFB1BE"/>
			<stop offset="0.942386" stop-color="#F7637B"/>
			<stop offset="1.000000" stop-color="#F45973" stop-opacity="0.000000"/>
		</linearGradient>
	</defs>
	<g clip-path="url(#clip257_2055)">
		<path id="矩形备份 113" d="M42.24 0L211.71 0C217.52 0 223.1 2.29 227.23 6.38L310.79 89.13C314.98 93.27 317.33 98.91 317.33 104.8L317.33 312.41C317.33 325.44 306.77 336 293.75 336L42.24 336C29.22 336 18.66 325.44 18.66 312.41L18.66 23.58C18.66 10.55 29.22 0 42.24 0Z" fill="url(#paint_linear_257_2690_0)" fill-opacity="1.000000" fill-rule="evenodd"/>
		<g style="mix-blend-mode:normal">
			<path id="矩形 2" d="M220.41 64.1L220.41 35L220.22 17.5C220.17 11.89 217.88 6.54 213.88 2.62L211.2 0L215.01 0C219.88 0 224.53 1.96 227.92 5.45L232.2 9.85L244.72 22.28L269.78 47.15L294.83 72.02L310.2 87.27C314.75 91.78 317.3 97.91 317.3 104.31L317.3 105.36L314.71 102.77C310.71 98.77 305.28 96.52 299.62 96.52L281.94 96.52L252.83 96.52C234.93 96.52 220.41 82 220.41 64.1Z" fill="url(#paint_linear_257_2691_0)" fill-opacity="1.000000" fill-rule="evenodd"/>
		</g>
		<path id="减去顶层" d="M209.255 1.50018L213.299 4.39264Q214.987 5.60071 216.284 7.13934L216.284 7.13947C217.035 8.03046 217.688 9.00464 218.241 10.0619C218.894 11.308 219.368 12.5942 219.665 13.92C219.913 15.0278 220.037 16.1635 220.037 17.3268L220.195 49.9815L220.222 64.8443C220.222 67.8334 220.633 70.6992 221.455 73.4418C221.974 75.1724 222.656 76.8538 223.502 78.4861C223.708 78.8827 223.922 79.2744 224.145 79.6612C226.007 82.8976 228.466 85.7908 231.521 88.3409C233.126 89.6804 234.82 90.8666 236.603 91.8997C238.196 92.8236 239.862 93.6251 241.599 94.3039Q246.817 96.3444 251.354 96.3444C252.385 96.3444 253.195 95.5339 253.195 94.5021C253.195 93.4705 252.385 92.6599 251.354 92.6599C248.793 92.6599 245.988 92.064 242.94 90.8723C241.39 90.2663 239.902 89.5515 238.479 88.7279C236.866 87.7954 235.334 86.7234 233.883 85.5121C231.021 83.1234 228.753 80.4077 227.08 77.3651C226.371 75.9972 225.486 74.0143 225.041 72.5655C224.284 70.1082 223.906 67.5345 223.906 64.8443L223.88 49.9749L223.722 17.3091C223.722 15.9011 223.574 14.5256 223.278 13.1826L223.278 13.1823Q222.73 10.6931 221.505 8.35297C220.816 7.03668 220.003 5.8255 219.065 4.71973L219.065 4.71967Q217.488 2.85913 215.442 1.39581L214.494 0.717468C213.299 0.00201416 213.118 0.00201416 208.923 0.00201416L207.115 0.00201416L209.255 1.50018Z" clip-rule="evenodd" fill="url(#paint_linear_257_2692_0)" fill-opacity="1.000000" fill-rule="evenodd"/>
		<g style="mix-blend-mode:normal">
			<path id="合并" d="M156.423 237.625L156.423 273.967C156.423 275.997 158.018 277.593 160.048 277.593C162.078 277.593 163.673 275.997 163.673 273.967L163.673 262.473L171.037 262.473C172.129 262.473 173.194 262.357 174.235 262.126C175.05 261.945 175.849 261.693 176.632 261.37C177.532 260.998 178.38 260.547 179.173 260.016C179.901 259.528 180.584 258.973 181.222 258.351C181.98 257.611 182.643 256.808 183.208 255.942C183.641 255.28 184.017 254.58 184.336 253.843C184.703 252.996 184.983 252.129 185.174 251.244C185.382 250.282 185.486 249.298 185.486 248.292Q185.486 246.867 185.209 245.499C185.018 244.557 184.729 243.635 184.34 242.733C184.017 241.981 183.636 241.267 183.196 240.591C182.638 239.731 181.985 238.933 181.24 238.195C180.555 237.517 179.816 236.917 179.027 236.395C178.282 235.904 177.492 235.482 176.655 235.13C175.816 234.778 174.961 234.508 174.087 234.32C173.093 234.107 172.076 234 171.037 234L160.048 234C159.047 234 158.192 234.354 157.484 235.062Q156.953 235.593 156.688 236.234L156.688 236.234Q156.423 236.874 156.423 237.625ZM128.006 237.19L114.224 273.468C113.503 275.365 114.428 277.422 116.325 278.142C118.222 278.863 120.278 277.939 120.999 276.042L124.302 267.349L137.969 267.349L141.088 275.986C141.777 277.895 143.818 278.853 145.728 278.163C147.637 277.474 148.595 275.432 147.905 273.523L134.802 237.246C134.622 236.749 134.348 236.312 133.977 235.935C133.606 235.559 133.174 235.277 132.68 235.089C131.745 234.734 130.82 234.761 129.907 235.171Q129.223 235.479 128.747 235.984L128.747 235.984Q128.271 236.488 128.006 237.19ZM196.669 277.593L215.474 277.593C217.504 277.593 219.099 275.998 219.099 273.968C219.099 271.937 217.504 270.342 215.474 270.342L200.295 270.342L200.295 258.809L212.683 258.809C214.713 258.809 216.308 257.214 216.308 255.184C216.308 253.154 214.713 251.559 212.683 251.559L200.295 251.559L200.295 242.4L215.474 242.4C217.504 242.4 219.099 240.805 219.099 238.775C219.099 236.745 217.504 235.15 215.474 235.15L196.669 235.15C195.668 235.15 194.813 235.504 194.105 236.211C193.397 236.919 193.044 237.774 193.044 238.775L193.044 273.968C193.044 274.969 193.397 275.823 194.105 276.531C194.813 277.239 195.668 277.593 196.669 277.593ZM171.037 255.223L163.673 255.223L163.673 241.251L171.037 241.251C171.589 241.251 172.128 241.31 172.652 241.43C173.058 241.522 173.455 241.65 173.845 241.814C174.251 241.985 174.635 242.188 174.998 242.425C175.406 242.692 175.787 243 176.141 243.349C176.552 243.757 176.905 244.199 177.201 244.678C177.383 244.971 177.542 245.278 177.68 245.598C177.871 246.043 178.013 246.497 178.105 246.962C178.192 247.396 178.235 247.84 178.235 248.292C178.235 248.797 178.182 249.29 178.073 249.77C177.981 250.175 177.853 250.571 177.685 250.958C177.554 251.259 177.403 251.548 177.232 251.825C176.936 252.307 176.578 252.753 176.159 253.161C175.855 253.457 175.531 253.722 175.187 253.957C174.776 254.237 174.336 254.473 173.867 254.667C173.526 254.808 173.179 254.922 172.824 255.009C172.246 255.151 171.65 255.223 171.037 255.223ZM135.351 260.101L131.308 248.907L127.055 260.101L135.351 260.101Z" clip-rule="evenodd" fill="#FFFFFF" fill-opacity="1.000000" fill-rule="evenodd"/>
		</g>
		<g style="mix-blend-mode:normal">
			<path id="Shape Copy备份 8" d="M205.57 133.88L205.57 195.15C205.57 203.11 199.76 209.4 192.01 210.35C184.26 211.3 178.35 206.24 178.35 199.94C178.35 192.13 184.01 188.71 188.85 186.71C193.7 184.71 197.2 180.9 197.2 177.16L197.2 148.72C197.2 146.6 195.27 145 193.18 145.39L158.1 151.99C156.5 152.3 155.34 153.69 155.34 155.32L155.34 200.98C155.34 208.9 147.72 217.21 140.8 218.6C133.88 219.99 126 215.13 126 207.06C126 199 133.04 194.49 136.84 193.02C139.03 192.17 146.97 189.57 146.97 185.72L146.97 141.21C146.97 137.34 149.76 134.02 153.58 133.36L196.26 126.03C201.13 125.19 205.57 128.94 205.57 133.88Z" fill="#FFFFFF" fill-opacity="1.000000" fill-rule="evenodd"/>
		</g>
	</g>
</svg>
