<svg width="336.000000" height="336.000000" viewBox="0 0 336 336" fill="none" xmlns="http://www.w3.org/2000/svg" xmlns:xlink="http://www.w3.org/1999/xlink">
	<desc>
			Created with Pixso.
	</desc>
	<defs>
		<clipPath id="clip257_2485">
			<rect id="ic_light exe" width="336.000000" height="336.000000" fill="white" fill-opacity="0"/>
		</clipPath>
		<linearGradient x1="168.000320" y1="0.000000" x2="168.000320" y2="336.000000" id="paint_linear_257_2465_0" gradientUnits="userSpaceOnUse">
			<stop stop-color="#9FB1BD"/>
			<stop offset="1.000000" stop-color="#BFCAD3"/>
		</linearGradient>
	</defs>
	<g clip-path="url(#clip257_2485)">
		<rect id="矩形 540" x="18.666992" rx="23.566467" width="298.666656" height="336.000000" fill="url(#paint_linear_257_2465_0)" fill-opacity="1.000000"/>
		<path id="合并" d="M189 0.000488281L147 0.000488281L147 4.19971C147 8.83936 150.761 12.6006 155.4 12.6006L180.6 12.6006C185.239 12.6006 189 8.83936 189 4.19971L189 0.000488281ZM153.3 21.0005L182.7 21.0005C186.18 21.0005 189 23.821 189 27.3005C189 30.7798 186.18 33.6003 182.7 33.6003L153.3 33.6003C149.82 33.6003 147 30.7798 147 27.3005C147 23.821 149.82 21.0005 153.3 21.0005ZM182.7 42.0005L153.3 42.0005C149.82 42.0005 147 44.821 147 48.3005C147 51.7798 149.82 54.6003 153.3 54.6003L182.7 54.6003C186.18 54.6003 189 51.7798 189 48.3005C189 44.821 186.18 42.0005 182.7 42.0005ZM153.3 63.0002L182.7 63.0002C186.18 63.0002 189 65.821 189 69.3003C189 72.7798 186.18 75.6003 182.7 75.6003L153.3 75.6003C149.82 75.6003 147 72.7798 147 69.3003C147 65.821 149.82 63.0002 153.3 63.0002ZM184.8 84.001L151.2 84.001C148.881 84.001 147 85.8816 147 88.2014L147 130.201C147 132.52 148.881 134.401 151.2 134.401L184.8 134.401C187.119 134.401 189 132.52 189 130.201L189 88.2014C189 85.8816 187.119 84.001 184.8 84.001ZM157.5 109.199L178.5 109.199C179.66 109.199 180.6 110.139 180.6 111.299L180.6 123.899C180.6 125.059 179.66 125.999 178.5 125.999L157.5 125.999C156.34 125.999 155.4 125.059 155.4 123.899L155.4 111.299C155.4 110.139 156.34 109.199 157.5 109.199Z" clip-rule="evenodd" fill="#FFFFFF" fill-opacity="1.000000" fill-rule="evenodd"/>
		<g style="mix-blend-mode:normal">
			<path id="合并" d="M162.73 193.066L172.653 176.335C174.006 174.055 176.86 173.326 179.142 174.678C181.422 176.031 182.151 178.886 180.799 181.166L168.235 202.348L180.792 223.519C182.145 225.8 181.415 228.654 179.135 230.007C176.854 231.359 173.999 230.63 172.646 228.35L162.73 211.63L152.815 228.348C151.463 230.629 148.607 231.358 146.327 230.005C144.047 228.653 143.317 225.798 144.67 223.518L157.226 202.348L144.663 181.168C143.311 178.887 144.04 176.032 146.32 174.68C148.601 173.327 151.456 174.056 152.809 176.337L162.73 193.066ZM107.476 232.005L132.865 232.005C135.929 232.005 138.336 229.598 138.336 226.534C138.336 223.471 135.929 221.063 132.865 221.063L112.947 221.063L112.947 207.38L129.364 207.38C132.429 207.38 134.836 204.972 134.836 201.908C134.836 198.845 132.429 196.438 129.364 196.438L112.947 196.438L112.947 184.943L132.865 184.943C135.929 184.943 138.336 182.535 138.336 179.472C138.336 176.408 135.929 174 132.865 174L107.476 174Q106.343 174 105.376 174.401L105.376 174.401Q104.408 174.802 103.607 175.603Q102.806 176.404 102.405 177.371L102.405 177.371L102.405 177.371Q102.005 178.339 102.005 179.472L102.005 226.534Q102.005 227.667 102.405 228.635L102.405 228.635Q102.806 229.602 103.607 230.403C104.676 231.471 105.965 232.005 107.476 232.005ZM197.471 232.005L222.86 232.005C225.924 232.005 228.331 229.598 228.331 226.534C228.331 223.471 225.924 221.063 222.86 221.063L202.942 221.063L202.942 207.38L219.358 207.38C222.423 207.38 224.83 204.972 224.83 201.908C224.83 198.845 222.423 196.438 219.358 196.438L202.942 196.438L202.942 184.943L222.86 184.943C225.924 184.943 228.331 182.535 228.331 179.472C228.331 176.408 225.924 174 222.86 174L197.471 174Q196.338 174 195.371 174.401Q194.403 174.802 193.603 175.603Q192.801 176.404 192.4 177.371Q192 178.339 192 179.472L192 226.534C192 228.045 192.534 229.335 193.603 230.403C194.671 231.471 195.96 232.005 197.471 232.005Z" clip-rule="evenodd" fill="#FFFFFF" fill-opacity="1.000000" fill-rule="evenodd"/>
		</g>
	</g>
</svg>
