<svg width="336.000000" height="336.000000" viewBox="0 0 336 336" fill="none" xmlns="http://www.w3.org/2000/svg" xmlns:xlink="http://www.w3.org/1999/xlink">
	<desc>
			Created with Pixso.
	</desc>
	<defs>
		<clipPath id="clip257_2214">
			<rect id="ic_light pdf" width="336.000000" height="336.000000" fill="white" fill-opacity="0"/>
		</clipPath>
		<linearGradient x1="168.000320" y1="0.000854" x2="168.000320" y2="336.000854" id="paint_linear_257_2203_0" gradientUnits="userSpaceOnUse">
			<stop stop-color="#FF7957"/>
			<stop offset="1.000000" stop-color="#E94D35"/>
		</linearGradient>
		<linearGradient x1="271.255737" y1="45.869400" x2="222.071548" y2="92.658745" id="paint_linear_257_2204_0" gradientUnits="userSpaceOnUse">
			<stop offset="0.100487" stop-color="#EE452B"/>
			<stop offset="1.000000" stop-color="#FF8B6E"/>
		</linearGradient>
		<linearGradient x1="228.940750" y1="-4.295128" x2="257.823578" y2="97.461845" id="paint_linear_257_2207_0" gradientUnits="userSpaceOnUse">
			<stop stop-color="#FF705A"/>
			<stop offset="0.263153" stop-color="#FEB8A4"/>
			<stop offset="0.641081" stop-color="#FFBAAC"/>
			<stop offset="0.945777" stop-color="#FF8F77"/>
			<stop offset="1.000000" stop-color="#F76B50" stop-opacity="0.000000"/>
		</linearGradient>
	</defs>
	<g clip-path="url(#clip257_2214)">
		<path id="矩形备份 113" d="M42.24 0L211.71 0C217.52 0 223.1 2.29 227.23 6.38L310.79 89.13C314.98 93.27 317.33 98.91 317.33 104.8L317.33 312.42C317.33 325.44 306.77 336 293.75 336L42.24 336C29.22 336 18.66 325.44 18.66 312.42L18.66 23.58C18.66 10.55 29.22 0 42.24 0Z" fill="url(#paint_linear_257_2203_0)" fill-opacity="1.000000" fill-rule="evenodd"/>
		<g style="mix-blend-mode:normal">
			<path id="矩形 2" d="M220.41 64.1L220.41 35L220.22 17.5C220.17 11.89 217.88 6.54 213.88 2.62L211.2 0L215.01 0C219.88 0 224.53 1.96 227.92 5.45L232.2 9.85L244.72 22.29L269.78 47.15L294.83 72.02L310.2 87.27C314.75 91.78 317.3 97.91 317.3 104.31L317.3 105.36L314.71 102.77C310.71 98.77 305.28 96.52 299.62 96.52L281.94 96.52L252.83 96.52C234.93 96.52 220.41 82.01 220.41 64.1Z" fill="url(#paint_linear_257_2204_0)" fill-opacity="1.000000" fill-rule="evenodd"/>
		</g>
		<path id="减去顶层" d="M207.117 -0.000793457L207.113 -0.000793457L209.253 1.49738L213.297 4.38983Q214.985 5.5979 216.282 7.13654L216.282 7.13666C217.033 8.02765 217.686 9.00177 218.239 10.0591C218.892 11.3052 219.366 12.5914 219.663 13.9172C219.911 15.025 220.035 16.1606 220.035 17.324L220.193 49.9787L220.22 64.8415C220.22 67.8306 220.631 70.6964 221.453 73.439C221.972 75.1695 222.654 76.851 223.5 78.4833C223.706 78.8799 223.92 79.2715 224.143 79.6583C226.005 82.8948 228.464 85.788 231.52 88.3381C233.124 89.6775 234.818 90.8638 236.601 91.8968C238.194 92.8208 239.86 93.6223 241.597 94.3011Q246.815 96.3416 251.352 96.3416C252.383 96.3416 253.193 95.531 253.193 94.4993C253.193 93.4677 252.383 92.657 251.352 92.657C248.791 92.657 245.986 92.0612 242.938 90.8694C241.388 90.2634 239.9 89.5486 238.477 88.7251C236.863 87.7926 235.332 86.7206 233.88 85.5093C231.019 83.1205 228.751 80.4048 227.078 77.3622C226.369 75.9944 225.484 74.0115 225.039 72.5627C224.282 70.1053 223.904 67.5317 223.904 64.8415L223.878 49.9721L223.72 17.3062C223.72 15.8983 223.572 14.5228 223.276 13.1798L223.276 13.1794Q222.729 10.6903 221.503 8.35016C220.814 7.03387 220.001 5.82269 219.063 4.71686L219.063 4.71686Q217.486 2.85632 215.44 1.39301L214.492 0.714661C213.462 0.0982666 213.186 0.0129395 210.445 0.00109863L207.117 0.00109863L207.117 -0.000793457Z" clip-rule="evenodd" fill="url(#paint_linear_257_2207_0)" fill-opacity="1.000000" fill-rule="evenodd"/>
		<g style="mix-blend-mode:normal">
			<path id="合并" d="M176.546 177.103L201.205 219.813Q208.616 218.501 213.842 218.543C218.175 218.577 221.619 219.332 224.173 220.806C225.255 221.431 226.247 222.155 227.148 222.979C227.861 223.63 228.518 224.344 229.118 225.12C229.814 226.02 230.409 226.972 230.901 227.973C231.34 228.865 231.697 229.796 231.975 230.768C232.311 231.948 232.513 233.135 232.581 234.331C232.633 235.241 232.607 236.157 232.504 237.076C232.383 238.155 232.158 239.2 231.831 240.212C231.486 241.282 231.025 242.315 230.451 243.311C229.876 244.307 229.212 245.222 228.458 246.056C227.744 246.845 226.951 247.562 226.078 248.206C225.333 248.755 224.554 249.235 223.739 249.646C222.67 250.184 221.54 250.603 220.35 250.902C219.37 251.148 218.385 251.304 217.393 251.37C216.279 251.444 215.159 251.405 214.03 251.252C213.059 251.12 212.112 250.909 211.191 250.617L211.191 250.617Q209.445 250.063 207.822 249.126C205.268 247.651 202.892 245.045 200.694 241.307C198.988 238.405 197.307 234.704 195.65 230.203L145.706 230.203C144.049 234.704 142.367 238.406 140.661 241.307Q137.365 246.911 133.535 249.122C132.452 249.747 131.329 250.244 130.166 250.613C129.245 250.905 128.299 251.117 127.327 251.248C126.198 251.401 125.077 251.441 123.964 251.366C122.973 251.3 121.986 251.144 121.007 250.898Q119.222 250.45 117.618 249.642Q116.396 249.027 115.279 248.202C114.405 247.558 113.612 246.841 112.899 246.052L112.899 246.052Q111.769 244.801 110.906 243.307Q110.044 241.814 109.525 240.209C109.199 239.197 108.975 238.151 108.854 237.073C108.75 236.153 108.724 235.238 108.776 234.327C108.845 233.132 109.047 231.944 109.383 230.764C109.659 229.793 110.017 228.861 110.456 227.969L110.456 227.969Q111.194 226.467 112.239 225.116C112.839 224.34 113.496 223.627 114.209 222.975C115.11 222.152 116.103 221.428 117.185 220.803C119.739 219.328 123.185 218.573 127.521 218.539Q132.755 218.498 140.184 219.815L164.838 177.113Q160.086 171.439 157.543 166.951Q154.338 161.295 154.338 156.872C154.338 155.622 154.469 154.401 154.73 153.209C154.938 152.265 155.229 151.34 155.601 150.433C156.032 149.379 156.559 148.388 157.18 147.461Q158.009 146.223 159.063 145.134C159.917 144.253 160.845 143.484 161.846 142.828C162.608 142.327 163.414 141.892 164.262 141.522C165.257 141.088 166.274 140.759 167.314 140.536C168.413 140.3 169.538 140.182 170.688 140.182C171.838 140.182 172.962 140.3 174.062 140.536C175.102 140.759 176.119 141.088 177.113 141.522Q178.386 142.077 179.529 142.828L179.533 142.83Q181.032 143.814 182.312 145.134Q183.366 146.223 184.196 147.461L184.196 147.462L184.196 147.462Q185.128 148.852 185.775 150.433C186.147 151.34 186.438 152.265 186.645 153.209C186.907 154.401 187.038 155.622 187.038 156.872C187.038 159.822 185.969 163.183 183.83 166.955Q181.289 171.437 176.546 177.103ZM173.892 161.32C173.072 162.766 172.004 164.367 170.688 166.123Q168.712 163.487 167.482 161.318C166.839 160.183 166.37 159.181 166.075 158.311C165.866 157.696 165.763 157.216 165.763 156.872C165.763 156.372 165.825 155.888 165.95 155.421C166.01 155.199 166.083 154.98 166.172 154.766C166.325 154.391 166.516 154.042 166.743 153.719C166.9 153.495 167.075 153.284 167.268 153.085Q167.765 152.572 168.36 152.23C168.513 152.143 168.67 152.064 168.832 151.993C169.099 151.877 169.371 151.787 169.649 151.723C169.986 151.646 170.333 151.607 170.688 151.607Q171.221 151.607 171.727 151.723C172.005 151.787 172.277 151.877 172.544 151.993C172.705 152.064 172.862 152.143 173.015 152.23C173.412 152.458 173.776 152.743 174.107 153.085C174.301 153.284 174.476 153.495 174.633 153.718C174.86 154.042 175.051 154.391 175.204 154.766C175.292 154.98 175.366 155.199 175.426 155.421C175.551 155.888 175.613 156.372 175.613 156.872C175.613 157.216 175.509 157.696 175.3 158.312C175.005 159.182 174.535 160.185 173.892 161.32ZM170.695 189.818L153.975 218.778L187.415 218.778L170.695 189.818ZM127.61 229.964C129.271 229.951 131.192 230.075 133.372 230.337C132.508 232.357 131.655 234.083 130.812 235.516C130.151 236.64 129.518 237.547 128.913 238.237C128.484 238.726 128.12 239.056 127.822 239.228C127.39 239.478 126.939 239.666 126.473 239.791C126.25 239.85 126.023 239.896 125.794 239.927C125.393 239.981 124.995 239.991 124.602 239.955C124.329 239.931 124.059 239.885 123.79 239.818C123.328 239.702 122.899 239.529 122.503 239.299C122.352 239.211 122.204 239.114 122.062 239.009C121.828 238.837 121.614 238.646 121.42 238.437C121.185 238.183 120.978 237.902 120.8 237.595C120.623 237.287 120.483 236.968 120.381 236.637C120.297 236.365 120.239 236.084 120.206 235.795C120.187 235.619 120.177 235.444 120.176 235.268C120.175 234.81 120.24 234.352 120.37 233.894C120.446 233.628 120.541 233.371 120.656 233.123C120.822 232.765 121.029 232.425 121.277 232.104C121.419 231.921 121.572 231.748 121.734 231.585C122.076 231.243 122.464 230.947 122.896 230.697C123.195 230.525 123.663 230.375 124.301 230.248C125.202 230.069 126.305 229.974 127.61 229.964ZM207.985 230.34C208.849 232.359 209.701 234.084 210.543 235.516C211.204 236.642 211.838 237.55 212.443 238.24C212.873 238.729 213.236 239.06 213.534 239.232C213.968 239.482 214.418 239.669 214.885 239.794C215.107 239.854 215.333 239.899 215.563 239.93C215.965 239.985 216.362 239.994 216.756 239.959C217.028 239.935 217.299 239.889 217.566 239.821C218.028 239.705 218.458 239.532 218.854 239.302C219.006 239.214 219.152 239.118 219.295 239.013C219.528 238.84 219.743 238.649 219.938 238.44C220.173 238.187 220.379 237.906 220.557 237.598C220.734 237.291 220.874 236.972 220.976 236.641C221.06 236.368 221.118 236.087 221.15 235.798C221.17 235.623 221.181 235.447 221.181 235.272C221.182 234.814 221.117 234.356 220.986 233.898C220.911 233.631 220.815 233.374 220.7 233.126C220.534 232.768 220.327 232.429 220.08 232.108C219.938 231.924 219.785 231.751 219.622 231.588C219.281 231.247 218.894 230.951 218.46 230.7Q218.013 230.442 217.057 230.252Q215.707 229.983 213.75 229.967C212.088 229.954 210.166 230.078 207.985 230.34Z" clip-rule="evenodd" fill="#FFFFFF" fill-opacity="1.000000" fill-rule="evenodd"/>
		</g>
	</g>
</svg>
