<svg width="336.000000" height="336.000000" viewBox="0 0 336 336" fill="none" xmlns="http://www.w3.org/2000/svg" xmlns:xlink="http://www.w3.org/1999/xlink">
	<desc>
			Created with Pixso.
	</desc>
	<defs>
		<clipPath id="clip257_2360">
			<rect id="ic_light other app" width="336.000000" height="336.000000" fill="white" fill-opacity="0"/>
		</clipPath>
		<linearGradient x1="168.000320" y1="0.000854" x2="168.000320" y2="336.000854" id="paint_linear_257_2354_0" gradientUnits="userSpaceOnUse">
			<stop stop-color="#C0CBD4"/>
			<stop offset="1.000000" stop-color="#9EB0BC"/>
		</linearGradient>
		<linearGradient x1="271.255737" y1="45.869400" x2="222.071548" y2="92.658745" id="paint_linear_257_2355_0" gradientUnits="userSpaceOnUse">
			<stop offset="0.100487" stop-color="#97ABB8"/>
			<stop offset="1.000000" stop-color="#D7E2E9"/>
		</linearGradient>
		<linearGradient x1="228.940750" y1="-4.294567" x2="254.736908" y2="96.342178" id="paint_linear_257_2358_0" gradientUnits="userSpaceOnUse">
			<stop stop-color="#9EB0BC"/>
			<stop offset="0.332341" stop-color="#D2DDE4"/>
			<stop offset="0.685898" stop-color="#EDF7FE"/>
			<stop offset="0.879007" stop-color="#DBE5EB"/>
			<stop offset="1.000000" stop-color="#C1CFD8" stop-opacity="0.000000"/>
		</linearGradient>
	</defs>
	<g clip-path="url(#clip257_2360)">
		<path id="矩形备份 113" d="M42.24 0L211.71 0C217.52 0 223.1 2.29 227.23 6.38L310.79 89.13C314.98 93.27 317.33 98.91 317.33 104.8L317.33 312.42C317.33 325.44 306.77 336 293.75 336L42.24 336C29.22 336 18.66 325.44 18.66 312.42L18.66 23.58C18.66 10.55 29.22 0 42.24 0Z" fill="url(#paint_linear_257_2354_0)" fill-opacity="1.000000" fill-rule="evenodd"/>
		<g style="mix-blend-mode:normal">
			<path id="矩形 2" d="M220.41 64.1L220.41 35L220.22 17.5C220.17 11.89 217.88 6.54 213.88 2.62L211.2 0L215.01 0C219.88 0 224.53 1.96 227.92 5.45L232.2 9.85L244.72 22.29L269.78 47.15L294.83 72.02L310.2 87.27C314.75 91.78 317.3 97.91 317.3 104.31L317.3 105.36L314.71 102.77C310.71 98.77 305.28 96.52 299.62 96.52L281.94 96.52L252.83 96.52C234.93 96.52 220.41 82.01 220.41 64.1Z" fill="url(#paint_linear_257_2355_0)" fill-opacity="1.000000" fill-rule="evenodd"/>
		</g>
		<path id="减去顶层" d="M207.117 -0.000244141L207.113 -0.000244141L209.253 1.49792L213.297 4.39038Q214.985 5.59839 216.282 7.13708L216.282 7.13721C217.033 8.0282 217.686 9.00232 218.239 10.0596C218.892 11.3058 219.366 12.5919 219.663 13.9177C219.911 15.0256 220.035 16.1611 220.035 17.3246L220.193 49.9792L220.22 64.842C220.22 67.8312 220.631 70.697 221.453 73.4396C221.972 75.17 222.654 76.8514 223.5 78.4839C223.706 78.8804 223.92 79.2721 224.143 79.6589C226.005 82.8954 228.464 85.7886 231.52 88.3386C233.124 89.6781 234.818 90.8644 236.601 91.8973C238.194 92.8214 239.86 93.6228 241.597 94.3016Q246.815 96.3422 251.352 96.3422C252.383 96.3422 253.193 95.5316 253.193 94.4999C253.193 93.4683 252.383 92.6576 251.352 92.6576C248.791 92.6576 245.986 92.0618 242.938 90.87C241.388 90.264 239.9 89.5492 238.477 88.7256C236.864 87.7931 235.332 86.7212 233.881 85.5099C231.019 83.1211 228.751 80.4054 227.078 77.3628C226.369 75.9949 225.484 74.012 225.039 72.5632C224.282 70.106 223.904 67.5322 223.904 64.842L223.878 49.9727L223.72 17.3068C223.72 15.8988 223.572 14.5233 223.276 13.1804L223.276 13.1801Q222.729 10.6908 221.503 8.35071C220.814 7.03442 220.001 5.82324 219.063 4.71741L219.063 4.71741Q217.486 2.85693 215.44 1.39355L214.492 0.71521C213.438 0.0839844 213.173 0.00964355 210.243 0.000976562L207.117 0.000976562L207.117 -0.000244141Z" clip-rule="evenodd" fill="url(#paint_linear_257_2358_0)" fill-opacity="1.000000" fill-rule="evenodd"/>
	</g>
</svg>
