<svg width="336.000000" height="336.000000" viewBox="0 0 336 336" fill="none" xmlns="http://www.w3.org/2000/svg" xmlns:xlink="http://www.w3.org/1999/xlink">
	<desc>
			Created with Pixso.
	</desc>
	<defs>
		<clipPath id="clip257_2078">
			<rect id="ic_light wav" width="336.000000" height="336.000000" fill="white" fill-opacity="0"/>
		</clipPath>
		<linearGradient x1="168.000320" y1="0.000000" x2="168.000320" y2="336.000000" id="paint_linear_257_2705_0" gradientUnits="userSpaceOnUse">
			<stop stop-color="#FF6D81"/>
			<stop offset="1.000000" stop-color="#F03F64"/>
		</linearGradient>
		<linearGradient x1="271.255737" y1="45.868546" x2="222.071548" y2="92.657890" id="paint_linear_257_2706_0" gradientUnits="userSpaceOnUse">
			<stop offset="0.100487" stop-color="#EF4161"/>
			<stop offset="1.000000" stop-color="#FA7286"/>
		</linearGradient>
		<linearGradient x1="228.942688" y1="-4.292501" x2="260.030334" y2="99.144905" id="paint_linear_257_2707_0" gradientUnits="userSpaceOnUse">
			<stop stop-color="#F85A72"/>
			<stop offset="0.254966" stop-color="#FF9EA5"/>
			<stop offset="0.670781" stop-color="#FFB1BE"/>
			<stop offset="0.942386" stop-color="#F7637B"/>
			<stop offset="1.000000" stop-color="#F45973" stop-opacity="0.000000"/>
		</linearGradient>
	</defs>
	<g clip-path="url(#clip257_2078)">
		<path id="矩形备份 113" d="M42.24 0L211.71 0C217.52 0 223.1 2.29 227.23 6.38L310.79 89.13C314.98 93.27 317.33 98.91 317.33 104.8L317.33 312.41C317.33 325.44 306.77 336 293.75 336L42.24 336C29.22 336 18.66 325.44 18.66 312.41L18.66 23.58C18.66 10.55 29.22 0 42.24 0Z" fill="url(#paint_linear_257_2705_0)" fill-opacity="1.000000" fill-rule="evenodd"/>
		<g style="mix-blend-mode:normal">
			<path id="矩形 2" d="M220.41 64.1L220.41 35L220.22 17.5C220.17 11.89 217.88 6.54 213.88 2.62L211.2 0L215.01 0C219.88 0 224.53 1.96 227.92 5.45L232.2 9.85L244.72 22.28L269.78 47.15L294.83 72.02L310.2 87.27C314.75 91.78 317.3 97.91 317.3 104.31L317.3 105.36L314.71 102.77C310.71 98.77 305.28 96.52 299.62 96.52L281.94 96.52L252.83 96.52C234.93 96.52 220.41 82 220.41 64.1Z" fill="url(#paint_linear_257_2706_0)" fill-opacity="1.000000" fill-rule="evenodd"/>
		</g>
		<path id="减去顶层" d="M209.255 1.5L213.299 4.39246Q214.987 5.60046 216.284 7.13916L216.284 7.13928C217.035 8.03027 217.688 9.00439 218.241 10.0616C218.894 11.3079 219.368 12.594 219.665 13.9198C219.913 15.0277 220.037 16.1633 220.037 17.3267L220.195 49.9813L220.222 64.8441C220.222 67.8333 220.633 70.6991 221.455 73.4417C221.974 75.1721 222.656 76.8535 223.502 78.4858C223.708 78.8824 223.922 79.2742 224.145 79.661C226.007 82.8975 228.466 85.7906 231.521 88.3407C233.126 89.6802 234.82 90.8665 236.603 91.8994C238.196 92.8235 239.862 93.6249 241.599 94.3037Q246.817 96.3442 251.354 96.3442C252.385 96.3442 253.195 95.5337 253.195 94.502C253.195 93.4703 252.385 92.6597 251.354 92.6597C248.793 92.6597 245.988 92.0638 242.94 90.8721C241.39 90.2661 239.902 89.5513 238.479 88.7277C236.866 87.7952 235.334 86.7233 233.883 85.512C231.021 83.1232 228.753 80.4075 227.08 77.3649C226.371 75.9969 225.486 74.0142 225.041 72.5653C224.284 70.108 223.906 67.5343 223.906 64.8441L223.88 49.9747L223.722 17.3088C223.722 15.9009 223.574 14.5254 223.278 13.1825L223.278 13.1821Q222.73 10.6929 221.505 8.35278C220.816 7.0365 220.003 5.82532 219.065 4.71948L219.065 4.71948Q217.488 2.85901 215.442 1.39563L214.494 0.717285C213.299 0.00183105 213.118 0.00183105 208.923 0.00183105L207.115 0.00183105L209.255 1.5Z" clip-rule="evenodd" fill="url(#paint_linear_257_2707_0)" fill-opacity="1.000000" fill-rule="evenodd"/>
		<g style="mix-blend-mode:normal">
			<path id="合并" d="M158.668 272.627L172.449 236.349C172.805 235.414 173.439 234.741 174.352 234.331Q175.036 234.023 175.729 234.002L175.729 234.002L175.729 234.002Q176.423 233.982 177.124 234.249C177.618 234.436 178.051 234.718 178.421 235.095C178.791 235.471 179.066 235.908 179.246 236.405L192.349 272.683C193.038 274.592 192.08 276.633 190.172 277.323C188.263 278.012 186.222 277.054 185.532 275.145L182.414 266.514L168.744 266.514L165.443 275.201C164.723 277.098 162.666 278.023 160.769 277.302C158.872 276.581 157.947 274.524 158.668 272.627ZM120.722 260.41L115.146 237.142C114.672 235.168 112.749 233.989 110.775 234.462C108.801 234.935 107.621 236.858 108.095 238.832L116.616 274.39C116.85 275.364 117.394 276.112 118.246 276.635C119.1 277.159 120.014 277.304 120.987 277.07C121.595 276.925 122.129 276.641 122.59 276.219C123.051 275.797 123.381 275.29 123.579 274.697L132.028 249.495L140.303 274.677C140.615 275.628 141.218 276.329 142.111 276.781C143.005 277.232 143.928 277.302 144.879 276.989C145.472 276.794 145.98 276.468 146.405 276.01C146.829 275.552 147.116 275.02 147.267 274.414L156.048 238.856C156.534 236.885 155.368 234.955 153.397 234.468C151.427 233.981 149.495 235.147 149.009 237.118L143.252 260.427L135.507 236.855C135.328 236.312 135.037 235.837 134.634 235.431C134.23 235.026 133.757 234.732 133.215 234.55C132.266 234.232 131.343 234.296 130.446 234.742Q129.774 235.077 129.319 235.6Q128.863 236.123 128.625 236.835L120.722 260.41ZM197.932 234.603C199.827 233.874 201.889 234.79 202.617 236.685L212.904 263.442L223.191 236.685C223.92 234.79 225.981 233.874 227.876 234.603C229.771 235.331 230.688 237.392 229.959 239.287L216.288 274.845Q216.149 275.204 215.944 275.52Q215.739 275.835 215.468 276.107C215.104 276.47 214.684 276.744 214.205 276.928C213.271 277.287 212.346 277.263 211.432 276.856C210.517 276.45 209.88 275.779 209.521 274.845L195.85 239.287C195.121 237.392 196.037 235.331 197.932 234.603ZM175.752 248.067L179.797 259.266L171.497 259.266L175.752 248.067Z" clip-rule="evenodd" fill="#FFFFFF" fill-opacity="1.000000" fill-rule="evenodd"/>
		</g>
		<g style="mix-blend-mode:normal">
			<path id="Shape Copy备份 25" d="M205.57 133.88L205.57 195.15C205.57 203.11 199.76 209.4 192.01 210.35C184.26 211.3 178.35 206.25 178.35 199.94C178.35 192.13 184.01 188.71 188.85 186.71C193.7 184.71 197.2 180.9 197.2 177.16L197.2 148.72C197.2 146.6 195.27 145 193.18 145.39L158.1 152C156.5 152.3 155.34 153.7 155.34 155.32L155.34 200.98C155.34 208.9 147.72 217.21 140.8 218.6C133.88 219.99 126 215.13 126 207.06C126 199 133.04 194.5 136.84 193.02C139.03 192.17 146.97 189.57 146.97 185.72L146.97 141.21C146.97 137.34 149.76 134.02 153.58 133.36L196.26 126.03C201.13 125.19 205.57 128.94 205.57 133.88Z" fill="#FFFFFF" fill-opacity="1.000000" fill-rule="evenodd"/>
		</g>
	</g>
</svg>
