<svg width="336.000000" height="336.000000" viewBox="0 0 336 336" fill="none" xmlns="http://www.w3.org/2000/svg" xmlns:xlink="http://www.w3.org/1999/xlink">
	<desc>
			Created with Pixso.
	</desc>
	<defs>
		<clipPath id="clip257_2103">
			<rect id="ic_light amr" width="336.000000" height="336.000000" fill="white" fill-opacity="0"/>
		</clipPath>
		<linearGradient x1="168.000320" y1="0.000000" x2="168.000320" y2="336.000000" id="paint_linear_257_2720_0" gradientUnits="userSpaceOnUse">
			<stop stop-color="#FF6D81"/>
			<stop offset="1.000000" stop-color="#F03F64"/>
		</linearGradient>
		<linearGradient x1="271.255737" y1="45.868546" x2="222.071548" y2="92.657890" id="paint_linear_257_2721_0" gradientUnits="userSpaceOnUse">
			<stop offset="0.100487" stop-color="#EF4161"/>
			<stop offset="1.000000" stop-color="#FA7286"/>
		</linearGradient>
		<linearGradient x1="228.942688" y1="-4.292379" x2="260.030334" y2="99.145027" id="paint_linear_257_2722_0" gradientUnits="userSpaceOnUse">
			<stop stop-color="#F85A72"/>
			<stop offset="0.254966" stop-color="#FF9EA5"/>
			<stop offset="0.670781" stop-color="#FFB1BE"/>
			<stop offset="0.942386" stop-color="#F7637B"/>
			<stop offset="1.000000" stop-color="#F45973" stop-opacity="0.000000"/>
		</linearGradient>
	</defs>
	<g clip-path="url(#clip257_2103)">
		<path id="矩形备份 113" d="M42.24 0L211.71 0C217.52 0 223.1 2.29 227.23 6.38L310.79 89.13C314.98 93.27 317.33 98.91 317.33 104.8L317.33 312.41C317.33 325.44 306.77 336 293.75 336L42.24 336C29.22 336 18.66 325.44 18.66 312.41L18.66 23.58C18.66 10.55 29.22 0 42.24 0Z" fill="url(#paint_linear_257_2720_0)" fill-opacity="1.000000" fill-rule="evenodd"/>
		<g style="mix-blend-mode:normal">
			<path id="矩形 2" d="M220.41 64.1L220.41 35L220.22 17.5C220.17 11.89 217.88 6.54 213.88 2.62L211.2 0L215.01 0C219.88 0 224.53 1.96 227.92 5.45L232.2 9.85L244.72 22.28L269.78 47.15L294.83 72.02L310.2 87.27C314.75 91.78 317.3 97.91 317.3 104.31L317.3 105.36L314.71 102.77C310.71 98.77 305.28 96.52 299.62 96.52L281.94 96.52L252.83 96.52C234.93 96.52 220.41 82 220.41 64.1Z" fill="url(#paint_linear_257_2721_0)" fill-opacity="1.000000" fill-rule="evenodd"/>
		</g>
		<path id="减去顶层" d="M209.255 1.5L213.299 4.39258Q214.987 5.60059 216.284 7.1394L216.284 7.1394C217.035 8.03052 217.688 9.00464 218.241 10.0618C218.894 11.3081 219.368 12.5942 219.665 13.9199C219.913 15.0278 220.037 16.1633 220.037 17.3269L220.195 49.9814L220.222 64.8442C220.222 67.8333 220.633 70.6992 221.455 73.4419C221.974 75.1724 222.656 76.8538 223.502 78.4861C223.708 78.8826 223.922 79.2744 224.145 79.6611C226.007 82.8975 228.466 85.7908 231.521 88.3408C233.126 89.6802 234.82 90.8665 236.603 91.8997C238.196 92.8235 239.862 93.625 241.599 94.304Q246.817 96.3445 251.354 96.3445C252.385 96.3445 253.195 95.5337 253.195 94.5022C253.195 93.4705 252.385 92.6599 251.354 92.6599C248.793 92.6599 245.988 92.064 242.94 90.8723C241.39 90.2661 239.902 89.5515 238.479 88.7278C236.866 87.7954 235.334 86.7234 233.883 85.512C231.021 83.1233 228.753 80.4077 227.08 77.365C226.371 75.9971 225.486 74.0142 225.041 72.5654C224.284 70.1082 223.906 67.5344 223.906 64.8442L223.88 49.9749L223.722 17.3091C223.722 15.9009 223.574 14.5254 223.278 13.1826L223.278 13.1821Q222.73 10.6931 221.505 8.35303C220.816 7.03662 220.003 5.82544 219.065 4.71973L219.065 4.71973Q217.488 2.85913 215.442 1.39575L214.494 0.717285C213.299 0.00195312 213.118 0.00195312 208.923 0.00195312L207.115 0.00195312L209.255 1.5Z" clip-rule="evenodd" fill="url(#paint_linear_257_2722_0)" fill-opacity="1.000000" fill-rule="evenodd"/>
		<g style="mix-blend-mode:normal">
			<path id="合并" d="M200.091 237.632L200.091 274.848C200.091 276.881 201.688 278.479 203.722 278.479C205.755 278.479 207.353 276.881 207.353 274.848L207.353 262.864L224.188 277.581C225.72 278.919 227.974 278.768 229.312 277.237C230.65 275.706 230.499 273.451 228.968 272.113L215.625 260.449C219.58 260.403 222.736 259.47 225.092 257.65C225.781 257.118 226.388 256.52 226.913 255.857C227.46 255.167 227.917 254.405 228.285 253.573C228.983 251.995 229.333 250.212 229.333 248.224C229.333 246.446 228.907 244.34 228.362 242.749Q227.683 240.95 226.585 239.459C226.252 239.007 225.89 238.576 225.499 238.166Q224.684 237.311 223.744 236.626C222.897 236.009 221.598 235.345 220.601 234.934C218.956 234.312 217.193 234.001 215.312 234.001L203.722 234.001C202.719 234.001 201.863 234.355 201.154 235.064C200.445 235.773 200.091 236.629 200.091 237.632ZM108.252 273.458L122.124 237.12C122.481 236.183 123.118 235.51 124.033 235.1Q124.72 234.793 125.414 234.774L125.414 234.774L125.414 234.774Q126.108 234.754 126.812 235.022C127.304 235.21 127.735 235.492 128.104 235.868C128.475 236.244 128.749 236.68 128.93 237.176L142.118 273.514C142.812 275.426 141.855 277.473 139.944 278.167C138.032 278.86 135.985 277.904 135.292 275.992L132.151 267.339L118.361 267.339L115.036 276.048C114.312 277.948 112.249 278.871 110.35 278.146C108.449 277.42 107.526 275.358 108.252 273.458ZM186.368 247.867L186.368 273.85C186.368 275.883 187.966 277.481 189.999 277.481C192.032 277.481 193.63 275.883 193.63 273.85L193.63 239.243C193.63 238.24 193.275 237.384 192.566 236.675Q192.035 236.144 191.394 235.878L191.393 235.877Q190.751 235.612 189.999 235.612L186.053 235.612C185.322 235.612 184.652 235.814 184.043 236.219C183.435 236.623 182.988 237.162 182.705 237.836L171.577 264.32L160.894 237.882C160.616 237.196 160.171 236.646 159.557 236.232C158.943 235.819 158.267 235.612 157.526 235.612L153.45 235.612C152.451 235.612 151.598 235.964 150.889 236.668C150.181 237.373 149.824 238.225 149.818 239.224L149.635 273.83C149.624 275.864 151.213 277.47 153.246 277.481C155.28 277.491 156.886 275.902 156.896 273.869L157.036 247.72L168.146 275.21C168.326 275.659 168.587 276.055 168.927 276.4C169.267 276.744 169.659 277.01 170.105 277.197C171.029 277.586 171.956 277.59 172.885 277.211C173.812 276.832 174.471 276.181 174.859 275.256L186.368 247.867ZM215.312 253.189L207.353 253.189L207.353 241.263L215.312 241.263Q217.632 241.263 219.238 242.333L219.238 242.333C219.601 242.574 220.111 243.048 220.42 243.371L220.42 243.371L220.42 243.371Q221.149 244.207 221.568 245.314C221.903 246.202 222.07 247.171 222.07 248.224Q222.07 249.672 221.645 250.634C221.524 250.906 221.375 251.152 221.194 251.375C221.037 251.57 220.855 251.746 220.652 251.903C219.542 252.76 217.763 253.189 215.312 253.189ZM125.431 248.821L129.516 260.076L121.134 260.076L125.431 248.821Z" clip-rule="evenodd" fill="#FFFFFF" fill-opacity="1.000000" fill-rule="evenodd"/>
		</g>
		<g style="mix-blend-mode:normal">
			<path id="Shape Copy备份 27" d="M205.57 133.88L205.57 195.15C205.57 203.11 199.76 209.4 192.01 210.35C184.26 211.3 178.35 206.25 178.35 199.94C178.35 192.13 184.01 188.71 188.85 186.71C193.7 184.71 197.2 180.9 197.2 177.16L197.2 148.72C197.2 146.6 195.27 145 193.18 145.39L158.1 152C156.5 152.3 155.34 153.7 155.34 155.32L155.34 200.98C155.34 208.9 147.72 217.21 140.8 218.6C133.88 219.99 126 215.13 126 207.06C126 199 133.04 194.5 136.84 193.02C139.03 192.17 146.97 189.57 146.97 185.72L146.97 141.21C146.97 137.34 149.76 134.02 153.58 133.36L196.26 126.03C201.13 125.19 205.57 128.94 205.57 133.88Z" fill="#FFFFFF" fill-opacity="1.000000" fill-rule="evenodd"/>
		</g>
	</g>
</svg>
