<svg width="336.000000" height="336.000000" viewBox="0 0 336 336" fill="none" xmlns="http://www.w3.org/2000/svg" xmlns:xlink="http://www.w3.org/1999/xlink">
	<desc>
			Created with Pixso.
	</desc>
	<defs>
		<clipPath id="clip257_2540">
			<rect id="ic_light eddx" width="336.000000" height="336.000000" fill="white" fill-opacity="0"/>
		</clipPath>
		<linearGradient x1="168.000320" y1="0.000000" x2="168.000320" y2="336.000000" id="paint_linear_257_2684_0" gradientUnits="userSpaceOnUse">
			<stop stop-color="#55BFF2"/>
			<stop offset="1.000000" stop-color="#3898F7"/>
		</linearGradient>
		<linearGradient x1="271.255737" y1="45.869156" x2="222.071548" y2="92.658501" id="paint_linear_257_2685_0" gradientUnits="userSpaceOnUse">
			<stop offset="0.100487" stop-color="#4799ED"/>
			<stop offset="1.000000" stop-color="#77CDFB"/>
		</linearGradient>
		<linearGradient x1="228.940750" y1="-4.293480" x2="257.823578" y2="97.463493" id="paint_linear_257_2686_0" gradientUnits="userSpaceOnUse">
			<stop stop-color="#36BCF8"/>
			<stop offset="0.265149" stop-color="#A5DAFF"/>
			<stop offset="0.715692" stop-color="#CDEBFF"/>
			<stop offset="0.924672" stop-color="#80C9FF"/>
			<stop offset="1.000000" stop-color="#64B8F5" stop-opacity="0.000000"/>
		</linearGradient>
	</defs>
	<g clip-path="url(#clip257_2540)">
		<path id="矩形备份 113" d="M42.24 0L211.71 0C217.52 0 223.1 2.29 227.23 6.38L310.79 89.13C314.98 93.27 317.33 98.91 317.33 104.8L317.33 312.41C317.33 325.44 306.77 336 293.75 336L42.24 336C29.22 336 18.66 325.44 18.66 312.41L18.66 23.58C18.66 10.55 29.22 0 42.24 0Z" fill="url(#paint_linear_257_2684_0)" fill-opacity="1.000000" fill-rule="evenodd"/>
		<g style="mix-blend-mode:normal">
			<path id="矩形 2" d="M220.41 64.1L220.41 35L220.22 17.5C220.17 11.89 217.88 6.54 213.88 2.62L211.2 0L215.01 0C219.88 0 224.53 1.96 227.92 5.45L232.2 9.85L244.72 22.29L269.78 47.15L294.83 72.02L310.2 87.27C314.75 91.78 317.3 97.91 317.3 104.31L317.3 105.36L314.71 102.77C310.71 98.77 305.28 96.52 299.62 96.52L281.94 96.52L252.83 96.52C234.93 96.52 220.41 82.01 220.41 64.1Z" fill="url(#paint_linear_257_2685_0)" fill-opacity="1.000000" fill-rule="evenodd"/>
		</g>
		<path id="减去顶层" d="M209.253 1.49902L213.297 4.39148Q214.985 5.59949 216.282 7.13818L216.282 7.13831C217.033 8.0293 217.686 9.00342 218.239 10.0607C218.892 11.3069 219.366 12.593 219.663 13.9188C219.911 15.0267 220.035 16.1624 220.035 17.3257L220.193 49.9803L220.22 64.8431C220.22 67.8323 220.631 70.6981 221.453 73.4407C221.972 75.1711 222.654 76.8525 223.5 78.4849C223.706 78.8815 223.92 79.2732 224.143 79.66C226.005 82.8965 228.464 85.7897 231.52 88.3397C233.124 89.6792 234.818 90.8655 236.601 91.8984C238.194 92.8225 239.86 93.6239 241.597 94.3027Q246.815 96.3433 251.352 96.3433C252.383 96.3433 253.193 95.5327 253.193 94.501C253.193 93.4694 252.383 92.6587 251.352 92.6587C248.791 92.6587 245.986 92.0629 242.938 90.8711C241.388 90.2651 239.9 89.5503 238.477 88.7267C236.864 87.7942 235.332 86.7223 233.881 85.511C231.019 83.1222 228.751 80.4065 227.078 77.3639C226.369 75.996 225.484 74.0132 225.039 72.5643C224.282 70.1071 223.904 67.5333 223.904 64.8431L223.878 49.9738L223.72 17.3079C223.72 15.8999 223.572 14.5244 223.276 13.1815L223.276 13.1812Q222.729 10.6919 221.503 8.35181C220.814 7.03552 220.001 5.82434 219.063 4.71851L219.063 4.71851Q217.486 2.85803 215.44 1.39465L214.492 0.716309C213.297 0.000854492 213.116 0.000854492 208.921 0.000854492L207.113 0.000854492L209.253 1.49902Z" clip-rule="evenodd" fill="url(#paint_linear_257_2686_0)" fill-opacity="1.000000" fill-rule="evenodd"/>
		<g style="mix-blend-mode:normal">
			<path id="合并" d="M250.669 222.362L240.747 205.633L230.824 222.364C229.471 224.645 226.615 225.374 224.334 224.021C222.053 222.668 221.324 219.813 222.677 217.532L235.24 196.349L222.678 175.167C221.325 172.886 222.054 170.031 224.335 168.678C226.616 167.325 229.472 168.054 230.825 170.335L240.747 187.064L250.668 170.337C252.021 168.055 254.876 167.326 257.157 168.679C259.438 170.032 260.168 172.887 258.815 175.169L246.254 196.349L258.816 217.53C260.169 219.812 259.439 222.667 257.158 224.02C254.877 225.373 252.021 224.644 250.669 222.362ZM146.845 168.674L146.845 168.674C148.556 169.052 150.231 169.588 151.872 170.282C153.521 170.979 155.079 171.812 156.548 172.781Q158.984 174.389 161.092 176.497Q163.199 178.604 164.808 181.041C165.776 182.509 166.609 184.068 167.307 185.716C168.001 187.357 168.536 189.033 168.914 190.743C169.364 192.782 169.589 194.871 169.589 197.01C169.589 199.148 169.364 201.237 168.914 203.276C168.536 204.987 168.001 206.662 167.307 208.303C166.609 209.952 165.776 211.51 164.808 212.979C163.735 214.603 162.497 216.118 161.092 217.523C159.688 218.928 158.173 220.166 156.548 221.238C155.079 222.207 153.521 223.041 151.872 223.738C150.231 224.432 148.556 224.968 146.845 225.345C144.806 225.795 142.717 226.02 140.579 226.02L132.527 226.02C131.057 226.02 129.801 225.5 128.76 224.459C127.72 223.419 127.199 222.163 127.199 220.691L127.199 173.328Q127.199 172.224 127.59 171.283Q127.979 170.341 128.76 169.56C129.801 168.52 131.057 168 132.527 168L140.579 168Q143.786 168 146.845 168.674ZM195.444 168.674C193.405 168.225 191.316 168 189.179 168L181.127 168C179.656 168 178.4 168.52 177.359 169.56C176.319 170.601 175.799 171.857 175.799 173.328L175.799 220.691C175.799 222.163 176.319 223.419 177.359 224.459C178.4 225.5 179.656 226.02 181.127 226.02L189.179 226.02C191.316 226.02 193.405 225.795 195.444 225.345C197.155 224.968 198.831 224.432 200.472 223.738C202.12 223.041 203.679 222.207 205.147 221.238C206.772 220.166 208.287 218.928 209.691 217.523C211.097 216.118 212.335 214.603 213.407 212.979C214.376 211.51 215.209 209.952 215.906 208.303C216.601 206.662 217.136 204.987 217.514 203.276C217.964 201.237 218.188 199.148 218.188 197.01C218.188 194.871 217.964 192.782 217.514 190.743C217.136 189.033 216.601 187.357 215.906 185.716C215.209 184.068 214.376 182.509 213.407 181.041Q211.799 178.604 209.691 176.497Q207.584 174.389 205.147 172.781C203.679 171.812 202.12 170.979 200.472 170.282C198.831 169.588 197.155 169.052 195.444 168.674ZM114.863 226.005L89.4736 226.005C87.9629 226.005 86.6738 225.471 85.6055 224.402Q84.8047 223.601 84.4033 222.634L84.4033 222.634L84.4033 222.634Q84.0029 221.667 84.0029 220.534L84.0029 173.471Q84.0029 172.338 84.4033 171.371L84.4033 171.371L84.4033 171.371L84.4033 171.371L84.4033 171.371Q84.8037 170.403 85.6055 169.602Q86.4062 168.801 87.374 168.4L87.374 168.4L87.374 168.4Q88.3408 168 89.4736 168L114.863 168C117.927 168 120.334 170.407 120.334 173.471C120.334 176.535 117.927 178.942 114.863 178.942L94.9453 178.942L94.9453 190.438L111.361 190.438C114.426 190.438 116.833 192.845 116.833 195.908C116.833 198.972 114.426 201.38 111.361 201.38L94.9453 201.38L94.9453 215.063L114.863 215.063C117.927 215.063 120.334 217.47 120.334 220.534C120.334 223.597 117.927 226.005 114.863 226.005ZM140.579 178.656L137.856 178.656L137.856 215.363L140.579 215.363C141.997 215.363 143.38 215.207 144.726 214.896C145.745 214.661 146.743 214.336 147.721 213.923C148.731 213.496 149.688 212.987 150.593 212.397C151.653 211.706 152.642 210.902 153.557 209.987C154.472 209.072 155.274 208.084 155.967 207.024C156.556 206.12 157.064 205.162 157.492 204.152C157.905 203.174 158.23 202.176 158.466 201.157C158.776 199.81 158.932 198.428 158.932 197.01C158.932 195.591 158.776 194.209 158.466 192.862C158.229 191.844 157.905 190.845 157.492 189.867C157.064 188.857 156.557 187.9 155.967 186.996C155.274 185.935 154.472 184.947 153.557 184.032C152.642 183.117 151.653 182.314 150.593 181.622C149.688 181.032 148.731 180.524 147.721 180.097C146.743 179.683 145.745 179.358 144.726 179.123Q142.706 178.656 140.579 178.656ZM186.456 178.656L189.179 178.656C190.597 178.656 191.979 178.812 193.325 179.123C194.345 179.358 195.343 179.683 196.32 180.097C197.331 180.524 198.288 181.032 199.192 181.622C200.253 182.314 201.241 183.117 202.156 184.032C203.071 184.947 203.874 185.935 204.566 186.996C205.156 187.9 205.664 188.857 206.092 189.867C206.505 190.845 206.829 191.844 207.065 192.862C207.376 194.209 207.531 195.591 207.531 197.01C207.531 198.428 207.376 199.81 207.065 201.157C206.83 202.176 206.505 203.174 206.092 204.152C205.664 205.162 205.155 206.12 204.566 207.024C203.874 208.084 203.071 209.072 202.156 209.987C201.241 210.902 200.253 211.706 199.192 212.397C198.288 212.987 197.331 213.496 196.32 213.923C195.343 214.336 194.345 214.661 193.325 214.896C191.979 215.207 190.597 215.363 189.179 215.363L186.456 215.363L186.456 178.656Z" clip-rule="evenodd" fill="#FFFFFF" fill-opacity="1.000000" fill-rule="evenodd"/>
		</g>
	</g>
</svg>
