<svg width="336.000000" height="336.000000" viewBox="0 0 336 336" fill="none" xmlns="http://www.w3.org/2000/svg" xmlns:xlink="http://www.w3.org/1999/xlink">
	<desc>
			Created with Pixso.
	</desc>
	<defs>
		<clipPath id="clip257_2190">
			<rect id="ic_light connect" width="336.000000" height="336.000000" fill="white" fill-opacity="0"/>
		</clipPath>
		<linearGradient x1="168.000320" y1="0.369141" x2="168.000320" y2="336.369141" id="paint_linear_257_2751_0" gradientUnits="userSpaceOnUse">
			<stop stop-color="#71DF66"/>
			<stop offset="1.000000" stop-color="#4EBA45"/>
		</linearGradient>
		<linearGradient x1="271.255737" y1="45.868546" x2="222.071548" y2="92.657890" id="paint_linear_257_2752_0" gradientUnits="userSpaceOnUse">
			<stop offset="0.100487" stop-color="#41B837"/>
			<stop offset="1.000000" stop-color="#68DE5C"/>
		</linearGradient>
		<linearGradient x1="228.940735" y1="-4.293614" x2="267.965668" y2="99.143791" id="paint_linear_257_2753_0" gradientUnits="userSpaceOnUse">
			<stop stop-color="#65D75C"/>
			<stop offset="0.263916" stop-color="#81EC77"/>
			<stop offset="0.651073" stop-color="#B2FFAA"/>
			<stop offset="0.832627" stop-color="#94EB8A"/>
			<stop offset="0.933527" stop-color="#59CF4E" stop-opacity="0.615686"/>
		</linearGradient>
	</defs>
	<g clip-path="url(#clip257_2190)">
		<path id="矩形备份 113" d="M42.24 0.36L211.71 0.36C217.52 0.36 223.1 2.66 227.23 6.75L310.79 89.5C314.98 93.64 317.33 99.28 317.33 105.17L317.33 312.78C317.33 325.81 306.77 336.36 293.75 336.36L42.24 336.36C29.22 336.36 18.66 325.81 18.66 312.78L18.66 23.95C18.66 10.92 29.22 0.36 42.24 0.36Z" fill="url(#paint_linear_257_2751_0)" fill-opacity="1.000000" fill-rule="evenodd"/>
		<g style="mix-blend-mode:normal">
			<path id="矩形 2" d="M220.41 64.1L220.41 35L220.22 17.5C220.17 11.89 217.88 6.54 213.88 2.62L211.2 0L215.01 0C219.88 0 224.53 1.96 227.92 5.45L232.2 9.85L244.72 22.28L269.78 47.15L294.83 72.02L310.2 87.27C314.75 91.78 317.3 97.91 317.3 104.31L317.3 105.36L314.71 102.77C310.71 98.77 305.28 96.52 299.62 96.52L281.94 96.52L252.83 96.52C234.93 96.52 220.41 82 220.41 64.1Z" fill="url(#paint_linear_257_2752_0)" fill-opacity="1.000000" fill-rule="evenodd"/>
		</g>
		<path id="减去顶层" d="M209.253 1.49878L213.297 4.39136Q214.985 5.59937 216.282 7.13818L216.282 7.13818C217.033 8.0293 217.686 9.00342 218.239 10.0605C218.892 11.3069 219.366 12.593 219.663 13.9187C219.911 15.0266 220.035 16.1621 220.035 17.3257L220.193 49.9802L220.22 64.843C220.22 67.832 220.631 70.698 221.453 73.4407C221.972 75.1711 222.654 76.8525 223.5 78.4849C223.706 78.8813 223.92 79.2732 224.143 79.6599C226.005 82.8962 228.464 85.7896 231.52 88.3396C233.124 89.679 234.818 90.8652 236.601 91.8984C238.194 92.8223 239.86 93.6238 241.597 94.3027Q246.815 96.3433 251.352 96.3433C252.383 96.3433 253.193 95.5325 253.193 94.501C253.193 93.4692 252.383 92.6587 251.352 92.6587C248.791 92.6587 245.986 92.0627 242.938 90.8711C241.388 90.2649 239.9 89.5503 238.477 88.7266C236.864 87.7942 235.332 86.7222 233.881 85.5107C231.019 83.1221 228.751 80.4065 227.078 77.3638C226.369 75.9958 225.484 74.0129 225.039 72.5642C224.282 70.1069 223.904 67.5332 223.904 64.843L223.878 49.9736L223.72 17.3079C223.72 15.8997 223.572 14.5242 223.276 13.1814L223.276 13.1809Q222.729 10.6919 221.503 8.35181C220.814 7.0354 220.001 5.82422 219.063 4.71851L219.063 4.71851Q217.486 2.85791 215.44 1.39453L214.492 0.716064C213.297 0.000732422 213.116 0.000732422 208.921 0.000732422L207.113 0.000732422L209.253 1.49878Z" clip-rule="evenodd" fill="url(#paint_linear_257_2753_0)" fill-opacity="1.000000" fill-rule="evenodd"/>
		<g style="mix-blend-mode:normal">
			<path id="椭圆形" d="M140.385 164.25C140.385 149.752 152.329 138 167.062 138C181.796 138 193.739 149.752 193.739 164.25C193.739 178.748 181.796 190.5 167.062 190.5C152.329 190.5 140.385 178.748 140.385 164.25ZM116.824 225.193C120.483 217.875 129.993 196.026 167.049 196.026C204.104 196.026 213.776 217.875 217.273 225.193C218.791 228.368 219.581 233.179 219.989 237.61C220.546 243.661 215.551 248.526 209.475 248.526L124.514 248.526C118.481 248.526 113.503 243.727 114.032 237.718C114.424 233.258 115.224 228.394 116.824 225.193Z" clip-rule="evenodd" fill="#FFFFFF" fill-opacity="1.000000" fill-rule="evenodd"/>
		</g>
	</g>
</svg>
