<svg width="336.000000" height="336.000000" viewBox="0 0 336 336" fill="none" xmlns="http://www.w3.org/2000/svg" xmlns:xlink="http://www.w3.org/1999/xlink">
	<desc>
			Created with Pixso.
	</desc>
	<defs>
		<clipPath id="clip257_2090">
			<rect id="ic_light wma" width="336.000000" height="336.000000" fill="white" fill-opacity="0"/>
		</clipPath>
		<linearGradient x1="168.000320" y1="0.000000" x2="168.000320" y2="336.000000" id="paint_linear_257_2710_0" gradientUnits="userSpaceOnUse">
			<stop stop-color="#FF6D81"/>
			<stop offset="1.000000" stop-color="#F03F64"/>
		</linearGradient>
		<linearGradient x1="271.255737" y1="45.868546" x2="222.071548" y2="92.657890" id="paint_linear_257_2711_0" gradientUnits="userSpaceOnUse">
			<stop offset="0.100487" stop-color="#EF4161"/>
			<stop offset="1.000000" stop-color="#FA7286"/>
		</linearGradient>
		<linearGradient x1="228.942688" y1="-4.292379" x2="260.030334" y2="99.145027" id="paint_linear_257_2712_0" gradientUnits="userSpaceOnUse">
			<stop stop-color="#F85A72"/>
			<stop offset="0.254966" stop-color="#FF9EA5"/>
			<stop offset="0.670781" stop-color="#FFB1BE"/>
			<stop offset="0.942386" stop-color="#F7637B"/>
			<stop offset="1.000000" stop-color="#F45973" stop-opacity="0.000000"/>
		</linearGradient>
	</defs>
	<g clip-path="url(#clip257_2090)">
		<path id="矩形备份 113" d="M42.24 0L211.71 0C217.52 0 223.1 2.29 227.23 6.38L310.79 89.13C314.98 93.27 317.33 98.91 317.33 104.8L317.33 312.41C317.33 325.44 306.77 336 293.75 336L42.24 336C29.22 336 18.66 325.44 18.66 312.41L18.66 23.58C18.66 10.55 29.22 0 42.24 0Z" fill="url(#paint_linear_257_2710_0)" fill-opacity="1.000000" fill-rule="evenodd"/>
		<g style="mix-blend-mode:normal">
			<path id="矩形 2" d="M220.41 64.1L220.41 35L220.22 17.5C220.17 11.89 217.88 6.54 213.88 2.62L211.2 0L215.01 0C219.88 0 224.53 1.96 227.92 5.45L232.2 9.85L244.72 22.28L269.78 47.15L294.83 72.02L310.2 87.27C314.75 91.78 317.3 97.91 317.3 104.31L317.3 105.36L314.71 102.77C310.71 98.77 305.28 96.52 299.62 96.52L281.94 96.52L252.83 96.52C234.93 96.52 220.41 82 220.41 64.1Z" fill="url(#paint_linear_257_2711_0)" fill-opacity="1.000000" fill-rule="evenodd"/>
		</g>
		<path id="减去顶层" d="M209.255 1.5L213.299 4.39258Q214.987 5.60059 216.284 7.1394L216.284 7.1394C217.035 8.03052 217.688 9.00464 218.241 10.0618C218.894 11.3081 219.368 12.5942 219.665 13.9199C219.913 15.0278 220.037 16.1633 220.037 17.3269L220.195 49.9814L220.222 64.8442C220.222 67.8333 220.633 70.6992 221.455 73.4419C221.974 75.1724 222.656 76.8538 223.502 78.4861C223.708 78.8826 223.922 79.2744 224.145 79.6611C226.007 82.8975 228.466 85.7908 231.521 88.3408C233.126 89.6802 234.82 90.8665 236.603 91.8997C238.196 92.8235 239.862 93.625 241.599 94.304Q246.817 96.3445 251.354 96.3445C252.385 96.3445 253.195 95.5337 253.195 94.5022C253.195 93.4705 252.385 92.6599 251.354 92.6599C248.793 92.6599 245.988 92.064 242.94 90.8723C241.39 90.2661 239.902 89.5515 238.479 88.7278C236.866 87.7954 235.334 86.7234 233.883 85.512C231.021 83.1233 228.753 80.4077 227.08 77.365C226.371 75.9971 225.486 74.0142 225.041 72.5654C224.284 70.1082 223.906 67.5344 223.906 64.8442L223.88 49.9749L223.722 17.3091C223.722 15.9009 223.574 14.5254 223.278 13.1826L223.278 13.1821Q222.73 10.6931 221.505 8.35303C220.816 7.03662 220.003 5.82544 219.065 4.71973L219.065 4.71973Q217.488 2.85913 215.442 1.39575L214.494 0.717285C213.299 0.00195312 213.118 0.00195312 208.923 0.00195312L207.115 0.00195312L209.255 1.5Z" clip-rule="evenodd" fill="url(#paint_linear_257_2712_0)" fill-opacity="1.000000" fill-rule="evenodd"/>
		<g style="mix-blend-mode:normal">
			<path id="合并" d="M197.238 273.838L211.191 236.371C211.541 235.433 212.171 234.756 213.081 234.339Q213.764 234.027 214.457 234.002Q215.15 233.977 215.854 234.239C216.357 234.426 216.797 234.711 217.173 235.094Q217.455 235.38 217.664 235.713L217.664 235.714L217.664 235.714Q217.872 236.047 218.007 236.426L231.272 273.893C231.95 275.806 230.979 277.843 229.065 278.52C227.151 279.198 225.115 278.227 224.438 276.313L221.26 267.338L207.396 267.338L204.033 276.368C203.325 278.271 201.273 279.209 199.371 278.5C197.469 277.792 196.53 275.74 197.238 273.838ZM210.097 260.088L218.692 260.088L214.503 248.255L210.097 260.088ZM184.689 247.207L184.689 274.169C184.689 276.199 186.285 277.794 188.315 277.794C190.346 277.794 191.94 276.199 191.94 274.169L191.94 238.488C191.94 237.487 191.587 236.633 190.879 235.925C190.171 235.217 189.316 234.863 188.315 234.863L184.346 234.863C183.61 234.863 182.938 235.068 182.326 235.478C181.716 235.887 181.271 236.433 180.991 237.113L169.785 264.451L159.025 237.159C158.752 236.466 158.308 235.91 157.692 235.491C157.077 235.073 156.397 234.863 155.652 234.863L151.552 234.863C150.555 234.863 149.702 235.215 148.995 235.918C148.288 236.622 147.932 237.472 147.927 238.469L147.742 274.15C147.731 276.181 149.318 277.784 151.349 277.794C153.378 277.805 154.981 276.218 154.992 274.188L155.133 247.054L166.348 275.499C166.528 275.958 166.792 276.364 167.139 276.715C167.486 277.067 167.888 277.336 168.345 277.524C169.271 277.903 170.196 277.9 171.119 277.513C172.043 277.127 172.694 276.47 173.074 275.544L184.689 247.207ZM108.551 260.952L103.169 237.982C102.706 236.005 100.789 234.816 98.8125 235.279C96.8359 235.742 95.6465 237.659 96.1094 239.635L104.439 275.193C104.668 276.168 105.208 276.919 106.059 277.447C106.909 277.975 107.821 278.124 108.796 277.896C109.412 277.752 109.953 277.466 110.42 277.038C110.886 276.611 111.218 276.096 111.414 275.495L119.587 250.556L127.592 275.475Q127.821 276.19 128.27 276.719Q128.719 277.248 129.387 277.591C130.276 278.048 131.198 278.124 132.151 277.818C132.753 277.625 133.27 277.296 133.699 276.833C134.13 276.37 134.419 275.831 134.567 275.217L143.15 239.659C143.627 237.686 142.451 235.761 140.478 235.285C138.504 234.808 136.579 235.984 136.103 237.958L130.548 260.97L123.073 237.7C122.896 237.147 122.602 236.665 122.192 236.253C121.783 235.841 121.303 235.544 120.75 235.364C119.799 235.052 118.877 235.122 117.983 235.574Q117.313 235.914 116.862 236.44Q116.41 236.966 116.177 237.68L108.551 260.952Z" clip-rule="evenodd" fill="#FFFFFF" fill-opacity="1.000000" fill-rule="evenodd"/>
		</g>
		<g style="mix-blend-mode:normal">
			<path id="Shape Copy备份 26" d="M205.57 133.88L205.57 195.15C205.57 203.11 199.76 209.4 192.01 210.35C184.26 211.3 178.35 206.25 178.35 199.94C178.35 192.13 184.01 188.71 188.85 186.71C193.7 184.71 197.2 180.9 197.2 177.16L197.2 148.72C197.2 146.6 195.27 145 193.18 145.39L158.1 152C156.5 152.3 155.34 153.7 155.34 155.32L155.34 200.98C155.34 208.9 147.72 217.21 140.8 218.6C133.88 219.99 126 215.13 126 207.06C126 199 133.04 194.5 136.84 193.02C139.03 192.17 146.97 189.57 146.97 185.72L146.97 141.21C146.97 137.34 149.76 134.02 153.58 133.36L196.26 126.03C201.13 125.19 205.57 128.94 205.57 133.88Z" fill="#FFFFFF" fill-opacity="1.000000" fill-rule="evenodd"/>
		</g>
	</g>
</svg>
