<svg width="336.000000" height="336.000000" viewBox="0 0 336 336" fill="none" xmlns="http://www.w3.org/2000/svg" xmlns:xlink="http://www.w3.org/1999/xlink">
	<desc>
			Created with Pixso.
	</desc>
	<defs>
		<clipPath id="clip257_2496">
			<rect id="ic_light dwg" width="336.000000" height="336.000000" fill="white" fill-opacity="0"/>
		</clipPath>
		<linearGradient x1="168.000320" y1="0.000854" x2="168.000320" y2="336.000854" id="paint_linear_257_2672_0" gradientUnits="userSpaceOnUse">
			<stop stop-color="#FF7957"/>
			<stop offset="1.000000" stop-color="#E94D35"/>
		</linearGradient>
		<linearGradient x1="271.255737" y1="45.869400" x2="222.071548" y2="92.658745" id="paint_linear_257_2673_0" gradientUnits="userSpaceOnUse">
			<stop offset="0.100487" stop-color="#EE452B"/>
			<stop offset="1.000000" stop-color="#FF8B6E"/>
		</linearGradient>
		<linearGradient x1="228.940750" y1="-4.294823" x2="257.823578" y2="97.462151" id="paint_linear_257_2674_0" gradientUnits="userSpaceOnUse">
			<stop stop-color="#FF705A"/>
			<stop offset="0.263153" stop-color="#FEB8A4"/>
			<stop offset="0.641081" stop-color="#FFBAAC"/>
			<stop offset="0.945777" stop-color="#FF8F77"/>
			<stop offset="1.000000" stop-color="#F76B50" stop-opacity="0.000000"/>
		</linearGradient>
	</defs>
	<g clip-path="url(#clip257_2496)">
		<path id="矩形备份 113" d="M42.24 0L211.71 0C217.52 0 223.1 2.29 227.23 6.38L310.79 89.13C314.98 93.27 317.33 98.91 317.33 104.8L317.33 312.42C317.33 325.44 306.77 336 293.75 336L42.24 336C29.22 336 18.66 325.44 18.66 312.42L18.66 23.58C18.66 10.55 29.22 0 42.24 0Z" fill="url(#paint_linear_257_2672_0)" fill-opacity="1.000000" fill-rule="evenodd"/>
		<g style="mix-blend-mode:normal">
			<path id="矩形 2" d="M220.41 64.1L220.41 35L220.22 17.5C220.17 11.89 217.88 6.54 213.88 2.62L211.2 0L215.01 0C219.88 0 224.53 1.96 227.92 5.45L232.2 9.85L244.72 22.29L269.78 47.15L294.83 72.02L310.2 87.27C314.75 91.78 317.3 97.91 317.3 104.31L317.3 105.36L314.71 102.77C310.71 98.77 305.28 96.52 299.62 96.52L281.94 96.52L252.83 96.52C234.93 96.52 220.41 82.01 220.41 64.1Z" fill="url(#paint_linear_257_2673_0)" fill-opacity="1.000000" fill-rule="evenodd"/>
		</g>
		<path id="减去顶层" d="M207.117 -0.000366211L207.113 -0.000366211L209.253 1.4978L213.297 4.39026Q214.985 5.59839 216.282 7.13708L216.282 7.13721C217.033 8.0282 217.686 9.00232 218.239 10.0596C218.892 11.3058 219.366 12.5919 219.663 13.9177C219.911 15.0255 220.035 16.1611 220.035 17.3245L220.193 49.9791L220.22 64.8419C220.22 67.8311 220.631 70.6969 221.453 73.4395C221.972 75.17 222.654 76.8514 223.5 78.4838C223.706 78.8804 223.92 79.2721 224.143 79.6588C226.005 82.8953 228.464 85.7886 231.52 88.3386C233.124 89.678 234.818 90.8643 236.601 91.8973C238.194 92.8213 239.86 93.6227 241.597 94.3016Q246.815 96.3422 251.352 96.3422C252.383 96.3422 253.193 95.5315 253.193 94.4999C253.193 93.4681 252.383 92.6576 251.352 92.6576C248.791 92.6576 245.986 92.0616 242.938 90.87C241.388 90.2639 239.9 89.5491 238.477 88.7256C236.863 87.7931 235.332 86.7212 233.88 85.5098C231.019 83.1211 228.751 80.4054 227.078 77.3627C226.369 75.9949 225.484 74.012 225.039 72.5631C224.282 70.1058 223.904 67.5321 223.904 64.8419L223.878 49.9727L223.72 17.3068C223.72 15.8987 223.572 14.5232 223.276 13.1803L223.276 13.1799Q222.729 10.6908 221.503 8.35059C220.814 7.03442 220.001 5.82324 219.063 4.71741L219.063 4.71741Q217.486 2.85681 215.44 1.39355L214.492 0.715088C213.446 0.0893555 213.177 0.0109863 210.319 0.00109863L207.117 0.00109863L207.117 -0.000366211Z" clip-rule="evenodd" fill="url(#paint_linear_257_2674_0)" fill-opacity="1.000000" fill-rule="evenodd"/>
		<g style="mix-blend-mode:normal">
			<path id="合并" d="M245.258 192.316L235.79 192.316C232.952 192.316 230.722 194.546 230.722 197.383C230.722 200.221 232.952 202.451 235.79 202.451L240.777 202.451C240.756 202.7 240.732 202.96 240.707 203.232C240.507 205.308 239.957 206.922 239.057 208.071C238.219 209.141 237.27 210.055 236.208 210.812C235.715 211.164 235.198 211.481 234.656 211.765C233.031 212.618 231.419 213.045 229.819 213.045C229.059 213.045 228.313 212.969 227.585 212.819C226.694 212.635 225.826 212.339 224.981 211.931C223.519 211.179 221.948 209.994 220.796 208.637C219.485 207.095 218.467 205.269 217.739 203.158C216.94 200.843 216.541 198.32 216.541 195.59Q216.541 191.466 217.716 187.993C218.431 185.88 219.433 184.057 220.723 182.526C221.818 181.225 223.062 180.205 224.456 179.465C225.107 179.152 226.194 178.692 226.881 178.511C227.827 178.26 228.807 178.135 229.819 178.135C231.119 178.135 232.238 178.248 233.178 178.475C233.936 178.658 234.615 178.928 235.217 179.285C235.79 179.625 236.376 180.094 236.976 180.692C237.552 181.268 238.246 182.073 239.057 183.108C240.806 185.343 243.936 185.724 246.171 183.975C248.405 182.225 248.786 179.095 247.037 176.86Q245.438 174.819 244.134 173.518C242.937 172.323 241.688 171.34 240.39 170.569C238.917 169.697 237.295 169.042 235.555 168.623C233.835 168.208 231.923 168 229.819 168C228.036 168 226.306 168.208 224.626 168.623C223.208 168.974 221.826 169.473 220.481 170.12C219.712 170.49 218.969 170.902 218.252 171.355C216.296 172.592 214.535 174.139 212.971 175.997C210.938 178.46 209.21 181.509 208.115 184.746Q206.406 189.799 206.406 195.59C206.406 199.452 206.99 203.076 208.157 206.462C209.229 209.569 210.736 212.324 212.68 214.726C212.809 214.885 212.939 215.043 213.072 215.2C214.69 217.104 216.51 218.683 218.532 219.936C219.19 220.344 219.87 220.717 220.57 221.056C222.111 221.801 223.695 222.35 225.321 222.703C226.786 223.021 228.285 223.18 229.819 223.18C230.479 223.18 231.137 223.146 231.79 223.08C234.368 222.817 236.894 222.037 239.366 220.74C240.547 220.12 241.66 219.412 242.705 218.615C244.309 217.392 245.752 215.96 247.037 214.319C249.12 211.628 250.409 208.208 250.795 204.203C250.988 202.195 251.062 200.552 251.015 199.272Q250.955 197.641 250.608 196.495C250.353 195.649 249.964 194.914 249.442 194.289C249.161 193.952 248.849 193.655 248.507 193.399C248.277 193.228 248.035 193.074 247.778 192.939C247.385 192.732 246.979 192.576 246.56 192.472C246.139 192.368 245.704 192.316 245.258 192.316ZM102.72 168.001Q105.771 168.001 108.682 168.643L108.682 168.643Q111.123 169.182 113.464 170.172Q115.816 171.167 117.912 172.55Q120.23 174.08 122.235 176.085Q124.24 178.09 125.771 180.408C126.692 181.805 127.485 183.288 128.148 184.856C128.809 186.417 129.318 188.012 129.678 189.639C130.105 191.579 130.319 193.567 130.319 195.601C130.319 197.635 130.105 199.623 129.678 201.563C129.318 203.19 128.809 204.785 128.148 206.346Q127.153 208.698 125.771 210.794C124.75 212.339 123.572 213.781 122.235 215.117Q120.23 217.122 117.912 218.652C116.516 219.574 115.032 220.367 113.464 221.03C111.903 221.69 110.309 222.2 108.681 222.559C106.741 222.987 104.754 223.201 102.72 223.201L95.0596 223.201C93.6602 223.201 92.4648 222.706 91.4746 221.716C90.4854 220.726 89.9902 219.531 89.9902 218.132L89.9902 173.07Q89.9902 172.021 90.3613 171.124L90.3613 171.124Q90.7324 170.228 91.4746 169.486Q92.2178 168.743 93.1133 168.372Q94.0098 168.001 95.0596 168.001L102.72 168.001ZM147.225 171.621L154.16 201.226L163.989 171.232C164.391 170.006 165.167 169.101 166.318 168.519C167.47 167.936 168.658 167.845 169.884 168.247Q170.417 168.422 170.882 168.708Q171.347 168.995 171.742 169.393Q172.139 169.791 172.422 170.257Q172.706 170.724 172.878 171.258L182.511 201.249L189.671 171.591C190.284 169.047 192.766 167.531 195.309 168.145C197.853 168.759 199.368 171.24 198.754 173.783L187.691 219.612C187.5 220.403 187.128 221.098 186.573 221.695C186.019 222.292 185.354 222.715 184.578 222.964C183.35 223.358 182.162 223.261 181.015 222.671C179.866 222.082 179.096 221.172 178.701 219.944L168.385 187.827L157.852 219.97C157.598 220.745 157.17 221.408 156.569 221.959C155.969 222.51 155.271 222.878 154.478 223.064C153.221 223.359 152.045 223.166 150.948 222.486C149.852 221.805 149.156 220.837 148.862 219.581L138.126 173.753C137.529 171.205 139.062 168.735 141.609 168.138C144.157 167.541 146.628 169.074 147.225 171.621ZM102.72 178.14L100.129 178.14L100.129 213.062L102.72 213.062C104.069 213.062 105.384 212.914 106.665 212.618C107.635 212.394 108.584 212.086 109.515 211.692C110.476 211.286 111.387 210.802 112.247 210.241L112.248 210.24Q113.761 209.253 115.066 207.948C115.937 207.077 116.701 206.137 117.359 205.128C117.92 204.268 118.404 203.357 118.811 202.396C119.204 201.466 119.513 200.516 119.736 199.547C120.032 198.266 120.181 196.95 120.181 195.601C120.181 194.252 120.032 192.936 119.736 191.655C119.513 190.686 119.204 189.736 118.811 188.806C118.404 187.845 117.92 186.934 117.359 186.074L117.359 186.073L117.359 186.073Q116.372 184.56 115.066 183.254C114.196 182.384 113.256 181.619 112.247 180.961C111.387 180.4 110.476 179.916 109.515 179.51C108.584 179.116 107.635 178.808 106.665 178.584L106.664 178.583Q104.743 178.14 102.72 178.14Z" clip-rule="evenodd" fill="#FFFFFF" fill-opacity="1.000000" fill-rule="evenodd"/>
		</g>
	</g>
</svg>
