<svg width="336.000000" height="336.000000" viewBox="0 0 336 336" fill="none" xmlns="http://www.w3.org/2000/svg" xmlns:xlink="http://www.w3.org/1999/xlink">
	<desc>
			Created with Pixso.
	</desc>
	<defs>
		<clipPath id="clip257_2129">
			<rect id="ic_light flac" width="336.000000" height="336.000000" fill="white" fill-opacity="0"/>
		</clipPath>
		<linearGradient x1="168.000320" y1="0.000000" x2="168.000320" y2="336.000000" id="paint_linear_257_2695_0" gradientUnits="userSpaceOnUse">
			<stop stop-color="#FF6D81"/>
			<stop offset="1.000000" stop-color="#F03F64"/>
		</linearGradient>
		<linearGradient x1="271.255737" y1="45.868546" x2="222.071548" y2="92.657890" id="paint_linear_257_2696_0" gradientUnits="userSpaceOnUse">
			<stop offset="0.100487" stop-color="#EF4161"/>
			<stop offset="1.000000" stop-color="#FA7286"/>
		</linearGradient>
		<linearGradient x1="228.942688" y1="-4.292379" x2="260.030334" y2="99.145027" id="paint_linear_257_2697_0" gradientUnits="userSpaceOnUse">
			<stop stop-color="#F85A72"/>
			<stop offset="0.254966" stop-color="#FF9EA5"/>
			<stop offset="0.670781" stop-color="#FFB1BE"/>
			<stop offset="0.942386" stop-color="#F7637B"/>
			<stop offset="1.000000" stop-color="#F45973" stop-opacity="0.000000"/>
		</linearGradient>
	</defs>
	<g clip-path="url(#clip257_2129)">
		<path id="矩形备份 113" d="M42.24 0L211.71 0C217.52 0 223.1 2.29 227.23 6.38L310.79 89.13C314.98 93.27 317.33 98.91 317.33 104.8L317.33 312.41C317.33 325.44 306.77 336 293.75 336L42.24 336C29.22 336 18.66 325.44 18.66 312.41L18.66 23.58C18.66 10.55 29.22 0 42.24 0Z" fill="url(#paint_linear_257_2695_0)" fill-opacity="1.000000" fill-rule="evenodd"/>
		<g style="mix-blend-mode:normal">
			<path id="矩形 2" d="M220.41 64.1L220.41 35L220.22 17.5C220.17 11.89 217.88 6.54 213.88 2.62L211.2 0L215.01 0C219.88 0 224.53 1.96 227.92 5.45L232.2 9.85L244.72 22.28L269.78 47.15L294.83 72.02L310.2 87.27C314.75 91.78 317.3 97.91 317.3 104.31L317.3 105.36L314.71 102.77C310.71 98.77 305.28 96.52 299.62 96.52L281.94 96.52L252.83 96.52C234.93 96.52 220.41 82 220.41 64.1Z" fill="url(#paint_linear_257_2696_0)" fill-opacity="1.000000" fill-rule="evenodd"/>
		</g>
		<path id="减去顶层" d="M209.255 1.50012L213.299 4.39258Q214.987 5.60059 216.284 7.13928L216.284 7.1394C217.035 8.0304 217.688 9.00452 218.241 10.0618C218.894 11.308 219.368 12.5941 219.665 13.9199C219.913 15.0278 220.037 16.1633 220.037 17.3268L220.195 49.9814L220.222 64.8442C220.222 67.8334 220.633 70.6992 221.455 73.4418C221.974 75.1722 222.656 76.8536 223.502 78.4861C223.708 78.8826 223.922 79.2743 224.145 79.6611C226.007 82.8976 228.466 85.7908 231.521 88.3408C233.126 89.6803 234.82 90.8666 236.603 91.8995C238.196 92.8236 239.862 93.625 241.599 94.3038Q246.817 96.3444 251.354 96.3444C252.385 96.3444 253.195 95.5338 253.195 94.5021C253.195 93.4705 252.385 92.6598 251.354 92.6598C248.793 92.6598 245.988 92.064 242.94 90.8722C241.39 90.2662 239.902 89.5514 238.479 88.7278C236.866 87.7953 235.334 86.7234 233.883 85.5121C231.021 83.1233 228.753 80.4076 227.08 77.365C226.371 75.9971 225.486 74.0142 225.041 72.5654C224.284 70.1082 223.906 67.5344 223.906 64.8442L223.88 49.9749L223.722 17.309C223.722 15.901 223.574 14.5255 223.278 13.1826L223.278 13.1823Q222.73 10.693 221.505 8.35291C220.816 7.03662 220.003 5.82544 219.065 4.7196L219.065 4.7196Q217.488 2.85913 215.442 1.39575L214.494 0.717407C213.299 0.00195312 213.118 0.00195312 208.923 0.00195312L207.115 0.00195312L209.255 1.50012Z" clip-rule="evenodd" fill="url(#paint_linear_257_2697_0)" fill-opacity="1.000000" fill-rule="evenodd"/>
		<path id="合并" d="M141.526 237.631L141.526 269.39L157.166 269.39C159.199 269.39 160.797 270.988 160.797 273.021C160.797 275.054 159.199 276.652 157.166 276.652L137.896 276.652C136.893 276.652 136.037 276.297 135.327 275.589C134.618 274.88 134.264 274.024 134.264 273.021L134.264 237.631C134.264 235.598 135.861 234 137.896 234C139.929 234 141.526 235.598 141.526 237.631ZM102.004 273.354L102.004 237.632Q102.004 236.88 102.27 236.238L102.27 236.238Q102.536 235.596 103.067 235.064Q103.6 234.532 104.241 234.266L104.241 234.266Q104.883 234.001 105.635 234.001L125.918 234.001C127.951 234.001 129.549 235.598 129.549 237.632C129.549 239.665 127.951 241.263 125.918 241.263L109.267 241.263L109.267 252.349L122.096 252.349C124.129 252.349 125.727 253.946 125.727 255.98C125.727 258.013 124.129 259.611 122.096 259.611L109.267 259.611L109.267 273.354C109.267 275.387 107.668 276.985 105.635 276.985C103.602 276.985 102.004 275.387 102.004 273.354ZM225.723 247.951C225.764 248.271 225.786 248.507 225.79 248.659C225.842 250.692 227.48 252.248 229.513 252.197C231.546 252.145 233.103 250.507 233.051 248.474C233.04 248.073 232.998 247.589 232.926 247.022C232.785 245.939 232.562 244.885 232.254 243.862Q231.581 241.625 230.446 239.859C229.595 238.533 228.574 237.443 227.385 236.589L227.385 236.589L227.37 236.579L227.37 236.578L227.369 236.578L227.367 236.577Q227.024 236.331 226.662 236.112C226.042 235.802 225.146 235.391 224.496 235.165C223.103 234.681 221.641 234.391 220.112 234.295Q217.504 234.13 214.773 234.727C214.003 234.896 213.246 235.105 212.502 235.354C212.015 235.517 211.533 235.698 211.058 235.896C210.426 236.159 209.903 236.406 209.491 236.637C209.19 236.839 208.606 237.254 208.219 237.591Q207.166 238.505 206.231 239.647C205.341 240.736 204.593 241.894 203.989 243.123C203.256 244.616 202.733 246.213 202.423 247.914C201.926 250.636 201.705 253.746 201.762 257.245Q201.788 258.865 201.893 260.418C201.945 261.203 201.99 261.706 202.026 261.927C202.076 262.301 202.138 262.647 202.246 263.194C202.459 264.269 202.722 265.313 203.035 266.324C204.122 269.833 205.645 272.408 207.604 274.05C210.128 276.267 213.619 277.483 218.077 277.696Q220.025 277.789 222.031 277.613C222.72 277.553 223.295 277.483 223.756 277.403C223.838 277.383 224.167 277.308 224.247 277.282C224.712 277.133 225.234 276.905 225.815 276.599C226.218 276.386 226.608 276.154 226.985 275.903C227.615 275.483 228.21 275.01 228.77 274.483C229.403 273.885 229.97 273.238 230.468 272.542C230.958 271.856 231.383 271.122 231.74 270.34C232.614 268.43 233.052 266.317 233.052 264C233.052 261.966 231.454 260.369 229.42 260.369C227.387 260.369 225.789 261.966 225.789 264Q225.789 266.592 224.564 268.31L224.563 268.311C224.337 268.629 224.078 268.925 223.788 269.198C223.469 269.5 223.125 269.763 222.758 269.987C222.674 270.031 222.259 270.261 222.183 270.297C221.966 270.324 221.704 270.352 221.398 270.379C220.388 270.467 219.396 270.488 218.424 270.442C217.124 270.38 215.971 270.2 214.963 269.903C213.874 269.583 213.013 269.141 212.378 268.577C211.961 268.233 211.453 267.597 211.046 266.833C210.648 266.088 210.29 265.202 209.973 264.176C209.734 263.407 209.533 262.609 209.37 261.784C209.297 261.416 209.246 261.124 209.216 260.909C209.194 260.67 209.157 260.213 209.139 259.932C209.077 259.02 209.039 258.085 209.023 257.127C208.975 254.106 209.155 251.47 209.566 249.219Q209.864 247.59 210.586 246.178L210.587 246.176C210.935 245.495 211.355 244.852 211.852 244.247C212.213 243.804 212.589 243.414 212.979 243.075C213.139 242.997 213.58 242.712 213.847 242.601C214.122 242.486 214.4 242.38 214.683 242.283C215.219 242.098 215.767 241.944 216.325 241.822Q219.643 241.096 222.312 242.097L222.312 242.097C222.55 242.186 222.783 242.285 223.014 242.395C224.023 243.058 224.785 244.244 225.3 245.954C225.493 246.596 225.634 247.262 225.723 247.951ZM163.717 273.444L177.361 237.064C177.713 236.125 178.346 235.449 179.259 235.034C180.172 234.619 181.098 234.588 182.036 234.94C182.537 235.127 182.975 235.412 183.35 235.793C183.725 236.174 184.002 236.616 184.181 237.12L197.154 273.5C197.837 275.415 196.869 277.456 194.954 278.139C193.038 278.822 190.997 277.854 190.314 275.939L187.23 267.292L173.78 267.292L170.516 275.994C169.802 277.898 167.745 278.833 165.841 278.119C163.938 277.405 163.002 275.348 163.717 273.444ZM176.504 260.029L184.641 260.029L180.675 248.909L176.504 260.029Z" clip-rule="evenodd" fill="#FFFFFF" fill-opacity="1.000000" fill-rule="evenodd"/>
		<path id="Shape Copy备份 23" d="M205.57 133.88L205.57 195.15C205.57 203.11 199.76 209.4 192.01 210.35C184.26 211.3 178.35 206.25 178.35 199.94C178.35 192.13 184.01 188.71 188.85 186.71C193.7 184.71 197.2 180.9 197.2 177.16L197.2 148.72C197.2 146.6 195.27 145 193.18 145.39L158.1 152C156.5 152.3 155.34 153.7 155.34 155.32L155.34 200.98C155.34 208.9 147.72 217.21 140.8 218.6C133.88 219.99 126 215.13 126 207.06C126 199 133.04 194.5 136.84 193.02C139.03 192.17 146.97 189.57 146.97 185.72L146.97 141.21C146.97 137.34 149.76 134.02 153.58 133.36L196.26 126.03C201.13 125.19 205.57 128.94 205.57 133.88Z" fill="#FFFFFF" fill-opacity="1.000000" fill-rule="evenodd"/>
	</g>
</svg>
