<svg width="336.000000" height="336.000000" viewBox="0 0 336 336" fill="none" xmlns="http://www.w3.org/2000/svg" xmlns:xlink="http://www.w3.org/1999/xlink">
	<desc>
			Created with Pixso.
	</desc>
	<defs>
		<clipPath id="clip257_2066">
			<rect id="ic_light mp3" width="336.000000" height="336.000000" fill="white" fill-opacity="0"/>
		</clipPath>
		<linearGradient x1="168.000320" y1="0.000000" x2="168.000320" y2="336.000000" id="paint_linear_257_2700_0" gradientUnits="userSpaceOnUse">
			<stop stop-color="#FF6D81"/>
			<stop offset="1.000000" stop-color="#F03F64"/>
		</linearGradient>
		<linearGradient x1="271.255737" y1="45.868546" x2="222.071548" y2="92.657890" id="paint_linear_257_2701_0" gradientUnits="userSpaceOnUse">
			<stop offset="0.100487" stop-color="#EF4161"/>
			<stop offset="1.000000" stop-color="#FA7286"/>
		</linearGradient>
		<linearGradient x1="228.942688" y1="-4.292501" x2="260.030334" y2="99.144905" id="paint_linear_257_2702_0" gradientUnits="userSpaceOnUse">
			<stop stop-color="#F85A72"/>
			<stop offset="0.254966" stop-color="#FF9EA5"/>
			<stop offset="0.670781" stop-color="#FFB1BE"/>
			<stop offset="0.942386" stop-color="#F7637B"/>
			<stop offset="1.000000" stop-color="#F45973" stop-opacity="0.000000"/>
		</linearGradient>
	</defs>
	<g clip-path="url(#clip257_2066)">
		<path id="矩形备份 113" d="M42.24 0L211.71 0C217.52 0 223.1 2.29 227.23 6.38L310.79 89.13C314.98 93.27 317.33 98.91 317.33 104.8L317.33 312.41C317.33 325.44 306.77 336 293.75 336L42.24 336C29.22 336 18.66 325.44 18.66 312.41L18.66 23.58C18.66 10.55 29.22 0 42.24 0Z" fill="url(#paint_linear_257_2700_0)" fill-opacity="1.000000" fill-rule="evenodd"/>
		<g style="mix-blend-mode:normal">
			<path id="矩形 2" d="M220.41 64.1L220.41 35L220.22 17.5C220.17 11.89 217.88 6.54 213.88 2.62L211.2 0L215.01 0C219.88 0 224.53 1.96 227.92 5.45L232.2 9.85L244.72 22.28L269.78 47.15L294.83 72.02L310.2 87.27C314.75 91.78 317.3 97.91 317.3 104.31L317.3 105.36L314.71 102.77C310.71 98.77 305.28 96.52 299.62 96.52L281.94 96.52L252.83 96.52C234.93 96.52 220.41 82 220.41 64.1Z" fill="url(#paint_linear_257_2701_0)" fill-opacity="1.000000" fill-rule="evenodd"/>
		</g>
		<path id="减去顶层" d="M209.255 1.5L213.299 4.39246Q214.987 5.60046 216.284 7.13916L216.284 7.13928C217.035 8.03027 217.688 9.00439 218.241 10.0616C218.894 11.3079 219.368 12.594 219.665 13.9198C219.913 15.0277 220.037 16.1633 220.037 17.3267L220.195 49.9813L220.222 64.8441C220.222 67.8333 220.633 70.6991 221.455 73.4417C221.974 75.1721 222.656 76.8535 223.502 78.4858C223.708 78.8824 223.922 79.2742 224.145 79.661C226.007 82.8975 228.466 85.7906 231.521 88.3407C233.126 89.6802 234.82 90.8665 236.603 91.8994C238.196 92.8235 239.862 93.6249 241.599 94.3037Q246.817 96.3442 251.354 96.3442C252.385 96.3442 253.195 95.5337 253.195 94.502C253.195 93.4703 252.385 92.6597 251.354 92.6597C248.793 92.6597 245.988 92.0638 242.94 90.8721C241.39 90.2661 239.902 89.5513 238.479 88.7277C236.866 87.7952 235.334 86.7233 233.883 85.512C231.021 83.1232 228.753 80.4075 227.08 77.3649C226.371 75.9969 225.486 74.0142 225.041 72.5653C224.284 70.108 223.906 67.5343 223.906 64.8441L223.88 49.9747L223.722 17.3088C223.722 15.9009 223.574 14.5254 223.278 13.1825L223.278 13.1821Q222.73 10.6929 221.505 8.35278C220.816 7.0365 220.003 5.82532 219.065 4.71948L219.065 4.71948Q217.488 2.85901 215.442 1.39563L214.494 0.717285C213.299 0.00183105 213.118 0.00183105 208.923 0.00183105L207.115 0.00183105L209.255 1.5Z" clip-rule="evenodd" fill="url(#paint_linear_257_2702_0)" fill-opacity="1.000000" fill-rule="evenodd"/>
		<g style="mix-blend-mode:normal">
			<path id="合并" d="M162.259 237.626L162.259 274.001C162.259 276.031 163.854 277.626 165.884 277.626C167.914 277.626 169.509 276.031 169.509 274.001L169.509 262.493L176.763 262.493C177.832 262.493 178.875 262.381 179.894 262.156C180.723 261.973 181.534 261.715 182.33 261.384C183.19 261.025 184.002 260.591 184.764 260.084C185.52 259.581 186.228 259.004 186.886 258.355C187.612 257.639 188.249 256.864 188.796 256.03C189.248 255.342 189.639 254.613 189.969 253.844Q190.504 252.597 190.787 251.295L190.787 251.295L190.787 251.295C190.999 250.32 191.104 249.323 191.104 248.302C191.104 247.339 191.011 246.396 190.822 245.471C190.634 244.546 190.351 243.64 189.973 242.753C189.64 241.969 189.243 241.225 188.783 240.522Q187.974 239.283 186.904 238.213C186.198 237.507 185.437 236.885 184.619 236.349C183.906 235.88 183.15 235.477 182.353 235.137C181.504 234.776 180.636 234.501 179.75 234.312C178.776 234.105 177.781 234.001 176.763 234.001L165.884 234.001C164.883 234.001 164.028 234.355 163.32 235.062Q162.789 235.594 162.524 236.234L162.523 236.234Q162.259 236.875 162.259 237.626ZM197.024 242.021C197.205 241.617 197.461 241.167 197.793 240.674C198.376 239.83 199.152 238.925 199.941 238.224C200.404 237.812 200.892 237.436 201.401 237.096L201.402 237.096Q202.547 236.333 203.85 235.808C205.61 235.098 207.523 234.744 209.588 234.744C211.201 234.744 212.716 235.008 214.131 235.537Q214.91 235.829 215.649 236.227C215.894 236.359 216.133 236.498 216.367 236.645Q218.116 237.745 219.497 239.43C219.619 239.579 219.738 239.73 219.854 239.884Q220.766 241.09 221.427 242.484C221.703 243.068 221.91 243.587 222.047 244.041C222.079 244.147 222.157 244.584 222.18 244.693C222.228 245.127 222.242 245.643 222.225 246.242C222.197 247.146 222.093 248.032 221.911 248.903C221.865 249.123 221.814 249.341 221.759 249.559C221.372 251.066 220.673 252.572 219.855 253.79Q219.207 254.728 218.41 255.516C218.266 255.659 218.117 255.798 217.965 255.933C218.139 256.07 218.309 256.212 218.476 256.357C218.895 256.722 219.289 257.108 219.66 257.516C220.962 258.948 221.97 260.648 222.683 262.616C222.74 262.775 222.786 262.936 222.821 263.101C222.856 263.266 222.879 263.433 222.891 263.601C223.038 265.737 222.758 267.704 222.048 269.502C221.809 270.109 221.521 270.696 221.184 271.265C221.083 271.435 220.978 271.602 220.869 271.767C219.841 273.328 218.462 274.659 216.732 275.758Q214.805 276.984 212.48 277.718C211.688 277.968 210.993 278.141 210.397 278.237C210.303 278.252 209.919 278.275 209.823 278.282C209.386 278.282 208.747 278.219 208.148 278.128C207.087 277.959 206.043 277.676 205.018 277.278C204.042 276.9 203.124 276.432 202.264 275.876C201.803 275.578 201.359 275.255 200.932 274.906C200.614 274.647 200.31 274.377 200.016 274.095C198.895 273.016 197.941 271.763 197.157 270.334C196.18 268.555 196.81 266.389 198.59 265.411C200.369 264.434 202.535 265.064 203.512 266.844C204.087 267.89 204.808 268.748 205.674 269.417C206.262 269.871 206.917 270.238 207.64 270.519C208.205 270.738 209.007 270.922 209.581 271.008C209.781 270.96 210.02 270.891 210.298 270.803C211.243 270.505 212.091 270.117 212.842 269.64C213.778 269.044 214.48 268.353 214.947 267.566C215.442 266.731 215.686 265.744 215.677 264.605C215.224 263.536 214.606 262.646 213.827 261.934Q212.653 260.861 210.987 260.328C210.182 260.07 209.337 259.916 208.454 259.865C208.103 259.844 207.399 259.862 207.209 259.873C206.208 259.873 205.354 259.519 204.646 258.811C203.938 258.103 203.584 257.249 203.584 256.248C203.584 255.314 203.898 254.501 204.526 253.81C205.154 253.118 206.053 252.718 206.982 252.629C207.143 252.604 207.371 252.558 207.667 252.489C208.8 252.224 210.363 251.758 212.358 251.09C212.749 250.855 213.098 250.578 213.401 250.261C214.031 249.604 214.476 248.77 214.735 247.758C214.849 247.314 214.859 246.585 214.867 246.006C214.869 245.855 214.871 245.714 214.875 245.59C214.604 245.018 214.275 244.497 213.89 244.026C213.339 243.355 212.71 242.85 212.001 242.512C211.279 242.167 210.475 241.994 209.588 241.994Q207.097 241.994 205.39 243.151C205.17 243.301 204.959 243.465 204.758 243.643C204.386 243.974 203.88 244.645 203.619 245.032C202.774 246.846 200.692 247.628 198.857 246.809C197.003 245.982 196.196 243.875 197.024 242.021ZM148.473 248.885L148.473 273.032C148.473 275.062 150.068 276.657 152.098 276.657C154.128 276.657 155.724 275.062 155.724 273.032L155.724 239.45C155.724 238.449 155.369 237.594 154.661 236.887C153.954 236.179 153.1 235.825 152.098 235.825L148.395 235.825C147.656 235.825 146.982 236.031 146.37 236.442C145.758 236.854 145.313 237.402 145.036 238.085L134.812 263.242L124.996 238.13Q124.792 237.609 124.459 237.19L124.459 237.19Q124.126 236.772 123.664 236.456Q123.201 236.14 122.69 235.983Q122.18 235.825 121.619 235.825L117.793 235.825Q117.045 235.825 116.406 236.089Q115.767 236.352 115.236 236.88Q114.706 237.408 114.438 238.045Q114.172 238.683 114.168 239.431L113.995 273.013C113.984 275.043 115.571 276.646 117.602 276.657C119.632 276.667 121.235 275.08 121.245 273.05L121.37 248.771L131.369 274.351C131.551 274.815 131.816 275.224 132.166 275.578C132.515 275.932 132.92 276.203 133.381 276.39C134.309 276.767 135.233 276.761 136.155 276.372C137.078 275.982 137.728 275.324 138.104 274.397L148.473 248.885ZM176.763 255.243L169.509 255.243L169.509 241.251L176.763 241.251C177.289 241.251 177.802 241.307 178.303 241.419Q178.922 241.557 179.516 241.81C179.883 241.966 180.23 242.149 180.562 242.36L180.563 242.361Q181.216 242.778 181.776 243.339C182.159 243.721 182.49 244.135 182.771 244.58L182.771 244.58L182.771 244.581Q183.075 245.062 183.302 245.592C183.485 246.025 183.624 246.468 183.716 246.92C183.808 247.372 183.854 247.832 183.854 248.302C183.854 248.826 183.797 249.337 183.683 249.835C183.592 250.227 183.467 250.61 183.306 250.986C183.162 251.319 182.995 251.638 182.804 251.942C182.521 252.391 182.185 252.808 181.795 253.192C181.471 253.512 181.122 253.797 180.749 254.045C180.37 254.298 179.967 254.513 179.539 254.692C179.189 254.837 178.833 254.954 178.47 255.042C177.917 255.176 177.348 255.243 176.763 255.243Z" clip-rule="evenodd" fill="#FFFFFF" fill-opacity="1.000000" fill-rule="evenodd"/>
		</g>
		<g style="mix-blend-mode:normal">
			<path id="Shape Copy备份 24" d="M205.57 133.88L205.57 195.15C205.57 203.11 199.76 209.4 192.01 210.35C184.26 211.3 178.35 206.25 178.35 199.94C178.35 192.13 184.01 188.71 188.85 186.71C193.7 184.71 197.2 180.9 197.2 177.16L197.2 148.72C197.2 146.6 195.27 145 193.18 145.39L158.1 152C156.5 152.3 155.34 153.7 155.34 155.32L155.34 200.98C155.34 208.9 147.72 217.21 140.8 218.6C133.88 219.99 126 215.13 126 207.06C126 199 133.04 194.49 136.84 193.02C139.03 192.17 146.97 189.57 146.97 185.72L146.97 141.21C146.97 137.34 149.76 134.02 153.58 133.36L196.26 126.03C201.13 125.19 205.57 128.94 205.57 133.88Z" fill="#FFFFFF" fill-opacity="1.000000" fill-rule="evenodd"/>
		</g>
	</g>
</svg>
