<svg width="336.000000" height="336.000000" viewBox="0 0 336 336" fill="none" xmlns="http://www.w3.org/2000/svg" xmlns:xlink="http://www.w3.org/1999/xlink">
	<desc>
			Created with Pixso.
	</desc>
	<defs>
		<clipPath id="clip257_2170">
			<rect id="ic_light app" width="336.000000" height="336.000000" fill="white" fill-opacity="0"/>
		</clipPath>
		<linearGradient x1="168.000320" y1="0.369141" x2="168.000320" y2="336.369141" id="paint_linear_257_2741_0" gradientUnits="userSpaceOnUse">
			<stop stop-color="#71DF66"/>
			<stop offset="1.000000" stop-color="#4EBA45"/>
		</linearGradient>
		<linearGradient x1="271.255737" y1="45.868546" x2="222.071548" y2="92.657890" id="paint_linear_257_2742_0" gradientUnits="userSpaceOnUse">
			<stop offset="0.100487" stop-color="#41B837"/>
			<stop offset="1.000000" stop-color="#68DE5C"/>
		</linearGradient>
		<linearGradient x1="228.940735" y1="-4.292882" x2="267.965668" y2="99.144524" id="paint_linear_257_2743_0" gradientUnits="userSpaceOnUse">
			<stop stop-color="#65D75C"/>
			<stop offset="0.263916" stop-color="#81EC77"/>
			<stop offset="0.651073" stop-color="#B2FFAA"/>
			<stop offset="0.832627" stop-color="#94EB8A"/>
			<stop offset="0.933527" stop-color="#59CF4E" stop-opacity="0.615686"/>
		</linearGradient>
	</defs>
	<g clip-path="url(#clip257_2170)">
		<path id="矩形备份 113" d="M42.24 0.36L211.71 0.36C217.52 0.36 223.1 2.66 227.23 6.75L310.79 89.5C314.98 93.64 317.33 99.28 317.33 105.17L317.33 312.78C317.33 325.81 306.77 336.36 293.75 336.36L42.24 336.36C29.22 336.36 18.66 325.81 18.66 312.78L18.66 23.95C18.66 10.92 29.22 0.36 42.24 0.36Z" fill="url(#paint_linear_257_2741_0)" fill-opacity="1.000000" fill-rule="evenodd"/>
		<g style="mix-blend-mode:normal">
			<path id="矩形 2" d="M220.41 64.1L220.41 35L220.22 17.5C220.17 11.89 217.88 6.54 213.88 2.62L211.2 0L215.01 0C219.88 0 224.53 1.96 227.92 5.45L232.2 9.85L244.72 22.28L269.78 47.15L294.83 72.02L310.2 87.27C314.75 91.78 317.3 97.91 317.3 104.31L317.3 105.36L314.71 102.77C310.71 98.77 305.28 96.52 299.62 96.52L281.94 96.52L252.83 96.52C234.93 96.52 220.41 82 220.41 64.1Z" fill="url(#paint_linear_257_2742_0)" fill-opacity="1.000000" fill-rule="evenodd"/>
		</g>
		<path id="减去顶层" d="M209.253 1.49963L213.297 4.39209Q214.985 5.6001 216.282 7.13879L216.282 7.13892C217.033 8.02991 217.686 9.00403 218.239 10.0613C218.892 11.3075 219.366 12.5936 219.663 13.9194C219.911 15.0273 220.035 16.1628 220.035 17.3263L220.193 49.981L220.22 64.8438C220.22 67.8329 220.631 70.6987 221.453 73.4413C221.972 75.1718 222.654 76.8531 223.5 78.4856C223.706 78.8821 223.92 79.2738 224.143 79.6606C226.005 82.8971 228.464 85.7903 231.52 88.3403C233.124 89.6798 234.818 90.8661 236.601 91.899C238.194 92.8231 239.86 93.6245 241.597 94.3033Q246.815 96.3439 251.352 96.3439C252.383 96.3439 253.193 95.5333 253.193 94.5016C253.193 93.47 252.383 92.6593 251.352 92.6593C248.791 92.6593 245.986 92.0635 242.938 90.8717C241.388 90.2657 239.9 89.5509 238.477 88.7273C236.864 87.7948 235.332 86.7229 233.881 85.5116C231.019 83.1228 228.751 80.4071 227.078 77.3645C226.369 75.9966 225.484 74.0137 225.039 72.5649C224.282 70.1077 223.904 67.5339 223.904 64.8438L223.878 49.9744L223.72 17.3085C223.72 15.9005 223.572 14.525 223.276 13.1821L223.276 13.1818Q222.729 10.6925 221.503 8.35242C220.814 7.03613 220.001 5.82495 219.063 4.71912L219.063 4.71912Q217.486 2.85864 215.44 1.39526L214.492 0.716919C213.297 0.00146484 213.116 0.00146484 208.921 0.00146484L207.113 0.00146484L209.253 1.49963Z" clip-rule="evenodd" fill="url(#paint_linear_257_2743_0)" fill-opacity="1.000000" fill-rule="evenodd"/>
		<g style="mix-blend-mode:normal">
			<path id="形状结合" d="M135.241 138.001L198.9 138.001C210.622 138.001 220.124 147.503 220.124 159.224L220.124 222.883C220.124 234.604 210.622 244.106 198.9 244.106L135.241 244.106C123.521 244.106 114.019 234.604 114.019 222.883L114.019 159.224C114.019 147.503 123.521 138.001 135.241 138.001ZM194.916 163.2C194.916 161.002 193.135 159.221 190.938 159.221C188.739 159.221 186.958 161.002 186.958 163.2C186.958 174.187 178.051 183.094 167.063 183.094C156.076 183.094 147.169 174.187 147.169 163.2C147.169 161.002 145.387 159.221 143.189 159.221C140.992 159.221 139.211 161.002 139.211 163.2C139.211 178.582 151.681 191.052 167.063 191.052C182.446 191.052 194.916 178.582 194.916 163.2Z" clip-rule="evenodd" fill="#FFFFFF" fill-opacity="1.000000" fill-rule="evenodd"/>
		</g>
	</g>
</svg>
