<svg width="336.000000" height="336.000000" viewBox="0 0 336 336" fill="none" xmlns="http://www.w3.org/2000/svg" xmlns:xlink="http://www.w3.org/1999/xlink">
	<desc>
			Created with Pixso.
	</desc>
	<defs>
		<clipPath id="clip257_2450">
			<rect id="ic_light tar" width="336.000000" height="336.000000" fill="white" fill-opacity="0"/>
		</clipPath>
		<linearGradient x1="168.000320" y1="0.000000" x2="168.000320" y2="336.000000" id="paint_linear_257_2431_0" gradientUnits="userSpaceOnUse">
			<stop stop-color="#9FB1BD"/>
			<stop offset="1.000000" stop-color="#BFCAD3"/>
		</linearGradient>
	</defs>
	<g clip-path="url(#clip257_2450)">
		<rect id="矩形 540" x="18.666992" rx="23.566467" width="298.666656" height="336.000000" fill="url(#paint_linear_257_2431_0)" fill-opacity="1.000000"/>
		<path id="合并" d="M189 0.000610352L147 0.000610352L147 4.19983C147 8.83948 150.761 12.6006 155.4 12.6006L180.6 12.6006C185.239 12.6006 189 8.83948 189 4.19983L189 0.000610352ZM153.3 21.0006L182.7 21.0006C186.18 21.0006 189 23.8212 189 27.3005C189 30.7799 186.18 33.6006 182.7 33.6006L153.3 33.6006C149.82 33.6006 147 30.7799 147 27.3005C147 23.8212 149.82 21.0006 153.3 21.0006ZM182.7 42.0006L153.3 42.0006C149.82 42.0006 147 44.8212 147 48.3005C147 51.7799 149.82 54.6006 153.3 54.6006L182.7 54.6006C186.18 54.6006 189 51.7799 189 48.3005C189 44.8212 186.18 42.0006 182.7 42.0006ZM153.3 63.0005L182.7 63.0005C186.18 63.0005 189 65.821 189 69.3004C189 72.7798 186.18 75.6005 182.7 75.6005L153.3 75.6005C149.82 75.6005 147 72.7798 147 69.3004C147 65.821 149.82 63.0005 153.3 63.0005ZM184.8 84.0011L151.2 84.0011C148.881 84.0011 147 85.8817 147 88.2015L147 130.201C147 132.521 148.881 134.401 151.2 134.401L184.8 134.401C187.119 134.401 189 132.521 189 130.201L189 88.2015C189 85.8817 187.119 84.0011 184.8 84.0011ZM157.5 109.199L178.5 109.199C179.66 109.199 180.6 110.14 180.6 111.299L180.6 123.899C180.6 125.059 179.66 125.999 178.5 125.999L157.5 125.999C156.34 125.999 155.4 125.059 155.4 123.899L155.4 111.299C155.4 110.14 156.34 109.199 157.5 109.199Z" clip-rule="evenodd" fill="#FFFFFF" fill-opacity="1.000000" fill-rule="evenodd"/>
		<g style="mix-blend-mode:normal">
			<path id="合并" d="M117.848 183.471L106.737 183.471C104.085 183.471 102.002 181.388 102.002 178.736C102.002 176.085 104.085 174.001 106.737 174.001L138.452 174.001C141.104 174.001 143.188 176.085 143.188 178.736C143.188 181.388 141.104 183.471 138.452 183.471L127.318 183.471L127.318 223.5C127.318 225.752 125.234 227.522 122.583 227.522C119.932 227.522 117.848 225.752 117.848 223.5L117.848 183.471ZM198.664 222.875L198.664 178.665C198.664 177.383 199.117 176.289 200.024 175.382Q200.704 174.703 201.524 174.363L201.524 174.363Q202.345 174.023 203.307 174.023L217.416 174.023Q220.99 174.023 224.105 175.219L224.106 175.219C225.417 175.746 226.879 176.516 227.98 177.328C228.675 177.839 229.327 178.408 229.938 179.032C230.493 179.601 231.002 180.204 231.464 180.84L231.464 180.84Q232.706 182.552 233.495 184.593C233.596 184.852 233.689 185.113 233.777 185.377C234.396 187.23 234.705 189.188 234.705 191.247C234.705 193.671 234.268 195.846 233.394 197.774C232.961 198.729 232.43 199.607 231.8 200.408C231.119 201.275 230.323 202.052 229.412 202.739C226.678 204.801 223.076 205.914 218.607 206.08L234.155 219.343C236.133 221.03 236.361 223.91 234.674 225.887C232.987 227.865 230.107 228.094 228.13 226.406L207.948 209.191L207.948 222.875C207.948 225.475 205.906 227.518 203.307 227.518C200.707 227.518 198.664 225.475 198.664 222.875ZM146.535 221.074L163.421 177.905C163.888 176.711 164.709 175.858 165.883 175.344C167.058 174.83 168.241 174.806 169.436 175.273Q169.896 175.454 170.302 175.721L170.302 175.721L170.302 175.721L170.302 175.721Q170.706 175.988 171.054 176.342Q171.401 176.695 171.662 177.104Q171.922 177.513 172.095 177.978L188.149 221.147C189.056 223.583 187.854 226.21 185.417 227.116C182.98 228.022 180.354 226.82 179.448 224.383L175.692 214.284L159.16 214.284L155.182 224.456C154.234 226.877 151.588 228.035 149.167 227.088C146.746 226.141 145.588 223.495 146.535 221.074ZM207.948 196.817L217.416 196.817C218.974 196.817 220.325 196.669 221.469 196.374C222.446 196.121 223.231 195.772 223.823 195.325C224.104 195.114 224.347 194.872 224.549 194.601C224.701 194.397 224.831 194.177 224.938 193.94C225.26 193.23 225.421 192.333 225.421 191.247C225.421 190.05 225.226 188.949 224.837 187.943C224.539 187.174 224.14 186.492 223.638 185.896C223.479 185.733 222.972 185.204 222.797 185.058C222.239 184.593 221.606 184.218 220.898 183.933C219.86 183.516 218.699 183.307 217.416 183.307L207.948 183.307L207.948 196.817ZM162.792 205L172.239 205L167.635 192.619L162.792 205Z" clip-rule="evenodd" fill="#FFFFFF" fill-opacity="1.000000" fill-rule="evenodd"/>
		</g>
	</g>
</svg>
