<svg width="336.000000" height="336.000000" viewBox="0 0 336 336" fill="none" xmlns="http://www.w3.org/2000/svg" xmlns:xlink="http://www.w3.org/1999/xlink">
	<desc>
			Created with Pixso.
	</desc>
	<defs>
		<clipPath id="clip257_2342">
			<rect id="ic_light unknow" width="336.000000" height="336.000000" fill="white" fill-opacity="0"/>
		</clipPath>
		<linearGradient x1="168.000320" y1="0.000854" x2="168.000320" y2="336.000854" id="paint_linear_257_2796_0" gradientUnits="userSpaceOnUse">
			<stop stop-color="#C0CBD4"/>
			<stop offset="1.000000" stop-color="#9EB0BC"/>
		</linearGradient>
		<linearGradient x1="271.255737" y1="45.869400" x2="222.071548" y2="92.658745" id="paint_linear_257_2794_0" gradientUnits="userSpaceOnUse">
			<stop offset="0.100487" stop-color="#97ABB8"/>
			<stop offset="1.000000" stop-color="#D7E2E9"/>
		</linearGradient>
		<linearGradient x1="228.940750" y1="-4.294628" x2="254.736908" y2="96.342117" id="paint_linear_257_2788_0" gradientUnits="userSpaceOnUse">
			<stop stop-color="#9EB0BC"/>
			<stop offset="0.332341" stop-color="#D2DDE4"/>
			<stop offset="0.685898" stop-color="#EDF7FE"/>
			<stop offset="0.879007" stop-color="#DBE5EB"/>
			<stop offset="1.000000" stop-color="#C1CFD8" stop-opacity="0.000000"/>
		</linearGradient>
	</defs>
	<g clip-path="url(#clip257_2342)">
		<path id="矩形备份 113" d="M42.24 0L211.71 0C217.52 0 223.1 2.29 227.23 6.38L310.79 89.13C314.98 93.27 317.33 98.91 317.33 104.8L317.33 312.42C317.33 325.44 306.77 336 293.75 336L42.24 336C29.22 336 18.66 325.44 18.66 312.42L18.66 23.58C18.66 10.55 29.22 0 42.24 0Z" fill="url(#paint_linear_257_2796_0)" fill-opacity="1.000000" fill-rule="evenodd"/>
		<g style="mix-blend-mode:normal">
			<path id="矩形 2" d="M220.41 64.1L220.41 35L220.22 17.5C220.17 11.89 217.88 6.54 213.88 2.62L211.2 0L215.01 0C219.88 0 224.53 1.96 227.92 5.45L232.2 9.85L244.72 22.29L269.78 47.15L294.83 72.02L310.2 87.27C314.75 91.78 317.3 97.91 317.3 104.31L317.3 105.36L314.71 102.77C310.71 98.77 305.28 96.52 299.62 96.52L281.94 96.52L252.83 96.52C234.93 96.52 220.41 82.01 220.41 64.1Z" fill="url(#paint_linear_257_2794_0)" fill-opacity="1.000000" fill-rule="evenodd"/>
		</g>
		<path id="减去顶层" d="M207.117 -0.000305176L207.113 -0.000305176L209.253 1.49786L213.297 4.39032C214.423 5.19568 215.418 6.11127 216.282 7.13702L216.282 7.13715C217.033 8.02814 217.686 9.00232 218.239 10.0596C218.892 11.3057 219.366 12.5919 219.663 13.9177C219.911 15.0255 220.035 16.1611 220.035 17.3245L220.193 49.9792L220.22 64.842C220.22 67.8311 220.631 70.6969 221.453 73.4395C221.972 75.17 222.654 76.8514 223.5 78.4838C223.706 78.8804 223.92 79.272 224.143 79.6589C226.005 82.8953 228.464 85.7885 231.52 88.3386C233.124 89.678 234.818 90.8643 236.601 91.8973C238.194 92.8213 239.86 93.6227 241.597 94.3016C245.076 95.6619 248.328 96.3421 251.352 96.3421C252.383 96.3421 253.193 95.5316 253.193 94.4998C253.193 93.4681 252.383 92.6576 251.352 92.6576C248.791 92.6576 245.986 92.0617 242.938 90.87C241.388 90.264 239.9 89.5491 238.477 88.7256C236.864 87.7931 235.332 86.7211 233.881 85.5098C231.019 83.1211 228.751 80.4053 227.078 77.3627C226.369 75.9949 225.484 74.012 225.039 72.5632C224.282 70.1059 223.904 67.5322 223.904 64.842L223.878 49.9726L223.72 17.3068C223.72 15.8987 223.572 14.5233 223.276 13.1803L223.276 13.18C222.911 11.5205 222.32 9.91071 221.503 8.35065C220.814 7.03436 220.001 5.82318 219.063 4.71741L219.063 4.71735C218.012 3.47699 216.805 2.36908 215.44 1.39349L214.492 0.715149C213.449 0.0906982 213.179 0.0112915 210.337 0.00115967L207.117 0.00115967L207.117 -0.000305176Z" clip-rule="evenodd" fill="url(#paint_linear_257_2788_0)" fill-opacity="1.000000" fill-rule="evenodd"/>
		<g style="mix-blend-mode:normal">
			<path id="Combined Shape" d="M110.515 190.964C110.515 223.18 136.632 249.297 168.848 249.297C201.064 249.297 227.182 223.18 227.182 190.964C227.182 158.747 201.064 132.63 168.848 132.63C136.632 132.63 110.515 158.747 110.515 190.964ZM158.242 177.521C158.242 179.717 156.461 181.498 154.265 181.498C152.068 181.498 150.287 179.717 150.287 177.521C150.287 165.98 160.879 157.267 172.522 159.498C179.796 160.893 185.632 166.655 187.049 173.864C188.767 182.596 184.15 190.986 176.223 194.387C174.18 195.263 172.826 197.421 172.826 199.829L172.826 202.896C172.826 205.093 171.045 206.873 168.849 206.873C166.652 206.873 164.871 205.093 164.871 202.896L164.871 199.829C164.871 194.308 168.054 189.235 173.087 187.076C177.619 185.133 180.227 180.393 179.244 175.4C178.455 171.385 175.124 168.097 171.024 167.31C164.277 166.017 158.242 170.982 158.242 177.521ZM168.847 214.828C165.918 214.828 163.544 217.202 163.544 220.131C163.544 223.06 165.918 225.434 168.847 225.434C171.775 225.434 174.15 223.06 174.15 220.131C174.15 217.202 171.775 214.828 168.847 214.828Z" clip-rule="evenodd" fill="#FFFFFF" fill-opacity="1.000000" fill-rule="evenodd"/>
		</g>
	</g>
</svg>
