<svg width="336.000000" height="336.000000" viewBox="0 0 336 336" fill="none" xmlns="http://www.w3.org/2000/svg" xmlns:xlink="http://www.w3.org/1999/xlink">
	<desc>
			Created with Pixso.
	</desc>
	<defs>
		<clipPath id="clip257_2293">
			<rect id="ic_light kdh" width="336.000000" height="336.000000" fill="white" fill-opacity="0"/>
		</clipPath>
		<linearGradient x1="168.000320" y1="0.000000" x2="168.000320" y2="336.000000" id="paint_linear_257_2640_0" gradientUnits="userSpaceOnUse">
			<stop stop-color="#55BFF2"/>
			<stop offset="1.000000" stop-color="#3898F7"/>
		</linearGradient>
		<linearGradient x1="271.255737" y1="45.869034" x2="222.071548" y2="92.658379" id="paint_linear_257_2909_0" gradientUnits="userSpaceOnUse">
			<stop offset="0.100487" stop-color="#4799ED"/>
			<stop offset="1.000000" stop-color="#77CDFB"/>
		</linearGradient>
		<linearGradient x1="228.940750" y1="-4.294334" x2="257.823578" y2="97.462639" id="paint_linear_257_2910_0" gradientUnits="userSpaceOnUse">
			<stop stop-color="#36BCF8"/>
			<stop offset="0.265149" stop-color="#A5DAFF"/>
			<stop offset="0.715692" stop-color="#CDEBFF"/>
			<stop offset="0.924672" stop-color="#80C9FF"/>
			<stop offset="1.000000" stop-color="#64B8F5" stop-opacity="0.000000"/>
		</linearGradient>
	</defs>
	<g clip-path="url(#clip257_2293)">
		<path id="矩形备份 113" d="M42.24 0L211.71 0C217.52 0 223.1 2.29 227.23 6.38L310.79 89.13C314.98 93.27 317.33 98.91 317.33 104.8L317.33 312.41C317.33 325.44 306.77 336 293.75 336L42.24 336C29.22 336 18.66 325.44 18.66 312.41L18.66 23.58C18.66 10.55 29.22 0 42.24 0Z" fill="url(#paint_linear_257_2640_0)" fill-opacity="1.000000" fill-rule="evenodd"/>
		<g style="mix-blend-mode:normal">
			<path id="矩形 2" d="M220.41 64.1L220.41 35L220.22 17.5C220.17 11.89 217.88 6.54 213.88 2.62L211.2 0L215.01 0C219.88 0 224.53 1.96 227.92 5.45L232.2 9.85L244.72 22.29L269.78 47.15L294.83 72.02L310.2 87.27C314.75 91.78 317.3 97.91 317.3 104.31L317.3 105.36L314.71 102.77C310.71 98.77 305.28 96.52 299.62 96.52L281.94 96.52L252.83 96.52C234.93 96.52 220.41 82.01 220.41 64.1Z" fill="url(#paint_linear_257_2909_0)" fill-opacity="1.000000" fill-rule="evenodd"/>
		</g>
		<path id="减去顶层" d="M207.117 0L207.113 0L209.253 1.49805L213.297 4.39062C214.423 5.19604 215.418 6.11157 216.282 7.13745L216.282 7.13745C217.033 8.02856 217.686 9.00269 218.239 10.0598C218.892 11.3062 219.366 12.5923 219.663 13.918C219.911 15.0259 220.035 16.1614 220.035 17.325L220.193 49.9795L220.22 64.8423C220.22 67.8313 220.631 70.6973 221.453 73.4399C221.972 75.1704 222.654 76.8518 223.5 78.4841C223.706 78.8806 223.92 79.2725 224.143 79.6592C226.005 82.8955 228.464 85.7888 231.52 88.3389C233.124 89.6782 234.818 90.8645 236.601 91.8977C238.194 92.8215 239.86 93.623 241.597 94.302C245.076 95.6624 248.328 96.3425 251.352 96.3425C252.383 96.3425 253.193 95.5317 253.193 94.5002C253.193 93.4685 252.383 92.658 251.352 92.658C248.791 92.658 245.986 92.062 242.938 90.8704C241.388 90.2642 239.9 89.5496 238.477 88.7258C236.864 87.7935 235.332 86.7214 233.881 85.51C231.019 83.1213 228.751 80.4058 227.078 77.363C226.369 75.9951 225.484 74.0122 225.039 72.5635C224.282 70.1062 223.904 67.5325 223.904 64.8423L223.878 49.9729L223.72 17.3071C223.72 15.8989 223.572 14.5234 223.276 13.1807L223.276 13.1802C222.911 11.5208 222.32 9.91113 221.503 8.35107C220.814 7.03467 220.001 5.82349 219.063 4.71777L219.063 4.71777C218.012 3.47729 216.805 2.36938 215.44 1.3938L214.492 0.715332C213.421 0.0742188 213.164 0.0078125 210.104 0.000732422L207.117 0.000732422L207.117 0Z" clip-rule="evenodd" fill="url(#paint_linear_257_2910_0)" fill-opacity="1.000000" fill-rule="evenodd"/>
		<g style="mix-blend-mode:normal">
			<path id="合并" d="M107.154 183.874L127.979 164.038C130.197 161.925 133.601 162.008 135.714 164.227C136.737 165.301 137.245 166.654 137.245 168.003C137.245 169.439 136.669 170.872 135.525 171.962L119.835 186.906L136.406 213.758C136.971 214.673 137.241 215.674 137.241 216.658C137.241 218.48 136.316 220.242 134.624 221.287C132.017 222.896 128.704 222.112 127.095 219.504L111.737 194.619L107.154 198.985L107.154 216.632C107.154 219.696 104.747 222.103 101.683 222.103C98.6191 222.103 96.2119 219.696 96.2119 216.632L96.2119 168C96.2119 164.937 98.6191 162.529 101.683 162.529C104.747 162.529 107.154 164.937 107.154 168L107.154 183.874ZM161.356 162.529C163.553 162.529 165.697 162.76 167.791 163.222C169.547 163.61 171.268 164.16 172.953 164.872C174.646 165.588 176.245 166.444 177.754 167.439C179.422 168.54 180.977 169.811 182.419 171.254C183.861 172.696 185.133 174.251 186.234 175.919C187.229 177.427 188.085 179.028 188.801 180.72C189.513 182.405 190.063 184.125 190.45 185.882C190.912 187.976 191.144 190.12 191.144 192.316C191.144 194.512 190.912 196.656 190.45 198.75C190.063 200.507 189.513 202.227 188.801 203.912C188.085 205.604 187.229 207.205 186.234 208.713C185.133 210.381 183.861 211.936 182.419 213.379C180.977 214.821 179.422 216.093 177.754 217.193C176.245 218.188 174.646 219.044 172.953 219.76C171.268 220.472 169.547 221.023 167.791 221.41C165.697 221.872 163.553 222.103 161.356 222.103L153.09 222.103C151.579 222.103 150.29 221.569 149.222 220.5Q148.42 219.699 148.02 218.732Q147.619 217.765 147.619 216.632L147.619 168C147.619 166.49 148.153 165.2 149.222 164.132Q150.022 163.331 150.989 162.93Q151.957 162.529 153.09 162.529L161.356 162.529ZM199.016 216.632L199.016 168C199.016 164.937 201.423 162.529 204.486 162.529C207.551 162.529 209.958 164.937 209.958 168L209.958 186.417L233.35 186.417L233.35 168C233.35 164.937 235.757 162.529 238.82 162.529C241.885 162.529 244.292 164.937 244.292 168L244.292 216.632C244.292 219.696 241.885 222.103 238.82 222.103C235.757 222.103 233.35 219.696 233.35 216.632L233.35 197.359L209.958 197.359L209.958 216.632C209.958 219.696 207.551 222.103 204.486 222.103C201.423 222.103 199.016 219.696 199.016 216.632ZM161.356 173.471L158.561 173.471L158.561 211.161L161.356 211.161C162.813 211.161 164.232 211.001 165.615 210.682C166.661 210.44 167.687 210.107 168.69 209.682C169.728 209.243 170.71 208.721 171.639 208.116C172.729 207.406 173.742 206.581 174.682 205.641C175.621 204.702 176.446 203.688 177.156 202.598C177.762 201.67 178.284 200.687 178.723 199.65C179.147 198.646 179.48 197.621 179.723 196.574C180.042 195.192 180.201 193.772 180.201 192.316C180.201 190.86 180.042 189.44 179.723 188.058C179.48 187.012 179.147 185.987 178.723 184.983C178.284 183.945 177.762 182.962 177.156 182.034C176.446 180.945 175.621 179.93 174.682 178.991Q173.272 177.582 171.64 176.517L171.639 176.516C170.711 175.911 169.728 175.389 168.69 174.95C167.687 174.525 166.661 174.192 165.615 173.95C164.232 173.631 162.812 173.471 161.356 173.471Z" clip-rule="evenodd" fill="#FFFFFF" fill-opacity="1.000000" fill-rule="evenodd"/>
		</g>
	</g>
</svg>
