<svg width="336.000000" height="336.000000" viewBox="0 0 336 336" fill="none" xmlns="http://www.w3.org/2000/svg" xmlns:xlink="http://www.w3.org/1999/xlink">
	<desc>
			Created with Pixso.
	</desc>
	<defs>
		<clipPath id="clip257_2139">
			<rect id="ic_light excel" width="336.000000" height="336.000000" fill="white" fill-opacity="0"/>
		</clipPath>
		<linearGradient x1="168.000320" y1="0.369141" x2="168.000320" y2="336.369141" id="paint_linear_257_2130_0" gradientUnits="userSpaceOnUse">
			<stop stop-color="#71DF66"/>
			<stop offset="1.000000" stop-color="#4EBA45"/>
		</linearGradient>
		<linearGradient x1="271.255737" y1="45.868683" x2="222.071548" y2="92.658028" id="paint_linear_257_2131_0" gradientUnits="userSpaceOnUse">
			<stop offset="0.100487" stop-color="#41B837"/>
			<stop offset="1.000000" stop-color="#68DE5C"/>
		</linearGradient>
		<linearGradient x1="228.940735" y1="-4.293279" x2="267.965668" y2="99.144127" id="paint_linear_257_2134_0" gradientUnits="userSpaceOnUse">
			<stop stop-color="#65D75C"/>
			<stop offset="0.263916" stop-color="#81EC77"/>
			<stop offset="0.651073" stop-color="#B2FFAA"/>
			<stop offset="0.832627" stop-color="#94EB8A"/>
			<stop offset="0.933527" stop-color="#59CF4E" stop-opacity="0.615686"/>
		</linearGradient>
	</defs>
	<g clip-path="url(#clip257_2139)">
		<path id="矩形备份 113" d="M42.24 0.36L211.71 0.36C217.52 0.36 223.1 2.66 227.23 6.75L310.79 89.5C314.98 93.64 317.33 99.28 317.33 105.17L317.33 312.78C317.33 325.81 306.77 336.36 293.75 336.36L42.24 336.36C29.22 336.36 18.66 325.81 18.66 312.78L18.66 23.95C18.66 10.92 29.22 0.36 42.24 0.36Z" fill="url(#paint_linear_257_2130_0)" fill-opacity="1.000000" fill-rule="evenodd"/>
		<g style="mix-blend-mode:normal">
			<path id="矩形 2" d="M220.41 64.1L220.41 35L220.22 17.5C220.17 11.89 217.88 6.54 213.88 2.62L211.2 0L215.01 0C219.88 0 224.53 1.96 227.92 5.45L232.2 9.85L244.72 22.28L269.78 47.15L294.83 72.02L310.2 87.27C314.75 91.78 317.3 97.91 317.3 104.31L317.3 105.36L314.71 102.77C310.71 98.77 305.28 96.52 299.62 96.52L281.94 96.52L252.83 96.52C234.93 96.52 220.41 82 220.41 64.1Z" fill="url(#paint_linear_257_2131_0)" fill-opacity="1.000000" fill-rule="evenodd"/>
		</g>
		<path id="减去顶层" d="M209.253 1.49922L213.297 4.39168Q214.985 5.59976 216.282 7.13841L216.282 7.13853C217.033 8.02954 217.686 9.00366 218.239 10.0609C218.892 11.3071 219.366 12.5933 219.663 13.9191C219.911 15.0269 220.035 16.1625 220.035 17.3259L220.193 49.9806L220.22 64.8433C220.22 67.8324 220.631 70.6983 221.453 73.4409C221.972 75.1714 222.654 76.8528 223.5 78.4851C223.706 78.8817 223.92 79.2734 224.143 79.6602C226.005 82.8967 228.464 85.7899 231.52 88.34C233.124 89.6794 234.818 90.8656 236.601 91.8987C238.194 92.8227 239.86 93.6241 241.597 94.303Q246.815 96.3435 251.352 96.3435C252.383 96.3435 253.193 95.5329 253.193 94.5012C253.193 93.4695 252.383 92.6589 251.352 92.6589C248.791 92.6589 245.986 92.0631 242.938 90.8713C241.388 90.2653 239.9 89.5505 238.477 88.7269C236.864 87.7944 235.332 86.7225 233.881 85.5112C231.019 83.1224 228.751 80.4067 227.078 77.3641C226.369 75.9962 225.484 74.0133 225.039 72.5645C224.282 70.1072 223.904 67.5335 223.904 64.8433L223.878 49.974L223.72 17.3081C223.72 15.9001 223.572 14.5246 223.276 13.1817L223.276 13.1813Q222.729 10.6922 221.503 8.35202C220.814 7.03575 220.001 5.82457 219.063 4.71875L219.063 4.71873Q217.486 2.85822 215.44 1.39488L214.492 0.716507C213.297 0.00106812 213.116 0.00106812 208.921 0.00106812L207.113 0.00106812L209.253 1.49922Z" clip-rule="evenodd" fill="url(#paint_linear_257_2134_0)" fill-opacity="1.000000" fill-rule="evenodd"/>
		<g opacity="0.000000">
			<rect id="矩形 538" width="336.000000" height="336.000000" fill="#C4C4C4" fill-opacity="1.000000"/>
		</g>
		<g style="mix-blend-mode:normal">
			<path id="合并" d="M154.848 197.508L115.911 146.736C112.797 142.675 113.54 137.037 117.602 133.922C121.663 130.807 127.302 131.551 130.416 135.613L166.365 182.489L201.878 136.183C204.992 132.122 210.631 131.378 214.692 134.493C218.753 137.608 219.497 143.246 216.383 147.307L177.884 197.508L214.74 245.567C217.854 249.628 217.11 255.267 213.05 258.381C208.988 261.496 203.35 260.752 200.235 256.691L166.365 212.527L132.059 257.261C128.944 261.323 123.306 262.067 119.244 258.952C115.183 255.837 114.439 250.199 117.554 246.138L154.848 197.508Z" clip-rule="evenodd" fill="#FFFFFF" fill-opacity="1.000000" fill-rule="evenodd"/>
		</g>
	</g>
</svg>
