<svg width="336.000000" height="336.000000" viewBox="0 0 336 336" fill="none" xmlns="http://www.w3.org/2000/svg" xmlns:xlink="http://www.w3.org/1999/xlink">
	<desc>
			Created with Pixso.
	</desc>
	<defs>
		<clipPath id="clip257_2556">
			<rect id="ic_light hdoc" width="336.000000" height="336.000000" fill="white" fill-opacity="0"/>
		</clipPath>
		<linearGradient x1="168.000320" y1="0.000854" x2="168.000320" y2="336.000854" id="paint_linear_257_2541_0" gradientUnits="userSpaceOnUse">
			<stop stop-color="#FFDD71"/>
			<stop offset="1.000000" stop-color="#EDBA14"/>
		</linearGradient>
		<linearGradient x1="286.329071" y1="49.000847" x2="236.329071" y2="90.000832" id="paint_linear_257_2542_0" gradientUnits="userSpaceOnUse">
			<stop offset="0.001251" stop-color="#ECC23E"/>
			<stop offset="1.000000" stop-color="#F7D977"/>
		</linearGradient>
		<linearGradient x1="228.942688" y1="-4.295079" x2="267.967621" y2="99.142326" id="paint_linear_257_2545_0" gradientUnits="userSpaceOnUse">
			<stop offset="0.007634" stop-color="#FAD457"/>
			<stop offset="0.263916" stop-color="#FFE181"/>
			<stop offset="0.651073" stop-color="#FFF2C9"/>
			<stop offset="0.832627" stop-color="#FFE183"/>
			<stop offset="0.933527" stop-color="#FED654" stop-opacity="0.615686"/>
		</linearGradient>
	</defs>
	<g clip-path="url(#clip257_2556)">
		<path id="矩形备份 113" d="M42.24 0L211.71 0C217.52 0 223.1 2.29 227.23 6.38L310.79 89.13C314.98 93.27 317.33 98.91 317.33 104.8L317.33 312.42C317.33 325.44 306.77 336 293.75 336L42.24 336C29.22 336 18.66 325.44 18.66 312.42L18.66 23.58C18.66 10.55 29.22 0 42.24 0Z" fill="url(#paint_linear_257_2541_0)" fill-opacity="1.000000" fill-rule="evenodd"/>
		<g style="mix-blend-mode:normal">
			<path id="矩形 2" d="M220.41 64.1L220.41 35L220.22 17.5C220.17 11.89 217.88 6.54 213.88 2.62L211.2 0L215.01 0C219.88 0 224.53 1.96 227.92 5.45L232.2 9.85L244.72 22.29L269.78 47.15L294.83 72.02L310.2 87.27C314.75 91.78 317.3 97.91 317.3 104.31L317.3 105.36L314.71 102.77C310.71 98.77 305.28 96.52 299.62 96.52L281.94 96.52L252.83 96.52C234.93 96.52 220.41 82.01 220.41 64.1Z" fill="url(#paint_linear_257_2542_0)" fill-opacity="1.000000" fill-rule="evenodd"/>
		</g>
		<path id="减去顶层" d="M207.118 -0.000732422L207.115 -0.000732422L209.255 1.49744L213.299 4.38989Q214.987 5.5979 216.284 7.1366L216.284 7.13672C217.035 8.02771 217.688 9.00183 218.241 10.0591C218.894 11.3053 219.368 12.5914 219.665 13.9172C219.913 15.0251 220.037 16.1606 220.037 17.3241L220.195 49.9788L220.222 64.8416C220.222 67.8307 220.633 70.6965 221.455 73.4391C221.974 75.1696 222.656 76.851 223.502 78.4834C223.708 78.8799 223.922 79.2716 224.145 79.6584C226.007 82.8949 228.466 85.7881 231.521 88.3381C233.126 89.6776 234.82 90.8639 236.603 91.8969C238.196 92.8209 239.862 93.6223 241.599 94.3011Q246.817 96.3417 251.354 96.3417C252.385 96.3417 253.195 95.5311 253.195 94.4994C253.195 93.4678 252.385 92.6571 251.354 92.6571C248.793 92.6571 245.988 92.0613 242.94 90.8695C241.39 90.2635 239.902 89.5487 238.479 88.7251C236.866 87.7926 235.334 86.7207 233.883 85.5094C231.021 83.1206 228.753 80.4049 227.08 77.3623C226.371 75.9944 225.486 74.0115 225.041 72.5627C224.284 70.1055 223.906 67.5317 223.906 64.8416L223.88 49.9722L223.722 17.3063C223.722 15.8983 223.574 14.5228 223.278 13.1799L223.278 13.1796Q222.73 10.6903 221.505 8.35022C220.816 7.03394 220.003 5.82275 219.065 4.71692L219.065 4.71692Q217.488 2.85645 215.442 1.39307L214.494 0.714722C213.457 0.0938721 213.184 0.0118408 210.388 0.000976562L207.118 0.000976562L207.118 -0.000732422Z" clip-rule="evenodd" fill="url(#paint_linear_257_2545_0)" fill-opacity="1.000000" fill-rule="evenodd"/>
		<g style="mix-blend-mode:normal">
			<path id="合并" d="M196.101 138.001L137.995 138.001C124.74 138.001 113.995 148.746 113.995 162.001L113.995 166.738L220.101 166.738L220.101 162.001C220.101 148.746 209.355 138.001 196.101 138.001ZM220.111 171.158L114.006 171.158L114.006 205.706C114.006 219.147 114.006 225.868 116.622 231.001C118.923 235.517 122.594 239.189 127.11 241.49C132.244 244.106 138.965 244.106 152.406 244.106L181.711 244.106C195.152 244.106 201.873 244.106 207.007 241.49C211.522 239.189 215.194 235.517 217.495 231.001C220.111 225.868 220.111 219.147 220.111 205.706L220.111 171.158ZM143.854 188.288C135.288 188.288 128.351 195.213 128.351 203.762C128.351 212.311 135.288 219.236 143.854 219.236C152.419 219.236 159.356 212.311 159.356 203.762C159.356 195.213 152.419 188.288 143.854 188.288ZM167.46 194.31C167.46 192.272 169.112 190.62 171.15 190.62L204.232 190.62C206.271 190.62 207.923 192.272 207.923 194.31C207.923 196.348 206.271 198 204.232 198L171.15 198C169.112 198 167.46 196.348 167.46 194.31ZM152.967 195.167C152.727 195.167 152.517 195.255 152.329 195.374C152.323 195.365 152.317 195.359 152.312 195.349C148.53 198.101 145.146 201.794 141.237 206.139C140.646 205.74 136.878 203.302 136.104 202.972C136.092 202.966 136.079 202.961 136.065 202.954C136.06 202.953 136.049 202.947 136.044 202.945C136.044 202.945 136.033 202.948 136.031 202.948C135.871 202.887 135.702 202.845 135.521 202.845C134.723 202.845 134.074 203.489 134.074 204.282C134.074 204.316 134.092 204.345 134.094 204.378C134.094 204.51 134.118 204.65 134.181 204.804C134.196 204.845 134.221 204.879 134.241 204.919C134.387 205.209 134.641 205.535 135.073 205.909C137.57 208.071 139.144 209.811 141.131 212.345C141.136 212.337 141.141 212.332 141.145 212.323C141.407 212.683 141.813 212.933 142.296 212.933C142.835 212.933 143.285 212.629 143.534 212.196C143.54 212.203 143.547 212.207 143.553 212.215C147.035 205.996 150.115 201.424 153.804 197.218C153.818 197.203 153.829 197.187 153.843 197.172C153.848 197.167 153.852 197.161 153.856 197.155C153.856 197.155 153.856 197.155 153.856 197.153C154.047 196.941 154.171 196.669 154.171 196.363C154.171 195.702 153.632 195.167 152.967 195.167ZM171.15 209.532C169.112 209.532 167.46 211.184 167.46 213.222C167.46 215.26 169.112 216.912 171.15 216.912L204.232 216.912C206.271 216.912 207.923 215.26 207.923 213.222C207.923 211.184 206.271 209.532 204.232 209.532L171.15 209.532Z" clip-rule="evenodd" fill="#FFFFFF" fill-opacity="1.000000" fill-rule="evenodd"/>
		</g>
	</g>
</svg>
