<svg width="336.000000" height="336.000000" viewBox="0 0 336 336" fill="none" xmlns="http://www.w3.org/2000/svg" xmlns:xlink="http://www.w3.org/1999/xlink">
	<desc>
			Created with Pixso.
	</desc>
	<defs>
		<clipPath id="clip257_2385">
			<rect id="ic_light zip 1" width="336.000000" height="336.000000" fill="white" fill-opacity="0"/>
		</clipPath>
		<linearGradient x1="168.000320" y1="0.000000" x2="168.000320" y2="336.000000" id="paint_linear_257_2375_0" gradientUnits="userSpaceOnUse">
			<stop stop-color="#9FB1BD"/>
			<stop offset="1.000000" stop-color="#BFCAD3"/>
		</linearGradient>
	</defs>
	<g clip-path="url(#clip257_2385)">
		<rect id="矩形 540" x="18.666992" rx="23.566467" width="298.666656" height="336.000000" fill="url(#paint_linear_257_2375_0)" fill-opacity="1.000000"/>
		<path id="合并" d="M189 0.000244141L147 0.000244141L147 4.19946C147 8.83911 150.761 12.6002 155.4 12.6002L180.6 12.6002C185.239 12.6002 189 8.83911 189 4.19946L189 0.000244141ZM153.3 21.0002L182.7 21.0002C186.18 21.0002 189 23.8208 189 27.3002C189 30.7795 186.18 33.6002 182.7 33.6002L153.3 33.6002C149.82 33.6002 147 30.7795 147 27.3002C147 23.8208 149.82 21.0002 153.3 21.0002ZM182.7 42.0002L153.3 42.0002C149.82 42.0002 147 44.8208 147 48.3002C147 51.7795 149.82 54.6002 153.3 54.6002L182.7 54.6002C186.18 54.6002 189 51.7795 189 48.3002C189 44.8208 186.18 42.0002 182.7 42.0002ZM153.3 63.0001L182.7 63.0001C186.18 63.0001 189 65.8207 189 69.3C189 72.7794 186.18 75.6001 182.7 75.6001L153.3 75.6001C149.82 75.6001 147 72.7794 147 69.3C147 65.8207 149.82 63.0001 153.3 63.0001ZM184.8 84.0007L151.2 84.0007C148.881 84.0007 147 85.8813 147 88.2012L147 130.2C147 132.52 148.881 134.401 151.2 134.401L184.8 134.401C187.119 134.401 189 132.52 189 130.2L189 88.2012C189 85.8813 187.119 84.0007 184.8 84.0007ZM157.5 109.199L178.5 109.199C179.66 109.199 180.6 110.139 180.6 111.299L180.6 123.899C180.6 125.059 179.66 125.999 178.5 125.999L157.5 125.999C156.34 125.999 155.4 125.059 155.4 123.899L155.4 111.299C155.4 110.139 156.34 109.199 157.5 109.199Z" clip-rule="evenodd" fill="#FFFFFF" fill-opacity="1.000000" fill-rule="evenodd"/>
	</g>
</svg>
