<svg width="336.000000" height="336.000000" viewBox="0 0 336 336" fill="none" xmlns="http://www.w3.org/2000/svg" xmlns:xlink="http://www.w3.org/1999/xlink">
	<desc>
			Created with Pixso.
	</desc>
	<defs>
		<clipPath id="clip257_2511">
			<rect id="ic_light emmx" width="336.000000" height="336.000000" fill="white" fill-opacity="0"/>
		</clipPath>
		<linearGradient x1="168.000320" y1="0.369141" x2="168.000320" y2="336.369141" id="paint_linear_257_2756_0" gradientUnits="userSpaceOnUse">
			<stop stop-color="#71DF66"/>
			<stop offset="1.000000" stop-color="#4EBA45"/>
		</linearGradient>
		<linearGradient x1="271.255737" y1="45.868546" x2="222.071548" y2="92.657890" id="paint_linear_257_2757_0" gradientUnits="userSpaceOnUse">
			<stop offset="0.100487" stop-color="#41B837"/>
			<stop offset="1.000000" stop-color="#68DE5C"/>
		</linearGradient>
		<linearGradient x1="228.940735" y1="-4.293309" x2="267.965668" y2="99.144096" id="paint_linear_257_2758_0" gradientUnits="userSpaceOnUse">
			<stop stop-color="#65D75C"/>
			<stop offset="0.263916" stop-color="#81EC77"/>
			<stop offset="0.651073" stop-color="#B2FFAA"/>
			<stop offset="0.832627" stop-color="#94EB8A"/>
			<stop offset="0.933527" stop-color="#59CF4E" stop-opacity="0.615686"/>
		</linearGradient>
	</defs>
	<g clip-path="url(#clip257_2511)">
		<path id="矩形备份 113" d="M42.24 0.36L211.71 0.36C217.52 0.36 223.1 2.66 227.23 6.75L310.79 89.5C314.98 93.64 317.33 99.28 317.33 105.17L317.33 312.78C317.33 325.81 306.77 336.36 293.75 336.36L42.24 336.36C29.22 336.36 18.66 325.81 18.66 312.78L18.66 23.95C18.66 10.92 29.22 0.36 42.24 0.36Z" fill="url(#paint_linear_257_2756_0)" fill-opacity="1.000000" fill-rule="evenodd"/>
		<g style="mix-blend-mode:normal">
			<path id="矩形 2" d="M220.41 64.1L220.41 35L220.22 17.5C220.17 11.89 217.88 6.54 213.88 2.62L211.2 0L215.01 0C219.88 0 224.53 1.96 227.92 5.45L232.2 9.85L244.72 22.28L269.78 47.15L294.83 72.02L310.2 87.27C314.75 91.78 317.3 97.91 317.3 104.31L317.3 105.36L314.71 102.77C310.71 98.77 305.28 96.52 299.62 96.52L281.94 96.52L252.83 96.52C234.93 96.52 220.41 82 220.41 64.1Z" fill="url(#paint_linear_257_2757_0)" fill-opacity="1.000000" fill-rule="evenodd"/>
		</g>
		<path id="减去顶层" d="M209.253 1.49921L213.297 4.39166Q214.985 5.59973 216.282 7.13837L216.282 7.13849C217.033 8.02948 217.686 9.00366 218.239 10.0609C218.892 11.3071 219.366 12.5933 219.663 13.9191C219.911 15.0269 220.035 16.1625 220.035 17.3259L220.193 49.9805L220.22 64.8433C220.22 67.8324 220.631 70.6982 221.453 73.4409C221.972 75.1714 222.654 76.8528 223.5 78.4851C223.706 78.8817 223.92 79.2734 224.143 79.6602C226.005 82.8967 228.464 85.7899 231.52 88.3399C233.124 89.6794 234.818 90.8656 236.601 91.8987C238.194 92.8226 239.86 93.6241 241.597 94.3029Q246.815 96.3434 251.352 96.3434C252.383 96.3434 253.193 95.5329 253.193 94.5012C253.193 93.4695 252.383 92.6589 251.352 92.6589C248.791 92.6589 245.986 92.063 242.938 90.8713C241.388 90.2653 239.9 89.5505 238.477 88.7269C236.864 87.7944 235.332 86.7225 233.881 85.5112C231.019 83.1224 228.751 80.4067 227.078 77.3641C226.369 75.9962 225.484 74.0133 225.039 72.5645C224.282 70.1072 223.904 67.5335 223.904 64.8433L223.878 49.9739L223.72 17.3081C223.72 15.9001 223.572 14.5246 223.276 13.1816L223.276 13.1813Q222.729 10.6921 221.503 8.35199C220.814 7.03571 220.001 5.82452 219.063 4.71875L219.063 4.71869Q217.486 2.85815 215.44 1.39484L214.492 0.716492C213.297 0.0010376 213.116 0.0010376 208.921 0.0010376L207.113 0.0010376L209.253 1.49921Z" clip-rule="evenodd" fill="url(#paint_linear_257_2758_0)" fill-opacity="1.000000" fill-rule="evenodd"/>
		<g style="mix-blend-mode:normal">
			<path id="合并" d="M262.666 170.337L252.745 187.064L242.825 170.338C241.472 168.056 238.615 167.327 236.333 168.68C234.052 170.033 233.322 172.89 234.676 175.171L247.237 196.351L234.668 217.544C233.314 219.826 234.044 222.682 236.325 224.035C238.607 225.389 241.464 224.659 242.817 222.377L252.745 205.638L262.674 222.379C264.027 224.661 266.884 225.39 269.165 224.037C271.447 222.683 272.177 219.827 270.823 217.545L258.253 196.351L270.815 175.17C272.169 172.888 271.439 170.032 269.157 168.679C266.876 167.325 264.02 168.055 262.666 170.337ZM102.886 226.02L77.4902 226.02C75.9785 226.02 74.6895 225.486 73.6201 224.417C72.5518 223.349 72.0176 222.059 72.0176 220.547L72.0176 173.472Q72.0176 172.339 72.418 171.372L72.418 171.372L72.418 171.372Q72.8193 170.404 73.6201 169.603Q74.4219 168.801 75.3896 168.401L75.3896 168.401Q76.3564 168 77.4902 168L102.886 168C105.95 168 108.358 170.408 108.358 173.472C108.358 176.537 105.95 178.945 102.886 178.945L82.9629 178.945L82.9629 190.443L99.3662 190.443C102.431 190.443 104.839 192.851 104.839 195.916C104.839 198.98 102.431 201.388 99.3662 201.388L82.9629 201.388L82.9629 215.075L102.886 215.075C105.95 215.075 108.358 217.483 108.358 220.547C108.358 223.612 105.95 226.02 102.886 226.02ZM158.175 219.291L158.175 187.381L144.8 221.04C144.316 222.255 143.475 223.122 142.274 223.64C141.073 224.158 139.865 224.175 138.649 223.692C138.033 223.448 137.493 223.089 137.027 222.618C136.562 222.146 136.211 221.601 135.975 220.982L123.077 187.234L122.916 219.315C122.902 221.967 120.809 224.04 118.156 224.027C115.504 224.014 113.431 221.919 113.443 219.267L113.668 174.705C113.675 173.402 114.14 172.291 115.063 171.372Q115.756 170.682 116.592 170.337Q117.427 169.993 118.404 169.993L123.368 169.993C124.35 169.993 125.245 170.271 126.054 170.828C126.862 171.384 127.442 172.121 127.792 173.038L140.484 206.249L153.704 172.98C154.062 172.078 154.643 171.355 155.445 170.81C156.248 170.265 157.135 169.993 158.105 169.993L162.91 169.993Q163.892 169.993 164.729 170.339Q165.566 170.686 166.26 171.38C167.185 172.305 167.646 173.421 167.646 174.729L167.646 219.291C167.646 221.943 165.562 224.027 162.91 224.027C160.259 224.027 158.175 221.943 158.175 219.291ZM218.744 187.381L218.744 219.291C218.744 221.943 220.828 224.027 223.479 224.027C226.132 224.027 228.216 221.943 228.216 219.291L228.216 174.729C228.216 173.421 227.754 172.305 226.829 171.38Q226.136 170.686 225.298 170.339Q224.461 169.993 223.479 169.993L218.675 169.993C217.704 169.993 216.817 170.265 216.015 170.81C215.212 171.355 214.632 172.078 214.273 172.98L201.054 206.249L188.361 173.038C188.012 172.121 187.432 171.384 186.623 170.828C185.814 170.271 184.919 169.993 183.938 169.993L178.974 169.993Q177.996 169.993 177.16 170.337Q176.325 170.682 175.633 171.372C174.709 172.291 174.244 173.402 174.237 174.705L174.013 219.267C174 221.919 176.073 224.014 178.726 224.027C181.378 224.04 183.472 221.967 183.485 219.315L183.646 187.234L196.544 220.982C196.78 221.601 197.131 222.146 197.597 222.618C198.062 223.089 198.603 223.448 199.219 223.692C200.435 224.175 201.643 224.158 202.844 223.64C204.044 223.122 204.887 222.255 205.369 221.04L218.744 187.381Z" clip-rule="evenodd" fill="#FFFFFF" fill-opacity="1.000000" fill-rule="evenodd"/>
		</g>
	</g>
</svg>
