<svg width="336.000000" height="336.000000" viewBox="0 0 336 336" fill="none" xmlns="http://www.w3.org/2000/svg" xmlns:xlink="http://www.w3.org/1999/xlink">
	<desc>
			Created with Pixso.
	</desc>
	<defs>
		<clipPath id="clip257_2231">
			<rect id="ic_light text" width="336.000000" height="336.000000" fill="white" fill-opacity="0"/>
		</clipPath>
		<linearGradient x1="168.000320" y1="0.000000" x2="168.000320" y2="336.000000" id="paint_linear_257_2620_0" gradientUnits="userSpaceOnUse">
			<stop stop-color="#55BFF2"/>
			<stop offset="1.000000" stop-color="#3898F7"/>
		</linearGradient>
		<linearGradient x1="271.255737" y1="45.869034" x2="222.071548" y2="92.658379" id="paint_linear_257_2925_0" gradientUnits="userSpaceOnUse">
			<stop offset="0.100487" stop-color="#4799ED"/>
			<stop offset="1.000000" stop-color="#77CDFB"/>
		</linearGradient>
		<linearGradient x1="228.940750" y1="-4.294334" x2="257.823578" y2="97.462639" id="paint_linear_257_2926_0" gradientUnits="userSpaceOnUse">
			<stop stop-color="#36BCF8"/>
			<stop offset="0.265149" stop-color="#A5DAFF"/>
			<stop offset="0.715692" stop-color="#CDEBFF"/>
			<stop offset="0.924672" stop-color="#80C9FF"/>
			<stop offset="1.000000" stop-color="#64B8F5" stop-opacity="0.000000"/>
		</linearGradient>
	</defs>
	<g clip-path="url(#clip257_2231)">
		<path id="矩形备份 113" d="M42.24 0L211.71 0C217.52 0 223.1 2.29 227.23 6.38L310.79 89.13C314.98 93.27 317.33 98.91 317.33 104.8L317.33 312.41C317.33 325.44 306.77 336 293.75 336L42.24 336C29.22 336 18.66 325.44 18.66 312.41L18.66 23.58C18.66 10.55 29.22 0 42.24 0Z" fill="url(#paint_linear_257_2620_0)" fill-opacity="1.000000" fill-rule="evenodd"/>
		<g style="mix-blend-mode:normal">
			<path id="矩形 2" d="M220.41 64.1L220.41 35L220.22 17.5C220.17 11.89 217.88 6.54 213.88 2.62L211.2 0L215.01 0C219.88 0 224.53 1.96 227.92 5.45L232.2 9.85L244.72 22.29L269.78 47.15L294.83 72.02L310.2 87.27C314.75 91.78 317.3 97.91 317.3 104.31L317.3 105.36L314.71 102.77C310.71 98.77 305.28 96.52 299.62 96.52L281.94 96.52L252.83 96.52C234.93 96.52 220.41 82.01 220.41 64.1Z" fill="url(#paint_linear_257_2925_0)" fill-opacity="1.000000" fill-rule="evenodd"/>
		</g>
		<path id="减去顶层" d="M207.117 0L207.113 0L209.253 1.49817L213.297 4.39062C214.423 5.19598 215.418 6.11157 216.282 7.13733L216.282 7.13745C217.033 8.02844 217.686 9.00262 218.239 10.0599C218.892 11.306 219.366 12.5922 219.663 13.918C219.911 15.0258 220.035 16.1614 220.035 17.3248L220.193 49.9795L220.22 64.8423C220.22 67.8314 220.631 70.6972 221.453 73.4398C221.972 75.1703 222.654 76.8517 223.5 78.4841C223.706 78.8807 223.92 79.2723 224.143 79.6592C226.005 82.8956 228.464 85.7888 231.52 88.3389C233.124 89.6783 234.818 90.8646 236.601 91.8976C238.194 92.8216 239.86 93.623 241.597 94.3019C245.076 95.6622 248.328 96.3424 251.352 96.3424C252.383 96.3424 253.193 95.5319 253.193 94.5001C253.193 93.4685 252.383 92.6578 251.352 92.6578C248.791 92.6578 245.986 92.062 242.938 90.8702C241.388 90.2643 239.9 89.5494 238.477 88.7259C236.864 87.7934 235.332 86.7214 233.881 85.5101C231.019 83.1213 228.751 80.4056 227.078 77.363C226.369 75.9952 225.484 74.0123 225.039 72.5635C224.282 70.1062 223.904 67.5325 223.904 64.8423L223.878 49.9729L223.72 17.3071C223.72 15.899 223.572 14.5236 223.276 13.1806L223.276 13.1803C222.911 11.5208 222.32 9.91101 221.503 8.35095C220.814 7.03467 220.001 5.82349 219.063 4.71771L219.063 4.71765C218.012 3.47729 216.805 2.36938 215.44 1.3938L214.492 0.715454C213.421 0.0742798 213.164 0.00769043 210.104 0.000793457L207.117 0.000793457L207.117 0Z" clip-rule="evenodd" fill="url(#paint_linear_257_2926_0)" fill-opacity="1.000000" fill-rule="evenodd"/>
		<g style="mix-blend-mode:normal">
			<path id="合并" d="M110.415 143.999L220.941 143.999C225.645 143.999 229.341 147.695 229.341 152.399C229.341 157.103 225.645 160.799 220.941 160.799L110.415 160.799C105.711 160.799 102.015 157.103 102.015 152.399C102.015 147.695 105.711 143.999 110.415 143.999ZM110.415 185.999L220.941 185.999C225.645 185.999 229.341 189.695 229.341 194.399C229.341 199.103 225.645 202.799 220.941 202.799L110.415 202.799C105.711 202.799 102.015 199.103 102.015 194.399C102.015 189.695 105.711 185.999 110.415 185.999ZM170.103 227.999L110.419 227.999C105.715 227.999 102.019 231.695 102.019 236.399C102.019 241.103 105.715 244.799 110.419 244.799L170.103 244.799C174.807 244.799 178.503 241.103 178.503 236.399C178.503 231.695 174.807 227.999 170.103 227.999Z" clip-rule="evenodd" fill="#FFFFFF" fill-opacity="1.000000" fill-rule="evenodd"/>
		</g>
	</g>
</svg>
