<svg width="336.000000" height="336.000000" viewBox="0 0 336 336" fill="none" xmlns="http://www.w3.org/2000/svg" xmlns:xlink="http://www.w3.org/1999/xlink">
	<desc>
			Created with Pixso.
	</desc>
	<defs>
		<clipPath id="clip257_2403">
			<rect id="ic_light rar" width="336.000000" height="336.000000" fill="white" fill-opacity="0"/>
		</clipPath>
		<linearGradient x1="168.000320" y1="0.000000" x2="168.000320" y2="336.000000" id="paint_linear_257_2386_0" gradientUnits="userSpaceOnUse">
			<stop stop-color="#9FB1BD"/>
			<stop offset="1.000000" stop-color="#BFCAD3"/>
		</linearGradient>
	</defs>
	<g clip-path="url(#clip257_2403)">
		<rect id="矩形 540" x="18.666992" rx="23.566467" width="298.666656" height="336.000000" fill="url(#paint_linear_257_2386_0)" fill-opacity="1.000000"/>
		<path id="合并" d="M189 -0.00012207L147 -0.00012207L147 4.1991C147 8.83875 150.761 12.5999 155.4 12.5999L180.6 12.5999C185.239 12.5999 189 8.83875 189 4.1991L189 -0.00012207ZM153.3 20.9998L182.7 20.9998C186.18 20.9998 189 23.8204 189 27.2998C189 30.7792 186.18 33.5999 182.7 33.5999L153.3 33.5999C149.82 33.5999 147 30.7792 147 27.2998C147 23.8204 149.82 20.9998 153.3 20.9998ZM182.7 41.9998L153.3 41.9998C149.82 41.9998 147 44.8204 147 48.2998C147 51.7792 149.82 54.5999 153.3 54.5999L182.7 54.5999C186.18 54.5999 189 51.7792 189 48.2998C189 44.8204 186.18 41.9998 182.7 41.9998ZM153.3 62.9997L182.7 62.9997C186.18 62.9997 189 65.8203 189 69.2997C189 72.7791 186.18 75.5997 182.7 75.5997L153.3 75.5997C149.82 75.5997 147 72.7791 147 69.2997C147 65.8203 149.82 62.9997 153.3 62.9997ZM184.8 84.0004L151.2 84.0004C148.881 84.0004 147 85.8809 147 88.2007L147 130.2C147 132.52 148.881 134.4 151.2 134.4L184.8 134.4C187.119 134.4 189 132.52 189 130.2L189 88.2007C189 85.8809 187.119 84.0004 184.8 84.0004ZM157.5 109.198L178.5 109.198C179.66 109.198 180.6 110.139 180.6 111.299L180.6 123.898C180.6 125.058 179.66 125.999 178.5 125.999L157.5 125.999C156.34 125.999 155.4 125.058 155.4 123.898L155.4 111.299C155.4 110.139 156.34 109.198 157.5 109.198Z" clip-rule="evenodd" fill="#FFFFFF" fill-opacity="1.000000" fill-rule="evenodd"/>
		<g style="mix-blend-mode:normal">
			<path id="合并" d="M101.998 178.641L101.998 201.436L101.998 222.852C101.998 225.451 104.041 227.494 106.641 227.494C109.239 227.494 111.282 225.451 111.282 222.852L111.282 209.168L131.463 226.382C133.44 228.07 136.319 227.841 138.007 225.864C139.694 223.886 139.466 221.006 137.488 219.319L121.94 206.056Q128.644 205.808 132.746 202.715C133.656 202.029 134.453 201.252 135.134 200.384L135.134 200.384Q136.078 199.182 136.728 197.75C137.602 195.822 138.038 193.647 138.038 191.224C138.038 189.164 137.729 187.207 137.111 185.353C137.023 185.089 136.93 184.828 136.829 184.569C136.303 183.209 135.626 181.958 134.798 180.816C134.336 180.18 133.827 179.577 133.271 179.008Q132.354 178.071 131.314 177.304C130.213 176.492 128.75 175.722 127.439 175.195Q124.324 173.999 120.75 173.999L106.641 173.999Q105.679 173.999 104.858 174.339Q104.037 174.679 103.357 175.359Q102.678 176.038 102.338 176.859L102.338 176.859L102.338 176.859L102.338 176.859L102.338 176.859Q101.998 177.68 101.998 178.641ZM197.967 222.852L197.967 178.641C197.967 177.359 198.42 176.265 199.326 175.359Q200.006 174.679 200.827 174.339L200.827 174.339Q201.647 173.999 202.609 173.999L216.719 173.999C219.102 173.999 221.331 174.398 223.408 175.195C224.719 175.722 226.182 176.492 227.283 177.304L227.286 177.307L227.287 177.307L227.287 177.307L227.287 177.307L227.287 177.307Q228.326 178.074 229.239 179.008C229.796 179.577 230.305 180.18 230.767 180.816L230.767 180.817Q232.009 182.529 232.798 184.569C232.898 184.828 232.992 185.089 233.08 185.353C233.698 187.207 234.007 189.164 234.007 191.224C234.007 193.647 233.57 195.822 232.696 197.75C232.263 198.705 231.731 199.583 231.103 200.384C230.422 201.252 229.625 202.029 228.715 202.715Q224.609 205.81 217.899 206.056L233.447 219.319C235.425 221.006 235.653 223.886 233.966 225.864C232.278 227.841 229.399 228.07 227.422 226.382L207.251 209.176L207.251 222.852C207.251 225.451 205.208 227.494 202.609 227.494C200.01 227.494 197.967 225.451 197.967 222.852ZM162.735 177.882L145.849 221.05C144.902 223.471 146.061 226.117 148.481 227.064C150.902 228.011 153.548 226.853 154.495 224.432L158.474 214.261L175.006 214.261L178.762 224.359C179.668 226.796 182.295 227.998 184.731 227.092C187.168 226.186 188.37 223.56 187.464 221.123L171.409 177.955Q171.236 177.49 170.976 177.081Q170.716 176.672 170.368 176.318Q170.021 175.965 169.616 175.698L169.616 175.697L169.615 175.697L169.615 175.697Q169.211 175.43 168.749 175.25C167.556 174.783 166.371 174.806 165.197 175.32C164.022 175.834 163.202 176.688 162.735 177.882ZM171.554 204.977L166.948 192.596L162.105 204.977L171.554 204.977ZM120.75 196.793L111.282 196.793L111.282 183.283L120.75 183.283C122.033 183.283 123.194 183.492 124.232 183.909C124.94 184.194 125.573 184.569 126.13 185.034C126.305 185.18 126.812 185.709 126.972 185.873Q127.725 186.766 128.17 187.919C128.56 188.925 128.754 190.026 128.754 191.224C128.754 192.309 128.594 193.207 128.271 193.916C128.164 194.153 128.034 194.373 127.882 194.577C127.68 194.848 127.438 195.09 127.157 195.302C126.564 195.748 125.78 196.098 124.803 196.35C123.658 196.646 122.308 196.793 120.75 196.793ZM207.251 196.793L216.719 196.793C218.276 196.793 219.627 196.646 220.771 196.35C221.749 196.098 222.533 195.748 223.126 195.302C223.407 195.09 223.648 194.848 223.851 194.577C224.003 194.373 224.133 194.153 224.24 193.916Q224.723 192.852 224.723 191.224C224.723 190.026 224.528 188.925 224.139 187.919C223.842 187.151 223.442 186.469 222.94 185.873C222.78 185.709 222.273 185.18 222.099 185.034C221.542 184.569 220.909 184.194 220.201 183.909C219.163 183.492 218.002 183.283 216.719 183.283L207.251 183.283L207.251 196.793Z" clip-rule="evenodd" fill="#FFFFFF" fill-opacity="1.000000" fill-rule="evenodd"/>
		</g>
	</g>
</svg>
