<svg width="336.000000" height="336.000000" viewBox="0 0 336 336" fill="none" xmlns="http://www.w3.org/2000/svg" xmlns:xlink="http://www.w3.org/1999/xlink">
	<desc>
			Created with Pixso.
	</desc>
	<defs>
		<clipPath id="clip257_2202">
			<rect id="ic_light caj" width="336.000000" height="336.000000" fill="white" fill-opacity="0"/>
		</clipPath>
		<linearGradient x1="168.000320" y1="0.000885" x2="168.000320" y2="336.000885" id="paint_linear_257_2778_0" gradientUnits="userSpaceOnUse">
			<stop stop-color="#FF7957"/>
			<stop offset="1.000000" stop-color="#E94D35"/>
		</linearGradient>
		<linearGradient x1="271.255737" y1="45.869431" x2="222.071548" y2="92.658775" id="paint_linear_257_2779_0" gradientUnits="userSpaceOnUse">
			<stop offset="0.100487" stop-color="#EE452B"/>
			<stop offset="1.000000" stop-color="#FF8B6E"/>
		</linearGradient>
		<linearGradient x1="228.940750" y1="-4.295097" x2="257.823578" y2="97.461876" id="paint_linear_257_2780_0" gradientUnits="userSpaceOnUse">
			<stop stop-color="#FF705A"/>
			<stop offset="0.263153" stop-color="#FEB8A4"/>
			<stop offset="0.641081" stop-color="#FFBAAC"/>
			<stop offset="0.945777" stop-color="#FF8F77"/>
			<stop offset="1.000000" stop-color="#F76B50" stop-opacity="0.000000"/>
		</linearGradient>
	</defs>
	<g clip-path="url(#clip257_2202)">
		<path id="矩形备份 113" d="M42.24 0L211.71 0C217.52 0 223.1 2.29 227.23 6.38L310.79 89.13C314.98 93.27 317.33 98.91 317.33 104.8L317.33 312.42C317.33 325.44 306.77 336 293.75 336L42.24 336C29.22 336 18.66 325.44 18.66 312.42L18.66 23.58C18.66 10.55 29.22 0 42.24 0Z" fill="url(#paint_linear_257_2778_0)" fill-opacity="1.000000" fill-rule="evenodd"/>
		<g style="mix-blend-mode:normal">
			<path id="矩形 2" d="M220.41 64.1L220.41 35L220.22 17.5C220.17 11.89 217.88 6.54 213.88 2.62L211.2 0L215.01 0C219.88 0 224.53 1.96 227.92 5.45L232.2 9.85L244.72 22.29L269.78 47.15L294.83 72.02L310.2 87.27C314.75 91.78 317.3 97.91 317.3 104.31L317.3 105.36L314.71 102.78C310.71 98.77 305.28 96.52 299.62 96.52L281.94 96.52L252.83 96.52C234.93 96.52 220.41 82.01 220.41 64.1Z" fill="url(#paint_linear_257_2779_0)" fill-opacity="1.000000" fill-rule="evenodd"/>
		</g>
		<path id="减去顶层" d="M207.117 -0.000762939L207.113 -0.000762939L209.253 1.49739L213.297 4.38983C214.423 5.19522 215.418 6.11081 216.282 7.13657L216.282 7.1367C217.033 8.02769 217.686 9.00183 218.239 10.0591C218.892 11.3053 219.366 12.5914 219.663 13.9173C219.911 15.0251 220.035 16.1607 220.035 17.3241L220.193 49.9787L220.22 64.8415C220.22 67.8306 220.631 70.6965 221.453 73.4391C221.972 75.1696 222.654 76.851 223.5 78.4833C223.706 78.8799 223.92 79.2716 224.143 79.6584C226.005 82.8948 228.464 85.7881 231.52 88.3381C233.124 89.6776 234.818 90.8638 236.601 91.8969C238.194 92.8209 239.86 93.6223 241.597 94.3011C245.076 95.6615 248.327 96.3416 251.352 96.3416C252.383 96.3416 253.193 95.5311 253.193 94.4994C253.193 93.4677 252.383 92.6571 251.352 92.6571C248.791 92.6571 245.986 92.0612 242.938 90.8695C241.388 90.2635 239.9 89.5487 238.477 88.7251C236.863 87.7926 235.332 86.7207 233.88 85.5093C231.019 83.1206 228.751 80.4049 227.078 77.3622C226.369 75.9944 225.484 74.0115 225.039 72.5627C224.282 70.1054 223.904 67.5317 223.904 64.8415L223.878 49.9721L223.72 17.3063C223.72 15.8983 223.572 14.5228 223.276 13.1798L223.276 13.1795C222.911 11.5201 222.32 9.91026 221.503 8.35019C220.814 7.03391 220.001 5.82272 219.063 4.71692L219.063 4.71689C218.012 3.47655 216.805 2.36859 215.44 1.39304L214.492 0.714661C213.462 0.0982971 213.186 0.0129547 210.445 0.00112915L207.117 0.00112915L207.117 -0.000762939Z" clip-rule="evenodd" fill="url(#paint_linear_257_2780_0)" fill-opacity="1.000000" fill-rule="evenodd"/>
		<g style="mix-blend-mode:normal">
			<path id="合并" d="M235.385 176.842C235.385 174.004 233.155 171.774 230.317 171.774C227.479 171.774 225.25 174.004 225.25 176.842L225.25 212.508C225.225 212.755 225.169 213.152 225.105 213.407C224.936 214.09 224.682 214.603 224.345 214.947C223.715 215.585 222.793 216.08 221.58 216.431C220.733 216.676 219.885 216.806 219.033 216.822C218.527 216.832 218.021 216.801 217.514 216.729C215.904 216.502 214.688 215.925 213.861 215C213.318 214.39 212.944 213.63 212.74 212.717C212.12 209.948 209.457 208.259 206.688 208.879C203.918 209.499 202.229 212.162 202.85 214.932C203.223 216.598 203.825 218.126 204.657 219.518C205.057 220.165 205.617 220.964 206.107 221.533C206.669 222.185 207.289 222.787 207.969 223.338C208.444 223.724 208.939 224.079 209.454 224.403C211.394 225.626 213.608 226.413 216.098 226.765C217.32 226.937 218.537 226.996 219.749 226.941C221.308 226.871 222.856 226.612 224.397 226.166C227.144 225.371 229.434 224.099 231.269 222.35C231.557 222.056 232.144 221.44 232.4 221.121C233.588 219.64 234.435 217.885 234.94 215.856C235.236 214.666 235.385 213.571 235.385 212.569L235.385 176.842ZM142.15 213.895C141.362 215.396 140.461 216.796 139.445 218.094C138.16 219.734 136.717 221.166 135.113 222.389C134.068 223.186 132.955 223.895 131.774 224.514C129.302 225.812 126.776 226.592 124.198 226.854C123.545 226.921 122.888 226.954 122.228 226.954C120.693 226.954 119.194 226.795 117.729 226.477C116.104 226.124 114.52 225.575 112.979 224.83C112.278 224.491 111.599 224.118 110.94 223.71C108.918 222.457 107.099 220.879 105.48 218.974C105.348 218.818 105.217 218.66 105.088 218.5Q102.173 214.897 100.565 210.236Q98.8145 205.158 98.8145 199.364Q98.8145 193.573 100.523 188.521C101.618 185.284 103.347 182.235 105.379 179.771Q107.726 176.985 110.66 175.129L110.66 175.129Q111.735 174.449 112.89 173.894Q114.907 172.924 117.034 172.398C118.714 171.982 120.444 171.774 122.228 171.774C124.331 171.774 126.243 171.982 127.963 172.397C129.703 172.817 131.325 173.472 132.798 174.344Q134.746 175.5 136.542 177.292C137.411 178.159 138.379 179.274 139.445 180.635C140.463 181.935 141.365 183.337 142.154 184.841C143.472 187.354 142.531 190.364 140.018 191.682C137.505 192.999 134.494 192.059 133.177 189.546Q132.423 188.107 131.465 186.883Q130.249 185.33 129.384 184.467C128.784 183.869 128.198 183.399 127.625 183.059C127.023 182.702 126.344 182.432 125.586 182.249C124.646 182.023 123.527 181.909 122.228 181.909C121.215 181.909 120.235 182.035 119.289 182.285C118.603 182.467 117.516 182.926 116.864 183.239Q114.774 184.349 113.131 186.3Q111.196 188.597 110.124 191.768C109.341 194.083 108.949 196.615 108.949 199.364Q108.949 203.459 110.147 206.932C110.875 209.043 111.894 210.87 113.204 212.412C114.356 213.768 115.927 214.953 117.39 215.705C118.234 216.114 119.103 216.41 119.993 216.593C120.722 216.744 121.467 216.819 122.228 216.819C123.827 216.819 125.439 216.393 127.064 215.54C127.606 215.256 128.123 214.938 128.616 214.586C129.678 213.829 130.627 212.916 131.465 211.846C132.103 211.031 132.673 210.145 133.175 209.187C134.493 206.674 137.503 205.735 140.017 207.053C142.529 208.371 143.469 211.382 142.15 213.895ZM168.098 175.942L150.044 219.964C148.968 222.59 150.185 225.499 152.811 226.575C155.436 227.652 158.345 226.435 159.422 223.81L163.913 212.856L181.809 212.856L186.047 223.728C187.078 226.372 189.966 227.639 192.609 226.608C195.253 225.577 196.521 222.69 195.49 220.046L178.328 176.031Q178.001 175.192 177.458 174.53C177.108 174.105 176.691 173.734 176.209 173.419C175.764 173.128 175.298 172.909 174.811 172.76L174.811 172.76Q174.061 172.53 173.243 172.523C172.697 172.518 172.174 172.588 171.671 172.732C171.182 172.873 170.712 173.085 170.262 173.367Q169.529 173.827 168.994 174.456L168.994 174.456C168.624 174.891 168.325 175.387 168.098 175.942ZM177.856 202.721L173.087 190.487L168.069 202.721L177.856 202.721Z" clip-rule="evenodd" fill="#FFFFFF" fill-opacity="1.000000" fill-rule="evenodd"/>
		</g>
	</g>
</svg>
