<svg width="24.000000" height="24.000000" viewBox="0 0 24 24" fill="none" xmlns="http://www.w3.org/2000/svg" xmlns:xlink="http://www.w3.org/1999/xlink">
	<desc>
			Created with Pixso.
	</desc>
	<defs/>
	<rect id="矩形" rx="4.000000" width="24.000000" height="24.000000" fill="#467DED" fill-opacity="1.000000"/>
	<mask id="mask73_1673" mask-type="alpha" maskUnits="userSpaceOnUse" x="7.125000" y="3.375000" width="10.125000" height="17.250000">
		<path id="形状结合" d="M10.0094 3.375L13.9906 3.375C14.9936 3.375 15.3573 3.47943 15.7239 3.67554C16.0906 3.87161 16.3784 4.15939 16.5745 4.52606L16.6047 4.58401C16.7813 4.93277 16.875 5.3092 16.875 6.25937L16.875 8.8125C17.0821 8.8125 17.25 8.98041 17.25 9.1875L17.25 10.6875C17.25 10.8946 17.0821 11.0625 16.875 11.0625L16.875 17.7406L16.8741 17.8938C16.8637 18.7819 16.7603 19.1266 16.5745 19.4739C16.3784 19.8406 16.0906 20.1284 15.7239 20.3245L15.666 20.3547C15.3172 20.5313 14.9408 20.625 13.9906 20.625L10.0094 20.625L9.85623 20.6241C8.96811 20.6138 8.62341 20.5103 8.27606 20.3245C7.90939 20.1284 7.62161 19.8406 7.42554 19.4739L7.39532 19.416C7.21872 19.0672 7.125 18.6908 7.125 17.7406L7.125 6.25937C7.125 5.25641 7.22943 4.8927 7.42554 4.52606C7.62161 4.15939 7.90939 3.87161 8.27606 3.67554L8.33401 3.64532C8.68277 3.46872 9.0592 3.375 10.0094 3.375ZM9.8187 4.5011L10.0093 4.5L14.0569 4.50012C14.7489 4.50272 14.9689 4.54755 15.1933 4.66757C15.364 4.75882 15.4911 4.88599 15.5824 5.05661C15.7061 5.28806 15.7499 5.5148 15.7499 6.25937L15.7499 17.7406L15.7488 17.9312C15.7413 18.5265 15.6949 18.733 15.5824 18.9434C15.4911 19.114 15.364 19.2412 15.1933 19.3324C14.9619 19.4562 14.7351 19.5 13.9906 19.5L10.0093 19.5L9.8187 19.4989C9.22345 19.4914 9.01694 19.4449 8.80655 19.3324C8.63593 19.2412 8.50876 19.114 8.41751 18.9434C8.30521 18.7335 8.25876 18.5274 8.2511 17.9351L8.25006 17.8069L8.25006 6.19308C8.25266 5.50104 8.29749 5.28104 8.41751 5.05661C8.50876 4.88599 8.63593 4.75882 8.80655 4.66757C9.01694 4.55505 9.22345 4.50864 9.8187 4.5011Z" clip-rule="evenodd" fill="#FFFFFF" fill-opacity="0.901961" fill-rule="evenodd"/>
	</mask>
	<path id="形状结合" d="M10.0094 3.375L13.9906 3.375C14.9936 3.375 15.3573 3.47943 15.7239 3.67554C16.0906 3.87161 16.3784 4.15939 16.5745 4.52606L16.6047 4.58401C16.7813 4.93277 16.875 5.3092 16.875 6.25937L16.875 8.8125C17.0821 8.8125 17.25 8.98041 17.25 9.1875L17.25 10.6875C17.25 10.8946 17.0821 11.0625 16.875 11.0625L16.875 17.7406L16.8741 17.8938C16.8637 18.7819 16.7603 19.1266 16.5745 19.4739C16.3784 19.8406 16.0906 20.1284 15.7239 20.3245L15.666 20.3547C15.3172 20.5313 14.9408 20.625 13.9906 20.625L10.0094 20.625L9.85623 20.6241C8.96811 20.6138 8.62341 20.5103 8.27606 20.3245C7.90939 20.1284 7.62161 19.8406 7.42554 19.4739L7.39532 19.416C7.21872 19.0672 7.125 18.6908 7.125 17.7406L7.125 6.25937C7.125 5.25641 7.22943 4.8927 7.42554 4.52606C7.62161 4.15939 7.90939 3.87161 8.27606 3.67554L8.33401 3.64532C8.68277 3.46872 9.0592 3.375 10.0094 3.375ZM9.8187 4.5011L10.0093 4.5L14.0569 4.50012C14.7489 4.50272 14.9689 4.54755 15.1933 4.66757C15.364 4.75882 15.4911 4.88599 15.5824 5.05661C15.7061 5.28806 15.7499 5.5148 15.7499 6.25937L15.7499 17.7406L15.7488 17.9312C15.7413 18.5265 15.6949 18.733 15.5824 18.9434C15.4911 19.114 15.364 19.2412 15.1933 19.3324C14.9619 19.4562 14.7351 19.5 13.9906 19.5L10.0093 19.5L9.8187 19.4989C9.22345 19.4914 9.01694 19.4449 8.80655 19.3324C8.63593 19.2412 8.50876 19.114 8.41751 18.9434C8.30521 18.7335 8.25876 18.5274 8.2511 17.9351L8.25006 17.8069L8.25006 6.19308C8.25266 5.50104 8.29749 5.28104 8.41751 5.05661C8.50876 4.88599 8.63593 4.75882 8.80655 4.66757C9.01694 4.55505 9.22345 4.50864 9.8187 4.5011Z" clip-rule="evenodd" fill="#FFFFFF" fill-opacity="0.901961" fill-rule="evenodd"/>
	<g opacity="0.600000">
		<mask id="mask73_1675" mask-type="alpha" maskUnits="userSpaceOnUse" x="9.000000" y="5.250000" width="6.000000" height="13.500000">
			<rect id="矩形" x="9.000000" y="5.250000" rx="0.375000" width="6.000000" height="13.500000" fill="#FFFFFF" fill-opacity="0.901961"/>
		</mask>
		<rect id="矩形" x="9.000000" y="5.250000" rx="0.375000" width="6.000000" height="13.500000" fill="#FFFFFF" fill-opacity="0.901961"/>
	</g>
</svg>
