<?xml version="1.0" encoding="UTF-8"?>
<svg width="24px" height="24px" viewBox="0 0 24 24" version="1.1" xmlns="http://www.w3.org/2000/svg" xmlns:xlink="http://www.w3.org/1999/xlink">
    <title>ic/save/ic_save</title>
    <g id="ic/save/ic_save" stroke="none" stroke-width="1" fill="none" fill-rule="evenodd">
        <g id="arrow_right_folder_circle" fill="#000000" fill-rule="nonzero">
            <g id="group" opacity="0">
                <rect id="矩形" x="0" y="0" width="24" height="24"></rect>
            </g>
            <g id="group0" transform="translate(1.010000, 3.070000)" fill-opacity="0.90196079">
                <path d="M6.29,0 C6.61,0 6.92,0.0833333333 7.22,0.25 C7.52666667,0.423333333 7.76,0.643333333 7.92,0.91 L15.62,0.91 C16.5466667,0.91 17.36,1.21666667 18.06,1.83 C18.7533333,2.43666667 19.1633333,3.19666667 19.29,4.11 C20.0766667,4.27 20.7266667,4.65333333 21.24,5.26 C21.7533333,5.86666667 22.01,6.57666667 22.01,7.39 L22.0100183,10.3600637 C21.9332382,10.2743371 21.8532321,10.1909825 21.77,10.11 C21.3863245,9.72632446 20.9672686,9.41154742 20.5128325,9.16566888 L20.52,7.39 C20.52,6.88333333 20.34,6.45 19.98,6.09 C19.62,5.73 19.1833333,5.55 18.67,5.55 L10.08,5.55 C9.72666667,5.55 9.40666667,5.46333333 9.12,5.29 C8.83333333,5.12333333 8.6,4.89666667 8.42,4.61 L6.67,1.73 C6.62333333,1.65 6.56666667,1.59333333 6.5,1.56 C6.44,1.52666667 6.37,1.51 6.29,1.51 L3.36,1.51 C2.84666667,1.51 2.41,1.69 2.05,2.05 C1.69,2.41 1.51,2.84666667 1.51,3.36 L1.51,14.5 C1.51,15.0133333 1.69,15.45 2.05,15.81 C2.41,16.17 2.84666667,16.35 3.36,16.35 L13.3316452,16.3513684 C13.5740827,16.8073238 13.880201,17.220201 14.25,17.59 C14.3448276,17.6848276 14.4418164,17.7754464 14.5409665,17.8618566 L3.36,17.86 C2.75333333,17.86 2.19333333,17.71 1.68,17.41 C1.16666667,17.1166667 0.756666667,16.71 0.45,16.19 C0.15,15.67 0,15.1066667 0,14.5 L0,3.36 C0,2.75333333 0.15,2.19333333 0.45,1.68 C0.756666667,1.16666667 1.16666667,0.76 1.68,0.46 C2.19333333,0.153333333 2.75333333,0 3.36,0 Z M15.62,2.4 L8.85,2.4 L9.69,3.82 C9.79,3.96 9.92,4.03 10.08,4.03 L17.76,4.03 C17.6333333,3.55 17.3733333,3.16 16.98,2.86 C16.5866667,2.55333333 16.1333333,2.4 15.62,2.4 Z" id="形状"></path>
            </g>
            <g id="group1" transform="translate(15.035000, 12.910000)" fill-opacity="0.90196079">
                <g id="layers">
                    <path d="M3.995,0 C3.46833333,0 2.95833333,0.1 2.465,0.3 C1.965,0.5 1.53166667,0.793333333 1.165,1.18 C0.651666667,1.69333333 0.308333333,2.29333333 0.135,2.98 C-0.045,3.66666667 -0.045,4.35 0.135,5.03 C0.308333333,5.71 0.651666667,6.30666667 1.165,6.82 C1.55166667,7.2 1.985,7.49 2.465,7.69 C2.945,7.89 3.455,7.99 3.995,7.99 C4.50833333,7.99 5.01166667,7.89 5.505,7.69 C6.005,7.49 6.445,7.2 6.825,6.82 C7.325,6.30666667 7.665,5.70666667 7.845,5.02 C8.03166667,4.33333333 8.03166667,3.65 7.845,2.97 C7.665,2.29 7.325,1.69333333 6.825,1.18 C6.445,0.793333333 6.005,0.5 5.505,0.3 C5.01166667,0.1 4.50833333,0 3.995,0 Z M4.885,3.55 L3.755,2.43 C3.675,2.35 3.635,2.24333333 3.635,2.11 C3.635,1.98333333 3.675,1.87333333 3.755,1.78 C3.835,1.7 3.93833333,1.66 4.065,1.66 C4.19833333,1.66 4.31166667,1.7 4.405,1.78 L6.155,3.53 C6.28166667,3.65666667 6.345,3.81666667 6.345,4.01 C6.345,4.09 6.33166667,4.17 6.305,4.25 C6.27166667,4.33 6.22166667,4.40333333 6.155,4.47 L4.385,6.22 C4.33166667,6.26666667 4.28166667,6.30333333 4.235,6.33 C4.18833333,6.35 4.13166667,6.36 4.065,6.36 C3.93833333,6.36 3.835,6.31333333 3.755,6.22 C3.66166667,6.14 3.615,6.03666667 3.615,5.91 C3.615,5.77666667 3.66166667,5.67 3.755,5.59 L4.885,4.44 L2.075,4.44 C1.96166667,4.44 1.86166667,4.39666667 1.775,4.31 C1.68833333,4.22333333 1.645,4.12333333 1.645,4.01 C1.645,3.88333333 1.685,3.77666667 1.765,3.69 C1.845,3.59666667 1.94833333,3.55 2.075,3.55 L4.885,3.55 Z" id="形状" transform="translate(3.992500, 3.995000) scale(-1, 1) translate(-3.992500, -3.995000) "></path>
                </g>
            </g>
        </g>
    </g>
</svg>