<svg width="48.000000" height="48.000000" viewBox="0 0 48 48" fill="none" xmlns="http://www.w3.org/2000/svg" xmlns:xlink="http://www.w3.org/1999/xlink">
	<desc>
			Created with Pixso.
	</desc>
	<defs/>
	<rect id="矩形" rx="8.000000" width="48.000000" height="48.000000" fill="#467DED" fill-opacity="1.000000"/>
	<path id="path" d="M13.84 11.61C11.63 11.61 9.95 12.19 8.82 13.36C7.68 14.52 7.11 16.18 7.11 18.34L7.11 29.65C7.11 31.02 7.4 32.21 7.99 33.21C8.58 34.22 9.39 35 10.41 35.55C11.43 36.11 12.57 36.39 13.84 36.39L34.15 36.39C35.76 36.39 37.05 36.16 38.02 35.73C38.99 35.3 39.71 34.59 40.18 33.61C40.65 32.62 40.89 31.3 40.89 29.65L40.89 18.34C40.89 16.09 40.33 14.41 39.21 13.29C38.09 12.17 36.4 11.61 34.15 11.61L13.84 11.61ZM34.47 13.89C35.82 13.89 36.84 14.26 37.53 15C38.23 15.74 38.59 16.85 38.61 18.34L38.61 29.97C38.61 31.03 38.49 31.86 38.25 32.46C38.01 33.06 37.61 33.48 37.06 33.73C36.51 33.98 35.76 34.11 34.8 34.11L13.48 34.11C12.16 34.11 11.15 33.71 10.44 32.92C9.74 32.13 9.39 31.04 9.39 29.65L9.39 17.98C9.39 16.54 9.75 15.5 10.48 14.85C11.21 14.21 12.33 13.89 13.84 13.89L34.47 13.89Z" fill="#FFFFFF" fill-opacity="0.901961" fill-rule="nonzero"/>
	<path id="path" d="M13.74 15.36C13.04 15.36 12.48 15.45 12.06 15.64C11.64 15.83 11.33 16.14 11.14 16.56C10.95 16.98 10.86 17.54 10.86 18.24L10.86 29.73C10.86 30.61 11.12 31.31 11.65 31.84C12.18 32.37 12.87 32.64 13.74 32.64L34.23 32.64C35.14 32.64 35.85 32.39 36.36 31.9C36.87 31.41 37.14 30.69 37.14 29.73L37.14 18.24C37.14 17.4 36.87 16.7 36.33 16.17C35.79 15.63 35.09 15.36 34.23 15.36L13.74 15.36Z" fill="#FFFFFF" fill-opacity="0.540000" fill-rule="nonzero"/>
</svg>
