<?xml version="1.0" encoding="utf-8"?>
<!-- Generator: Adobe Illustrator 26.3.1, SVG Export Plug-In . SVG Version: 6.00 Build 0)  -->
<svg version="1.1" id="图层_1" xmlns="http://www.w3.org/2000/svg" xmlns:xlink="http://www.w3.org/1999/xlink" x="0px" y="0px"
	 viewBox="0 0 24 24" style="enable-background:new 0 0 24 24;" xml:space="preserve">
<style type="text/css">
	.st0{fill-rule:evenodd;clip-rule:evenodd;fill-opacity:0.902;}
</style>
<g id="ic_MoveIn">
	<path id="形状结合" class="st0" d="M8,2.01c0.41,0,0.75,0.34,0.75,0.75S8.41,3.51,8,3.51H5.75c-1.24,0-2.25,1.01-2.25,2.25
		v12.49c0,1.24,1.01,2.25,2.25,2.25h12.5c1.24,0,2.25-1.01,2.25-2.25V5.76c0-1.24-1.01-2.25-2.25-2.25h-2.21
		c-0.41,0-0.75-0.34-0.75-0.75s0.34-0.75,0.75-0.75h2.21c2.07,0,3.75,1.68,3.75,3.75v12.49c0,2.07-1.68,3.75-3.75,3.75H5.75
		C3.68,22,2,20.32,2,18.25V5.76c0-2.07,1.68-3.75,3.75-3.75H8z M12,1c0.41,0,0.75,0.34,0.75,0.75l0,13.52l4.65-4.65
		c0.29-0.29,0.77-0.29,1.06,0c0.29,0.29,0.29,0.77,0,1.06l-6,6c-0.29,0.29-0.77,0.29-1.06,0l-6-5.99c-0.29-0.29-0.29-0.77,0-1.06
		s0.77-0.29,1.06,0l4.79,4.78l0-13.65C11.25,1.34,11.59,1,12,1z"/>
</g>
</svg>
