<?xml version="1.0" encoding="utf-8"?>
<!-- Generator: Adobe Illustrator 26.3.1, SVG Export Plug-In . SVG Version: 6.00 Build 0)  -->
<svg version="1.1" id="ic_nav_filemanager_remove" xmlns="http://www.w3.org/2000/svg" xmlns:xlink="http://www.w3.org/1999/xlink" x="0px" y="0px"
	 viewBox="0 0 24 24" fill="#fffffff" style="enable-background:new 0 0 24 24;" xml:space="preserve">
<style type="text/css">
	.st0{fill-rule:evenodd;clip-rule:evenodd;}
</style>
<path class="st0" d="M7.83,14.11h8.5c0.41,0,0.75,0.34,0.75,0.75s-0.34,0.75-0.75,0.75h-8.5c-0.41,0-0.75-0.34-0.75-0.75
	S7.41,14.11,7.83,14.11z M12.84,7.35l4.19,4.94c0.18,0.21,0.15,0.53-0.06,0.7c-0.09,0.08-0.21,0.12-0.32,0.12H7.5
	c-0.28,0-0.5-0.22-0.5-0.5c0-0.12,0.04-0.23,0.12-0.32l4.19-4.94c0.36-0.42,0.99-0.47,1.41-0.11C12.76,7.27,12.8,7.31,12.84,7.35z"
	/>
</svg>
