<svg width="32.000244" height="32.000000" viewBox="0 0 32.0002 32" fill="none" xmlns="http://www.w3.org/2000/svg" xmlns:xlink="http://www.w3.org/1999/xlink">
    <desc>
        Created with Pixso.
    </desc>
    <defs/>
    <path id="路径" d="M29.66 7.66L29.66 21.88C29.66 22.99 28.77 23.88 27.66 23.88L4.33 23.88C3.22 23.88 2.33 22.99 2.33 21.88L2.33 7.66C2.33 6.56 3.22 5.66 4.33 5.66L27.66 5.66C28.77 5.66 29.66 6.56 29.66 7.66Z" fill="#000000" fill-opacity="0" fill-rule="evenodd"/>
    <path id="路径" d="M29.66 7.66L29.66 21.88C29.66 22.99 28.77 23.88 27.66 23.88L4.33 23.88C3.22 23.88 2.33 22.99 2.33 21.88L2.33 7.66C2.33 6.56 3.22 5.66 4.33 5.66L27.66 5.66C28.77 5.66 29.66 6.56 29.66 7.66ZM28.66 7.66L28.66 21.88C28.66 21.97 28.65 22.05 28.63 22.12C28.62 22.18 28.6 22.22 28.58 22.27C28.56 22.33 28.54 22.37 28.5 22.42C28.47 22.48 28.42 22.54 28.37 22.59C28.32 22.64 28.26 22.69 28.2 22.73C28.15 22.76 28.1 22.78 28.05 22.81C28 22.83 27.95 22.84 27.9 22.86C27.82 22.87 27.74 22.88 27.66 22.88L4.33 22.88C4.25 22.88 4.17 22.87 4.09 22.86C4.04 22.84 3.99 22.83 3.94 22.81C3.89 22.78 3.84 22.76 3.79 22.73C3.73 22.69 3.67 22.64 3.62 22.59C3.57 22.54 3.52 22.48 3.48 22.42C3.45 22.37 3.43 22.33 3.41 22.27C3.39 22.22 3.37 22.18 3.36 22.12C3.34 22.05 3.33 21.97 3.33 21.88L3.33 7.66C3.33 7.58 3.34 7.5 3.36 7.42C3.37 7.37 3.39 7.32 3.41 7.27C3.43 7.22 3.45 7.17 3.48 7.12C3.52 7.06 3.57 7.01 3.62 6.95C3.67 6.9 3.73 6.86 3.79 6.82C3.84 6.79 3.89 6.76 3.94 6.74C3.99 6.72 4.04 6.7 4.09 6.69C4.17 6.67 4.25 6.66 4.33 6.66L27.66 6.66C27.74 6.66 27.82 6.67 27.9 6.69C27.95 6.7 28 6.72 28.05 6.74C28.1 6.76 28.15 6.79 28.2 6.82C28.26 6.86 28.32 6.9 28.37 6.95C28.42 7.01 28.47 7.06 28.5 7.12C28.54 7.17 28.56 7.22 28.58 7.27C28.6 7.32 28.62 7.37 28.63 7.42C28.65 7.5 28.66 7.58 28.66 7.66Z" fill="#333333" fill-opacity="1.000000" fill-rule="evenodd"/>
    <mask id="mask_13_237349" fill="white">
        <path id="形状结合" d="M3.63843 23.0614L0.5 24.778L0.499756 24.7784C0.201172 24.9227 0 25.192 0 25.5C0 25.9598 0.448242 26.3334 1 26.3334C1.04907 26.3334 1.09766 26.3304 1.14478 26.3247C1.18701 26.3304 1.23022 26.3335 1.27393 26.3335L30.7263 26.3335C30.77 26.3335 30.813 26.3304 30.8552 26.3247C30.9026 26.3304 30.9509 26.3334 31.0002 26.3334C31.552 26.3334 32.0002 25.9598 32.0002 25.5C32.0002 25.192 31.7991 24.9227 31.5002 24.7784L31.5002 24.778L28.3616 23.0614C28.2881 23.0212 28.2056 23.0001 28.1216 23.0001L3.87842 23.0001C3.79468 23.0001 3.71216 23.0212 3.63843 23.0614Z" clip-rule="evenodd" fill="" fill-opacity="1.000000" fill-rule="evenodd"/>
    </mask>
    <path id="形状结合" d="M3.63843 23.0614L0.5 24.778L0.499756 24.7784C0.201172 24.9227 0 25.192 0 25.5C0 25.9598 0.448242 26.3334 1 26.3334C1.04907 26.3334 1.09766 26.3304 1.14478 26.3247C1.18701 26.3304 1.23022 26.3335 1.27393 26.3335L30.7263 26.3335C30.77 26.3335 30.813 26.3304 30.8552 26.3247C30.9026 26.3304 30.9509 26.3334 31.0002 26.3334C31.552 26.3334 32.0002 25.9598 32.0002 25.5C32.0002 25.192 31.7991 24.9227 31.5002 24.7784L31.5002 24.778L28.3616 23.0614C28.2881 23.0212 28.2056 23.0001 28.1216 23.0001L3.87842 23.0001C3.79468 23.0001 3.71216 23.0212 3.63843 23.0614Z" clip-rule="evenodd" fill="#333333" fill-opacity="1.000000" fill-rule="evenodd" mask="url(#mask_13_237349)"/>
    <path id="形状结合" d="" clip-rule="evenodd" fill="#979797" fill-opacity="0.000000" fill-rule="evenodd"/>
    <rect id="矩形" x="4.333252" y="7.666748" rx="0.500000" width="23.333332" height="14.000000" fill="#000000" fill-opacity="0.200000"/>
    <mask id="mask13_239157" mask-type="alpha" maskUnits="userSpaceOnUse" x="11.520752" y="11.458252" width="9.035156" height="7.291748">
        <path id="形状结合" d="M19.6924 12.8058C17.3289 10.788 13.7769 11.0682 11.759 13.432L11.6206 13.5942L11.6062 13.6121C11.4727 13.7867 11.4978 14.0372 11.667 14.1816C11.8418 14.3311 12.105 14.3103 12.2544 14.1354L12.3928 13.973L12.4448 13.9131C14.1724 11.9548 17.158 11.7378 19.1514 13.4396C19.3481 13.6075 19.531 13.7911 19.6982 13.9886L19.821 14.1339L19.8364 14.151C19.9873 14.3109 20.2385 14.3265 20.4084 14.1829C20.584 14.0342 20.606 13.7712 20.4573 13.5956L20.3342 13.4503L20.2683 13.3737C20.0901 13.1708 19.8977 12.9811 19.6924 12.8058ZM13.2878 15.2341L13.2966 15.2238C14.5876 13.7095 16.8616 13.5286 18.3757 14.8196C18.5249 14.9467 18.6636 15.0858 18.79 15.2355C18.9385 15.4113 18.9165 15.6741 18.7407 15.8226C18.5649 15.9712 18.302 15.9491 18.1536 15.7734C18.0564 15.6583 17.9497 15.5514 17.8352 15.4537C16.6829 14.4712 14.958 14.5978 13.9607 15.7297L13.9219 15.7748C13.7727 15.9498 13.5095 15.9708 13.3345 15.8215C13.1653 15.6771 13.1401 15.4266 13.2734 15.252L13.2878 15.2341ZM16 16.4583C15.4822 16.4583 15.0625 16.8781 15.0625 17.3958L15.0625 17.8125C15.0625 18.3302 15.4822 18.75 16 18.75C16.5178 18.75 16.9375 18.3302 16.9375 17.8125L16.9375 17.3958C16.9375 16.8781 16.5178 16.4583 16 16.4583Z" clip-rule="evenodd" fill="#333333" fill-opacity="1.000000" fill-rule="evenodd"/>
    </mask>
    <path id="形状结合" d="M19.6924 12.8058C17.3289 10.788 13.7769 11.0682 11.759 13.432L11.6206 13.5942L11.6062 13.6121C11.4727 13.7867 11.4978 14.0372 11.667 14.1816C11.8418 14.3311 12.105 14.3103 12.2544 14.1354L12.3928 13.973L12.4448 13.9131C14.1724 11.9548 17.158 11.7378 19.1514 13.4396C19.3481 13.6075 19.531 13.7911 19.6982 13.9886L19.821 14.1339L19.8364 14.151C19.9873 14.3109 20.2385 14.3265 20.4084 14.1829C20.584 14.0342 20.606 13.7712 20.4573 13.5956L20.3342 13.4503L20.2683 13.3737C20.0901 13.1708 19.8977 12.9811 19.6924 12.8058ZM13.2878 15.2341L13.2966 15.2238C14.5876 13.7095 16.8616 13.5286 18.3757 14.8196C18.5249 14.9467 18.6636 15.0858 18.79 15.2355C18.9385 15.4113 18.9165 15.6741 18.7407 15.8226C18.5649 15.9712 18.302 15.9491 18.1536 15.7734C18.0564 15.6583 17.9497 15.5514 17.8352 15.4537C16.6829 14.4712 14.958 14.5978 13.9607 15.7297L13.9219 15.7748C13.7727 15.9498 13.5095 15.9708 13.3345 15.8215C13.1653 15.6771 13.1401 15.4266 13.2734 15.252L13.2878 15.2341ZM16 16.4583C15.4822 16.4583 15.0625 16.8781 15.0625 17.3958L15.0625 17.8125C15.0625 18.3302 15.4822 18.75 16 18.75C16.5178 18.75 16.9375 18.3302 16.9375 17.8125L16.9375 17.3958C16.9375 16.8781 16.5178 16.4583 16 16.4583Z" clip-rule="evenodd" fill="#333333" fill-opacity="1.000000" fill-rule="evenodd"/>
    <g mask="url(#mask13_239157)">
        <rect id="color/#000000" x="11.000000" y="10.000000" width="10.000000" height="10.000000" fill="#000000" fill-opacity="0.898039"/>
    </g>
</svg>
