<?xml version="1.0" encoding="UTF-8"?>
<svg width="84px" height="86px" viewBox="0 0 84 86" version="1.1" xmlns="http://www.w3.org/2000/svg" xmlns:xlink="http://www.w3.org/1999/xlink">
    <title>doc</title>
    <defs>
        <path d="M71.4782609,84.9565217 C77.8175293,84.9565217 82.9565217,79.8175293 82.9565217,73.4782609 C82.9565217,67.1389924 77.8175293,62 71.4782609,62 C65.1389924,62 60,67.1389924 60,73.4782609 C60,79.8175293 65.1389924,84.9565217 71.4782609,84.9565217 Z" id="path-1"></path>
        <path d="M71.4782609,66 C73.1879424,66 74.5775098,67.370571 74.608178,69.0729278 L74.6086957,70.8695652 C75.7612899,70.8695652 76.6956522,71.8039275 76.6956522,72.9565217 L76.6956522,77.4782609 C76.6956522,78.6308551 75.7612899,79.5652174 74.6086957,79.5652174 L68.3478261,79.5652174 C67.1952318,79.5652174 66.2608696,78.6308551 66.2608696,77.4782609 L66.2608696,72.9565217 C66.2608696,71.8039275 67.1952318,70.8695652 68.3478261,70.8695652 L68.3478261,69.1304348 C68.3478261,67.4015434 69.7493695,66 71.4782609,66 Z M71.4782609,73.826087 C70.7098647,73.826087 70.0869565,74.4489951 70.0869565,75.2173913 C70.0869565,75.9857875 70.7098647,76.6086957 71.4782609,76.6086957 C72.246657,76.6086957 72.8695652,75.9857875 72.8695652,75.2173913 C72.8695652,74.4489951 72.246657,73.826087 71.4782609,73.826087 Z M71.4782609,67.3913043 C70.5340452,67.3913043 69.7655771,68.1437688 69.7397986,69.0817557 L69.7388696,70.869 L73.2168696,70.869 L73.2173913,69.1304348 C73.2173913,68.1699396 72.4387561,67.3913043 71.4782609,67.3913043 Z" id="path-3"></path>
    </defs>
    <g id="doc" stroke="none" stroke-width="1" fill="none" fill-rule="evenodd">
        <g id="ic_normal_doc" transform="translate(7.000000, 0.000000)">
            <rect id="矩形备份-6" fill="#FFFFFF" fill-rule="nonzero" x="67.5" y="19" width="1" height="1.5"></rect>
            <path d="M4.10714286,0 L49.1637105,0 L49.1637105,0 L49.127797,16.4185721 C49.1222745,18.9432963 51.164491,20.9944666 53.6892152,20.9999891 C53.6925485,21 53.6958815,21 53.6992148,21 L70.1071429,21 L70.1071429,21 L70.1071429,76 C70.1071429,78.209139 68.3162818,80 66.1071429,80 L4.10714286,80 C1.89800386,80 0.107142857,78.209139 0.107142857,76 L0.107142857,4 C0.107142857,1.790861 1.89800386,0 4.10714286,0 Z" id="矩形备份-23" fill="#61A4FF" fill-rule="nonzero"></path>
            <path d="M49.1071428,0 L70.1071428,21 L53.6785715,21 C51.1538412,21 49.1071428,18.9533017 49.1071428,16.4285714 L49.1071428,0 L49.1071428,0 Z" id="矩形备份-24" fill="#A2C9FF" fill-rule="nonzero"></path>
            <polyline id="路径-4" stroke="#FFFFFF" stroke-width="4" stroke-linecap="round" stroke-linejoin="round" points="22.6071428 40 28.1155482 62 35.1929935 40 42.2466005 62 47.6071427 40"></polyline>
        </g>
        <mask id="mask-2" fill="white">
            <use xlink:href="#path-1"></use>
        </mask>
        <use id="蒙版" fill="#61CFBE" xlink:href="#path-1"></use>
        <mask id="mask-4" fill="white">
            <use xlink:href="#path-3"></use>
        </mask>
        <use id="形状结合" fill="#FFFFFF" fill-rule="nonzero" xlink:href="#path-3"></use>
    </g>
</svg>