<?xml version="1.0" encoding="UTF-8"?>
<svg width="24px" height="24px" viewBox="0 0 24 24" version="1.1" xmlns="http://www.w3.org/2000/svg" xmlns:xlink="http://www.w3.org/1999/xlink">
    <title>icon</title>
    <defs>
        <path d="M12,23.3433951 C18.3392684,23.3433951 23.4782609,18.2044027 23.4782609,11.8651342 C23.4782609,5.52586579 18.3392684,0.38687335 12,0.38687335 C5.66073157,0.38687335 0.52173913,5.52586579 0.52173913,11.8651342 C0.52173913,18.2044027 5.66073157,23.3433951 12,23.3433951 Z" id="path-1"></path>
        <path d="M12,4.38687335 C13.7096815,4.38687335 15.099249,5.75744436 15.1299172,7.45980113 L15.1304348,9.25643857 C16.283029,9.25643857 17.2173913,10.1908008 17.2173913,11.3433951 L17.2173913,15.8651342 C17.2173913,17.0177285 16.283029,17.9520907 15.1304348,17.9520907 L8.86956522,17.9520907 C7.71697096,17.9520907 6.7826087,17.0177285 6.7826087,15.8651342 L6.7826087,11.3433951 C6.7826087,10.1908008 7.71697096,9.25643857 8.86956522,9.25643857 L8.86956522,7.51730813 C8.86956522,5.78841674 10.2711086,4.38687335 12,4.38687335 Z M12,12.2129603 C11.2316038,12.2129603 10.6086957,12.8358685 10.6086957,13.6042647 C10.6086957,14.3726608 11.2316038,14.995569 12,14.995569 C12.7683962,14.995569 13.3913043,14.3726608 13.3913043,13.6042647 C13.3913043,12.8358685 12.7683962,12.2129603 12,12.2129603 Z M12,5.7781777 C11.0557844,5.7781777 10.2873162,6.53064218 10.2615377,7.46862903 L10.2606087,9.25587335 L13.7386087,9.25587335 L13.7391304,7.51730813 C13.7391304,6.55681292 12.9604952,5.7781777 12,5.7781777 Z" id="path-3"></path>
    </defs>
    <g id="icon" stroke="none" stroke-width="1" fill="none" fill-rule="evenodd">
        <g id="编组">
            <mask id="mask-2" fill="white">
                <use xlink:href="#path-1"></use>
            </mask>
            <use id="蒙版" fill="#61CFBE" xlink:href="#path-1"></use>
            <mask id="mask-4" fill="white">
                <use xlink:href="#path-3"></use>
            </mask>
            <use id="形状结合" fill="#FFFFFF" fill-rule="nonzero" xlink:href="#path-3"></use>
        </g>
    </g>
</svg>