<svg width="32.000000" height="32.000000" viewBox="0 0 32 32" fill="none" xmlns="http://www.w3.org/2000/svg" xmlns:xlink="http://www.w3.org/1999/xlink">
    <desc>
        Created with Pixso.
    </desc>
    <defs/>
    <path id="矩形" d="M24 2.5L24 29.5C24 30.8807 22.8806 32 21.5 32L10.5 32C9.11938 32 8 30.8807 8 29.5L8 2.5C8 1.11926 9.11938 0 10.5 0L21.5 0C22.8806 0 24 1.11926 24 2.5ZM9.33325 28.9166L9.33325 3.08337C9.33325 2.11682 10.1169 1.33337 11.0833 1.33337L20.9167 1.33337C21.8831 1.33337 22.6667 2.11682 22.6667 3.08337L22.6667 28.9166C22.6667 29.8832 21.8831 30.6666 20.9167 30.6666L11.0833 30.6666C10.1169 30.6666 9.33325 29.8832 9.33325 28.9166Z" clip-rule="evenodd" fill="#333333" fill-opacity="1.000000" fill-rule="evenodd"/>
    <path id="矩形" d="M23.31 10.16L24.15 10.16C24.42 10.16 24.65 10.39 24.65 10.66L24.65 13.33C24.65 13.6 24.42 13.83 24.15 13.83L23.31 13.83L23.31 10.16Z" fill="#333333" fill-opacity="1.000000" fill-rule="evenodd"/>
    <rect id="矩形" x="10.000000" y="2.000000" rx="1.500000" width="12.000000" height="28.000000" fill="#000000" fill-opacity="0.200000"/>
    <mask id="mask13_237326" mask-type="alpha" maskUnits="userSpaceOnUse" x="11.520752" y="12.458374" width="9.035156" height="7.291626">
        <path id="形状结合" d="M19.6924 13.8059C17.3289 11.7881 13.7769 12.0684 11.759 14.4321L11.6206 14.5944L11.6062 14.6122C11.4727 14.7869 11.4978 15.0374 11.667 15.1818C11.8418 15.3312 12.105 15.3104 12.2544 15.1355L12.3928 14.9731L12.4448 14.9132C14.1724 12.955 17.158 12.7379 19.1514 14.4397C19.3481 14.6077 19.531 14.7913 19.6982 14.9888L19.821 15.134L19.8364 15.1511C19.9873 15.311 20.2385 15.3267 20.4084 15.183C20.584 15.0343 20.606 14.7714 20.4573 14.5957L20.3342 14.4504L20.2683 14.3738C20.0901 14.1709 19.8977 13.9812 19.6924 13.8059ZM13.2878 16.2343L13.2966 16.2238C14.5876 14.7096 16.8616 14.5287 18.3757 15.8197C18.5249 15.9468 18.6636 16.0859 18.79 16.2356C18.9385 16.4114 18.9165 16.6742 18.7407 16.8228C18.5649 16.9713 18.302 16.9492 18.1536 16.7736C18.0564 16.6584 17.9497 16.5515 17.8352 16.4537C16.6829 15.4713 14.958 15.5978 13.9607 16.7299L13.9219 16.7749C13.7727 16.95 13.5095 16.9709 13.3345 16.8217C13.1653 16.6772 13.1401 16.4268 13.2734 16.252L13.2878 16.2343ZM16 17.4584C15.4822 17.4584 15.0625 17.8782 15.0625 18.3959L15.0625 18.8125C15.0625 19.3303 15.4822 19.75 16 19.75C16.5176 19.75 16.9375 19.3303 16.9375 18.8125L16.9375 18.3959C16.9375 17.8782 16.5176 17.4584 16 17.4584Z" clip-rule="evenodd" fill="#333333" fill-opacity="1.000000" fill-rule="evenodd"/>
    </mask>
    <path id="形状结合" d="M19.6924 13.8059C17.3289 11.7881 13.7769 12.0684 11.759 14.4321L11.6206 14.5944L11.6062 14.6122C11.4727 14.7869 11.4978 15.0374 11.667 15.1818C11.8418 15.3312 12.105 15.3104 12.2544 15.1355L12.3928 14.9731L12.4448 14.9132C14.1724 12.955 17.158 12.7379 19.1514 14.4397C19.3481 14.6077 19.531 14.7913 19.6982 14.9888L19.821 15.134L19.8364 15.1511C19.9873 15.311 20.2385 15.3267 20.4084 15.183C20.584 15.0343 20.606 14.7714 20.4573 14.5957L20.3342 14.4504L20.2683 14.3738C20.0901 14.1709 19.8977 13.9812 19.6924 13.8059ZM13.2878 16.2343L13.2966 16.2238C14.5876 14.7096 16.8616 14.5287 18.3757 15.8197C18.5249 15.9468 18.6636 16.0859 18.79 16.2356C18.9385 16.4114 18.9165 16.6742 18.7407 16.8228C18.5649 16.9713 18.302 16.9492 18.1536 16.7736C18.0564 16.6584 17.9497 16.5515 17.8352 16.4537C16.6829 15.4713 14.958 15.5978 13.9607 16.7299L13.9219 16.7749C13.7727 16.95 13.5095 16.9709 13.3345 16.8217C13.1653 16.6772 13.1401 16.4268 13.2734 16.252L13.2878 16.2343ZM16 17.4584C15.4822 17.4584 15.0625 17.8782 15.0625 18.3959L15.0625 18.8125C15.0625 19.3303 15.4822 19.75 16 19.75C16.5176 19.75 16.9375 19.3303 16.9375 18.8125L16.9375 18.3959C16.9375 17.8782 16.5176 17.4584 16 17.4584Z" clip-rule="evenodd" fill="#333333" fill-opacity="1.000000" fill-rule="evenodd"/>
    <g mask="url(#mask13_237326)">
        <rect id="color/#000000" x="11.000000" y="11.000000" width="10.000000" height="10.000000" fill="#000000" fill-opacity="0.898039"/>
    </g>
</svg>
