<svg width="24.000000" height="24.000000" viewBox="0 0 24 24" fill="none" xmlns="http://www.w3.org/2000/svg" xmlns:xlink="http://www.w3.org/1999/xlink">
	<desc>
			Created with Pixso.
	</desc>
	<defs/>
	<rect id="bg" rx="4.000000" width="24.000000" height="24.000000" fill="#46B1E3" fill-opacity="1.000000"/>
	<path id="合并" d="M5.97162 5.55807Q6.32013 5.43649 6.71112 5.43649L17.2889 5.43649C17.6938 5.43649 18.0646 5.5343 18.4012 5.72995C18.7425 5.92557 19.0109 6.194 19.2065 6.53522Q19.3111 6.71515 19.3784 6.90811Q19.5 7.25665 19.5 7.64758L19.5 12.6307C19.2128 12.2758 18.8693 11.9682 18.4832 11.7218L18.4832 7.64758Q18.4832 7.41183 18.403 7.20749Q18.3162 6.98596 18.1351 6.80136C17.8986 6.56934 17.6165 6.45334 17.2889 6.45334L6.71112 6.45334Q6.47534 6.45334 6.271 6.53345L6.271 6.53348Q6.04944 6.62033 5.86487 6.80136Q5.68384 6.98596 5.59698 7.20749L5.59698 7.20749Q5.51685 7.41183 5.51685 7.64758L5.51685 14.1308C5.51685 14.4583 5.63287 14.7404 5.86487 14.977C6.10144 15.2136 6.38354 15.3318 6.71112 15.3318L12.0003 15.3318C12.0126 16.3701 12.4011 17.3188 13.0356 18.048L9.44769 18.048C9.30206 18.048 9.18152 17.9979 9.086 17.8978C8.9859 17.8023 8.93585 17.684 8.93585 17.543Q8.93585 17.4159 8.98669 17.3142L8.98676 17.3141Q9.02332 17.2411 9.086 17.1813C9.18152 17.0812 9.30206 17.0311 9.44769 17.0311L9.9527 17.0311L9.9527 16.3419L6.71112 16.3419Q6.32019 16.3419 5.97168 16.2203L5.97162 16.2203L5.97156 16.2203Q5.77863 16.153 5.59875 16.0484C5.25751 15.8528 4.98907 15.5866 4.79346 15.25C4.59784 14.9088 4.5 14.5357 4.5 14.1308L4.5 7.64758Q4.5 7.25665 4.62158 6.90811Q4.6889 6.71515 4.79346 6.53522Q4.94019 6.2793 5.14148 6.07797Q5.34283 5.87668 5.59875 5.72995Q5.77869 5.62537 5.97162 5.55807L5.97162 5.55807L5.97162 5.55807Z" clip-rule="evenodd" fill="#FFFFFF" fill-opacity="1.000000" fill-rule="evenodd"/>
	<g opacity="0.600000">
		<path id="减去顶层" d="M6.69055 7.1431Q6.50378 7.1431 6.38269 7.2323L6.38269 7.2323Q6.35785 7.25064 6.33569 7.27277Q6.31061 7.29663 6.2901 7.32394Q6.19922 7.44513 6.19922 7.63446L6.19922 14.1517Q6.19922 14.3215 6.27679 14.4409L6.27679 14.4409Q6.30212 14.4799 6.33569 14.5134Q6.35779 14.5356 6.38269 14.5539L6.38269 14.5539Q6.50378 14.6431 6.69055 14.6431L12.0479 14.6431C12.3553 12.6158 14.1057 11.0622 16.2188 11.0622C16.7782 11.0622 17.3121 11.1711 17.8007 11.3688L17.8007 7.63446Q17.8007 7.44513 17.7098 7.32394Q17.6893 7.29663 17.6642 7.27277C17.5778 7.18631 17.4595 7.1431 17.3093 7.1431L6.69055 7.1431Z" clip-rule="evenodd" fill="#FFFFFF" fill-opacity="1.000000" fill-rule="evenodd"/>
	</g>
	<path id="path" d="M16.21 12.33C16.06 12.51 15.92 12.71 15.8 12.91C15.68 13.12 15.57 13.34 15.47 13.57C15.71 13.61 15.96 13.63 16.21 13.63C16.46 13.63 16.7 13.61 16.94 13.57C16.75 13.1 16.51 12.69 16.21 12.33ZM18.49 12.91C18.22 12.65 17.92 12.44 17.58 12.28C17.25 12.12 16.89 12.03 16.52 11.99C16.7 12.22 16.87 12.45 17.01 12.69C17.15 12.94 17.28 13.2 17.38 13.46C17.75 13.34 18.12 13.16 18.49 12.91ZM15.9 11.99C15.52 12.03 15.17 12.13 14.84 12.28C14.51 12.44 14.21 12.65 13.94 12.9C14.28 13.14 14.65 13.33 15.04 13.45C15.14 13.19 15.27 12.93 15.41 12.69C15.55 12.45 15.72 12.22 15.9 11.99ZM15.34 16.56C15.64 16.5 15.93 16.47 16.22 16.47C16.51 16.47 16.79 16.5 17.08 16.55C17.13 16.4 17.17 16.24 17.2 16.07C17.23 15.91 17.24 15.74 17.25 15.57L17.25 15.5L15.16 15.5C15.18 15.87 15.24 16.23 15.34 16.56ZM16.21 18.22C16.36 18.03 16.5 17.84 16.62 17.63C16.74 17.42 16.85 17.21 16.93 16.98C16.7 16.94 16.45 16.92 16.21 16.92C15.96 16.92 15.72 16.94 15.48 16.98C15.57 17.21 15.68 17.42 15.8 17.63C15.92 17.84 16.06 18.03 16.21 18.22ZM17.25 14.98C17.24 14.81 17.23 14.64 17.2 14.48C17.17 14.32 17.13 14.16 17.08 14C16.8 14.06 16.51 14.09 16.21 14.09C15.9 14.09 15.61 14.05 15.34 13.99C15.24 14.32 15.18 14.68 15.16 15.05L17.25 15.05L17.25 14.98ZM12.93 15.5C12.96 15.84 13.03 16.16 13.15 16.47C13.27 16.77 13.43 17.06 13.64 17.32C14.04 17.02 14.46 16.81 14.9 16.68C14.79 16.27 14.73 15.87 14.71 15.5L12.93 15.5ZM19.5 15.05C19.47 14.72 19.4 14.4 19.28 14.09C19.15 13.78 18.99 13.5 18.79 13.24C18.41 13.52 17.98 13.73 17.51 13.88C17.62 14.26 17.68 14.65 17.71 15.05L19.5 15.05ZM17.52 16.67C17.97 16.8 18.39 17.02 18.8 17.32C19 17.06 19.16 16.77 19.28 16.46C19.4 16.15 19.47 15.83 19.5 15.5L17.71 15.5C17.69 15.9 17.63 16.29 17.52 16.67ZM16.52 18.55C16.89 18.52 17.25 18.42 17.59 18.27C17.93 18.11 18.23 17.9 18.49 17.64C18.12 17.39 17.75 17.21 17.38 17.09C17.28 17.35 17.15 17.61 17.01 17.85C16.87 18.1 16.7 18.33 16.52 18.55ZM13.94 17.64C14.21 17.9 14.51 18.1 14.84 18.26C15.18 18.42 15.53 18.52 15.91 18.55C15.72 18.33 15.55 18.1 15.41 17.86C15.27 17.62 15.14 17.36 15.04 17.09C14.68 17.21 14.31 17.39 13.94 17.64ZM14.9 13.88C14.46 13.75 14.04 13.53 13.64 13.24C13.44 13.49 13.27 13.77 13.15 14.08C13.03 14.39 12.96 14.71 12.93 15.05L14.71 15.05C14.73 14.68 14.79 14.29 14.9 13.88Z" fill="#FFFFFF" fill-opacity="1.000000" fill-rule="nonzero"/>
</svg>
