<?xml version="1.0" encoding="UTF-8"?>
<svg width="84px" height="86px" viewBox="0 0 84 86" version="1.1" xmlns="http://www.w3.org/2000/svg" xmlns:xlink="http://www.w3.org/1999/xlink">
    <title>icon</title>
    <defs>
        <path d="M71.4782609,84.9565217 C77.8175293,84.9565217 82.9565217,79.8175293 82.9565217,73.4782609 C82.9565217,67.1389924 77.8175293,62 71.4782609,62 C65.1389924,62 60,67.1389924 60,73.4782609 C60,79.8175293 65.1389924,84.9565217 71.4782609,84.9565217 Z" id="path-1"></path>
        <path d="M71.4782609,66 C73.1879424,66 74.5775098,67.370571 74.608178,69.0729278 L74.6086957,70.8695652 C75.7612899,70.8695652 76.6956522,71.8039275 76.6956522,72.9565217 L76.6956522,77.4782609 C76.6956522,78.6308551 75.7612899,79.5652174 74.6086957,79.5652174 L68.3478261,79.5652174 C67.1952318,79.5652174 66.2608696,78.6308551 66.2608696,77.4782609 L66.2608696,72.9565217 C66.2608696,71.8039275 67.1952318,70.8695652 68.3478261,70.8695652 L68.3478261,69.1304348 C68.3478261,67.4015434 69.7493695,66 71.4782609,66 Z M71.4782609,73.826087 C70.7098647,73.826087 70.0869565,74.4489951 70.0869565,75.2173913 C70.0869565,75.9857875 70.7098647,76.6086957 71.4782609,76.6086957 C72.246657,76.6086957 72.8695652,75.9857875 72.8695652,75.2173913 C72.8695652,74.4489951 72.246657,73.826087 71.4782609,73.826087 Z M71.4782609,67.3913043 C70.5340452,67.3913043 69.7655771,68.1437688 69.7397986,69.0817557 L69.7388696,70.869 L73.2168696,70.869 L73.2173913,69.1304348 C73.2173913,68.1699396 72.4387561,67.3913043 71.4782609,67.3913043 Z" id="path-3"></path>
    </defs>
    <g id="icon" stroke="none" stroke-width="1" fill="none" fill-rule="evenodd">
        <g id="ic_normal_pptx" transform="translate(7.000000, 0.000000)" fill-rule="nonzero">
            <g id="编组" transform="translate(0.106843, 0.000000)">
                <path d="M3.9888019,0 L48.9086526,0 L48.8728214,16.3726028 C48.8673116,18.890259 50.9038087,20.9356892 53.4214649,20.941199 C53.4247903,20.9412063 53.428116,20.94121 53.4314414,20.94121 L69.8040332,20.94121 L69.8040332,75.7872361 C69.8040332,77.9901905 68.0181858,79.776038 65.8152313,79.776038 L3.9888019,79.776038 C1.78584744,79.776038 0,77.9901905 0,75.7872361 L0,3.9888019 C0,1.78584744 1.78584744,0 3.9888019,0 Z" id="路径" fill="#F57C43"></path>
                <path d="M48.8628233,0 L69.8040332,20.94121 L53.4214539,20.94121 C50.9037917,20.94121 48.8628233,18.9002415 48.8628233,16.3825792 L48.8628233,0 Z" id="路径" fill="#FEB694"></path>
            </g>
            <g id="编组" stroke-linecap="round" stroke-linejoin="round" transform="translate(26.034055, 36.397817)" fill="#FFFFFF">
                <path d="M10.2904293,-2.11905101 C11.4607488,-2.11905101 12.4094803,-1.17031956 12.4094803,0 C12.4094803,1.1194361 11.5414538,2.03613374 10.4417632,2.11373044 L10.2904293,2.11905101 L2.119,2.119 L2.11905101,27.1394332 C2.11905101,28.2588693 1.2510245,29.1755669 0.15133397,29.2531636 L-1.33226763e-15,29.2584842 C-1.1194361,29.2584842 -2.03613374,28.3904577 -2.11373044,27.2907671 L-2.11905101,27.1394332 L-2.11905101,1.12559697 C-2.11905101,-0.604580571 -0.76483002,-2.01846285 0.941476773,-2.11391469 L1.12559697,-2.11905101 L10.2904293,-2.11905101 Z" id="路径"></path>
                <path d="M10.3991869,-2.11905101 C15.7575469,-2.11905101 20.1160174,2.30250887 20.1160174,7.67738852 C20.1160174,12.9513207 15.9143638,17.2439042 10.675839,17.3903565 L10.3991869,17.3942191 L1.70034749,17.3942191 C0.530027932,17.3942191 -0.418703521,16.4454876 -0.418703521,15.2751681 C-0.418703521,14.155732 0.449322988,13.2390343 1.54901352,13.1614376 L1.70034749,13.1561171 L10.3991869,13.1561171 C13.4250051,13.1561171 15.8779154,10.7032067 15.8779154,7.67738852 C15.8779154,4.62962278 13.4031659,2.11905101 10.3991869,2.11905101 C9.2288673,2.11905101 8.28013585,1.17031956 8.28013585,-8.8817842e-16 C8.28013585,-1.17031956 9.2288673,-2.11905101 10.3991869,-2.11905101 Z" id="路径"></path>
            </g>
        </g>
        <mask id="mask-2" fill="white">
            <use xlink:href="#path-1"></use>
        </mask>
        <use id="蒙版" fill="#61CFBE" xlink:href="#path-1"></use>
        <mask id="mask-4" fill="white">
            <use xlink:href="#path-3"></use>
        </mask>
        <use id="形状结合" fill="#FFFFFF" fill-rule="nonzero" xlink:href="#path-3"></use>
    </g>
</svg>