<?xml version="1.0" encoding="UTF-8"?>
<svg width="84px" height="86px" viewBox="0 0 84 86" version="1.1" xmlns="http://www.w3.org/2000/svg" xmlns:xlink="http://www.w3.org/1999/xlink">
    <title>xls</title>
    <defs>
        <path d="M71.4782609,84.9565217 C77.8175293,84.9565217 82.9565217,79.8175293 82.9565217,73.4782609 C82.9565217,67.1389924 77.8175293,62 71.4782609,62 C65.1389924,62 60,67.1389924 60,73.4782609 C60,79.8175293 65.1389924,84.9565217 71.4782609,84.9565217 Z" id="path-1"></path>
        <path d="M71.4782609,66 C73.1879424,66 74.5775098,67.370571 74.608178,69.0729278 L74.6086957,70.8695652 C75.7612899,70.8695652 76.6956522,71.8039275 76.6956522,72.9565217 L76.6956522,77.4782609 C76.6956522,78.6308551 75.7612899,79.5652174 74.6086957,79.5652174 L68.3478261,79.5652174 C67.1952318,79.5652174 66.2608696,78.6308551 66.2608696,77.4782609 L66.2608696,72.9565217 C66.2608696,71.8039275 67.1952318,70.8695652 68.3478261,70.8695652 L68.3478261,69.1304348 C68.3478261,67.4015434 69.7493695,66 71.4782609,66 Z M71.4782609,73.826087 C70.7098647,73.826087 70.0869565,74.4489951 70.0869565,75.2173913 C70.0869565,75.9857875 70.7098647,76.6086957 71.4782609,76.6086957 C72.246657,76.6086957 72.8695652,75.9857875 72.8695652,75.2173913 C72.8695652,74.4489951 72.246657,73.826087 71.4782609,73.826087 Z M71.4782609,67.3913043 C70.5340452,67.3913043 69.7655771,68.1437688 69.7397986,69.0817557 L69.7388696,70.869 L73.2168696,70.869 L73.2173913,69.1304348 C73.2173913,68.1699396 72.4387561,67.3913043 71.4782609,67.3913043 Z" id="path-3"></path>
    </defs>
    <g id="xls" stroke="none" stroke-width="1" fill="none" fill-rule="evenodd">
        <g id="ic_normal_xls" transform="translate(7.000000, 0.000000)">
            <path d="M4.10714286,0 L49.1531008,0 L49.1171693,16.418567 C49.111644,18.9432912 51.1538583,20.9944638 53.6785825,20.999989 C53.6819173,21 53.685252,21 53.6885868,21 L70.1071429,21 L70.1071429,76 C70.1071429,78.209139 68.3162818,80 66.1071429,80 L4.10714286,80 C1.89800386,80 0.107142858,78.209139 0.107142858,76 L0.107142858,4 C0.107142858,1.790861 1.89800386,0 4.10714286,0 Z" id="路径" fill="#38C48C" fill-rule="nonzero"></path>
            <path d="M49.1071428,0 L70.1071428,21 L53.6785715,21 C51.1538413,21 49.1071428,18.9533017 49.1071428,16.4285714 L49.1071428,0 Z" id="路径" fill="#5FE5B0" fill-rule="nonzero"></path>
            <g id="编组" stroke-linecap="round" stroke-linejoin="round" transform="translate(22.857143, 36.125000)" stroke="#FFFFFF" stroke-width="3.99999999">
                <line x1="1.77360506" y1="1.73019293" x2="22.523605" y2="22.4801929" id="路径" transform="translate(12.148605, 12.105193) rotate(10.000000) translate(-12.148605, -12.105193) "></line>
                <line x1="22.8513948" y1="1.85519296" x2="2.10139486" y2="22.6051929" id="路径" transform="translate(12.476395, 12.230193) rotate(-10.000000) translate(-12.476395, -12.230193) "></line>
            </g>
        </g>
        <mask id="mask-2" fill="white">
            <use xlink:href="#path-1"></use>
        </mask>
        <use id="蒙版" fill="#61CFBE" xlink:href="#path-1"></use>
        <mask id="mask-4" fill="white">
            <use xlink:href="#path-3"></use>
        </mask>
        <use id="形状结合" fill="#FFFFFF" fill-rule="nonzero" xlink:href="#path-3"></use>
    </g>
</svg>