<?xml version="1.0" encoding="utf-8"?>
<!-- Generator: Adobe Illustrator 26.3.1, SVG Export Plug-In . SVG Version: 6.00 Build 0)  -->
<svg version="1.1" id="图层_1" xmlns="http://www.w3.org/2000/svg" xmlns:xlink="http://www.w3.org/1999/xlink" x="0px" y="0px"
	 viewBox="0 0 24 24" fill="#fffffff" style="enable-background:new 0 0 24 24;" xml:space="preserve">
<style type="text/css">
	.st0{fill:#0A59F7;}
</style>
<path class="st0" d="M12.6,8.22c-0.4-0.33-1-0.29-1.35,0.1l-3.14,3.58C8.04,11.99,8,12.1,8,12.21c0,0.26,0.21,0.46,0.48,0.46h7.05
	c0.11,0,0.23-0.04,0.31-0.11c0.2-0.17,0.22-0.46,0.05-0.66L12.7,8.32C12.67,8.29,12.64,8.25,12.6,8.22z M15.12,13.61H8.88
	c-0.39,0-0.7,0.31-0.7,0.7c0,0.39,0.31,0.7,0.7,0.7h6.25c0.39,0,0.7-0.31,0.7-0.7C15.82,13.92,15.51,13.61,15.12,13.61z M12,4
	c4.42,0,8,3.58,8,8s-3.58,8-8,8s-8-3.58-8-8S7.58,4,12,4z"/>
</svg>
