<?xml version="1.0" encoding="utf-8"?>
<!-- Generator: Adobe Illustrator 26.3.1, SVG Export Plug-In . SVG Version: 6.00 Build 0)  -->
<svg version="1.1" id="图层_1" xmlns="http://www.w3.org/2000/svg" xmlns:xlink="http://www.w3.org/1999/xlink" x="0px" y="0px"
	 viewBox="0 0 24 24" style="enable-background:new 0 0 24 24;" xml:space="preserve">
<style type="text/css">
	.st0{fill-rule:evenodd;clip-rule:evenodd;fill-opacity:0.902;}
</style>
<g id="ic_x2F_ic_x5F_otherApp">
	<g id="形状结合">
		<path id="path-1_00000155138518336984815350000009045053730736512641_" class="st0" d="M18.25,2.01c2.07,0,3.75,1.68,3.75,3.75
			v12.49c0,2.07-1.68,3.75-3.75,3.75h-2.21c-0.41,0-0.75-0.34-0.75-0.75s0.34-0.75,0.75-0.75h2.21c1.24,0,2.25-1.01,2.25-2.25l0-9.5
			h-17v9.5c0,1.24,1.01,2.25,2.25,2.25H8c0.41,0,0.75,0.34,0.75,0.75S8.41,22,8,22H5.75C3.68,22,2,20.32,2,18.25V5.76
			c0-2.07,1.68-3.75,3.75-3.75H18.25z M13.21,10.91l3.27,3.24c0.29,0.29,0.3,0.77,0,1.06c-0.29,0.29-0.77,0.3-1.06,0l-2.68-2.65
			v8.68c0,0.41-0.34,0.75-0.75,0.75s-0.75-0.34-0.75-0.75v-8.73l-2.72,2.7c-0.29,0.29-0.77,0.29-1.06,0c-0.29-0.29-0.29-0.77,0-1.06
			l3.27-3.24C11.43,10.24,12.53,10.24,13.21,10.91z M18.25,3.51H5.75c-1.24,0-2.25,1.01-2.25,2.25v1.49h17l0-1.49
			C20.5,4.51,19.49,3.51,18.25,3.51z"/>
	</g>
</g>
</svg>
