<?xml version="1.0" encoding="UTF-8"?>
<svg width="24px" height="24px" viewBox="0 0 24 24" version="1.1" xmlns="http://www.w3.org/2000/svg" xmlns:xlink="http://www.w3.org/1999/xlink">
    <title>mdpi/移入</title>
    <defs>
        <path d="M6.59269167,1 C7.00690523,1 7.34269167,1.33578644 7.34269167,1.75 C7.34269167,2.16421356 7.00690523,2.5 6.59269167,2.5 L3,2.5 C2.17157288,2.5 1.5,3.17157288 1.5,4 L1.5,18 C1.5,18.8284271 2.17157288,19.5 3,19.5 L17,19.5 C17.8284271,19.5 18.5,18.8284271 18.5,18 L18.5,4 C18.5,3.17157288 17.8284271,2.5 17,2.5 L13.4281378,2.5 C13.0139242,2.5 12.6781378,2.16421356 12.6781378,1.75 C12.6781378,1.33578644 13.0139242,1 13.4281378,1 L17,1 C18.6568542,1 20,2.34314575 20,4 L20,18 C20,19.6568542 18.6568542,21 17,21 L3,21 C1.34314575,21 0,19.6568542 0,18 L0,4 C0,2.34314575 1.34314575,1 3,1 L6.59269167,1 Z M10,0 C10.4142136,0 10.75,0.335786438 10.75,0.75 L10.75,14.27 L15.4036144,9.62130173 C15.6966165,9.32851737 16.1714902,9.32869383 16.4642745,9.62169586 C16.7570589,9.9146979 16.7568824,10.3895716 16.4638804,10.682356 L10.4630231,16.6787552 C10.170175,16.9713857 9.69560525,16.9713858 9.40275717,16.6787553 L3.40361448,10.6840706 C3.11061242,10.3912863 3.11043591,9.91641261 3.40322024,9.62341055 C3.69600457,9.33040848 4.17087828,9.33023197 4.46388034,9.62301631 L9.25,14.406 L9.25,0.75 C9.25,0.335786438 9.58578644,0 10,0 Z" id="path-1"></path>
    </defs>
</svg>