<?xml version="1.0" encoding="UTF-8"?>
<svg width="24px" height="24px" viewBox="0 0 24 24" version="1.1" xmlns="http://www.w3.org/2000/svg" xmlns:xlink="http://www.w3.org/1999/xlink">
    <title>ic_filemanager_arrow_down</title>
    <g id="ic_filemanager_arrow_down" stroke="none" stroke-width="1" fill="none" fill-rule="evenodd" fill-opacity="1">
        <path d="M9.87348697,6.153911 L9.90554816,6.18417165 L14.8552956,11.1339191 C15.5244753,11.8030988 15.5384165,12.8793914 14.8971194,13.565534 L14.8552956,13.6087929 L9.90554816,18.5585403 C9.77667514,18.6874133 9.6125707,18.7595822 9.44423848,18.775047 L9.39824817,18.7778588 L9.35218798,18.7778588 C9.16799379,18.7722352 8.98547673,18.6991291 8.84488799,18.5585403 C8.56245524,18.2761076 8.55236836,17.8244608 8.81462734,17.5299413 L8.84488799,17.4978801 L13.4410821,12.9016861 C13.7235148,12.6192533 13.7336017,12.1676066 13.4713427,11.8730871 L13.4410821,11.8410259 L8.84488799,7.24483182 C8.55199477,6.9519386 8.55199477,6.47706487 8.84488799,6.18417165 C8.98610436,6.04295528 9.16962424,5.96982537 9.35465496,5.96478193 L9.40092051,5.96493953 C9.57050315,5.97071848 9.73849888,6.03370896 9.87348697,6.153911 Z" id="路径" fill="#000000" fill-rule="nonzero" transform="translate(11.996538, 12.371320) scale(-1, -1) rotate(-90.000000) translate(-11.996538, -12.371320) "></path>
    </g>
</svg>