<?xml version="1.0" encoding="utf-8"?>
<!-- Generator: Adobe Illustrator 26.3.1, SVG Export Plug-In . SVG Version: 6.00 Build 0)  -->
<svg version="1.1" id="图层_1" xmlns="http://www.w3.org/2000/svg" xmlns:xlink="http://www.w3.org/1999/xlink" x="0px" y="0px"
	 viewBox="0 0 24 24" style="enable-background:new 0 0 24 24;" xml:space="preserve">
<path id="path-1_00000067214800364424090200000010217075532101359265_" d="M10.46,18.36c-0.18,0.18-0.42,0.28-0.66,0.29l-0.05,0
	c-0.26,0-0.51-0.1-0.71-0.29c-0.38-0.38-0.39-0.99-0.03-1.38l0.03-0.04l4.42-4.42c0.28-0.28,0.29-0.73,0.03-1.03l-0.03-0.03
	L9.04,7.05c-0.39-0.39-0.39-1.02,0-1.41c0.2-0.2,0.45-0.29,0.71-0.29l0.05,0c0.22,0.01,0.44,0.1,0.62,0.26l0.04,0.03l4.77,4.77
	c0.86,0.86,0.88,2.25,0.05,3.13l-0.05,0.05L10.46,18.36z"/>
</svg>
