<?xml version="1.0" encoding="UTF-8"?>

<svg width="24px" height="24px" viewBox="0 0 24 24" version="1.1" xmlns="http://www.w3.org/2000/svg" xmlns:xlink="http://www.w3.org/1999/xlink">

    <title>Public/ic_public_gallery
    </title>

    <defs>
        <!--        <path d="M8.5 7.25Q7.78 7.25 7.26 7.76Q6.74 8.28 6.74 9Q6.74 9.72 7.26 10.24Q7.78 10.75 8.5 10.75Q9.22 10.75 9.73 10.24Q10.25 9.72 10.25 9Q10.25 8.28 9.73 7.76Q9.22 7.25 8.5 7.25ZM5.93 1.99Q4.87 1.99 3.96 2.52Q3.05 3.05 2.52 3.96Q1.99 4.87 1.99 5.93L1.99 18.05Q1.99 19.13 2.52 20.04Q3.05 20.95 3.96 21.48Q4.87 22.01 5.93 22.01L18.07 22.01Q19.13 22.01 20.03 21.48Q20.93 20.95 21.46 20.04Q21.98 19.13 21.98 18.05L21.98 5.93Q21.98 4.87 21.46 3.96Q20.93 3.05 20.03 2.52Q19.13 1.99 18.07 1.99L5.93 1.99ZM3.5 5.93Q3.5 4.9 4.21 4.2Q4.92 3.5 5.93 3.5L18.07 3.5Q19.08 3.5 19.79 4.21Q20.5 4.92 20.5 5.93L20.5 14.35L16.7 11.11Q16.03 10.51 15.14 10.48Q14.26 10.44 13.54 10.97L3.5 18.29L3.5 18.05L3.5 5.93ZM5.93 20.5Q5.4 20.5 4.93 20.28Q4.46 20.06 4.13 19.7L14.42 12.19Q14.74 11.98 15.1 11.99Q15.46 12 15.72 12.24L20.5 16.32L20.5 18.05Q20.5 19.06 19.79 19.78Q19.08 20.5 18.07 20.5L5.93 20.5Z"-->
        <!--              fill="rgba(0,0,0,0.9019607843137255)" id="path-1"></path>-->

        <path d="M8.5885231 7.2585231 Q7.7885231 7.2585231 7.2685231 7.7685231Q6.7485231 8.2885231 6.7485231 9Q6.7485231 9.7285231 7.2685231 10.2485231Q7.7885231 10.7585231 8.5185231 10.7585231Q9.2285231 10.7585231 9.7385231 10.2485231Q10.2585231 9.7285231 10.2585231 9Q10.2585231 8.2885231 9.7385231 7.7685231Q9.2285231 7.2585231 8.585231 7.2585231ZM5.9385231 1.9985231Q4.8785231 1.9985231 3.9685231 2.5285231Q3.0585231 3.0585231 2.5285231 3.9685231Q1.9985231 4.8785231 1.9985231 5.9385231L1.9985231 18.0585231Q1.9985231 19.1385231 2.5285231 20.0485231Q3.0585231 20.9585231 3.9685231 21.4885231Q4.8785231 22.0185231 5.9385231 22.0185231L18.0785231 22.0185231Q19.1385231 22.0185231 20.0385231 21.4885231Q20.9385231 20.9585231 21.4685231 20.0485231Q21.9885231 19.1385231 21.9885231 18.0585231L21.9885231 5.9385231Q21.9885231 4.8785231 21.4685231 3.9685231Q20.9385231 3.0585231 20.0385231 2.5285231Q19.1385231 1.9985231 18.0785231 1.9985231L5.9385231 1.9985231ZM3.585231 5.9385231Q3.585231 4.985231 4.2185231 4.285231Q4.9285231 3.585231 5.9385231 3.585231L18.0785231 3.585231Q19.0885231 3.585231 19.7985231 4.2185231Q20.585231 4.9285231 20.585231 5.9385231L20.585231 14.3585231L16.785231 11.1185231Q16.0385231 10.5185231 15.1485231 10.4885231Q14.2685231 10.4485231 13.5485231 10.9785231L3.585231 18.2985231L3.585231 18.0585231L3.585231 5.9385231ZM5.9385231 20.585231Q5.485231 20.585231 4.9385231 20.2885231Q4.4685231 20.0685231 4.1385231 19.785231L14.4285231 12.1985231Q14.7485231 11.9885231 15.185231 11.9985231Q15.4685231 12 15.7285231 12.2485231L20.585231 16.3285231L20.585231 18.0585231Q20.585231 19.0685231 19.7985231 19.7885231Q19.0885231 20.585231 18.0785231 20.585231L5.9385231 20.585231Z"
              fill="rgba(0,0,0,0.9019607843137255)"
              id="path-1">

        </path>
    </defs>

    <g id="Public/ic_public_gallery" stroke="none" stroke-width="1" fill="none" fill-rule="evenodd">

        <mask id="mask-2" fill="white">

            <use xlink:href="#path-1"></use>

        </mask>

        <use id="形状结合" fill="#000000" fill-rule="nonzero" xlink:href="#path-1"></use>

    </g>

</svg>