<?xml version="1.0" encoding="utf-8"?>
<!-- Generator: Adobe Illustrator 26.3.1, SVG Export Plug-In . SVG Version: 6.00 Build 0)  -->
<svg version="1.1" id="图层_1" xmlns="http://www.w3.org/2000/svg" xmlns:xlink="http://www.w3.org/1999/xlink" x="0px" y="0px"
	 viewBox="0 0 24 24" style="enable-background:new 0 0 24 24;" xml:space="preserve">
<style type="text/css">
	.st0{fill:#0A59F7;}
</style>
<path id="path-1_00000105417078593520448540000003986061246828323722_" class="st0" d="M7.38,3c0.4,0,0.78,0.16,1.06,0.44l3.27,3.27
	C11.89,6.89,12.15,7,12.41,7H19c0.15,0,0.3,0.01,0.44,0.02c-0.21-0.85-0.97-1.5-1.88-1.52l-0.06,0l-5.54,0L10.46,4l7.04,0
	C19.43,4,21,5.57,21,7.5l0,0.04c1.2,0.69,2,1.98,2,3.46v6c0,2.21-1.79,4-4,4H5c-2.21,0-4-1.79-4-4V7c0-2.21,1.79-4,4-4H7.38z"/>
</svg>
