<?xml version="1.0" encoding="utf-8"?>
<!-- Generator: Adobe Illustrator 26.3.1, SVG Export Plug-In . SVG Version: 6.00 Build 0)  -->
<svg version="1.1" id="图层_1" xmlns="http://www.w3.org/2000/svg" xmlns:xlink="http://www.w3.org/1999/xlink" x="0px" y="0px"
	 viewBox="0 0 24 24" style="enable-background:new 0 0 24 24;" xml:space="preserve">
<style type="text/css">
	.st0{fill:#0A59F7;}
</style>
<path id="path-1_00000034071799148138254830000005311368930555575175_" class="st0" d="M21,15.25c0.54,0,0.97,0.42,1,0.95l0,0.05V18
	c0,2.18-1.75,3.96-3.92,4L18,22H6c-2.18,0-3.96-1.75-4-3.92l0-1.83c0-0.55,0.45-1,1-1c0.54,0,0.97,0.42,1,0.95l0,0.05V18
	c0,1.08,0.86,1.97,1.94,2L6,20h12c1.08,0,1.97-0.86,2-1.94L20,18v-1.75C20,15.7,20.45,15.25,21,15.25z M12,2c0.55,0,1,0.45,1,1
	l0,11.84l3.54-3.54c0.39-0.39,1.02-0.39,1.41,0c0.38,0.38,0.39,0.99,0.03,1.38l-0.03,0.04l-4.54,4.54c-0.77,0.77-2,0.78-2.78,0.04
	l-0.04-0.04l-4.54-4.54c-0.39-0.39-0.39-1.02,0-1.41c0.38-0.38,0.99-0.39,1.38-0.03l0.04,0.03L11,14.83L11,3C11,2.45,11.45,2,12,2z"
	/>
</svg>
