<?xml version="1.0" encoding="utf-8"?>
<!-- Generator: Adobe Illustrator 26.3.1, SVG Export Plug-In . SVG Version: 6.00 Build 0)  -->
<svg version="1.1" id="图层_1" xmlns="http://www.w3.org/2000/svg" xmlns:xlink="http://www.w3.org/1999/xlink" x="0px" y="0px"
	 viewBox="0 0 24 24" style="enable-background:new 0 0 24 24;" xml:space="preserve">
<style type="text/css">
	.st0{filter:url(#Adobe_OpacityMaskFilter);}
	.st1{fill-rule:evenodd;clip-rule:evenodd;fill:#FFFFFF;}
	.st2{mask:url(#mask-2_00000015332288537377679040000009231152537578627983_);}
	.st3{fill-rule:evenodd;clip-rule:evenodd;fill-opacity:0.9;}
</style>
<defs>
	<filter id="Adobe_OpacityMaskFilter" filterUnits="userSpaceOnUse" x="0" y="0" width="24" height="24">
		<feColorMatrix  type="matrix" values="1 0 0 0 0  0 1 0 0 0  0 0 1 0 0  0 0 0 1 0"/>
	</filter>
</defs>
<mask maskUnits="userSpaceOnUse" x="0" y="0" width="24" height="24" id="mask-2_00000015332288537377679040000009231152537578627983_">
	<g class="st0">
		<path id="path-1_00000140704959592625511110000012505960574168513717_" class="st1" d="M18.5,16.25c0,1.93-1.57,3.5-3.5,3.5H3.5
			c-1.93,0-3.5-1.57-3.5-3.5v-8.5c0-1.93,1.57-3.5,3.5-3.5H15c1.93,0,3.5,1.56,3.5,3.49L18.5,16.25z M15.06,5.75l-11.56,0
			c-1.08,0-1.97,0.86-2,1.94l0,8.56c0,1.08,0.86,1.97,1.94,2l0.06,0H15c1.08,0,1.97-0.86,2-1.94l0-0.06v-8.5
			C17,6.67,16.14,5.78,15.06,5.75z M21.44,6.85c0.86-0.45,1.91-0.12,2.36,0.74C23.93,7.84,24,8.12,24,8.4v7.19
			c0,0.97-0.78,1.75-1.75,1.75c-0.28,0-0.56-0.07-0.81-0.2l-1.94-1.02v-1.69l2.63,1.38c0.01,0.01,0.03,0.01,0.04,0.02l0.04,0.01
			l0.03,0c0.14,0,0.25-0.11,0.25-0.25V8.4c0-0.04-0.01-0.08-0.03-0.12l-0.02-0.03c-0.07-0.1-0.21-0.14-0.32-0.08L19.5,9.56V7.87
			L21.44,6.85z"/>
	</g>
</mask>
<g id="Symbol_x2F_color-light_x2F_colorPrimary" class="st2">
	<g id="color_x2F__x23_000000" transform="translate(0.000000, -4.250000)">
		<rect y="4.25" class="st3" width="24" height="24"/>
	</g>
</g>
</svg>
