<?xml version="1.0" encoding="utf-8"?>
<!-- Generator: Adobe Illustrator 26.3.1, SVG Export Plug-In . SVG Version: 6.00 Build 0)  -->
<svg version="1.1" id="图层_1" xmlns="http://www.w3.org/2000/svg" xmlns:xlink="http://www.w3.org/1999/xlink" x="0px" y="0px"
	 viewBox="0 0 24 24" style="enable-background:new 0 0 24 24;" xml:space="preserve">
<style type="text/css">
	.st0{fill:#0A59F7;}
</style>
<path id="path-1_00000000926919415757274940000013111664360717003174_" class="st0" d="M19.91,7l-1.19,12.07
	C18.55,20.73,17.16,22,15.48,22l0,0H8.52c-1.67,0-3.07-1.27-3.23-2.93l0,0L4.09,7H19.91z M10,11.75c-0.41,0-0.75,0.34-0.75,0.75l0,0
	v6c0,0.41,0.34,0.75,0.75,0.75s0.75-0.34,0.75-0.75l0,0v-6C10.75,12.09,10.41,11.75,10,11.75z M14,11.75
	c-0.41,0-0.75,0.34-0.75,0.75l0,0v6c0,0.41,0.34,0.75,0.75,0.75s0.75-0.34,0.75-0.75l0,0v-6C14.75,12.09,14.41,11.75,14,11.75z
	 M12,1.75c1.57,0,2.86,1.21,2.99,2.75l6.26,0C21.66,4.5,22,4.84,22,5.25c0,0.4-0.31,0.73-0.71,0.75l-0.04,0H2.75
	C2.34,6,2,5.66,2,5.25c0-0.4,0.31-0.73,0.71-0.75l0.04,0l6.26,0C9.14,2.96,10.43,1.75,12,1.75z"/>
</svg>
