<svg width="98.000000" height="98.000000" viewBox="0 0 98 98" fill="none" xmlns="http://www.w3.org/2000/svg" xmlns:xlink="http://www.w3.org/1999/xlink">
	<desc>
			Created with Pixso.
	</desc>
	<defs/>
	<rect id="Rectangle Copy 6" width="98.000000" height="98.000000" fill="#E5E5EA" fill-opacity="1.000000"/>
	<path id="󰓪" d="M41.88 39Q42.39 38.86 42.92 38.86L55.07 38.86Q55.66 38.86 56.2 39.03Q56.63 39.16 57.02 39.4Q57.44 39.64 57.78 39.97Q58.17 40.35 58.45 40.84Q58.71 41.28 58.84 41.75Q58.98 42.26 58.98 42.8L58.98 54.92Q58.98 55.55 58.8 56.12Q58.67 56.53 58.45 56.92Q58.18 57.39 57.8 57.76Q57.46 58.1 57.02 58.35Q56.7 58.55 56.35 58.67Q55.73 58.89 55.04 58.89L42.92 58.89Q42.39 58.89 41.88 58.75Q41.4 58.61 40.95 58.35Q40.5 58.09 40.14 57.73Q39.78 57.37 39.51 56.92Q39.29 56.53 39.16 56.12Q38.99 55.55 38.99 54.92L38.99 42.8Q38.99 42.26 39.13 41.75Q39.26 41.28 39.51 40.84Q39.79 40.37 40.16 40Q40.51 39.65 40.95 39.4Q41.4 39.14 41.88 39ZM46.14 44.24Q45.84 44.13 45.49 44.13Q45.15 44.13 44.85 44.24Q44.52 44.37 44.25 44.64Q43.99 44.91 43.86 45.23Q43.74 45.53 43.74 45.88Q43.74 46.2 43.85 46.49Q43.97 46.83 44.25 47.11Q44.52 47.38 44.85 47.51Q45.15 47.63 45.49 47.63Q45.84 47.63 46.14 47.51Q46.46 47.38 46.73 47.11Q47.01 46.83 47.14 46.49Q47.24 46.2 47.24 45.88Q47.24 45.53 47.12 45.23Q47 44.91 46.73 44.64Q46.46 44.37 46.14 44.24ZM42.03 57.21Q42.43 57.37 42.9 57.37L55.07 57.37Q55.56 57.37 55.99 57.2Q56.42 57.02 56.78 56.65Q57.14 56.29 57.32 55.85Q57.49 55.42 57.49 54.92L57.49 51.23L53.7 47.99Q53.45 47.76 53.16 47.62Q52.95 47.51 52.72 47.45Q52.47 47.38 52.21 47.36Q51.91 47.34 51.6 47.4Q51.39 47.44 51.19 47.51Q50.85 47.63 50.55 47.84L40.5 55.16Q40.55 55.63 40.74 56.02Q40.93 56.42 41.28 56.74Q41.62 57.05 42.03 57.21Z" fill="#000000" fill-opacity="0.200000" fill-rule="evenodd"/>
</svg>
