<?xml version="1.0" encoding="UTF-8"?>
<svg width="24px" height="24px" viewBox="0 0 24 24" version="1.1" xmlns="http://www.w3.org/2000/svg" xmlns:xlink="http://www.w3.org/1999/xlink">
    <title>ic_filemanager_arrow_up</title>
    <g id="ic_filemanager_arrow_up" stroke="none" stroke-width="1" fill="none" fill-rule="evenodd" fill-opacity="1">
        <path d="M9.88041013,5.41127031 L9.91247132,5.44153096 L14.8622188,10.3912784 C15.5313984,11.0604581 15.5453397,12.1367507 14.9040425,12.8228934 L14.8622188,12.8661522 L9.91247132,17.8158996 C9.78359831,17.9447726 9.61949386,18.0169415 9.45116165,18.0324063 L9.40517134,18.0352181 L9.35911114,18.0352181 C9.17491695,18.0295945 8.9923999,17.9564884 8.85181115,17.8158996 C8.56937841,17.5334669 8.55929152,17.0818201 8.8215505,16.7873007 L8.85181115,16.7552395 L13.4480052,12.1590454 C13.730438,11.8766126 13.7405249,11.4249659 13.4782659,11.1304464 L13.4480052,11.0983852 L8.85181115,6.50219113 C8.55891793,6.20929791 8.55891793,5.73442418 8.85181115,5.44153096 C8.99302753,5.30031459 9.17654741,5.22718468 9.36157812,5.22214124 L9.40784367,5.22229885 C9.57742631,5.22807779 9.74542205,5.29106828 9.88041013,5.41127031 Z" id="路径" fill="#000000" fill-rule="nonzero" transform="translate(12.003462, 11.628680) scale(-1, -1) rotate(90.000000) translate(-12.003462, -11.628680) "></path>
    </g>
</svg>