<svg width="24.000000" height="24.000000" viewBox="0 0 24 24" fill="none" xmlns="http://www.w3.org/2000/svg" xmlns:xlink="http://www.w3.org/1999/xlink">
	<desc>
			Created with Pixso.
	</desc>
	<defs>
		<linearGradient x1="12.000000" y1="0.000000" x2="12.000000" y2="24.000000" id="paint_linear_69_12330_0" gradientUnits="userSpaceOnUse">
			<stop stop-color="#1892FC"/>
			<stop offset="1.000000" stop-color="#0A59F7"/>
		</linearGradient>
	</defs>
	<rect id="ic_page_download" width="24.000000" height="24.000000" fill="#FFFFFF" fill-opacity="0"/>
	<rect id="矩形 11" rx="6.000000" width="24.000000" height="24.000000" fill="url(#paint_linear_69_12330_0)" fill-opacity="1.000000"/>
	<rect id="矩形 11" x="0.500000" y="0.500000" rx="6.000000" width="23.000000" height="23.000000" stroke="#979797" stroke-opacity="0" stroke-width="1.000000"/>
	<mask id="mask69_12335" mask-type="alpha" maskUnits="userSpaceOnUse" x="5.366211" y="5.138672" width="13.299805" height="13.861328">
		<path id="path-1" d="M11.19 18.67C11.65 19.11 12.38 19.1 12.83 18.64L18.45 12.83C18.58 12.68 18.66 12.49 18.66 12.3C18.66 11.88 18.32 11.53 17.9 11.53L15.35 11.53L15.35 6.1C15.35 5.6 14.97 5.19 14.48 5.14L14.38 5.13L9.61 5.13C9.07 5.13 8.64 5.56 8.64 6.1L8.64 11.53L6.09 11.53C5.93 11.53 5.77 11.59 5.64 11.68C5.33 11.98 5.25 12.52 5.54 12.83L11.19 18.67Z" fill="#FFFFFF" fill-opacity="1.000000" fill-rule="nonzero"/>
	</mask>
	<g mask="url(#mask69_12335)">
		<rect id="color/#000000" width="18.000000" height="18.000000" transform="matrix(1 0 0 -1 3 21.7012)" fill="#FFFFFF" fill-opacity="0.898039"/>
		<rect id="color/#000000" width="18.000000" height="18.000000" transform="matrix(1 0 0 -1 3 21.7012)" stroke="#000000" stroke-opacity="0" stroke-width="1.000000"/>
	</g>
</svg>
