<?xml version="1.0" standalone="no"?>
<svg xmlns="http://www.w3.org/2000/svg" width="24" height="24">
    <rect width="24" height="24" opacity="0"></rect>
    <g>
        <path d="M18.43 10.3Q18.34 8.57 17.5 7.18Q16.66 5.78 15.25 4.99Q13.85 4.2 12.17 4.2Q10.22 4.2 8.64 5.32Q7.06 6.43 6.34 8.28Q4.87 8.38 3.65 9.17Q2.42 9.96 1.72 11.24Q1.01 12.53 1.01 14.04Q1.01 15.55 1.78 16.87Q2.54 18.19 3.85 18.98Q5.16 19.78 6.7 19.78L18.26 19.78Q19.56 19.78 20.64 19.14Q21.72 18.5 22.36 17.41Q22.99 16.32 22.99 15.05Q22.99 13.75 22.38 12.68Q21.77 11.62 20.72 10.98Q19.68 10.34 18.43 10.3Z"
              fill="rgba(0,0,0,0.9019607843137255)"></path>
    </g>
</svg>