<?xml version="1.0" encoding="UTF-8"?>
<svg width="24px" height="24px" viewBox="0 0 24 24" version="1.1" xmlns="http://www.w3.org/2000/svg" xmlns:xlink="http://www.w3.org/1999/xlink">
    <title>ic_pro_wb_cloudy</title>
    <defs>
        <path d="M6.65316299,19.3571673 C3.79174498,19.2631946 1.5,16.9147587 1.5,14.031057 C1.5,11.0895276 3.88458077,8.70494681 6.82611022,8.70494681 L6.6503061,8.70830189 C7.54421901,6.30896878 9.8558874,4.6 12.5667068,4.6 C15.871674,4.6 18.5833465,7.14019604 18.855837,10.3747006 C20.9682415,10.7561963 22.5711448,12.605485 22.5711448,14.8291519 C22.5711448,17.3299057 20.5438833,19.3571673 18.0431294,19.3571673 L18.134,19.355 L18.1346734,19.3571673 L6.65316299,19.3571673 Z M3.08300624,14.1107885 C3.08300624,12.142169 4.67888766,10.5462876 6.64750715,10.5462876 C7.36749668,10.5462876 7.6470133,10.2071327 7.89533943,9.50138982 C8.62933016,7.53341477 10.3707612,6.07713197 12.5604139,6.07713197 C15.2599925,6.07713197 17.4484334,8.26557282 17.4484334,10.9651514 C17.4509395,11.2696506 17.5811625,11.6286648 18.2018497,11.7048248 C19.6548807,11.9137854 20.7715383,13.1638395 20.7715383,14.6747028 C20.7715383,16.331881 19.4281299,17.6752894 17.7709517,17.6752894 L6.47261128,17.6752894 L6.47261128,17.6710737 C4.58522924,17.5798842 3.08300624,16.0207678 3.08300624,14.1107885 Z" id="path-1"></path>
    </defs>
    <g id="ic_pro_wb_cloudy" stroke="none" stroke-width="1" fill="none" fill-rule="evenodd">
        <use id="cloudy" fill="#000000" xlink:href="#path-1"></use>
    </g>
</svg>