<?xml version="1.0" encoding="UTF-8"?>
<svg width="24px" height="24px" viewBox="0 0 24 24" version="1.1" xmlns="http://www.w3.org/2000/svg" xmlns:xlink="http://www.w3.org/1999/xlink">
    <title>cloudy备份 2</title>
    <g id="cloudy备份-2" stroke="none" stroke-width="1" fill="none" fill-rule="evenodd">
        <path d="M11.9516177,4.22638273 C9.47650825,4.32727231 7.32561904,5.87796161 6.41693335,8.11869812 L6.35,8.29270572 L6.31098862,8.29536034 C3.34045629,8.51962763 1,11.000918 1,14.0288513 C1,17.2044886 3.57436269,19.7788513 6.75,19.7788513 L18.25,19.7788513 L18.4680253,19.7737306 C21.0092182,19.6490519 23,17.5640148 23,15.0288513 L22.9951121,14.8114233 C22.8880619,12.4353154 21.0352922,10.5137863 18.6888181,10.2988513 L18.455,10.2837057 L18.4423887,10.0149727 C18.2087607,6.77616569 15.5071497,4.22114873 12.2087824,4.22114873 L11.9516177,4.22638273 Z M12.2087824,5.72114873 C14.832135,5.72114873 16.9587824,7.84779616 16.9587824,10.4711487 C16.9587824,10.645602 16.9494098,10.8187565 16.9308179,10.9901547 C16.8777639,11.4792572 17.3020518,11.8861212 17.7885012,11.812616 C17.937073,11.790166 18.0913241,11.7788513 18.25,11.7788513 C20.0449254,11.7788513 21.5,13.2339258 21.5,15.0288513 C21.5,16.7632646 20.1376856,18.190079 18.4128205,18.2748603 L18.2316151,18.2790766 L6.75,18.2788513 C4.40278981,18.2788513 2.5,16.3760615 2.5,14.0288513 C2.5,11.7506767 4.29250701,9.89116453 6.54408366,9.78375221 L6.75,9.77885127 C6.79268503,9.77885127 6.83528445,9.77947817 6.87779035,9.78072935 C7.22472837,9.79094164 7.53335039,9.56176765 7.62389061,9.22669639 C8.17855098,7.17400907 10.0499685,5.72114873 12.2087824,5.72114873 Z" id="形状结合" fill="#000000" fill-rule="nonzero"></path>
    </g>
</svg>