<?xml version="1.0" encoding="UTF-8"?>
<svg width="24px" height="24px" viewBox="0 0 24 24" version="1.1" xmlns="http://www.w3.org/2000/svg" xmlns:xlink="http://www.w3.org/1999/xlink">
    <title>ic_filemanager_collect</title>
    <g id="ic_filemanager_collect" stroke="none" stroke-width="1" fill="none" fill-rule="evenodd" fill-opacity="1">
        <path d="M12.7775436,2.18110217 C13.1226657,2.35143009 13.4020138,2.63077825 13.5723417,2.97590031 L15.5909872,7.06612273 C15.7366492,7.3612662 16.0182148,7.56583558 16.3439249,7.61316403 L20.8577534,8.2690617 C21.8142069,8.40804253 22.4768994,9.29606752 22.3379186,10.252521 C22.2825757,10.6333858 22.1032231,10.9853851 21.8276268,11.2540251 L18.5613898,14.4378192 C18.3257038,14.6675564 18.2181553,14.9985566 18.2737932,15.3229507 L19.0448472,19.8185401 C19.2082289,20.7711289 18.5684502,21.6758018 17.6158614,21.8391836 C17.2365356,21.904243 16.8463415,21.8424424 16.5056856,21.663349 L13.4135001,20.0384126 C13.8890143,19.727286 14.3594108,19.4097689 14.8246852,19.0858631 L17.2036973,20.3356518 C17.2523624,20.3612366 17.3081045,20.3700653 17.3622939,20.3607711 C17.4886577,20.339098 17.5764902,20.2261143 17.5697055,20.1011277 L17.5664347,20.0721077 L16.822127,15.7357869 C16.233717,16.1995826 15.651428,16.6423491 15.0752601,17.0640866 L14.195356,17.6954721 L14.195356,17.6954721 L13.3237321,18.2966267 C12.7197717,18.7050358 12.1071016,19.1026504 11.485722,19.4894705 L10.5471205,20.0616046 L10.5471205,20.0616046 L7.5004216,21.663349 C7.2752958,21.7817046 7.03613819,21.8461366 6.79772797,21.8612389 L6.65488977,21.8644176 C6.03733755,21.8528587 5.44481929,21.514043 5.13709464,20.928716 C4.95800127,20.5880601 4.89620058,20.197866 4.96126006,19.8185401 L5.73231401,15.3229507 C5.78795195,14.9985566 5.68040346,14.6675564 5.44471738,14.4378192 L2.17848044,11.2540251 C1.48638418,10.579398 1.47222264,9.47144978 2.14684976,8.77935351 C2.41548982,8.50375715 2.76748904,8.32440459 3.14835384,8.2690617 L7.66218227,7.61316403 C7.98789244,7.56583558 8.26945802,7.3612662 8.41512003,7.06612273 L10.4337655,2.97590031 C10.8615045,2.10920641 11.9108497,1.75336316 12.7775436,2.18110217 Z M11.9591458,3.50425974 L11.9295308,3.51144531 C11.9186646,3.5147909 11.9080292,3.518872 11.897705,3.5236613 L11.9295308,3.51144531 C11.9108155,3.51720757 11.8927846,3.52515172 11.8758497,3.53513815 L11.897705,3.5236613 C11.8806657,3.53156568 11.8644742,3.54139912 11.8494929,3.55303877 L11.8758497,3.53513815 C11.8564802,3.54656029 11.8385444,3.56065416 11.8226585,3.57721086 L11.8494929,3.55303877 C11.8349373,3.5643476 11.821524,3.57736142 11.8095853,3.59196759 L11.7788696,3.63974888 L9.76022415,7.7299713 C9.65777458,7.93755679 9.5284333,8.12722008 9.37730841,8.29524989 C9.36689578,8.30682704 9.35639741,8.31828256 9.34579765,8.32963452 C9.32154277,8.35561145 9.29672731,8.38107519 9.27139962,8.40598085 C9.25218069,8.42489265 9.23203893,8.44406097 9.21159254,8.46288014 C9.19083435,8.48198762 9.1696972,8.50079105 9.14825426,8.51922504 C9.12322683,8.54074174 9.09772876,8.56179801 9.07182858,8.58233709 C9.05048782,8.59925748 9.02904998,8.61569642 9.00735242,8.63178345 C8.98070846,8.65153988 8.95357168,8.67083457 8.92605691,8.68958262 C8.90492178,8.70398657 8.88336909,8.71819191 8.861597,8.73206323 C8.83077263,8.75169916 8.79964623,8.77058616 8.76810558,8.78879379 C8.74318259,8.80318221 8.71793447,8.81718179 8.69243707,8.83074714 C8.66690923,8.8443284 8.64115119,8.85746478 8.61515443,8.87015872 C8.58903843,8.88291 8.5627448,8.89518656 8.53622226,8.90701087 C8.50335128,8.92166933 8.46990009,8.93572335 8.43611347,8.94905788 C8.41431502,8.95766158 8.3923271,8.96598386 8.37020461,8.97400115 C8.33780879,8.98573818 8.30534491,8.99675143 8.27261388,9.00710667 C8.24147434,9.01696243 8.20981124,9.02629969 8.17791744,9.03501943 C8.15164244,9.04220208 8.12529134,9.04894641 8.09879321,9.05526794 C8.08290893,9.05905871 8.06677784,9.06273982 8.05059453,9.06626389 L7.99067741,9.0785461 C7.97925198,9.08074299 7.96780208,9.08286197 7.95632837,9.08490255 L7.87787975,9.09757456 L3.36405132,9.75347222 C3.30964206,9.76137835 3.25935646,9.78700014 3.22097931,9.82637105 L3.17890006,9.8840533 C3.17582815,9.88986127 3.17300154,9.89576385 3.17042005,9.90174587 C3.16449622,9.91548938 3.15989,9.92954635 3.15655628,9.94383618 L3.17042005,9.90174587 C3.16039885,9.92496773 3.15407137,9.9493867 3.15142628,9.9741157 L3.15655628,9.94383618 C3.15105904,9.96739981 3.14902189,9.99159663 3.15043452,10.0156202 L3.15142628,9.9741157 C3.14920796,9.99485487 3.14957964,10.0158121 3.15253462,10.0364641 L3.15043452,10.0156202 C3.15177872,10.03848 3.15624659,10.061183 3.16382923,10.0830343 L3.15253462,10.0364641 C3.1560908,10.0613179 3.16338839,10.0857297 3.17441573,10.1087875 L3.16382923,10.0830343 C3.17116187,10.1041651 3.18140729,10.1244995 3.19455744,10.143409 L3.22549797,10.1798956 L6.49173491,13.3636897 C6.66864201,13.5361315 6.81667163,13.7313942 6.93345225,13.9421791 C6.9453283,13.9636243 6.95666735,13.9848165 6.96769281,14.0061559 C6.98476849,14.0391876 7.00132004,14.0730656 7.01708883,14.107279 C7.02632136,14.127309 7.03531842,14.1475304 7.0440433,14.1678619 C7.05986772,14.2047409 7.07476697,14.2419027 7.08876354,14.2793914 C7.0954323,14.2972446 7.10202451,14.315541 7.10840225,14.3339108 C7.12028839,14.3681498 7.13140707,14.402569 7.14177572,14.4372171 C7.15287113,14.4742925 7.16311244,14.5116488 7.17248413,14.5492367 C7.17796581,14.571221 7.18315883,14.5933246 7.18805129,14.6155015 C7.19476714,14.6459428 7.20091922,14.6765363 7.20649928,14.7072522 C7.21303576,14.7432118 7.21882288,14.7795927 7.22380648,14.8161176 C7.22506929,14.8253706 7.22629025,14.8347105 7.22745863,14.8440594 C7.23350998,14.8925009 7.23814084,14.9410487 7.24134826,14.9897755 C7.24232171,15.0045421 7.24317605,15.0195675 7.24389477,15.0346081 C7.24594229,15.0774606 7.24688899,15.120425 7.24672221,15.1634723 C7.24660006,15.1963491 7.24581127,15.2296695 7.24435124,15.2630207 C7.24302405,15.2932641 7.2411662,15.3232665 7.23876161,15.3532801 C7.23781128,15.365151 7.23676123,15.3771738 7.23562319,15.3891974 L7.23116275,15.4323326 C7.22880526,15.4533486 7.22617796,15.4743641 7.22327934,15.4953747 L7.21072649,15.5765183 L6.43967255,20.0721077 C6.43037834,20.1262971 6.439207,20.1820392 6.46479177,20.2307043 C6.47959651,20.2588646 6.49901555,20.2830308 6.52163151,20.3027625 C6.53066279,20.3106526 6.5403436,20.3179241 6.55045515,20.3244389 L6.52163151,20.3027625 C6.53713342,20.3162873 6.55413733,20.3277287 6.57218679,20.3369446 L6.55045515,20.3244389 C6.56710435,20.3351658 6.58492135,20.3438411 6.60348569,20.3503341 L6.57218679,20.3369446 C6.59336524,20.3477582 6.61598318,20.355508 6.63930324,20.3599646 L6.60348569,20.3503341 C6.64312221,20.3641974 6.68616551,20.3681125 6.7285231,20.3608073 L6.69635002,20.3642163 C6.71659512,20.3633976 6.73691947,20.3600992 6.75687892,20.3541829 L6.80240991,20.3356518 L7.099,20.179 L9.805,18.756 L10.6857887,18.2205415 C11.8872014,17.4728893 13.0550101,16.6839498 14.1892882,15.8536925 C15.4071484,14.9622557 16.6554139,13.9726393 17.8943402,12.9211537 L18.512841,12.3904233 L20.7806092,10.1798956 C20.8199802,10.1415184 20.845602,10.0912328 20.8535081,10.0368236 L20.8540354,9.96826842 C20.8529596,9.96005442 20.8514789,9.95194487 20.8496114,9.94396401 C20.8467961,9.93189613 20.8430359,9.91997057 20.838433,9.90843378 L20.8496114,9.94396401 C20.8443233,9.92136415 20.8359338,9.89979633 20.8248541,9.87981143 L20.838433,9.90843378 C20.8310465,9.88991982 20.82149,9.87240705 20.8100323,9.85625577 L20.8248541,9.87981143 C20.8138925,9.86003958 20.8002978,9.84181708 20.7844679,9.82567736 L20.8100323,9.85625577 C20.7986234,9.84017326 20.7853296,9.82544067 20.7704162,9.81241371 L20.7844679,9.82567736 C20.771272,9.81222314 20.7565229,9.80021625 20.7404512,9.78996569 L20.7704162,9.81241371 C20.7531723,9.79735099 20.7337631,9.78456866 20.7125991,9.77461661 L20.7404512,9.78996569 C20.7231627,9.77893901 20.7043437,9.7699447 20.6842813,9.7633674 L20.6420559,9.75347222 L16.1282275,9.09757456 C16.0242447,9.08246498 15.9220617,9.060945 15.822156,9.03336169 C15.8041655,9.02839394 15.7863313,9.02325436 15.768573,9.01792197 C15.7427792,9.01017923 15.7169359,9.00195922 15.6912639,8.993332 C15.6551722,8.98119957 15.6196273,8.96834291 15.5844409,8.95470794 C15.5644506,8.94696519 15.5442118,8.93881917 15.5240975,8.93041592 C15.4902091,8.91625327 15.4569534,8.90149173 15.4240667,8.88602772 C15.3932502,8.87154302 15.3624135,8.85626213 15.3319263,8.84036349 C15.3095091,8.82867187 15.2873855,8.81670493 15.2654562,8.80441232 C15.234202,8.78689392 15.2032705,8.76866954 15.1727562,8.74979556 C15.1514954,8.73664709 15.1302994,8.72309229 15.1093158,8.70922318 C15.0811365,8.69059242 15.0536264,8.67160096 15.0265083,8.65206654 C15.0039806,8.63584401 14.9814273,8.61901824 14.9591617,8.60181494 C14.9376716,8.58520978 14.9165082,8.56830141 14.8956203,8.5510498 C14.8659479,8.52653968 14.8369551,8.50144905 14.8085387,8.47569004 C14.7918677,8.46058545 14.7749603,8.44483483 14.7582675,8.42884579 C14.7325411,8.40420326 14.7073573,8.37902888 14.6827016,8.35330431 C14.6663058,8.33619402 14.6503228,8.31903831 14.634574,8.30164885 C14.6079416,8.27224179 14.5819842,8.24217294 14.5567238,8.21145603 C14.5445629,8.1966683 14.5325647,8.18173177 14.520731,8.1666473 C14.4925821,8.13076686 14.465341,8.09401593 14.4390743,8.05645672 C14.4305576,8.04427461 14.4223634,8.03233404 14.4142676,8.02031385 C14.3896373,7.98374779 14.3658596,7.9463473 14.343035,7.90823318 C14.3382863,7.90030262 14.3336394,7.89244488 14.3290331,7.88455729 L14.3060346,7.84432507 C14.2979469,7.82986762 14.2899937,7.81531364 14.2821768,7.80066451 L14.2458831,7.7299713 L12.2272376,3.63974888 C12.2029051,3.59044573 12.1629982,3.55053885 12.113695,3.52620629 L12.076,3.513 L12.0537618,3.50552491 C12.0424329,3.5031707 12.0310424,3.50163027 12.0196677,3.50087735 C11.9990062,3.49954561 11.9788315,3.50073178 11.9591458,3.50425974 Z" id="形状结合" fill="#000000" fill-rule="nonzero"></path>
    </g>
</svg>