<?xml version="1.0" encoding="UTF-8"?>
<svg width="24px" height="24px" viewBox="0 0 24 24" version="1.1" xmlns="http://www.w3.org/2000/svg" xmlns:xlink="http://www.w3.org/1999/xlink">
    <title>ic_filemanager_Sorting</title>
    <g id="ic_filemanager_Sorting" stroke="none" stroke-width="1" fill="none" fill-rule="evenodd" fill-opacity="0.9">
        <path d="M20.875,14.375 C21.2892136,14.375 21.625,14.7107864 21.625,15.125 C21.625,15.5392136 21.2892136,15.875 20.875,15.875 L5.87410678,15.8741068 L5.875,17.1678932 C5.875,17.4440356 5.65114237,17.6678932 5.375,17.6678932 C5.24239176,17.6678932 5.1152148,17.6152148 5.02144661,17.5214466 L2.72855339,15.2285534 C2.53329124,15.0332912 2.53329124,14.7167088 2.72855339,14.5214466 C2.82232158,14.4276784 2.94949854,14.375 3.08210678,14.375 L20.875,14.375 Z M18.875,6.33210678 C19.0076082,6.33210678 19.1347852,6.3847852 19.2285534,6.47855339 L21.5214466,8.77144661 C21.7167088,8.96670876 21.7167088,9.28329124 21.5214466,9.47855339 C21.4276784,9.57232158 21.3005015,9.625 21.1678932,9.625 L3.375,9.625 C2.96078644,9.625 2.625,9.28921356 2.625,8.875 C2.625,8.46078644 2.96078644,8.125 3.375,8.125 L18.3741068,8.12410678 L18.375,6.83210678 C18.375,6.55596441 18.5988576,6.33210678 18.875,6.33210678 Z" id="合并形状" fill="#000000" transform="translate(12.125000, 12.000000) scale(-1, 1) rotate(-270.000000) translate(-12.125000, -12.000000) "></path>
    </g>
</svg>