<?xml version="1.0" encoding="UTF-8"?>
<svg width="24px" height="24px" viewBox="0 0 24 24" version="1.1" xmlns="http://www.w3.org/2000/svg" xmlns:xlink="http://www.w3.org/1999/xlink">
    <!-- Generator: Sketch 63.1 (92452) - https://sketch.com -->
    <title>ic_section  </title>
    <desc>Created with Sketch.</desc>
    <g id="ic_section--" stroke="none" stroke-width="1" fill="none" fill-rule="evenodd">
        <g id="ic_column">
            <rect id="矩形" x="0" y="0" width="24" height="24" rx="1"></rect>
            <path d="M4.39523177,3.85714286 C3.10965441,3.85714286 2.63142632,3.96070087 2.15820639,4.21378166 C1.75105862,4.43152667 1.43152667,4.75105862 1.21378166,5.15820639 C0.960700874,5.63142632 0.857142857,6.10965441 0.857142857,7.39523177 L0.857142857,16.6047682 C0.857142857,17.8903456 0.960700874,18.3685737 1.21378166,18.8417936 C1.43152667,19.2489414 1.75105862,19.5684733 2.15820639,19.7862183 C2.63142632,20.0392991 3.10965441,20.1428571 4.39523177,20.1428571 L19.6047682,20.1428571 C20.8903456,20.1428571 21.3685737,20.0392991 21.8417936,19.7862183 C22.2489414,19.5684733 22.5684733,19.2489414 22.7862183,18.8417936 C23.0392991,18.3685737 23.1428571,17.8903456 23.1428571,16.6047682 L23.1428571,7.39523177 C23.1428571,6.10965441 23.0392991,5.63142632 22.7862183,5.15820639 C22.5684733,4.75105862 22.2489414,4.43152667 21.8417936,4.21378166 C21.3685737,3.96070087 20.8903456,3.85714286 19.6047682,3.85714286 L4.39523177,3.85714286 Z" id="矩形" stroke="#181818" stroke-width="1.71428571"></path>
            <line x1="7.42857143" y1="4.56666667" x2="7.42857143" y2="21" id="路径-7" stroke="#000000" stroke-width="1.71428571"></line>
            <line x1="16.4285714" y1="4.56666667" x2="16.4285714" y2="21" id="路径-7备份" stroke="#000000" stroke-width="1.71428571"></line>
        </g>
    </g>
</svg>