<?xml version="1.0" encoding="utf-8"?>
<!-- Generator: Adobe Illustrator 26.3.1, SVG Export Plug-In . SVG Version: 6.00 Build 0)  -->
<svg version="1.1" id="图层_1" xmlns="http://www.w3.org/2000/svg" xmlns:xlink="http://www.w3.org/1999/xlink" x="0px" y="0px"
	 viewBox="0 0 24 24" style="enable-background:new 0 0 24 24;" xml:space="preserve">
<g id="ic_remove">
	<path id="形状结合" d="M21.25,8.13c0.41,0,0.75,0.34,0.75,0.75v9.37c0,2.07-1.68,3.75-3.75,3.75H5.75C3.68,22,2,20.32,2,18.25
		V8.88c0-0.41,0.34-0.75,0.75-0.75S3.5,8.47,3.5,8.88v9.37c0,1.24,1.01,2.25,2.25,2.25h12.5c1.24,0,2.25-1.01,2.25-2.25V8.88
		C20.5,8.47,20.84,8.13,21.25,8.13z M13.22,2.36l0.08,0.08l4.85,5.22c0.28,0.3,0.26,0.78-0.04,1.06c-0.3,0.28-0.78,0.26-1.06-0.04
		l-4.29-4.61c0,0.03,0.01,0.07,0.01,0.1v12.25c0,0.41-0.34,0.75-0.75,0.75c-0.41,0-0.75-0.34-0.75-0.75V4.17
		c0-0.04,0-0.08,0.01-0.12L6.94,8.68C6.66,8.98,6.18,9,5.88,8.71c-0.3-0.28-0.32-0.76-0.03-1.06l4.9-5.22
		C11.41,1.73,12.51,1.69,13.22,2.36z"/>
</g>
</svg>
