<?xml version="1.0" encoding="UTF-8"?>
<svg width="24px" height="24px" viewBox="0 0 24 24" version="1.1" xmlns="http://www.w3.org/2000/svg" xmlns:xlink="http://www.w3.org/1999/xlink">
    <title>ic_filemanager_ssd</title>
    <g id="ic_filemanager_ssd" stroke="none" stroke-width="1" fill="none" fill-rule="evenodd" fill-opacity="1">
        <path d="M16.7231706,2 C18.7182247,2 20.4082545,3.47009932 20.6846092,5.44592037 L22.3630287,17.4459204 C22.5530584,18.804554 22.0367897,20.099105 21.0942209,20.9585123 C20.4207217,21.6033281 19.5066847,22 18.5,22 L5.5,22 C4.48716063,22 3.56810528,21.5984629 2.89333814,20.9458929 C2.0972183,20.2152846 1.59840992,19.1658938 1.59840992,18 C1.59840992,17.8146364 1.61129477,17.629497 1.63697132,17.4459204 L3.31539077,5.44592037 C3.59174548,3.47009932 5.28177531,2 7.27682937,2 L16.7231706,2 Z M18.5,16 L5.5,16 C4.25735931,16 3.25,17.0073593 3.25,18.25 C3.25,18.8828678 3.5112879,19.4547086 3.93187231,19.8635309 C4.33611395,20.2252428 4.85853436,20.4573287 5.43403423,20.4946823 L5.59840992,20.5 L18.4015901,20.5 C18.5174423,20.5 18.6331545,20.491947 18.7478899,20.4758991 C19.2599998,20.4042712 19.7140494,20.1822443 20.0716523,19.8606891 C20.4901018,19.4516627 20.75,18.8811826 20.75,18.25 C20.75,17.059136 19.8248384,16.0843551 18.6540488,16.0051908 L18.5,16 Z M18.25,17.25 C18.8022847,17.25 19.25,17.6977153 19.25,18.25 C19.25,18.8022847 18.8022847,19.25 18.25,19.25 C17.6977153,19.25 17.25,18.8022847 17.25,18.25 C17.25,17.6977153 17.6977153,17.25 18.25,17.25 Z M16.7231706,3.5 L7.27682937,3.5 C6.08659825,3.5 5.07007025,4.33718208 4.82989466,5.48732214 L4.80093025,5.65370023 L3.4816231,15.0889638 C4.06431159,14.7161329 4.75691552,14.5 5.5,14.5 L18.5,14.5 C19.2435155,14.5 19.9364919,14.7163837 20.5193907,15.0896128 L19.1990698,5.65370023 C19.034199,4.47494336 18.0642783,3.58418142 16.8919569,3.50563851 L16.7231706,3.5 Z" id="形状结合" fill="#000000" fill-rule="nonzero"></path>
    </g>
</svg>