<svg width="24.000000" height="24.000000" viewBox="0 0 24 24" fill="none" xmlns="http://www.w3.org/2000/svg" xmlns:xlink="http://www.w3.org/1999/xlink">
	<desc>
			Created with Pixso.
	</desc>
	<defs/>
	<rect id="矩形" rx="4.000000" width="24.000000" height="24.000000" fill="#F9A01E" fill-opacity="1.000000"/>
	<path id="path" d="M17.48 12C17.61 12 17.72 11.95 17.82 11.86C17.91 11.77 17.96 11.66 17.96 11.53L17.96 8.85C17.96 8.6 17.86 8.38 17.68 8.19L14.68 5.27C14.59 5.18 14.49 5.11 14.37 5.07C14.26 5.02 14.15 5 14.02 5L7.94 5C7.68 5 7.44 5.06 7.22 5.19C6.99 5.32 6.81 5.5 6.69 5.72C6.56 5.94 6.5 6.17 6.5 6.43L6.5 17.55C6.5 17.82 6.56 18.06 6.69 18.28C6.81 18.5 6.99 18.68 7.21 18.8C7.43 18.93 7.67 19 7.94 19L16.52 19C16.78 19 17.02 18.93 17.24 18.8C17.46 18.68 17.64 18.5 17.77 18.28C17.89 18.06 17.96 17.82 17.96 17.55L17.96 14.36C17.96 14.22 17.91 14.1 17.82 14L16.68 12.92L16.68 12.01L17.48 12ZM8.41 7.52L10 7.52L10 10.7L8.41 10.7L8.41 7.52ZM10.64 7.52L12.23 7.52L12.23 10.7L10.64 10.7L10.64 7.52ZM12.86 7.52L14.46 7.52L14.46 10.7L12.86 10.7L12.86 7.52Z" fill="#FFFFFF" fill-opacity="1.000000" fill-rule="nonzero"/>
</svg>
