<?xml version="1.0" encoding="UTF-8"?>
<svg width="20px" height="20px" viewBox="0 0 20 20" version="1.1" xmlns="http://www.w3.org/2000/svg" xmlns:xlink="http://www.w3.org/1999/xlink">
    <title>public/ic_about</title>
    <defs>
        <path d="M9.16666667,0 L9.31796366,0.00122578492 C14.2362588,0.0809683168 18.2035149,4.02999119 18.3302115,8.93208418 L18.3333333,9.17392627 L18.3321369,9.31797809 C18.2523942,14.2362653 14.303365,18.2035152 9.40126421,18.3302115 L9.15942173,18.3333333 L9.01536967,18.3321369 C4.09707454,18.2523944 0.129818385,14.3033715 0.0031218536,9.4012785 L-5.55111512e-16,9.15943641 L0.0011964403,9.01538459 C0.0809390999,4.09709733 4.02996829,0.129819117 8.92516913,0.00312187126 L9.16666667,0 Z M9.16166667,1.24918034 L8.93994757,1.2531874 C4.79746967,1.36979877 1.44159316,4.67177441 1.25800672,8.79979638 L1.25115333,9.02576626 L1.25,9.15943641 C1.25,13.4117213 4.59577401,16.8883523 8.79973245,17.0753249 L9.02575131,17.08218 L9.15942173,17.0833333 C13.4117154,17.0833333 16.8883521,13.7375646 17.0753249,9.53361482 L17.08218,9.30759642 L17.0833333,9.17392627 C17.0833333,4.92164136 13.7375593,1.44501035 9.53384238,1.25803973 L9.30783669,1.25118476 L9.16166667,1.24918034 Z M9.16666667,12.083347 C9.74192708,12.083347 10.2083333,12.5497533 10.2083333,13.1250137 C10.2083333,13.7002741 9.74192708,14.1666803 9.16666667,14.1666803 C8.59140625,14.1666803 8.125,13.7002741 8.125,13.1250137 C8.125,12.5497533 8.59140625,12.083347 9.16666667,12.083347 Z M9.16666667,4.16668034 C9.70121515,4.16668034 10.1345523,4.60001751 10.1345523,5.134566 C10.1345523,5.15824873 10.1336831,5.18192348 10.1319464,5.20554245 L9.72569346,10.7305826 C9.7041613,11.0234201 9.46029466,11.2500137 9.16666667,11.2500137 C8.87303867,11.2500137 8.62917204,11.0234201 8.60763987,10.7305826 L8.20138692,5.20554245 C8.16218771,4.67243317 8.56258093,4.20848546 9.09569021,4.16928625 C9.11930918,4.16754956 9.14298394,4.16668034 9.16666667,4.16668034 Z" id="path-1"></path>
    </defs>
    <g id="页面-1" stroke="none" stroke-width="1" fill="none" fill-rule="evenodd">
        <g id="同步盘_同步失败" transform="translate(-937, -1112)">
            <g id="内容区" transform="translate(640, 342)">
                <g id="统计" transform="translate(0, 760)">
                    <g id="编组-3" transform="translate(297, 10)">
                        <g id="public/ic_about" transform="translate(0.8333, 0.8333)">
                            <mask id="mask-2" fill="white">
                                <use xlink:href="#path-1"></use>
                            </mask>
                            <g id="形状结合" fill-rule="nonzero"></g>
                            <g id="Symbol/color-light/colorPrimary" mask="url(#mask-2)" fill="#E84026">
                                <g transform="translate(-0.8333, -0.8333)" id="color/#000000">
                                    <rect x="0" y="0" width="20" height="20"></rect>
                                </g>
                            </g>
                        </g>
                    </g>
                </g>
            </g>
        </g>
    </g>
</svg>