<svg width="24.000000" height="24.000000" viewBox="0 0 24 24" fill="none" xmlns="http://www.w3.org/2000/svg" xmlns:xlink="http://www.w3.org/1999/xlink">
	<desc>
			Created with Pixso.
	</desc>
	<defs/>
	<rect id="矩形" rx="4.000000" width="24.000000" height="24.000000" fill="#000000" fill-opacity="0.400000"/>
	<path id="path" d="M15.78 16.76C15.78 16.96 15.85 17.13 15.99 17.27C16.14 17.41 16.31 17.48 16.51 17.48C16.71 17.48 16.87 17.41 17.01 17.27C17.15 17.13 17.22 16.96 17.22 16.76C17.22 16.57 17.15 16.4 17.01 16.26C16.87 16.11 16.71 16.04 16.51 16.04C16.31 16.04 16.14 16.11 15.99 16.26C15.85 16.4 15.78 16.57 15.78 16.76ZM19.46 16.42C19.48 16.55 19.5 16.7 19.5 16.85C19.5 17.33 19.37 17.77 19.13 18.17C18.89 18.56 18.56 18.88 18.15 19.12C17.74 19.36 17.29 19.47 16.8 19.47L7.21 19.47C6.72 19.47 6.27 19.35 5.85 19.1C5.43 18.85 5.1 18.52 4.86 18.1C4.62 17.69 4.5 17.23 4.5 16.75L4.5 16.4L5.67 7.55C5.73 7.09 5.91 6.66 6.19 6.28C6.48 5.88 6.84 5.57 7.27 5.34C7.7 5.11 8.15 5 8.61 5L15.38 5C15.84 5 16.29 5.11 16.72 5.34C17.15 5.57 17.5 5.88 17.78 6.28C18.07 6.66 18.24 7.09 18.32 7.55L19.46 16.42ZM16.8 18.38C17.24 18.38 17.62 18.22 17.94 17.9C18.26 17.59 18.42 17.21 18.42 16.76C18.42 16.6 18.41 16.49 18.4 16.42C18.32 16.05 18.13 15.74 17.82 15.5C17.53 15.26 17.19 15.13 16.8 15.13L7.19 15.13C6.8 15.13 6.46 15.26 6.17 15.52C5.86 15.77 5.68 16.07 5.61 16.42L5.57 16.8C5.57 17.23 5.73 17.6 6.05 17.91C6.37 18.23 6.75 18.38 7.21 18.38L16.8 18.38Z" fill="#FFFFFF" fill-opacity="1.000000" fill-rule="nonzero"/>
</svg>
