<svg width="98.000000" height="98.000000" viewBox="0 0 98 98" fill="none" xmlns="http://www.w3.org/2000/svg" xmlns:xlink="http://www.w3.org/1999/xlink">
	<desc>
			Created with Pixso.
	</desc>
	<defs/>
	<rect id="Rectangle Copy 6" width="98.000000" height="98.000000" fill="#E5E5EA" fill-opacity="1.000000"/>
	<path id="󰤵" d="M59.83 41.92Q59.99 42.37 59.99 42.88L59.99 54.88Q59.99 55.34 59.85 55.76Q59.75 56.08 59.58 56.38Q59.39 56.69 59.15 56.94Q58.86 57.25 58.49 57.47Q58.19 57.64 57.87 57.75Q57.45 57.88 56.99 57.88L41 57.88Q40.58 57.88 40.18 57.77Q39.82 57.66 39.49 57.47Q39.07 57.22 38.76 56.87Q38.55 56.65 38.4 56.38Q38.24 56.11 38.15 55.83Q38 55.38 38 54.88L38 42.88Q38 42.33 38.18 41.85Q38.26 41.61 38.4 41.38Q38.57 41.08 38.8 40.83Q39.1 40.52 39.49 40.29Q39.82 40.09 40.18 39.99Q40.58 39.88 41 39.88L56.99 39.88Q57.45 39.88 57.87 40.01Q58.19 40.11 58.49 40.29Q58.83 40.49 59.1 40.76Q59.37 41.04 59.58 41.38Q59.74 41.64 59.83 41.92ZM42.22 41.41Q42.12 41.36 41.99 41.36L41 41.36Q40.71 41.36 40.45 41.46Q40.17 41.57 39.94 41.81Q39.71 42.03 39.6 42.3Q39.49 42.57 39.49 42.88L39.49 44.77Q39.49 44.87 39.52 44.96Q39.56 45.09 39.67 45.19Q39.78 45.3 39.91 45.35Q40 45.37 40.09 45.37L41.89 45.37Q41.99 45.37 42.08 45.34Q42.21 45.3 42.31 45.19Q42.42 45.08 42.46 44.95Q42.49 44.86 42.49 44.77L42.49 41.86Q42.49 41.75 42.45 41.66Q42.41 41.58 42.34 41.51Q42.29 41.45 42.22 41.41ZM57.54 41.46Q57.28 41.36 56.99 41.36L56 41.36Q55.88 41.36 55.78 41.41Q55.7 41.44 55.64 41.51Q55.58 41.57 55.54 41.65Q55.5 41.74 55.5 41.86L55.5 44.77Q55.5 44.87 55.53 44.96Q55.57 45.09 55.67 45.19Q55.79 45.3 55.92 45.35Q56 45.37 56.1 45.37L57.9 45.37Q58.06 45.37 58.19 45.31Q58.27 45.26 58.33 45.19Q58.42 45.09 58.47 44.97Q58.5 44.88 58.5 44.77L58.5 42.88Q58.5 42.57 58.39 42.3Q58.28 42.03 58.05 41.81Q57.82 41.57 57.54 41.46ZM46.81 46.59Q46.74 46.73 46.74 46.91L46.74 50.84Q46.74 51.08 46.85 51.24Q46.88 51.3 46.93 51.35Q47.04 51.45 47.16 51.51Q47.27 51.56 47.39 51.57Q47.58 51.6 47.75 51.54Q47.81 51.52 47.86 51.49L51.25 49.52Q51.32 49.49 51.37 49.45Q51.5 49.35 51.57 49.19Q51.61 49.11 51.63 49.02Q51.66 48.85 51.61 48.67Q51.59 48.61 51.56 48.55Q51.47 48.36 51.25 48.23L47.86 46.26Q47.81 46.23 47.75 46.21Q47.58 46.15 47.39 46.18Q47.29 46.19 47.2 46.23Q47.05 46.29 46.93 46.42Q46.85 46.5 46.81 46.59ZM39.9 50.83Q39.99 50.86 40.09 50.86L41.89 50.86Q42 50.86 42.09 50.83Q42.21 50.79 42.31 50.69Q42.42 50.58 42.46 50.44Q42.49 50.36 42.49 50.27L42.49 47.48Q42.49 47.38 42.46 47.29Q42.42 47.17 42.31 47.07Q42.21 46.96 42.08 46.92Q41.99 46.89 41.89 46.89L40.09 46.89Q39.98 46.89 39.89 46.92Q39.77 46.96 39.67 47.06Q39.6 47.11 39.56 47.19Q39.49 47.31 39.49 47.48L39.49 50.27Q39.49 50.37 39.52 50.45Q39.56 50.58 39.67 50.69Q39.77 50.79 39.9 50.83ZM58.47 50.46Q58.5 50.37 58.5 50.27L58.5 47.48Q58.5 47.3 58.42 47.17Q58.38 47.11 58.33 47.06Q58.28 47 58.21 46.96Q58.08 46.89 57.9 46.89L56.1 46.89Q55.99 46.89 55.9 46.92Q55.78 46.96 55.67 47.06Q55.61 47.11 55.57 47.19Q55.5 47.31 55.5 47.48L55.5 50.27Q55.5 50.37 55.53 50.45Q55.57 50.58 55.67 50.69Q55.78 50.79 55.91 50.83Q56 50.86 56.1 50.86L57.9 50.86Q58.07 50.86 58.2 50.79Q58.27 50.75 58.33 50.69Q58.42 50.59 58.47 50.46ZM40.41 56.25Q40.69 56.36 41 56.36L41.99 56.36Q42.13 56.36 42.24 56.3Q42.29 56.27 42.34 56.22Q42.44 56.12 42.47 56.01Q42.49 55.95 42.49 55.89L42.49 52.98Q42.49 52.88 42.46 52.79Q42.42 52.67 42.31 52.56Q42.21 52.46 42.08 52.41Q41.99 52.38 41.89 52.38L40.09 52.38Q39.98 52.38 39.89 52.41Q39.77 52.46 39.67 52.55Q39.6 52.61 39.56 52.68Q39.49 52.81 39.49 52.98L39.49 54.88Q39.49 55.19 39.6 55.45Q39.71 55.72 39.94 55.93Q40.15 56.14 40.41 56.25ZM58.21 52.46Q58.08 52.38 57.9 52.38L56.1 52.38Q55.99 52.38 55.9 52.41Q55.78 52.46 55.67 52.55Q55.61 52.61 55.57 52.68Q55.5 52.81 55.5 52.98L55.5 55.89Q55.5 55.95 55.52 56.01Q55.55 56.13 55.64 56.22Q55.7 56.27 55.76 56.31Q55.87 56.36 56 56.36L56.99 56.36Q57.3 56.36 57.58 56.25Q57.84 56.14 58.05 55.93Q58.28 55.72 58.39 55.45Q58.5 55.19 58.5 54.88L58.5 52.98Q58.5 52.8 58.42 52.67Q58.38 52.6 58.33 52.55Q58.28 52.5 58.21 52.46Z" fill="#000000" fill-opacity="0.200000" fill-rule="evenodd"/>
</svg>
