<?xml version="1.0" encoding="UTF-8"?><svg id="_层_1" xmlns="http://www.w3.org/2000/svg" xmlns:xlink="http://www.w3.org/1999/xlink" viewBox="0 0 24 24"><defs><style>.cls-1{mask:url(#mask);}.cls-2,.cls-3{fill:#fff;}.cls-4{fill:#0a59f7;}.cls-4,.cls-3{fill-rule:evenodd;}</style><mask id="mask" x="2" y="2" width="20" height="20" maskUnits="userSpaceOnUse"><g id="mask-2"><path id="path-1-2" class="cls-3" d="M12,22c5.52,0,10-4.48,10-10S17.52,2,12,2,2,6.48,2,12s4.48,10,10,10Z"/></g></mask></defs><g id="_版"><path id="path-1" class="cls-4" d="M12,22c5.52,0,10-4.48,10-10S17.52,2,12,2,2,6.48,2,12s4.48,10,10,10Z"/></g><g class="cls-1"><path id="_状" class="cls-2" d="M14.65,9.99v-1.78c0-.49-.12-.93-.36-1.33-.24-.4-.56-.72-.96-.96-.4-.24-.84-.36-1.33-.36s-.93,.12-1.34,.36c-.41,.24-.73,.56-.97,.96s-.36,.84-.36,1.33v1.78h-.67c-.45,0-.83,.16-1.15,.47s-.48,.7-.48,1.15v4.56c0,.45,.16,.83,.47,1.15,.31,.32,.7,.48,1.16,.48h6.66c.45,0,.83-.16,1.15-.48,.32-.32,.48-.7,.48-1.15v-4.56c0-.45-.16-.83-.47-1.15-.31-.32-.7-.48-1.16-.48h-.69Zm-4.42-1.78c0-.32,.08-.61,.24-.89,.16-.28,.38-.49,.65-.65,.28-.16,.57-.24,.89-.24s.61,.08,.89,.24c.28,.16,.49,.38,.65,.65,.16,.28,.24,.57,.24,.89v1.78h-3.56v-1.78Zm2.86,4.97c0,.21-.06,.41-.17,.58-.11,.17-.26,.3-.45,.39v1.18c0,.12-.04,.22-.13,.31-.08,.08-.19,.13-.31,.13s-.23-.04-.31-.13c-.09-.08-.13-.19-.13-.31v-1.15c-.2-.08-.35-.22-.48-.4s-.18-.38-.18-.59c0-.3,.11-.55,.32-.76,.21-.21,.47-.31,.76-.31s.55,.1,.76,.31c.21,.21,.32,.46,.32,.76Z"/></g></svg>