<svg width="40.000000" height="40.000000" viewBox="0 0 40 40" fill="none" xmlns="http://www.w3.org/2000/svg" xmlns:xlink="http://www.w3.org/1999/xlink">
	<desc>
			Created with Pixso.
	</desc>
	<defs/>
	<rect id="垃圾文件" width="40.000000" height="40.000000" fill="#FFFFFF" fill-opacity="0"/>
	<circle id="椭圆 2" cx="20.000000" cy="20.000000" r="20.000000" fill="#000000" fill-opacity="0.400000"/>
	<path id="path" d="M24.78 30.99C25.14 30.99 25.49 30.9 25.82 30.73C26.14 30.55 26.41 30.3 26.62 30C26.83 29.68 26.95 29.33 26.98 28.95L28.16 15.51C28.17 15.35 28.13 15.22 28.03 15.12C27.92 15.01 27.79 14.96 27.63 14.96L12.37 14.96C12.21 14.96 12.07 15.01 11.97 15.12C11.87 15.22 11.82 15.35 11.84 15.51L13.02 28.95C13.04 29.33 13.16 29.68 13.38 30C13.58 30.3 13.85 30.55 14.17 30.73C14.49 30.9 14.84 30.99 15.22 30.99L24.78 30.99ZM21.85 27.18C21.62 27.18 21.43 27.1 21.27 26.94C21.11 26.78 21.04 26.59 21.06 26.38L21.34 19.02C21.34 18.8 21.41 18.62 21.56 18.49C21.7 18.34 21.89 18.27 22.11 18.27C22.33 18.29 22.53 18.37 22.69 18.52C22.85 18.67 22.92 18.86 22.9 19.09L22.64 26.43C22.62 26.65 22.54 26.83 22.4 26.97C22.25 27.11 22.07 27.18 21.85 27.18ZM18.18 27.18C17.95 27.18 17.76 27.11 17.62 26.97C17.48 26.83 17.4 26.65 17.37 26.43L17.1 19.09C17.08 18.86 17.14 18.67 17.29 18.52C17.45 18.37 17.64 18.29 17.86 18.27C18.08 18.25 18.27 18.32 18.43 18.45C18.58 18.6 18.66 18.79 18.66 19.02L18.96 26.38C18.98 26.59 18.91 26.78 18.75 26.94C18.59 27.1 18.4 27.18 18.18 27.18ZM23.96 12.15C23.78 11.25 23.33 10.51 22.6 9.91C21.87 9.31 21.04 9.01 20.1 9.01C19.15 9.01 18.31 9.31 17.59 9.91C16.86 10.51 16.41 11.25 16.23 12.15L11 12.15C10.79 12.15 10.61 12.22 10.45 12.38C10.29 12.53 10.21 12.72 10.21 12.94C10.21 13.15 10.29 13.34 10.45 13.5C10.61 13.66 10.79 13.74 11 13.74L16.78 13.74L23.46 13.74L29 13.71C29.22 13.71 29.41 13.63 29.56 13.48C29.71 13.33 29.79 13.15 29.79 12.94C29.79 12.72 29.71 12.53 29.56 12.38C29.41 12.22 29.22 12.15 29 12.15L23.96 12.15Z" fill="#FFFFFF" fill-opacity="1.000000" fill-rule="nonzero"/>
</svg>
