<?xml version="1.0" standalone="no"?>
<svg xmlns="http://www.w3.org/2000/svg" width="24" height="24"><rect width="24" height="24" opacity="0"></rect><g><path d="M5.04 1.97Q4.22 1.97 3.52 2.38Q2.81 2.78 2.4 3.49Q1.99 4.2 1.99 5.04L1.99 17.95Q1.99 18.77 2.4 19.48Q2.81 20.18 3.52 20.59Q4.22 21 5.04 21L6.02 21L6.02 21.48Q6.02 21.72 6.18 21.88Q6.34 22.03 6.55 22.03L7.46 22.03Q7.68 22.03 7.84 21.88Q7.99 21.72 7.99 21.48L7.99 21L16.01 21L16.01 21.48Q16.01 21.72 16.16 21.88Q16.32 22.03 16.54 22.03L17.45 22.03Q17.69 22.03 17.84 21.88Q18 21.72 18 21.48L18 21L18.96 21Q19.78 21 20.48 20.59Q21.19 20.18 21.6 19.48Q22.01 18.77 22.01 17.95L22.01 5.04Q22.01 4.2 21.6 3.49Q21.19 2.78 20.48 2.38Q19.78 1.97 18.96 1.97L5.04 1.97ZM20.52 17.95Q20.52 18.58 20.05 19.03Q19.58 19.49 18.96 19.49L5.04 19.49Q4.39 19.49 3.94 19.03Q3.48 18.58 3.48 17.95L3.48 5.04Q3.48 4.39 3.94 3.94Q4.39 3.48 5.04 3.48L18.96 3.48Q19.58 3.48 20.05 3.94Q20.52 4.39 20.52 5.04L20.52 17.95ZM6.74 5.93Q6.43 5.93 6.22 6.14Q6 6.36 6 6.67L6 16.27Q6 16.58 6.22 16.81Q6.43 17.04 6.74 17.04Q7.06 17.04 7.27 16.81Q7.49 16.58 7.49 16.27L7.49 6.67Q7.49 6.36 7.27 6.14Q7.06 5.93 6.74 5.93ZM14.02 7.51Q12.94 7.51 12.02 8.05Q11.11 8.59 10.57 9.52Q10.03 10.44 10.03 11.52Q10.03 12.6 10.57 13.51Q11.11 14.42 12.02 14.96Q12.94 15.5 14.02 15.5Q15.1 15.5 16.02 14.96Q16.94 14.42 17.48 13.51Q18.02 12.6 18.02 11.52Q18.02 10.44 17.48 9.52Q16.94 8.59 16.02 8.05Q15.1 7.51 14.02 7.51ZM14.02 14.02Q13.34 14.02 12.77 13.68Q12.19 13.34 11.86 12.77Q11.52 12.19 11.52 11.52Q11.52 10.85 11.86 10.26Q12.19 9.67 12.77 9.34Q13.34 9 14.02 9Q15.05 9 15.78 9.73Q16.51 10.46 16.51 11.52Q16.51 12.19 16.18 12.77Q15.84 13.34 15.26 13.68Q14.69 14.02 14.02 14.02ZM14.02 10.51Q13.63 10.51 13.33 10.8Q13.03 11.09 13.03 11.5Q13.03 11.76 13.18 11.99Q13.32 12.22 13.56 12.36L13.56 12.53Q13.56 12.72 13.72 12.86Q13.87 13.01 14.06 13.01Q14.26 13.01 14.4 12.86Q14.54 12.72 14.54 12.53L14.54 12.31Q15 11.98 15 11.5Q15 11.09 14.71 10.8Q14.42 10.51 14.02 10.51Z" fill="rgba(0,0,0,0.9019607843137255)"></path></g></svg>