<svg width="56.000000" height="56.000000" viewBox="0 0 56 56" fill="none" xmlns="http://www.w3.org/2000/svg" xmlns:xlink="http://www.w3.org/1999/xlink">
	<desc>
			Created with Pixso.
	</desc>
	<defs/>
	<g style="mix-blend-mode:multiply">
		<path id="path" d="M38.6 50.63C39.34 50.63 40.03 50.46 40.68 50.11C41.34 49.75 41.87 49.27 42.28 48.65C42.71 48.03 42.95 47.33 43 46.55L45.36 19.67C45.39 19.35 45.3 19.09 45.1 18.89C44.89 18.68 44.62 18.57 44.3 18.57L13.78 18.57C13.46 18.57 13.2 18.68 12.98 18.89C12.78 19.09 12.7 19.35 12.72 19.67L15.08 46.55C15.14 47.33 15.38 48.03 15.8 48.65C16.22 49.27 16.74 49.75 17.38 50.11C18.02 50.46 18.72 50.63 19.48 50.63L38.6 50.63ZM32.74 43.01C32.29 43.01 31.9 42.85 31.58 42.53C31.26 42.21 31.12 41.84 31.16 41.41L31.72 26.69C31.72 26.27 31.87 25.91 32.16 25.63C32.46 25.34 32.82 25.19 33.26 25.19C33.72 25.23 34.1 25.4 34.42 25.69C34.74 26 34.88 26.38 34.84 26.83L34.32 41.51C34.3 41.97 34.14 42.33 33.84 42.59C33.55 42.87 33.18 43.01 32.74 43.01ZM25.4 43.01C24.95 43.01 24.58 42.87 24.28 42.59C24 42.33 23.84 41.97 23.8 41.51L23.24 26.83C23.2 26.38 23.34 26 23.64 25.69C23.95 25.4 24.32 25.23 24.76 25.19C25.22 25.17 25.6 25.29 25.9 25.57C26.21 25.87 26.36 26.24 26.36 26.69L26.98 41.41C27.01 41.84 26.86 42.21 26.54 42.53C26.22 42.85 25.84 43.01 25.4 43.01Z" fill="#4191FF" fill-opacity="1.000000" fill-rule="nonzero"/>
	</g>
	<g style="mix-blend-mode:multiply">
		<path id="path" d="M36.1 11.84C35.51 10.12 34.4 8.76 32.78 7.78C31.18 6.79 29.44 6.43 27.58 6.69C25.71 6.96 24.13 7.78 22.86 9.17C21.59 10.56 20.9 12.17 20.79 13.99L10.43 15.44C10.02 15.5 9.68 15.7 9.41 16.05C9.13 16.4 9.03 16.79 9.09 17.23C9.15 17.65 9.36 18 9.72 18.27C10.08 18.54 10.47 18.65 10.88 18.59L22.32 16.98L35.55 15.12L46.52 13.52C46.97 13.46 47.31 13.26 47.56 12.91C47.83 12.58 47.93 12.2 47.87 11.78C47.81 11.34 47.6 10.99 47.26 10.73C46.92 10.47 46.53 10.37 46.08 10.43L36.1 11.84Z" fill="#4191FF" fill-opacity="1.000000" fill-rule="nonzero"/>
	</g>
</svg>
