<?xml version="1.0" encoding="UTF-8"?>
<svg width="24px" height="24px" viewBox="0 0 24 24" version="1.1" xmlns="http://www.w3.org/2000/svg" xmlns:xlink="http://www.w3.org/1999/xlink">
    <title>xxxhdpi/最近高亮</title>
    <defs>
        <path d="M10.665026,0.501337281 L10.4999672,0.5 C5.03867924,0.5 0.589691154,4.88161128 0.501273214,10.3349724 L0.499967185,10.4923159 C0.499967185,15.9613192 4.88154722,20.4103073 10.3349084,20.4987252 L10.4922518,20.5000313 C15.9612551,20.5000313 20.4102432,16.1184512 20.4986612,10.6650901 L20.4999672,10.5077466 C20.4999672,5.0387433 16.1183872,0.589755221 10.665026,0.501337281 Z" id="path-1"></path>
    </defs>
    <g id="RR2云盘" stroke="none" stroke-width="1" fill="none" fill-rule="evenodd">
        <g id="编组-2" transform="translate(1.500033, 1.500000)">
            <mask id="mask-2" fill="white">
                <use xlink:href="#path-1"></use>
            </mask>
            <use id="路径" fill="#254FF7" xlink:href="#path-1"></use>
            <g id="编组" mask="url(#mask-2)" fill="#FFFFFF" fill-opacity="0.8" fill-rule="nonzero">
                <g transform="translate(9.499967, 4.250000)" id="路径-24">
                    <path d="M2.89433283,7.14317887 L5.95589765,10.3019125 C6.34144073,10.6973553 6.33341544,11.3304694 5.93797268,11.7160125 C5.55571133,12.0887041 4.95135932,12.093628 4.56323429,11.7363401 L4.52387272,11.6980875 L1.38690635,8.46260491 C2.09353128,8.3240981 2.66682039,7.8134758 2.89433283,7.14317887 Z M1,0 C1.55228475,-1.01453063e-16 2,0.44771525 2,1 L2,6.5 C2,7.01283584 1.61395981,7.43550716 1.11662113,7.49327227 L1,7.5 L1,7.5 C0.459617939,7.5 0.0193466412,7.07137487 0.000620425074,6.53555892 L0,6.5 L0,6.5 L0,1 C-6.76353751e-17,0.44771525 0.44771525,1.01453063e-16 1,0 Z"></path>
                </g>
            </g>
        </g>
    </g>
</svg>