<?xml version="1.0" encoding="UTF-8"?>
<svg width="24px" height="24px" viewBox="0 0 24 24" version="1.1" xmlns="http://www.w3.org/2000/svg" xmlns:xlink="http://www.w3.org/1999/xlink">
    <title>xxxhdpi/最近灰</title>
    <defs>
        <circle id="path-1" cx="10.7675081" cy="10.7675081" r="10.7675081"></circle>
    </defs>
    <g id="RR2云盘" stroke="none" stroke-width="1" fill="none" fill-rule="evenodd">
        <g id="编组" transform="translate(1.252036, 1.252036)">
            <mask id="mask-2" fill="white">
                <use xlink:href="#path-1"></use>
            </mask>
            <use id="蒙版" fill-opacity="0.2" fill="#FFFFFF" xlink:href="#path-1"></use>
            <path d="M12.4055313,11.3928267 L16.444253,15.4319468 C16.7376233,15.7253171 16.7376233,16.2009642 16.444253,16.4943345 C16.1508828,16.7877047 15.6752357,16.7877047 15.3818654,16.4943345 L11.3195499,12.4316595 C11.8189016,12.2660969 12.2186553,11.8820594 12.4055313,11.3928267 Z M10.7675081,3.75610749 C11.1823963,3.75610749 11.5187296,4.09244081 11.5187296,4.50732899 L11.5187296,10.7675081 C11.5187296,11.1823963 11.1823963,11.5187296 10.7675081,11.5187296 C10.35262,11.5187296 10.0162866,11.1823963 10.0162866,10.7675081 L10.0162866,4.50732899 C10.0162866,4.09244081 10.35262,3.75610749 10.7675081,3.75610749 Z" id="形状结合" fill-opacity="0.25" fill="#000000" mask="url(#mask-2)"></path>
        </g>
    </g>
</svg>